%TF.GenerationSoftware,KiCad,Pcbnew,10.0.2*%
%TF.CreationDate,2026-06-22T21:47:42-04:00*%
%TF.ProjectId,nrf54l15-stick,6e726635-346c-4313-952d-737469636b2e,rev?*%
%TF.SameCoordinates,Original*%
%TF.FileFunction,Copper,L3,Inr*%
%TF.FilePolarity,Positive*%
%FSLAX46Y46*%
G04 Gerber Fmt 4.6, Leading zero omitted, Abs format (unit mm)*
G04 Created by KiCad (PCBNEW 10.0.2) date 2026-06-22 21:47:42*
%MOMM*%
%LPD*%
G01*
G04 APERTURE LIST*
G04 Aperture macros list*
%AMRoundRect*
0 Rectangle with rounded corners*
0 $1 Rounding radius*
0 $2 $3 $4 $5 $6 $7 $8 $9 X,Y pos of 4 corners*
0 Add a 4 corners polygon primitive as box body*
4,1,4,$2,$3,$4,$5,$6,$7,$8,$9,$2,$3,0*
0 Add four circle primitives for the rounded corners*
1,1,$1+$1,$2,$3*
1,1,$1+$1,$4,$5*
1,1,$1+$1,$6,$7*
1,1,$1+$1,$8,$9*
0 Add four rect primitives between the rounded corners*
20,1,$1+$1,$2,$3,$4,$5,0*
20,1,$1+$1,$4,$5,$6,$7,0*
20,1,$1+$1,$6,$7,$8,$9,0*
20,1,$1+$1,$8,$9,$2,$3,0*%
G04 Aperture macros list end*
%TA.AperFunction,ComponentPad*%
%ADD10RoundRect,0.300000X-0.700000X-1.450000X0.700000X-1.450000X0.700000X1.450000X-0.700000X1.450000X0*%
%TD*%
%TA.AperFunction,ViaPad*%
%ADD11C,0.500000*%
%TD*%
%TA.AperFunction,ViaPad*%
%ADD12C,0.450000*%
%TD*%
G04 APERTURE END LIST*
D10*
%TO.N,GND*%
%TO.C,J1*%
X100950000Y-98000000D03*
X112650000Y-98000000D03*
%TD*%
D11*
%TO.N,GND*%
X109200000Y-92010000D03*
D12*
X104400000Y-87400000D03*
X110844050Y-84144751D03*
X111712926Y-90126731D03*
X109200000Y-94600000D03*
X102600000Y-96800000D03*
X101600000Y-88400000D03*
X107600000Y-86200000D03*
X108573657Y-88075801D03*
X102000000Y-90000000D03*
X107000000Y-95600000D03*
X106000000Y-90200000D03*
%TO.N,/LED_RED*%
X112800000Y-91600000D03*
%TO.N,VDD*%
X103347500Y-92777500D03*
X111657337Y-91648556D03*
X111550000Y-92700000D03*
X105400000Y-84800000D03*
X109800000Y-86400000D03*
D11*
X101670000Y-93740000D03*
D12*
%TO.N,/P1.01{slash}XTAL*%
X104662500Y-91936100D03*
%TO.N,/P1.00{slash}XTAL*%
X105959200Y-91965800D03*
%TO.N,/LED_BLUE*%
X113040000Y-89960000D03*
%TO.N,/UART_nRF_TX*%
X107250000Y-88282500D03*
%TO.N,/UART_nRF_RX*%
X111560000Y-89080000D03*
%TO.N,/~{RESET}*%
X104389283Y-91430155D03*
X102343400Y-85798300D03*
%TO.N,/BUTTON*%
X108240000Y-85440000D03*
%TO.N,Net-(J2-Pin_3)*%
X107960000Y-84930000D03*
%TO.N,Net-(J2-Pin_2)*%
X110492800Y-84600000D03*
D11*
%TO.N,+5V*%
X109157800Y-95894500D03*
D12*
%TO.N,Net-(J1-D-)*%
X106922400Y-95009900D03*
%TO.N,Net-(J1-D+)*%
X107000000Y-96550000D03*
%TO.N,Net-(D7-A)*%
X111200000Y-85800000D03*
X112020000Y-88240000D03*
%TO.N,Net-(D8-A)*%
X102480000Y-98110000D03*
X102326200Y-87038400D03*
%TO.N,Net-(U4-D+)*%
X111975000Y-93490000D03*
X111816971Y-90692242D03*
%TD*%
%TA.AperFunction,Conductor*%
%TO.N,VDD*%
G36*
X110501256Y-83914852D02*
G01*
X110515608Y-83949500D01*
X110509043Y-83974000D01*
X110494140Y-83999810D01*
X110494139Y-83999814D01*
X110468550Y-84095313D01*
X110468550Y-84180152D01*
X110454198Y-84214800D01*
X110432233Y-84227482D01*
X110347861Y-84250090D01*
X110347859Y-84250090D01*
X110262237Y-84299525D01*
X110262237Y-84299526D01*
X110192326Y-84369437D01*
X110192325Y-84369437D01*
X110142890Y-84455059D01*
X110142889Y-84455063D01*
X110117300Y-84550562D01*
X110117300Y-84649437D01*
X110142889Y-84744936D01*
X110142890Y-84744940D01*
X110166056Y-84785063D01*
X110192325Y-84830562D01*
X110262238Y-84900475D01*
X110293576Y-84918568D01*
X110347859Y-84949909D01*
X110347861Y-84949909D01*
X110347862Y-84949910D01*
X110371737Y-84956307D01*
X110443362Y-84975500D01*
X110443365Y-84975500D01*
X110542237Y-84975500D01*
X110589986Y-84962705D01*
X110637738Y-84949910D01*
X110723362Y-84900475D01*
X110793275Y-84830562D01*
X110842710Y-84744938D01*
X110855505Y-84697186D01*
X110868300Y-84649437D01*
X110868300Y-84564598D01*
X110882652Y-84529950D01*
X110904618Y-84517268D01*
X110924751Y-84511873D01*
X110988988Y-84494661D01*
X111074612Y-84445226D01*
X111144525Y-84375313D01*
X111193960Y-84289689D01*
X111206755Y-84241937D01*
X111219550Y-84194188D01*
X111219550Y-84095313D01*
X111193960Y-83999814D01*
X111193959Y-83999810D01*
X111179057Y-83974000D01*
X111174162Y-83936818D01*
X111196992Y-83907065D01*
X111221492Y-83900500D01*
X113250500Y-83900500D01*
X113285148Y-83914852D01*
X113299500Y-83949500D01*
X113299500Y-89591362D01*
X113285148Y-89626010D01*
X113250500Y-89640362D01*
X113226000Y-89633797D01*
X113184940Y-89610090D01*
X113184936Y-89610089D01*
X113089438Y-89584500D01*
X113089435Y-89584500D01*
X112990565Y-89584500D01*
X112990562Y-89584500D01*
X112895063Y-89610089D01*
X112895059Y-89610090D01*
X112809437Y-89659525D01*
X112809437Y-89659526D01*
X112739526Y-89729437D01*
X112739525Y-89729437D01*
X112690090Y-89815059D01*
X112690089Y-89815063D01*
X112664500Y-89910562D01*
X112664500Y-90009437D01*
X112690089Y-90104936D01*
X112690090Y-90104940D01*
X112739525Y-90190562D01*
X112809438Y-90260475D01*
X112828823Y-90271667D01*
X112895059Y-90309909D01*
X112895061Y-90309909D01*
X112895062Y-90309910D01*
X112918937Y-90316307D01*
X112990562Y-90335500D01*
X112990565Y-90335500D01*
X113089437Y-90335500D01*
X113137186Y-90322705D01*
X113184938Y-90309910D01*
X113226002Y-90286201D01*
X113263181Y-90281306D01*
X113292935Y-90304136D01*
X113299500Y-90328637D01*
X113299500Y-96050500D01*
X113285148Y-96085148D01*
X113250500Y-96099500D01*
X111895724Y-96099500D01*
X111865301Y-96102353D01*
X111865300Y-96102353D01*
X111737123Y-96147204D01*
X111737114Y-96147208D01*
X111627849Y-96227849D01*
X111547208Y-96337114D01*
X111547204Y-96337123D01*
X111502353Y-96465300D01*
X111502353Y-96465301D01*
X111499500Y-96495724D01*
X111499500Y-99504275D01*
X111502353Y-99534698D01*
X111502353Y-99534699D01*
X111547204Y-99662876D01*
X111547208Y-99662885D01*
X111627849Y-99772150D01*
X111737114Y-99852791D01*
X111737117Y-99852792D01*
X111737118Y-99852793D01*
X111737120Y-99852793D01*
X111737123Y-99852795D01*
X111865301Y-99897646D01*
X111895734Y-99900500D01*
X113250500Y-99900500D01*
X113285148Y-99914852D01*
X113299500Y-99949500D01*
X113299500Y-100450500D01*
X113285148Y-100485148D01*
X113250500Y-100499500D01*
X100349500Y-100499500D01*
X100314852Y-100485148D01*
X100300500Y-100450500D01*
X100300500Y-99949500D01*
X100314852Y-99914852D01*
X100349500Y-99900500D01*
X101704256Y-99900500D01*
X101704266Y-99900500D01*
X101734699Y-99897646D01*
X101862882Y-99852793D01*
X101972150Y-99772150D01*
X102052793Y-99662882D01*
X102097646Y-99534699D01*
X102100500Y-99504266D01*
X102100500Y-98379833D01*
X102114852Y-98345185D01*
X102149500Y-98330833D01*
X102184148Y-98345185D01*
X102249438Y-98410475D01*
X102280776Y-98428568D01*
X102335059Y-98459909D01*
X102335061Y-98459909D01*
X102335062Y-98459910D01*
X102358937Y-98466307D01*
X102430562Y-98485500D01*
X102430565Y-98485500D01*
X102529437Y-98485500D01*
X102577186Y-98472705D01*
X102624938Y-98459910D01*
X102710562Y-98410475D01*
X102780475Y-98340562D01*
X102829910Y-98254938D01*
X102842705Y-98207186D01*
X102855500Y-98159437D01*
X102855500Y-98060562D01*
X102829910Y-97965063D01*
X102829909Y-97965059D01*
X102817318Y-97943251D01*
X102804559Y-97921152D01*
X103749500Y-97921152D01*
X103749500Y-98078847D01*
X103780260Y-98233487D01*
X103780263Y-98233498D01*
X103826525Y-98345185D01*
X103840606Y-98379179D01*
X103894548Y-98459909D01*
X103911647Y-98485500D01*
X103928211Y-98510289D01*
X104039711Y-98621789D01*
X104170821Y-98709394D01*
X104316503Y-98769737D01*
X104316509Y-98769738D01*
X104316512Y-98769739D01*
X104471152Y-98800499D01*
X104471158Y-98800500D01*
X104628842Y-98800500D01*
X104783497Y-98769737D01*
X104929179Y-98709394D01*
X105060289Y-98621789D01*
X105171789Y-98510289D01*
X105259394Y-98379179D01*
X105319737Y-98233497D01*
X105350500Y-98078842D01*
X105350500Y-97921158D01*
X105350499Y-97921152D01*
X108249500Y-97921152D01*
X108249500Y-98078847D01*
X108280260Y-98233487D01*
X108280263Y-98233498D01*
X108326525Y-98345185D01*
X108340606Y-98379179D01*
X108394548Y-98459909D01*
X108411647Y-98485500D01*
X108428211Y-98510289D01*
X108539711Y-98621789D01*
X108670821Y-98709394D01*
X108816503Y-98769737D01*
X108816509Y-98769738D01*
X108816512Y-98769739D01*
X108971152Y-98800499D01*
X108971158Y-98800500D01*
X109128842Y-98800500D01*
X109283497Y-98769737D01*
X109429179Y-98709394D01*
X109560289Y-98621789D01*
X109671789Y-98510289D01*
X109759394Y-98379179D01*
X109819737Y-98233497D01*
X109850500Y-98078842D01*
X109850500Y-97921158D01*
X109844137Y-97889167D01*
X109819739Y-97766512D01*
X109819736Y-97766501D01*
X109759394Y-97620821D01*
X109671789Y-97489711D01*
X109560289Y-97378211D01*
X109429179Y-97290606D01*
X109429176Y-97290604D01*
X109429175Y-97290604D01*
X109283498Y-97230263D01*
X109283487Y-97230260D01*
X109128847Y-97199500D01*
X109128842Y-97199500D01*
X108971158Y-97199500D01*
X108971152Y-97199500D01*
X108816512Y-97230260D01*
X108816501Y-97230263D01*
X108670824Y-97290604D01*
X108539711Y-97378210D01*
X108428210Y-97489711D01*
X108340604Y-97620824D01*
X108280263Y-97766501D01*
X108280260Y-97766512D01*
X108249500Y-97921152D01*
X105350499Y-97921152D01*
X105344137Y-97889167D01*
X105319739Y-97766512D01*
X105319736Y-97766501D01*
X105259394Y-97620821D01*
X105171789Y-97489711D01*
X105060289Y-97378211D01*
X104929179Y-97290606D01*
X104929176Y-97290604D01*
X104929175Y-97290604D01*
X104783498Y-97230263D01*
X104783487Y-97230260D01*
X104628847Y-97199500D01*
X104628842Y-97199500D01*
X104471158Y-97199500D01*
X104471152Y-97199500D01*
X104316512Y-97230260D01*
X104316501Y-97230263D01*
X104170824Y-97290604D01*
X104039711Y-97378210D01*
X103928210Y-97489711D01*
X103840604Y-97620824D01*
X103780263Y-97766501D01*
X103780260Y-97766512D01*
X103749500Y-97921152D01*
X102804559Y-97921152D01*
X102780474Y-97879437D01*
X102710562Y-97809525D01*
X102624940Y-97760090D01*
X102624936Y-97760089D01*
X102529438Y-97734500D01*
X102529435Y-97734500D01*
X102430565Y-97734500D01*
X102430562Y-97734500D01*
X102335063Y-97760089D01*
X102335059Y-97760090D01*
X102249437Y-97809525D01*
X102249437Y-97809526D01*
X102184148Y-97874815D01*
X102149500Y-97889167D01*
X102114852Y-97874815D01*
X102100500Y-97840167D01*
X102100500Y-96750562D01*
X102224500Y-96750562D01*
X102224500Y-96849437D01*
X102250089Y-96944936D01*
X102250090Y-96944940D01*
X102299525Y-97030562D01*
X102369438Y-97100475D01*
X102400776Y-97118568D01*
X102455059Y-97149909D01*
X102455061Y-97149909D01*
X102455062Y-97149910D01*
X102478937Y-97156307D01*
X102550562Y-97175500D01*
X102550565Y-97175500D01*
X102649437Y-97175500D01*
X102697186Y-97162705D01*
X102744938Y-97149910D01*
X102830562Y-97100475D01*
X102900475Y-97030562D01*
X102949910Y-96944938D01*
X102962705Y-96897186D01*
X102975500Y-96849437D01*
X102975500Y-96750562D01*
X102949910Y-96655063D01*
X102949909Y-96655059D01*
X102900474Y-96569437D01*
X102831599Y-96500562D01*
X106624500Y-96500562D01*
X106624500Y-96599437D01*
X106650089Y-96694936D01*
X106650090Y-96694940D01*
X106682206Y-96750565D01*
X106699525Y-96780562D01*
X106769438Y-96850475D01*
X106800776Y-96868568D01*
X106855059Y-96899909D01*
X106855061Y-96899909D01*
X106855062Y-96899910D01*
X106878937Y-96906307D01*
X106950562Y-96925500D01*
X106950565Y-96925500D01*
X107049437Y-96925500D01*
X107097186Y-96912705D01*
X107144938Y-96899910D01*
X107230562Y-96850475D01*
X107300475Y-96780562D01*
X107349910Y-96694938D01*
X107362705Y-96647186D01*
X107375500Y-96599437D01*
X107375500Y-96500562D01*
X107349910Y-96405063D01*
X107349909Y-96405059D01*
X107310685Y-96337123D01*
X107300475Y-96319438D01*
X107230562Y-96249525D01*
X107144940Y-96200090D01*
X107144936Y-96200089D01*
X107049438Y-96174500D01*
X107049435Y-96174500D01*
X106950565Y-96174500D01*
X106950562Y-96174500D01*
X106855063Y-96200089D01*
X106855059Y-96200090D01*
X106769437Y-96249525D01*
X106769437Y-96249526D01*
X106699526Y-96319437D01*
X106699525Y-96319437D01*
X106650090Y-96405059D01*
X106650089Y-96405063D01*
X106624500Y-96500562D01*
X102831599Y-96500562D01*
X102830562Y-96499525D01*
X102744940Y-96450090D01*
X102744936Y-96450089D01*
X102649438Y-96424500D01*
X102649435Y-96424500D01*
X102550565Y-96424500D01*
X102550562Y-96424500D01*
X102455063Y-96450089D01*
X102455059Y-96450090D01*
X102369437Y-96499525D01*
X102369437Y-96499526D01*
X102299526Y-96569437D01*
X102299525Y-96569437D01*
X102250090Y-96655059D01*
X102250089Y-96655063D01*
X102224500Y-96750562D01*
X102100500Y-96750562D01*
X102100500Y-96495743D01*
X102100499Y-96495724D01*
X102097646Y-96465301D01*
X102097646Y-96465300D01*
X102052795Y-96337123D01*
X102052791Y-96337114D01*
X101972150Y-96227849D01*
X101862885Y-96147208D01*
X101862876Y-96147204D01*
X101734698Y-96102353D01*
X101704275Y-96099500D01*
X101704266Y-96099500D01*
X100349500Y-96099500D01*
X100314852Y-96085148D01*
X100300500Y-96050500D01*
X100300500Y-94960462D01*
X106546900Y-94960462D01*
X106546900Y-95059337D01*
X106572489Y-95154836D01*
X106572490Y-95154840D01*
X106621925Y-95240462D01*
X106691743Y-95310280D01*
X106706095Y-95344928D01*
X106699530Y-95369428D01*
X106650090Y-95455059D01*
X106650089Y-95455063D01*
X106624500Y-95550562D01*
X106624500Y-95649437D01*
X106650089Y-95744936D01*
X106650090Y-95744940D01*
X106699525Y-95830562D01*
X106769438Y-95900475D01*
X106800776Y-95918568D01*
X106855059Y-95949909D01*
X106855061Y-95949909D01*
X106855062Y-95949910D01*
X106878937Y-95956307D01*
X106950562Y-95975500D01*
X106950565Y-95975500D01*
X107049437Y-95975500D01*
X107097186Y-95962705D01*
X107144938Y-95949910D01*
X107230562Y-95900475D01*
X107289268Y-95841769D01*
X108757300Y-95841769D01*
X108757300Y-95947230D01*
X108784592Y-96049085D01*
X108784593Y-96049089D01*
X108837320Y-96140413D01*
X108911887Y-96214980D01*
X108934177Y-96227849D01*
X109003210Y-96267706D01*
X109003212Y-96267706D01*
X109003213Y-96267707D01*
X109083547Y-96289232D01*
X109105069Y-96294999D01*
X109105070Y-96295000D01*
X109105073Y-96295000D01*
X109210530Y-96295000D01*
X109210530Y-96294999D01*
X109312387Y-96267707D01*
X109403713Y-96214980D01*
X109478280Y-96140413D01*
X109531007Y-96049087D01*
X109558299Y-95947230D01*
X109558300Y-95947230D01*
X109558300Y-95841770D01*
X109558299Y-95841769D01*
X109531007Y-95739914D01*
X109531006Y-95739910D01*
X109497578Y-95682013D01*
X109478280Y-95648587D01*
X109403713Y-95574020D01*
X109312389Y-95521293D01*
X109312385Y-95521292D01*
X109210530Y-95494000D01*
X109210527Y-95494000D01*
X109105073Y-95494000D01*
X109105070Y-95494000D01*
X109003214Y-95521292D01*
X109003210Y-95521293D01*
X108911886Y-95574020D01*
X108911886Y-95574021D01*
X108837321Y-95648586D01*
X108837320Y-95648586D01*
X108784593Y-95739910D01*
X108784592Y-95739914D01*
X108757300Y-95841769D01*
X107289268Y-95841769D01*
X107300475Y-95830562D01*
X107349910Y-95744938D01*
X107362705Y-95697186D01*
X107375500Y-95649437D01*
X107375500Y-95550562D01*
X107349910Y-95455063D01*
X107349909Y-95455059D01*
X107300474Y-95369437D01*
X107230656Y-95299619D01*
X107216304Y-95264971D01*
X107222869Y-95240471D01*
X107222873Y-95240463D01*
X107222875Y-95240462D01*
X107272310Y-95154838D01*
X107285105Y-95107086D01*
X107297900Y-95059337D01*
X107297900Y-94960462D01*
X107272310Y-94864963D01*
X107272309Y-94864959D01*
X107222874Y-94779337D01*
X107152962Y-94709425D01*
X107067340Y-94659990D01*
X107067336Y-94659989D01*
X106971838Y-94634400D01*
X106971835Y-94634400D01*
X106872965Y-94634400D01*
X106872962Y-94634400D01*
X106777463Y-94659989D01*
X106777459Y-94659990D01*
X106691837Y-94709425D01*
X106691837Y-94709426D01*
X106621926Y-94779337D01*
X106621925Y-94779337D01*
X106572490Y-94864959D01*
X106572489Y-94864963D01*
X106546900Y-94960462D01*
X100300500Y-94960462D01*
X100300500Y-94550562D01*
X108824500Y-94550562D01*
X108824500Y-94649437D01*
X108850089Y-94744936D01*
X108850090Y-94744940D01*
X108899525Y-94830562D01*
X108969438Y-94900475D01*
X109000776Y-94918568D01*
X109055059Y-94949909D01*
X109055061Y-94949909D01*
X109055062Y-94949910D01*
X109078937Y-94956307D01*
X109150562Y-94975500D01*
X109150565Y-94975500D01*
X109249437Y-94975500D01*
X109305557Y-94960462D01*
X109344938Y-94949910D01*
X109430562Y-94900475D01*
X109500475Y-94830562D01*
X109549910Y-94744938D01*
X109572672Y-94659989D01*
X109575500Y-94649437D01*
X109575500Y-94550562D01*
X109549910Y-94455063D01*
X109549909Y-94455059D01*
X109500474Y-94369437D01*
X109430562Y-94299525D01*
X109344940Y-94250090D01*
X109344936Y-94250089D01*
X109249438Y-94224500D01*
X109249435Y-94224500D01*
X109150565Y-94224500D01*
X109150562Y-94224500D01*
X109055063Y-94250089D01*
X109055059Y-94250090D01*
X108969437Y-94299525D01*
X108969437Y-94299526D01*
X108899526Y-94369437D01*
X108899525Y-94369437D01*
X108850090Y-94455059D01*
X108850089Y-94455063D01*
X108824500Y-94550562D01*
X100300500Y-94550562D01*
X100300500Y-93440562D01*
X111599500Y-93440562D01*
X111599500Y-93539437D01*
X111625089Y-93634936D01*
X111625090Y-93634940D01*
X111674525Y-93720562D01*
X111744438Y-93790475D01*
X111775776Y-93808568D01*
X111830059Y-93839909D01*
X111830061Y-93839909D01*
X111830062Y-93839910D01*
X111853937Y-93846307D01*
X111925562Y-93865500D01*
X111925565Y-93865500D01*
X112024437Y-93865500D01*
X112072186Y-93852705D01*
X112119938Y-93839910D01*
X112205562Y-93790475D01*
X112275475Y-93720562D01*
X112324910Y-93634938D01*
X112337705Y-93587186D01*
X112350500Y-93539437D01*
X112350500Y-93440562D01*
X112324910Y-93345063D01*
X112324909Y-93345059D01*
X112275474Y-93259437D01*
X112205562Y-93189525D01*
X112119940Y-93140090D01*
X112119936Y-93140089D01*
X112024438Y-93114500D01*
X112024435Y-93114500D01*
X111925565Y-93114500D01*
X111925562Y-93114500D01*
X111830063Y-93140089D01*
X111830059Y-93140090D01*
X111744437Y-93189525D01*
X111744437Y-93189526D01*
X111674526Y-93259437D01*
X111674525Y-93259437D01*
X111625090Y-93345059D01*
X111625089Y-93345063D01*
X111599500Y-93440562D01*
X100300500Y-93440562D01*
X100300500Y-91380717D01*
X104013783Y-91380717D01*
X104013783Y-91479592D01*
X104039372Y-91575091D01*
X104039373Y-91575095D01*
X104062927Y-91615890D01*
X104088808Y-91660717D01*
X104158721Y-91730630D01*
X104183507Y-91744940D01*
X104244341Y-91780063D01*
X104244345Y-91780065D01*
X104263462Y-91785187D01*
X104293214Y-91808016D01*
X104298110Y-91845198D01*
X104287000Y-91886664D01*
X104287000Y-91985537D01*
X104312589Y-92081036D01*
X104312590Y-92081040D01*
X104329737Y-92110738D01*
X104362025Y-92166662D01*
X104431938Y-92236575D01*
X104463276Y-92254668D01*
X104517559Y-92286009D01*
X104517561Y-92286009D01*
X104517562Y-92286010D01*
X104541437Y-92292407D01*
X104613062Y-92311600D01*
X104613065Y-92311600D01*
X104711937Y-92311600D01*
X104759686Y-92298805D01*
X104807438Y-92286010D01*
X104893062Y-92236575D01*
X104962975Y-92166662D01*
X105012410Y-92081038D01*
X105025205Y-92033286D01*
X105038000Y-91985537D01*
X105038000Y-91916362D01*
X105583700Y-91916362D01*
X105583700Y-92015237D01*
X105609289Y-92110736D01*
X105609290Y-92110740D01*
X105641578Y-92166663D01*
X105658725Y-92196362D01*
X105728638Y-92266275D01*
X105759976Y-92284368D01*
X105814259Y-92315709D01*
X105814261Y-92315709D01*
X105814262Y-92315710D01*
X105838137Y-92322107D01*
X105909762Y-92341300D01*
X105909765Y-92341300D01*
X106008637Y-92341300D01*
X106056386Y-92328505D01*
X106104138Y-92315710D01*
X106189762Y-92266275D01*
X106259675Y-92196362D01*
X106309110Y-92110738D01*
X106321975Y-92062727D01*
X106334700Y-92015237D01*
X106334700Y-91957269D01*
X108799500Y-91957269D01*
X108799500Y-92062730D01*
X108826792Y-92164585D01*
X108826793Y-92164589D01*
X108868355Y-92236575D01*
X108879520Y-92255913D01*
X108954087Y-92330480D01*
X108972828Y-92341300D01*
X109045410Y-92383206D01*
X109045412Y-92383206D01*
X109045413Y-92383207D01*
X109125747Y-92404732D01*
X109147269Y-92410499D01*
X109147270Y-92410500D01*
X109147273Y-92410500D01*
X109252730Y-92410500D01*
X109252730Y-92410499D01*
X109354587Y-92383207D01*
X109445913Y-92330480D01*
X109520480Y-92255913D01*
X109566142Y-92176823D01*
X109573206Y-92164589D01*
X109573206Y-92164588D01*
X109573207Y-92164587D01*
X109600499Y-92062730D01*
X109600500Y-92062730D01*
X109600500Y-91957270D01*
X109600499Y-91957269D01*
X109581581Y-91886665D01*
X109573207Y-91855413D01*
X109573206Y-91855412D01*
X109573206Y-91855410D01*
X109520479Y-91764086D01*
X109445913Y-91689520D01*
X109354589Y-91636793D01*
X109354585Y-91636792D01*
X109252730Y-91609500D01*
X109252727Y-91609500D01*
X109147273Y-91609500D01*
X109147270Y-91609500D01*
X109045414Y-91636792D01*
X109045410Y-91636793D01*
X108954086Y-91689520D01*
X108954086Y-91689521D01*
X108879521Y-91764086D01*
X108879520Y-91764086D01*
X108826793Y-91855410D01*
X108826792Y-91855414D01*
X108799500Y-91957269D01*
X106334700Y-91957269D01*
X106334700Y-91916362D01*
X106309110Y-91820863D01*
X106309109Y-91820859D01*
X106259674Y-91735237D01*
X106189762Y-91665325D01*
X106104140Y-91615890D01*
X106104136Y-91615889D01*
X106024995Y-91594683D01*
X106024994Y-91594683D01*
X106008637Y-91590300D01*
X106008635Y-91590300D01*
X105909765Y-91590300D01*
X105909762Y-91590300D01*
X105814263Y-91615889D01*
X105814259Y-91615890D01*
X105728637Y-91665325D01*
X105728637Y-91665326D01*
X105658726Y-91735237D01*
X105658725Y-91735237D01*
X105609290Y-91820859D01*
X105609289Y-91820863D01*
X105583700Y-91916362D01*
X105038000Y-91916362D01*
X105038000Y-91886662D01*
X105012410Y-91791163D01*
X105012409Y-91791159D01*
X104962974Y-91705537D01*
X104893062Y-91635625D01*
X104807440Y-91586190D01*
X104807436Y-91586189D01*
X104788320Y-91581067D01*
X104758567Y-91558237D01*
X104757557Y-91550562D01*
X112424500Y-91550562D01*
X112424500Y-91649437D01*
X112450089Y-91744936D01*
X112450090Y-91744940D01*
X112486508Y-91808016D01*
X112499525Y-91830562D01*
X112569438Y-91900475D01*
X112596955Y-91916362D01*
X112655059Y-91949909D01*
X112655061Y-91949909D01*
X112655062Y-91949910D01*
X112678937Y-91956307D01*
X112750562Y-91975500D01*
X112750565Y-91975500D01*
X112849437Y-91975500D01*
X112897186Y-91962705D01*
X112944938Y-91949910D01*
X113030562Y-91900475D01*
X113100475Y-91830562D01*
X113149910Y-91744938D01*
X113171242Y-91665326D01*
X113175500Y-91649437D01*
X113175500Y-91550562D01*
X113149910Y-91455063D01*
X113149909Y-91455059D01*
X113118568Y-91400776D01*
X113100475Y-91369438D01*
X113030562Y-91299525D01*
X113005775Y-91285214D01*
X112944940Y-91250090D01*
X112944936Y-91250089D01*
X112849438Y-91224500D01*
X112849435Y-91224500D01*
X112750565Y-91224500D01*
X112750562Y-91224500D01*
X112655063Y-91250089D01*
X112655059Y-91250090D01*
X112569437Y-91299525D01*
X112569437Y-91299526D01*
X112499526Y-91369437D01*
X112499525Y-91369437D01*
X112450090Y-91455059D01*
X112450089Y-91455063D01*
X112424500Y-91550562D01*
X104757557Y-91550562D01*
X104753672Y-91521055D01*
X104761115Y-91493276D01*
X104764783Y-91479591D01*
X104764783Y-91380717D01*
X104739193Y-91285218D01*
X104739192Y-91285214D01*
X104689757Y-91199592D01*
X104619845Y-91129680D01*
X104534223Y-91080245D01*
X104534219Y-91080244D01*
X104438721Y-91054655D01*
X104438718Y-91054655D01*
X104339848Y-91054655D01*
X104339845Y-91054655D01*
X104244346Y-91080244D01*
X104244342Y-91080245D01*
X104158720Y-91129680D01*
X104158720Y-91129681D01*
X104088809Y-91199592D01*
X104088808Y-91199592D01*
X104039373Y-91285214D01*
X104039372Y-91285218D01*
X104013783Y-91380717D01*
X100300500Y-91380717D01*
X100300500Y-89950562D01*
X101624500Y-89950562D01*
X101624500Y-90049437D01*
X101650089Y-90144936D01*
X101650090Y-90144940D01*
X101699525Y-90230562D01*
X101769438Y-90300475D01*
X101785780Y-90309910D01*
X101855059Y-90349909D01*
X101855061Y-90349909D01*
X101855062Y-90349910D01*
X101878937Y-90356307D01*
X101950562Y-90375500D01*
X101950565Y-90375500D01*
X102049437Y-90375500D01*
X102097186Y-90362705D01*
X102144938Y-90349910D01*
X102230562Y-90300475D01*
X102300475Y-90230562D01*
X102346663Y-90150562D01*
X105624500Y-90150562D01*
X105624500Y-90249437D01*
X105650089Y-90344936D01*
X105650090Y-90344940D01*
X105677127Y-90391768D01*
X105699525Y-90430562D01*
X105769438Y-90500475D01*
X105800776Y-90518568D01*
X105855059Y-90549909D01*
X105855061Y-90549909D01*
X105855062Y-90549910D01*
X105878937Y-90556307D01*
X105950562Y-90575500D01*
X105950565Y-90575500D01*
X106049437Y-90575500D01*
X106097186Y-90562705D01*
X106144938Y-90549910D01*
X106230562Y-90500475D01*
X106300475Y-90430562D01*
X106343286Y-90356411D01*
X106349909Y-90344940D01*
X106349909Y-90344939D01*
X106349910Y-90344938D01*
X106369542Y-90271671D01*
X106375500Y-90249437D01*
X106375500Y-90150563D01*
X106358405Y-90086767D01*
X106358405Y-90086766D01*
X106355867Y-90077293D01*
X111337426Y-90077293D01*
X111337426Y-90176168D01*
X111363015Y-90271667D01*
X111363016Y-90271671D01*
X111394346Y-90325935D01*
X111412451Y-90357293D01*
X111482364Y-90427206D01*
X111482367Y-90427208D01*
X111484916Y-90429164D01*
X111483856Y-90430544D01*
X111503280Y-90455839D01*
X111498400Y-90493023D01*
X111498390Y-90493039D01*
X111467061Y-90547301D01*
X111467060Y-90547305D01*
X111441471Y-90642804D01*
X111441471Y-90741679D01*
X111467060Y-90837178D01*
X111467061Y-90837182D01*
X111516496Y-90922804D01*
X111586409Y-90992717D01*
X111617747Y-91010810D01*
X111672030Y-91042151D01*
X111672032Y-91042151D01*
X111672033Y-91042152D01*
X111695908Y-91048549D01*
X111767533Y-91067742D01*
X111767536Y-91067742D01*
X111866408Y-91067742D01*
X111915247Y-91054655D01*
X111961909Y-91042152D01*
X112047533Y-90992717D01*
X112117446Y-90922804D01*
X112166881Y-90837180D01*
X112179676Y-90789428D01*
X112192471Y-90741679D01*
X112192471Y-90642804D01*
X112166881Y-90547305D01*
X112166880Y-90547301D01*
X112117445Y-90461679D01*
X112047534Y-90391768D01*
X112044986Y-90389813D01*
X112046041Y-90388437D01*
X112026611Y-90363117D01*
X112031504Y-90325936D01*
X112062836Y-90271669D01*
X112084569Y-90190562D01*
X112088426Y-90176168D01*
X112088426Y-90077293D01*
X112062836Y-89981794D01*
X112062835Y-89981790D01*
X112031494Y-89927507D01*
X112013401Y-89896169D01*
X111943488Y-89826256D01*
X111940447Y-89824500D01*
X111857866Y-89776821D01*
X111857862Y-89776820D01*
X111762364Y-89751231D01*
X111762361Y-89751231D01*
X111663491Y-89751231D01*
X111663488Y-89751231D01*
X111567989Y-89776820D01*
X111567985Y-89776821D01*
X111482363Y-89826256D01*
X111482363Y-89826257D01*
X111412452Y-89896168D01*
X111412451Y-89896168D01*
X111363016Y-89981790D01*
X111363015Y-89981794D01*
X111337426Y-90077293D01*
X106355867Y-90077293D01*
X106349910Y-90055062D01*
X106349909Y-90055059D01*
X106318568Y-90000776D01*
X106300475Y-89969438D01*
X106230562Y-89899525D01*
X106224748Y-89896168D01*
X106144940Y-89850090D01*
X106144936Y-89850089D01*
X106049438Y-89824500D01*
X106049435Y-89824500D01*
X105950565Y-89824500D01*
X105950562Y-89824500D01*
X105855063Y-89850089D01*
X105855059Y-89850090D01*
X105769437Y-89899525D01*
X105769437Y-89899526D01*
X105699526Y-89969437D01*
X105699525Y-89969437D01*
X105650090Y-90055059D01*
X105650089Y-90055063D01*
X105624500Y-90150562D01*
X102346663Y-90150562D01*
X102349910Y-90144938D01*
X102368035Y-90077296D01*
X102375500Y-90049436D01*
X102375500Y-89950562D01*
X102349910Y-89855063D01*
X102349909Y-89855059D01*
X102318568Y-89800776D01*
X102300475Y-89769438D01*
X102230562Y-89699525D01*
X102211402Y-89688463D01*
X102144940Y-89650090D01*
X102144936Y-89650089D01*
X102049438Y-89624500D01*
X102049435Y-89624500D01*
X101950565Y-89624500D01*
X101950562Y-89624500D01*
X101855063Y-89650089D01*
X101855059Y-89650090D01*
X101769437Y-89699525D01*
X101769437Y-89699526D01*
X101699526Y-89769437D01*
X101699525Y-89769437D01*
X101650090Y-89855059D01*
X101650089Y-89855063D01*
X101624500Y-89950562D01*
X100300500Y-89950562D01*
X100300500Y-89030562D01*
X111184500Y-89030562D01*
X111184500Y-89129437D01*
X111210089Y-89224936D01*
X111210090Y-89224940D01*
X111259525Y-89310562D01*
X111329438Y-89380475D01*
X111360776Y-89398568D01*
X111415059Y-89429909D01*
X111415061Y-89429909D01*
X111415062Y-89429910D01*
X111438937Y-89436307D01*
X111510562Y-89455500D01*
X111510565Y-89455500D01*
X111609437Y-89455500D01*
X111657186Y-89442705D01*
X111704938Y-89429910D01*
X111790562Y-89380475D01*
X111860475Y-89310562D01*
X111909910Y-89224938D01*
X111922705Y-89177186D01*
X111935500Y-89129437D01*
X111935500Y-89030562D01*
X111909910Y-88935063D01*
X111909909Y-88935059D01*
X111860474Y-88849437D01*
X111790562Y-88779525D01*
X111704940Y-88730090D01*
X111704936Y-88730089D01*
X111609438Y-88704500D01*
X111609435Y-88704500D01*
X111510565Y-88704500D01*
X111510562Y-88704500D01*
X111415063Y-88730089D01*
X111415059Y-88730090D01*
X111329437Y-88779525D01*
X111329437Y-88779526D01*
X111259526Y-88849437D01*
X111259525Y-88849437D01*
X111210090Y-88935059D01*
X111210089Y-88935063D01*
X111184500Y-89030562D01*
X100300500Y-89030562D01*
X100300500Y-88350562D01*
X101224500Y-88350562D01*
X101224500Y-88449437D01*
X101250089Y-88544936D01*
X101250090Y-88544940D01*
X101290829Y-88615500D01*
X101299525Y-88630562D01*
X101369438Y-88700475D01*
X101376410Y-88704500D01*
X101455059Y-88749909D01*
X101455061Y-88749909D01*
X101455062Y-88749910D01*
X101478937Y-88756307D01*
X101550562Y-88775500D01*
X101550565Y-88775500D01*
X101649437Y-88775500D01*
X101697186Y-88762705D01*
X101744938Y-88749910D01*
X101830562Y-88700475D01*
X101900475Y-88630562D01*
X101949910Y-88544938D01*
X101969839Y-88470562D01*
X101975500Y-88449437D01*
X101975500Y-88350562D01*
X101949910Y-88255063D01*
X101949909Y-88255060D01*
X101949501Y-88254353D01*
X101937209Y-88233062D01*
X106874500Y-88233062D01*
X106874500Y-88331937D01*
X106900089Y-88427436D01*
X106900090Y-88427440D01*
X106924988Y-88470563D01*
X106949525Y-88513062D01*
X107019438Y-88582975D01*
X107031450Y-88589910D01*
X107105059Y-88632409D01*
X107105061Y-88632409D01*
X107105062Y-88632410D01*
X107128937Y-88638807D01*
X107200562Y-88658000D01*
X107200565Y-88658000D01*
X107299437Y-88658000D01*
X107347186Y-88645205D01*
X107394938Y-88632410D01*
X107480562Y-88582975D01*
X107550475Y-88513062D01*
X107599910Y-88427438D01*
X107620509Y-88350562D01*
X107625500Y-88331937D01*
X107625500Y-88233062D01*
X107599910Y-88137563D01*
X107599909Y-88137559D01*
X107550474Y-88051937D01*
X107524900Y-88026363D01*
X108198157Y-88026363D01*
X108198157Y-88125238D01*
X108223746Y-88220737D01*
X108223747Y-88220741D01*
X108263410Y-88289437D01*
X108273182Y-88306363D01*
X108343095Y-88376276D01*
X108358095Y-88384936D01*
X108428716Y-88425710D01*
X108428718Y-88425710D01*
X108428719Y-88425711D01*
X108435172Y-88427440D01*
X108524219Y-88451301D01*
X108524222Y-88451301D01*
X108623094Y-88451301D01*
X108670843Y-88438506D01*
X108718595Y-88425711D01*
X108804219Y-88376276D01*
X108874132Y-88306363D01*
X108923567Y-88220739D01*
X108931653Y-88190562D01*
X111644500Y-88190562D01*
X111644500Y-88289437D01*
X111670089Y-88384936D01*
X111670090Y-88384940D01*
X111719525Y-88470562D01*
X111789438Y-88540475D01*
X111797172Y-88544940D01*
X111875059Y-88589909D01*
X111875061Y-88589909D01*
X111875062Y-88589910D01*
X111898937Y-88596307D01*
X111970562Y-88615500D01*
X111970565Y-88615500D01*
X112069437Y-88615500D01*
X112117186Y-88602705D01*
X112164938Y-88589910D01*
X112250562Y-88540475D01*
X112320475Y-88470562D01*
X112369910Y-88384938D01*
X112390964Y-88306363D01*
X112395500Y-88289437D01*
X112395500Y-88190562D01*
X112369910Y-88095063D01*
X112369909Y-88095059D01*
X112330248Y-88026366D01*
X112320475Y-88009438D01*
X112250562Y-87939525D01*
X112238550Y-87932590D01*
X112164940Y-87890090D01*
X112164936Y-87890089D01*
X112069438Y-87864500D01*
X112069435Y-87864500D01*
X111970565Y-87864500D01*
X111970562Y-87864500D01*
X111875063Y-87890089D01*
X111875059Y-87890090D01*
X111789437Y-87939525D01*
X111789437Y-87939526D01*
X111719526Y-88009437D01*
X111719525Y-88009437D01*
X111670090Y-88095059D01*
X111670089Y-88095063D01*
X111644500Y-88190562D01*
X108931653Y-88190562D01*
X108945855Y-88137559D01*
X108949157Y-88125237D01*
X108949157Y-88026363D01*
X108923567Y-87930864D01*
X108923566Y-87930860D01*
X108874131Y-87845238D01*
X108804219Y-87775326D01*
X108718597Y-87725891D01*
X108718593Y-87725890D01*
X108623095Y-87700301D01*
X108623092Y-87700301D01*
X108524222Y-87700301D01*
X108524219Y-87700301D01*
X108428720Y-87725890D01*
X108428716Y-87725891D01*
X108343094Y-87775326D01*
X108343094Y-87775327D01*
X108273183Y-87845238D01*
X108273182Y-87845238D01*
X108223747Y-87930860D01*
X108223746Y-87930864D01*
X108198157Y-88026363D01*
X107524900Y-88026363D01*
X107480562Y-87982025D01*
X107394940Y-87932590D01*
X107394936Y-87932589D01*
X107299438Y-87907000D01*
X107299435Y-87907000D01*
X107200565Y-87907000D01*
X107200562Y-87907000D01*
X107105063Y-87932589D01*
X107105059Y-87932590D01*
X107019437Y-87982025D01*
X107019437Y-87982026D01*
X106949526Y-88051937D01*
X106949525Y-88051937D01*
X106900090Y-88137559D01*
X106900089Y-88137563D01*
X106874500Y-88233062D01*
X101937209Y-88233062D01*
X101927608Y-88216433D01*
X101900475Y-88169438D01*
X101830562Y-88099525D01*
X101822827Y-88095059D01*
X101744940Y-88050090D01*
X101744936Y-88050089D01*
X101649438Y-88024500D01*
X101649435Y-88024500D01*
X101550565Y-88024500D01*
X101550562Y-88024500D01*
X101455063Y-88050089D01*
X101455059Y-88050090D01*
X101369437Y-88099525D01*
X101369437Y-88099526D01*
X101299526Y-88169437D01*
X101299525Y-88169437D01*
X101250090Y-88255059D01*
X101250089Y-88255063D01*
X101224500Y-88350562D01*
X100300500Y-88350562D01*
X100300500Y-86988962D01*
X101950700Y-86988962D01*
X101950700Y-87087837D01*
X101976289Y-87183336D01*
X101976290Y-87183340D01*
X102017698Y-87255059D01*
X102025725Y-87268962D01*
X102095638Y-87338875D01*
X102115886Y-87350565D01*
X102181259Y-87388309D01*
X102181261Y-87388309D01*
X102181262Y-87388310D01*
X102205137Y-87394707D01*
X102276762Y-87413900D01*
X102276765Y-87413900D01*
X102375637Y-87413900D01*
X102423386Y-87401105D01*
X102471138Y-87388310D01*
X102536520Y-87350562D01*
X104024500Y-87350562D01*
X104024500Y-87449437D01*
X104050089Y-87544936D01*
X104050090Y-87544940D01*
X104099525Y-87630562D01*
X104169438Y-87700475D01*
X104200776Y-87718568D01*
X104255059Y-87749909D01*
X104255061Y-87749909D01*
X104255062Y-87749910D01*
X104278937Y-87756307D01*
X104350562Y-87775500D01*
X104350565Y-87775500D01*
X104449437Y-87775500D01*
X104497186Y-87762705D01*
X104544938Y-87749910D01*
X104630562Y-87700475D01*
X104700475Y-87630562D01*
X104749910Y-87544938D01*
X104762705Y-87497186D01*
X104775500Y-87449437D01*
X104775500Y-87350562D01*
X104753635Y-87268963D01*
X104749910Y-87255062D01*
X104749909Y-87255061D01*
X104749909Y-87255059D01*
X104700474Y-87169437D01*
X104630562Y-87099525D01*
X104544940Y-87050090D01*
X104544936Y-87050089D01*
X104449438Y-87024500D01*
X104449435Y-87024500D01*
X104350565Y-87024500D01*
X104350562Y-87024500D01*
X104255063Y-87050089D01*
X104255059Y-87050090D01*
X104169437Y-87099525D01*
X104169437Y-87099526D01*
X104099526Y-87169437D01*
X104099525Y-87169437D01*
X104050090Y-87255059D01*
X104050089Y-87255063D01*
X104024500Y-87350562D01*
X102536520Y-87350562D01*
X102556762Y-87338875D01*
X102626675Y-87268962D01*
X102676110Y-87183338D01*
X102688905Y-87135586D01*
X102701700Y-87087837D01*
X102701700Y-86988962D01*
X102676110Y-86893463D01*
X102676109Y-86893459D01*
X102626674Y-86807837D01*
X102556762Y-86737925D01*
X102471140Y-86688490D01*
X102471136Y-86688489D01*
X102375638Y-86662900D01*
X102375635Y-86662900D01*
X102276765Y-86662900D01*
X102276762Y-86662900D01*
X102181263Y-86688489D01*
X102181259Y-86688490D01*
X102095637Y-86737925D01*
X102095637Y-86737926D01*
X102025726Y-86807837D01*
X102025725Y-86807837D01*
X101976290Y-86893459D01*
X101976289Y-86893463D01*
X101950700Y-86988962D01*
X100300500Y-86988962D01*
X100300500Y-85748862D01*
X101967900Y-85748862D01*
X101967900Y-85847737D01*
X101993489Y-85943236D01*
X101993490Y-85943240D01*
X102042925Y-86028862D01*
X102112838Y-86098775D01*
X102144176Y-86116868D01*
X102198459Y-86148209D01*
X102198461Y-86148209D01*
X102198462Y-86148210D01*
X102222337Y-86154607D01*
X102293962Y-86173800D01*
X102293965Y-86173800D01*
X102392837Y-86173800D01*
X102440586Y-86161005D01*
X102479560Y-86150562D01*
X107224500Y-86150562D01*
X107224500Y-86249437D01*
X107250089Y-86344936D01*
X107250090Y-86344940D01*
X107299525Y-86430562D01*
X107369438Y-86500475D01*
X107400776Y-86518568D01*
X107455059Y-86549909D01*
X107455061Y-86549909D01*
X107455062Y-86549910D01*
X107478937Y-86556307D01*
X107550562Y-86575500D01*
X107550565Y-86575500D01*
X107649437Y-86575500D01*
X107697186Y-86562705D01*
X107744938Y-86549910D01*
X107830562Y-86500475D01*
X107900475Y-86430562D01*
X107949910Y-86344938D01*
X107962705Y-86297186D01*
X107975500Y-86249437D01*
X107975500Y-86150562D01*
X107949910Y-86055063D01*
X107949909Y-86055059D01*
X107900474Y-85969437D01*
X107830562Y-85899525D01*
X107744940Y-85850090D01*
X107744936Y-85850089D01*
X107649438Y-85824500D01*
X107649435Y-85824500D01*
X107550565Y-85824500D01*
X107550562Y-85824500D01*
X107455063Y-85850089D01*
X107455059Y-85850090D01*
X107369437Y-85899525D01*
X107369437Y-85899526D01*
X107299526Y-85969437D01*
X107299525Y-85969437D01*
X107250090Y-86055059D01*
X107250089Y-86055063D01*
X107224500Y-86150562D01*
X102479560Y-86150562D01*
X102488338Y-86148210D01*
X102573962Y-86098775D01*
X102643875Y-86028862D01*
X102693310Y-85943238D01*
X102718269Y-85850090D01*
X102718900Y-85847737D01*
X102718900Y-85748862D01*
X102693766Y-85655063D01*
X102693310Y-85653362D01*
X102693309Y-85653361D01*
X102693309Y-85653359D01*
X102661968Y-85599076D01*
X102643875Y-85567738D01*
X102573962Y-85497825D01*
X102559430Y-85489435D01*
X102488340Y-85448390D01*
X102488336Y-85448389D01*
X102392838Y-85422800D01*
X102392835Y-85422800D01*
X102293965Y-85422800D01*
X102293962Y-85422800D01*
X102198463Y-85448389D01*
X102198459Y-85448390D01*
X102112837Y-85497825D01*
X102112837Y-85497826D01*
X102042926Y-85567737D01*
X102042925Y-85567737D01*
X101993490Y-85653359D01*
X101993489Y-85653363D01*
X101967900Y-85748862D01*
X100300500Y-85748862D01*
X100300500Y-84880562D01*
X107584500Y-84880562D01*
X107584500Y-84979437D01*
X107610089Y-85074936D01*
X107610090Y-85074940D01*
X107647379Y-85139525D01*
X107659525Y-85160562D01*
X107729438Y-85230475D01*
X107778870Y-85259014D01*
X107815058Y-85279908D01*
X107815062Y-85279910D01*
X107841522Y-85287000D01*
X107871274Y-85309828D01*
X107876170Y-85347010D01*
X107876169Y-85347011D01*
X107864500Y-85390561D01*
X107864500Y-85489437D01*
X107890089Y-85584936D01*
X107890090Y-85584940D01*
X107939525Y-85670562D01*
X108009438Y-85740475D01*
X108040776Y-85758568D01*
X108095059Y-85789909D01*
X108095061Y-85789909D01*
X108095062Y-85789910D01*
X108118937Y-85796307D01*
X108190562Y-85815500D01*
X108190565Y-85815500D01*
X108289437Y-85815500D01*
X108337186Y-85802705D01*
X108384938Y-85789910D01*
X108453091Y-85750562D01*
X110824500Y-85750562D01*
X110824500Y-85849437D01*
X110850089Y-85944936D01*
X110850090Y-85944940D01*
X110898544Y-86028863D01*
X110899525Y-86030562D01*
X110969438Y-86100475D01*
X111000776Y-86118568D01*
X111055059Y-86149909D01*
X111055061Y-86149909D01*
X111055062Y-86149910D01*
X111078937Y-86156307D01*
X111150562Y-86175500D01*
X111150565Y-86175500D01*
X111249437Y-86175500D01*
X111297186Y-86162705D01*
X111344938Y-86149910D01*
X111347883Y-86148210D01*
X111356411Y-86143286D01*
X111430562Y-86100475D01*
X111500475Y-86030562D01*
X111549910Y-85944938D01*
X111562705Y-85897186D01*
X111575500Y-85849437D01*
X111575500Y-85750562D01*
X111549910Y-85655063D01*
X111549909Y-85655059D01*
X111500474Y-85569437D01*
X111430562Y-85499525D01*
X111344940Y-85450090D01*
X111344936Y-85450089D01*
X111249438Y-85424500D01*
X111249435Y-85424500D01*
X111150565Y-85424500D01*
X111150562Y-85424500D01*
X111055063Y-85450089D01*
X111055059Y-85450090D01*
X110969437Y-85499525D01*
X110969437Y-85499526D01*
X110899526Y-85569437D01*
X110899525Y-85569437D01*
X110850090Y-85655059D01*
X110850089Y-85655063D01*
X110824500Y-85750562D01*
X108453091Y-85750562D01*
X108470562Y-85740475D01*
X108540475Y-85670562D01*
X108589910Y-85584938D01*
X108602705Y-85537186D01*
X108615500Y-85489437D01*
X108615500Y-85390562D01*
X108596307Y-85318937D01*
X108589910Y-85295062D01*
X108589909Y-85295061D01*
X108589909Y-85295059D01*
X108540474Y-85209437D01*
X108470562Y-85139525D01*
X108384940Y-85090090D01*
X108384936Y-85090089D01*
X108358477Y-85082999D01*
X108328724Y-85060168D01*
X108323830Y-85022986D01*
X108335500Y-84979436D01*
X108335500Y-84880562D01*
X108309910Y-84785063D01*
X108309909Y-84785059D01*
X108260474Y-84699437D01*
X108190562Y-84629525D01*
X108104940Y-84580090D01*
X108104936Y-84580089D01*
X108009438Y-84554500D01*
X108009435Y-84554500D01*
X107910565Y-84554500D01*
X107910562Y-84554500D01*
X107815063Y-84580089D01*
X107815059Y-84580090D01*
X107729437Y-84629525D01*
X107729437Y-84629526D01*
X107659526Y-84699437D01*
X107659525Y-84699437D01*
X107610090Y-84785059D01*
X107610089Y-84785063D01*
X107584500Y-84880562D01*
X100300500Y-84880562D01*
X100300500Y-83949500D01*
X100314852Y-83914852D01*
X100349500Y-83900500D01*
X110466608Y-83900500D01*
X110501256Y-83914852D01*
G37*
%TD.AperFunction*%
%TD*%
M02*
