%TF.GenerationSoftware,KiCad,Pcbnew,10.0.2*%
%TF.CreationDate,2026-06-19T17:37:29-04:00*%
%TF.ProjectId,nrf54l15-stick,6e726635-346c-4313-952d-737469636b2e,rev?*%
%TF.SameCoordinates,Original*%
%TF.FileFunction,Copper,L1,Top*%
%TF.FilePolarity,Positive*%
%FSLAX46Y46*%
G04 Gerber Fmt 4.6, Leading zero omitted, Abs format (unit mm)*
G04 Created by KiCad (PCBNEW 10.0.2) date 2026-06-19 17:37:29*
%MOMM*%
%LPD*%
G01*
G04 APERTURE LIST*
G04 Aperture macros list*
%AMRoundRect*
0 Rectangle with rounded corners*
0 $1 Rounding radius*
0 $2 $3 $4 $5 $6 $7 $8 $9 X,Y pos of 4 corners*
0 Add a 4 corners polygon primitive as box body*
4,1,4,$2,$3,$4,$5,$6,$7,$8,$9,$2,$3,0*
0 Add four circle primitives for the rounded corners*
1,1,$1+$1,$2,$3*
1,1,$1+$1,$4,$5*
1,1,$1+$1,$6,$7*
1,1,$1+$1,$8,$9*
0 Add four rect primitives between the rounded corners*
20,1,$1+$1,$2,$3,$4,$5,0*
20,1,$1+$1,$4,$5,$6,$7,0*
20,1,$1+$1,$6,$7,$8,$9,0*
20,1,$1+$1,$8,$9,$2,$3,0*%
%AMFreePoly0*
4,1,23,0.500354,0.200354,0.500500,0.200000,0.500500,-0.200000,0.500354,-0.200354,0.500000,-0.200500,0.000000,-0.200500,-0.000354,-0.200354,-0.000500,-0.200000,-0.000500,-0.196157,-0.039018,-0.196157,-0.111114,-0.166294,-0.166294,-0.111114,-0.196157,-0.039018,-0.196157,0.039018,-0.166294,0.111114,-0.111114,0.166294,-0.039018,0.196157,-0.000500,0.196157,-0.000500,0.200000,-0.000354,0.200354,
0.000000,0.200500,0.500000,0.200500,0.500354,0.200354,0.500354,0.200354,$1*%
G04 Aperture macros list end*
%TA.AperFunction,SMDPad,CuDef*%
%ADD10RoundRect,0.140000X0.170000X-0.140000X0.170000X0.140000X-0.170000X0.140000X-0.170000X-0.140000X0*%
%TD*%
%TA.AperFunction,SMDPad,CuDef*%
%ADD11C,0.500000*%
%TD*%
%TA.AperFunction,ComponentPad*%
%ADD12RoundRect,0.300000X-0.700000X-1.450000X0.700000X-1.450000X0.700000X1.450000X-0.700000X1.450000X0*%
%TD*%
%TA.AperFunction,SMDPad,CuDef*%
%ADD13R,1.200000X2.000000*%
%TD*%
%TA.AperFunction,SMDPad,CuDef*%
%ADD14FreePoly0,270.000000*%
%TD*%
%TA.AperFunction,SMDPad,CuDef*%
%ADD15C,0.400000*%
%TD*%
G04 APERTURE END LIST*
D10*
%TO.P,C16,2*%
%TO.N,VDD*%
X101600000Y-94520000D03*
%TO.P,C16,1*%
%TO.N,GND*%
X101600000Y-95480000D03*
%TD*%
D11*
%TO.P,FID1,*%
%TO.N,*%
X100800000Y-84600000D03*
%TD*%
%TO.P,FID2,*%
%TO.N,*%
X100800000Y-93000000D03*
%TD*%
%TO.P,FID3,*%
%TO.N,*%
X112800000Y-93200000D03*
%TD*%
D12*
%TO.P,J1,SHIELD*%
%TO.N,N/C*%
X112650000Y-98000000D03*
%TO.P,J1,5*%
X100950000Y-98000000D03*
D13*
%TO.P,J1,4,GND_4*%
%TO.N,GND*%
X103050000Y-95400000D03*
%TO.P,J1,3,D+_3*%
%TO.N,Net-(J1-D+)*%
X105550000Y-95400000D03*
%TO.P,J1,2,D-_2*%
%TO.N,Net-(J1-D-)*%
X108050000Y-95400000D03*
%TO.P,J1,1,VBUS_1*%
%TO.N,+5V*%
X110550000Y-95400000D03*
%TD*%
D14*
%TO.P,U5,K9,P2.04_K9*%
%TO.N,unconnected-(U5-P2.04-PadK9)*%
X110850000Y-93375000D03*
D15*
%TO.P,U5,K8,P2.05_K8*%
%TO.N,unconnected-(U5-P2.05-PadK8)*%
X110850000Y-92475000D03*
%TO.P,U5,K7,P2.06_K7*%
%TO.N,unconnected-(U5-P2.06-PadK7)*%
X110850000Y-91575000D03*
%TO.P,U5,K6,P2.08_K6*%
%TO.N,unconnected-(U5-P2.08-PadK6)*%
X110850000Y-90675000D03*
%TO.P,U5,K5,P2.10_K5*%
%TO.N,unconnected-(U5-P2.10-PadK5)*%
X110850000Y-89775000D03*
%TO.P,U5,K4,P0.01_K4*%
%TO.N,unconnected-(U5-P0.01-PadK4)*%
X110850000Y-88875000D03*
%TO.P,U5,K3,SWDCLK_K3*%
%TO.N,Net-(J2-Pin_2)*%
X110850000Y-87975000D03*
%TO.P,U5,K2,P0.02_K2*%
%TO.N,unconnected-(U5-P0.02-PadK2)*%
X110850000Y-87075000D03*
D14*
%TO.P,U5,J9,P2.01_J9*%
%TO.N,unconnected-(U5-P2.01-PadJ9)*%
X109950000Y-93375000D03*
D15*
%TO.P,U5,J8,P2.02_J8*%
%TO.N,unconnected-(U5-P2.02-PadJ8)*%
X109950000Y-92475000D03*
%TO.P,U5,J7,P2.03_J7*%
%TO.N,unconnected-(U5-P2.03-PadJ7)*%
X109950000Y-91575000D03*
%TO.P,U5,J6,P2.07_J6*%
%TO.N,unconnected-(U5-P2.07-PadJ6)*%
X109950000Y-90675000D03*
%TO.P,U5,J5,P2.09_J5*%
%TO.N,unconnected-(U5-P2.09-PadJ5)*%
X109950000Y-89775000D03*
%TO.P,U5,J4,P0.00_J4*%
%TO.N,unconnected-(U5-P0.00-PadJ4)*%
X109950000Y-88875000D03*
%TO.P,U5,J3,SWDIO_J3*%
%TO.N,Net-(J2-Pin_3)*%
X109950000Y-87975000D03*
%TO.P,U5,J2,P0.03_J2*%
%TO.N,unconnected-(U5-P0.03-PadJ2)*%
X109950000Y-87075000D03*
D14*
%TO.P,U5,H9,P2.00_H9*%
%TO.N,unconnected-(U5-P2.00-PadH9)*%
X109050000Y-93375000D03*
D15*
%TO.P,U5,H8,GND_H8*%
%TO.N,GND*%
X109050000Y-92475000D03*
%TO.P,U5,H2,P0.04_H2*%
%TO.N,/BUTTON*%
X109050000Y-87075000D03*
D14*
%TO.P,U5,G9,P1.07/AIN3_G9*%
%TO.N,unconnected-(U5-P1.07{slash}AIN3-PadG9)*%
X108150000Y-93375000D03*
D15*
%TO.P,U5,G8,P1.08_G8*%
%TO.N,unconnected-(U5-P1.08-PadG8)*%
X108150000Y-92475000D03*
%TO.P,U5,G2,~{RESET}_G2*%
%TO.N,/~{RESET}*%
X108150000Y-87075000D03*
D14*
%TO.P,U5,F9,P1.06/AIN2_F9*%
%TO.N,/UART_nRF_RX*%
X107250000Y-93375000D03*
D15*
%TO.P,U5,F8,P1.05/AIN1_F8*%
%TO.N,/UART_nRF_TX*%
X107250000Y-92475000D03*
%TO.P,U5,F1,GND_F1*%
%TO.N,GND*%
X107250000Y-86175000D03*
D14*
%TO.P,U5,E9,P1.04/AIN0_E9*%
%TO.N,unconnected-(U5-P1.04{slash}AIN0-PadE9)*%
X106350000Y-93375000D03*
D15*
%TO.P,U5,E8,P1.03_E8*%
%TO.N,unconnected-(U5-P1.03-PadE8)*%
X106350000Y-92475000D03*
%TO.P,U5,E1,GND_E1*%
%TO.N,GND*%
X106350000Y-86175000D03*
D14*
%TO.P,U5,D9,P1.02/NFC_D9*%
%TO.N,/LED_BLUE*%
X105450000Y-93375000D03*
D15*
%TO.P,U5,D8,P1.00/XTAL_D8*%
%TO.N,/P1.00{slash}XTAL*%
X105450000Y-92475000D03*
%TO.P,U5,D1,GND_D1*%
%TO.N,GND*%
X105450000Y-86175000D03*
D14*
%TO.P,U5,C9,P1.01/XTAL_C9*%
%TO.N,/P1.01{slash}XTAL*%
X104550000Y-93375000D03*
D15*
%TO.P,U5,C8,VDDM_C8*%
%TO.N,VDD*%
X104550000Y-92475000D03*
D14*
%TO.P,U5,B9,GND_B9*%
%TO.N,GND*%
X103650000Y-93375000D03*
D15*
%TO.P,U5,B8,VDD_B8*%
%TO.N,VDD*%
X103650000Y-92475000D03*
%TO.P,U5,B7,GND_B7*%
%TO.N,GND*%
X103650000Y-91575000D03*
%TO.P,U5,B6,P1.14/AIN7_B6*%
%TO.N,unconnected-(U5-P1.14{slash}AIN7-PadB6)*%
X103650000Y-90675000D03*
%TO.P,U5,B5,P1.13/AIN6_B5*%
%TO.N,unconnected-(U5-P1.13{slash}AIN6-PadB5)*%
X103650000Y-89775000D03*
%TO.P,U5,B4,P1.12/AIN5_B4*%
%TO.N,unconnected-(U5-P1.12{slash}AIN5-PadB4)*%
X103650000Y-88875000D03*
%TO.P,U5,B3,P1.11/AIN4_B3*%
%TO.N,unconnected-(U5-P1.11{slash}AIN4-PadB3)*%
X103650000Y-87975000D03*
%TO.P,U5,B2,P1.10_B2*%
%TO.N,/LED_RED*%
X103650000Y-87075000D03*
%TO.P,U5,B1,GND_B1*%
%TO.N,GND*%
X103650000Y-86175000D03*
D14*
%TO.P,U5,A9,GND_A9*%
X102750000Y-93375000D03*
D15*
%TO.P,U5,A3,P1.09_A3*%
%TO.N,unconnected-(U5-P1.09-PadA3)*%
X102750000Y-87975000D03*
%TO.P,U5,A1,GND_A1*%
%TO.N,GND*%
X102750000Y-86175000D03*
%TD*%
M02*
