%TF.GenerationSoftware,KiCad,Pcbnew,10.0.2*%
%TF.CreationDate,2026-06-22T21:47:42-04:00*%
%TF.ProjectId,nrf54l15-stick,6e726635-346c-4313-952d-737469636b2e,rev?*%
%TF.SameCoordinates,Original*%
%TF.FileFunction,Copper,L2,Inr*%
%TF.FilePolarity,Positive*%
%FSLAX46Y46*%
G04 Gerber Fmt 4.6, Leading zero omitted, Abs format (unit mm)*
G04 Created by KiCad (PCBNEW 10.0.2) date 2026-06-22 21:47:42*
%MOMM*%
%LPD*%
G01*
G04 APERTURE LIST*
G04 Aperture macros list*
%AMRoundRect*
0 Rectangle with rounded corners*
0 $1 Rounding radius*
0 $2 $3 $4 $5 $6 $7 $8 $9 X,Y pos of 4 corners*
0 Add a 4 corners polygon primitive as box body*
4,1,4,$2,$3,$4,$5,$6,$7,$8,$9,$2,$3,0*
0 Add four circle primitives for the rounded corners*
1,1,$1+$1,$2,$3*
1,1,$1+$1,$4,$5*
1,1,$1+$1,$6,$7*
1,1,$1+$1,$8,$9*
0 Add four rect primitives between the rounded corners*
20,1,$1+$1,$2,$3,$4,$5,0*
20,1,$1+$1,$4,$5,$6,$7,0*
20,1,$1+$1,$6,$7,$8,$9,0*
20,1,$1+$1,$8,$9,$2,$3,0*%
G04 Aperture macros list end*
%TA.AperFunction,ComponentPad*%
%ADD10RoundRect,0.300000X-0.700000X-1.450000X0.700000X-1.450000X0.700000X1.450000X-0.700000X1.450000X0*%
%TD*%
%TA.AperFunction,ViaPad*%
%ADD11C,0.500000*%
%TD*%
%TA.AperFunction,ViaPad*%
%ADD12C,0.450000*%
%TD*%
G04 APERTURE END LIST*
D10*
%TO.N,GND*%
%TO.C,J1*%
X100950000Y-98000000D03*
X112650000Y-98000000D03*
%TD*%
D11*
%TO.N,GND*%
X109200000Y-92010000D03*
D12*
X104400000Y-87400000D03*
X110844050Y-84144751D03*
X111712926Y-90126731D03*
X109200000Y-94600000D03*
X102600000Y-96800000D03*
X101600000Y-88400000D03*
X107600000Y-86200000D03*
X108573657Y-88075801D03*
X102000000Y-90000000D03*
X107000000Y-95600000D03*
X106000000Y-90200000D03*
%TO.N,/LED_RED*%
X112800000Y-91600000D03*
%TO.N,VDD*%
X103347500Y-92777500D03*
X111657337Y-91648556D03*
X111550000Y-92700000D03*
X105400000Y-84800000D03*
X109800000Y-86400000D03*
D11*
X101670000Y-93740000D03*
D12*
%TO.N,/P1.01{slash}XTAL*%
X104662500Y-91936100D03*
%TO.N,/P1.00{slash}XTAL*%
X105959200Y-91965800D03*
%TO.N,/LED_BLUE*%
X113040000Y-89960000D03*
%TO.N,/UART_nRF_TX*%
X107250000Y-88282500D03*
%TO.N,/UART_nRF_RX*%
X111560000Y-89080000D03*
%TO.N,/~{RESET}*%
X104389283Y-91430155D03*
X102343400Y-85798300D03*
%TO.N,/BUTTON*%
X108240000Y-85440000D03*
%TO.N,Net-(J2-Pin_3)*%
X107960000Y-84930000D03*
%TO.N,Net-(J2-Pin_2)*%
X110492800Y-84600000D03*
D11*
%TO.N,+5V*%
X109157800Y-95894500D03*
D12*
%TO.N,Net-(J1-D-)*%
X106922400Y-95009900D03*
%TO.N,Net-(J1-D+)*%
X107000000Y-96550000D03*
%TO.N,Net-(D7-A)*%
X111200000Y-85800000D03*
X112020000Y-88240000D03*
%TO.N,Net-(D8-A)*%
X102480000Y-98110000D03*
X102326200Y-87038400D03*
%TO.N,Net-(U4-D+)*%
X111975000Y-93490000D03*
X111816971Y-90692242D03*
%TD*%
%TA.AperFunction,Conductor*%
%TO.N,GND*%
G36*
X113285148Y-83914852D02*
G01*
X113299500Y-83949500D01*
X113299500Y-89591362D01*
X113285148Y-89626010D01*
X113250500Y-89640362D01*
X113226000Y-89633797D01*
X113184940Y-89610090D01*
X113184936Y-89610089D01*
X113089438Y-89584500D01*
X113089435Y-89584500D01*
X112990565Y-89584500D01*
X112990562Y-89584500D01*
X112895063Y-89610089D01*
X112895059Y-89610090D01*
X112809437Y-89659525D01*
X112809437Y-89659526D01*
X112739526Y-89729437D01*
X112739525Y-89729437D01*
X112690090Y-89815059D01*
X112690089Y-89815063D01*
X112664500Y-89910562D01*
X112664500Y-90009437D01*
X112690089Y-90104936D01*
X112690090Y-90104940D01*
X112739525Y-90190562D01*
X112809438Y-90260475D01*
X112840776Y-90278568D01*
X112895059Y-90309909D01*
X112895061Y-90309909D01*
X112895062Y-90309910D01*
X112918937Y-90316307D01*
X112990562Y-90335500D01*
X112990565Y-90335500D01*
X113089437Y-90335500D01*
X113137186Y-90322705D01*
X113184938Y-90309910D01*
X113226002Y-90286201D01*
X113263181Y-90281306D01*
X113292935Y-90304136D01*
X113299500Y-90328637D01*
X113299500Y-100450500D01*
X113285148Y-100485148D01*
X113250500Y-100499500D01*
X100349500Y-100499500D01*
X100314852Y-100485148D01*
X100300500Y-100450500D01*
X100300500Y-98060562D01*
X102104500Y-98060562D01*
X102104500Y-98159437D01*
X102130089Y-98254936D01*
X102130090Y-98254940D01*
X102179525Y-98340562D01*
X102249438Y-98410475D01*
X102280776Y-98428568D01*
X102335059Y-98459909D01*
X102335061Y-98459909D01*
X102335062Y-98459910D01*
X102358937Y-98466307D01*
X102430562Y-98485500D01*
X102430565Y-98485500D01*
X102529437Y-98485500D01*
X102577186Y-98472705D01*
X102624938Y-98459910D01*
X102710562Y-98410475D01*
X102780475Y-98340562D01*
X102829910Y-98254938D01*
X102842705Y-98207186D01*
X102855500Y-98159437D01*
X102855500Y-98060562D01*
X102829910Y-97965063D01*
X102829909Y-97965059D01*
X102817318Y-97943251D01*
X102804559Y-97921152D01*
X103749500Y-97921152D01*
X103749500Y-98078847D01*
X103780260Y-98233487D01*
X103780263Y-98233498D01*
X103840604Y-98379175D01*
X103840606Y-98379179D01*
X103894548Y-98459909D01*
X103911647Y-98485500D01*
X103928211Y-98510289D01*
X104039711Y-98621789D01*
X104170821Y-98709394D01*
X104316503Y-98769737D01*
X104316509Y-98769738D01*
X104316512Y-98769739D01*
X104471152Y-98800499D01*
X104471158Y-98800500D01*
X104628842Y-98800500D01*
X104783497Y-98769737D01*
X104929179Y-98709394D01*
X105060289Y-98621789D01*
X105171789Y-98510289D01*
X105259394Y-98379179D01*
X105319737Y-98233497D01*
X105350500Y-98078842D01*
X105350500Y-97921158D01*
X105350499Y-97921152D01*
X108249500Y-97921152D01*
X108249500Y-98078847D01*
X108280260Y-98233487D01*
X108280263Y-98233498D01*
X108340604Y-98379175D01*
X108340606Y-98379179D01*
X108394548Y-98459909D01*
X108411647Y-98485500D01*
X108428211Y-98510289D01*
X108539711Y-98621789D01*
X108670821Y-98709394D01*
X108816503Y-98769737D01*
X108816509Y-98769738D01*
X108816512Y-98769739D01*
X108971152Y-98800499D01*
X108971158Y-98800500D01*
X109128842Y-98800500D01*
X109283497Y-98769737D01*
X109429179Y-98709394D01*
X109560289Y-98621789D01*
X109671789Y-98510289D01*
X109759394Y-98379179D01*
X109819737Y-98233497D01*
X109850500Y-98078842D01*
X109850500Y-97921158D01*
X109850499Y-97921152D01*
X109819739Y-97766512D01*
X109819736Y-97766501D01*
X109759394Y-97620821D01*
X109671789Y-97489711D01*
X109560289Y-97378211D01*
X109429179Y-97290606D01*
X109429176Y-97290604D01*
X109429175Y-97290604D01*
X109283498Y-97230263D01*
X109283487Y-97230260D01*
X109128847Y-97199500D01*
X109128842Y-97199500D01*
X108971158Y-97199500D01*
X108971152Y-97199500D01*
X108816512Y-97230260D01*
X108816501Y-97230263D01*
X108670824Y-97290604D01*
X108539711Y-97378210D01*
X108428210Y-97489711D01*
X108340604Y-97620824D01*
X108280263Y-97766501D01*
X108280260Y-97766512D01*
X108249500Y-97921152D01*
X105350499Y-97921152D01*
X105319739Y-97766512D01*
X105319736Y-97766501D01*
X105259394Y-97620821D01*
X105171789Y-97489711D01*
X105060289Y-97378211D01*
X104929179Y-97290606D01*
X104929176Y-97290604D01*
X104929175Y-97290604D01*
X104783498Y-97230263D01*
X104783487Y-97230260D01*
X104628847Y-97199500D01*
X104628842Y-97199500D01*
X104471158Y-97199500D01*
X104471152Y-97199500D01*
X104316512Y-97230260D01*
X104316501Y-97230263D01*
X104170824Y-97290604D01*
X104039711Y-97378210D01*
X103928210Y-97489711D01*
X103840604Y-97620824D01*
X103780263Y-97766501D01*
X103780260Y-97766512D01*
X103749500Y-97921152D01*
X102804559Y-97921152D01*
X102780474Y-97879437D01*
X102710562Y-97809525D01*
X102624940Y-97760090D01*
X102624936Y-97760089D01*
X102529438Y-97734500D01*
X102529435Y-97734500D01*
X102430565Y-97734500D01*
X102430562Y-97734500D01*
X102335063Y-97760089D01*
X102335059Y-97760090D01*
X102249437Y-97809525D01*
X102249437Y-97809526D01*
X102179526Y-97879437D01*
X102179525Y-97879437D01*
X102130090Y-97965059D01*
X102130089Y-97965063D01*
X102104500Y-98060562D01*
X100300500Y-98060562D01*
X100300500Y-96500562D01*
X106624500Y-96500562D01*
X106624500Y-96599437D01*
X106650089Y-96694936D01*
X106650090Y-96694940D01*
X106699525Y-96780562D01*
X106769438Y-96850475D01*
X106800776Y-96868568D01*
X106855059Y-96899909D01*
X106855061Y-96899909D01*
X106855062Y-96899910D01*
X106878937Y-96906307D01*
X106950562Y-96925500D01*
X106950565Y-96925500D01*
X107049437Y-96925500D01*
X107097186Y-96912705D01*
X107144938Y-96899910D01*
X107230562Y-96850475D01*
X107300475Y-96780562D01*
X107349910Y-96694938D01*
X107362705Y-96647186D01*
X107375500Y-96599437D01*
X107375500Y-96500562D01*
X107349910Y-96405063D01*
X107349909Y-96405059D01*
X107300474Y-96319437D01*
X107230562Y-96249525D01*
X107144940Y-96200090D01*
X107144936Y-96200089D01*
X107049438Y-96174500D01*
X107049435Y-96174500D01*
X106950565Y-96174500D01*
X106950562Y-96174500D01*
X106855063Y-96200089D01*
X106855059Y-96200090D01*
X106769437Y-96249525D01*
X106769437Y-96249526D01*
X106699526Y-96319437D01*
X106699525Y-96319437D01*
X106650090Y-96405059D01*
X106650089Y-96405063D01*
X106624500Y-96500562D01*
X100300500Y-96500562D01*
X100300500Y-95841769D01*
X108757300Y-95841769D01*
X108757300Y-95947230D01*
X108784592Y-96049085D01*
X108784593Y-96049089D01*
X108837320Y-96140413D01*
X108911887Y-96214980D01*
X108945313Y-96234278D01*
X109003210Y-96267706D01*
X109003212Y-96267706D01*
X109003213Y-96267707D01*
X109083547Y-96289232D01*
X109105069Y-96294999D01*
X109105070Y-96295000D01*
X109105073Y-96295000D01*
X109210530Y-96295000D01*
X109210530Y-96294999D01*
X109312387Y-96267707D01*
X109403713Y-96214980D01*
X109478280Y-96140413D01*
X109531007Y-96049087D01*
X109558299Y-95947230D01*
X109558300Y-95947230D01*
X109558300Y-95841770D01*
X109558299Y-95841769D01*
X109531007Y-95739914D01*
X109531006Y-95739910D01*
X109478279Y-95648586D01*
X109403713Y-95574020D01*
X109312389Y-95521293D01*
X109312385Y-95521292D01*
X109210530Y-95494000D01*
X109210527Y-95494000D01*
X109105073Y-95494000D01*
X109105070Y-95494000D01*
X109003214Y-95521292D01*
X109003210Y-95521293D01*
X108911886Y-95574020D01*
X108911886Y-95574021D01*
X108837321Y-95648586D01*
X108837320Y-95648586D01*
X108784593Y-95739910D01*
X108784592Y-95739914D01*
X108757300Y-95841769D01*
X100300500Y-95841769D01*
X100300500Y-94960462D01*
X106546900Y-94960462D01*
X106546900Y-95059337D01*
X106572489Y-95154836D01*
X106572490Y-95154840D01*
X106621925Y-95240462D01*
X106691838Y-95310375D01*
X106723176Y-95328468D01*
X106777459Y-95359809D01*
X106777461Y-95359809D01*
X106777462Y-95359810D01*
X106801337Y-95366207D01*
X106872962Y-95385400D01*
X106872965Y-95385400D01*
X106971837Y-95385400D01*
X107019586Y-95372605D01*
X107067338Y-95359810D01*
X107152962Y-95310375D01*
X107222875Y-95240462D01*
X107272310Y-95154838D01*
X107285105Y-95107086D01*
X107297900Y-95059337D01*
X107297900Y-94960462D01*
X107272310Y-94864963D01*
X107272309Y-94864959D01*
X107222874Y-94779337D01*
X107152962Y-94709425D01*
X107067340Y-94659990D01*
X107067336Y-94659989D01*
X106971838Y-94634400D01*
X106971835Y-94634400D01*
X106872965Y-94634400D01*
X106872962Y-94634400D01*
X106777463Y-94659989D01*
X106777459Y-94659990D01*
X106691837Y-94709425D01*
X106691837Y-94709426D01*
X106621926Y-94779337D01*
X106621925Y-94779337D01*
X106572490Y-94864959D01*
X106572489Y-94864963D01*
X106546900Y-94960462D01*
X100300500Y-94960462D01*
X100300500Y-93687269D01*
X101269500Y-93687269D01*
X101269500Y-93792730D01*
X101296792Y-93894585D01*
X101296793Y-93894589D01*
X101349520Y-93985913D01*
X101424087Y-94060480D01*
X101457513Y-94079778D01*
X101515410Y-94113206D01*
X101515412Y-94113206D01*
X101515413Y-94113207D01*
X101595747Y-94134732D01*
X101617269Y-94140499D01*
X101617270Y-94140500D01*
X101617273Y-94140500D01*
X101722730Y-94140500D01*
X101722730Y-94140499D01*
X101824587Y-94113207D01*
X101915913Y-94060480D01*
X101990480Y-93985913D01*
X102043207Y-93894587D01*
X102070499Y-93792730D01*
X102070500Y-93792730D01*
X102070500Y-93687270D01*
X102070499Y-93687269D01*
X102064732Y-93665747D01*
X102043207Y-93585413D01*
X102043206Y-93585412D01*
X102043206Y-93585410D01*
X101990479Y-93494086D01*
X101936955Y-93440562D01*
X111599500Y-93440562D01*
X111599500Y-93539437D01*
X111625089Y-93634936D01*
X111625090Y-93634940D01*
X111674525Y-93720562D01*
X111744438Y-93790475D01*
X111748339Y-93792727D01*
X111830059Y-93839909D01*
X111830061Y-93839909D01*
X111830062Y-93839910D01*
X111853937Y-93846307D01*
X111925562Y-93865500D01*
X111925565Y-93865500D01*
X112024437Y-93865500D01*
X112072186Y-93852705D01*
X112119938Y-93839910D01*
X112205562Y-93790475D01*
X112275475Y-93720562D01*
X112324910Y-93634938D01*
X112338181Y-93585410D01*
X112350500Y-93539437D01*
X112350500Y-93440562D01*
X112324910Y-93345063D01*
X112324909Y-93345059D01*
X112275474Y-93259437D01*
X112205562Y-93189525D01*
X112119940Y-93140090D01*
X112119936Y-93140089D01*
X112024438Y-93114500D01*
X112024435Y-93114500D01*
X111925565Y-93114500D01*
X111925562Y-93114500D01*
X111830063Y-93140089D01*
X111830059Y-93140090D01*
X111744437Y-93189525D01*
X111744437Y-93189526D01*
X111674526Y-93259437D01*
X111674525Y-93259437D01*
X111625090Y-93345059D01*
X111625089Y-93345063D01*
X111599500Y-93440562D01*
X101936955Y-93440562D01*
X101915913Y-93419520D01*
X101824589Y-93366793D01*
X101824585Y-93366792D01*
X101722730Y-93339500D01*
X101722727Y-93339500D01*
X101617273Y-93339500D01*
X101617270Y-93339500D01*
X101515414Y-93366792D01*
X101515410Y-93366793D01*
X101424086Y-93419520D01*
X101424086Y-93419521D01*
X101349521Y-93494086D01*
X101349520Y-93494086D01*
X101296793Y-93585410D01*
X101296792Y-93585414D01*
X101269500Y-93687269D01*
X100300500Y-93687269D01*
X100300500Y-92728062D01*
X102972000Y-92728062D01*
X102972000Y-92826937D01*
X102997589Y-92922436D01*
X102997590Y-92922440D01*
X103042644Y-93000474D01*
X103047025Y-93008062D01*
X103116938Y-93077975D01*
X103148276Y-93096068D01*
X103202559Y-93127409D01*
X103202561Y-93127409D01*
X103202562Y-93127410D01*
X103226437Y-93133807D01*
X103298062Y-93153000D01*
X103298065Y-93153000D01*
X103396937Y-93153000D01*
X103445119Y-93140089D01*
X103492438Y-93127410D01*
X103578062Y-93077975D01*
X103647975Y-93008062D01*
X103697410Y-92922438D01*
X103718177Y-92844936D01*
X103723000Y-92826937D01*
X103723000Y-92728062D01*
X103722999Y-92728061D01*
X103704772Y-92660035D01*
X103702233Y-92650562D01*
X111174500Y-92650562D01*
X111174500Y-92749437D01*
X111200089Y-92844936D01*
X111200090Y-92844940D01*
X111244833Y-92922436D01*
X111249525Y-92930562D01*
X111319438Y-93000475D01*
X111332581Y-93008063D01*
X111405059Y-93049909D01*
X111405061Y-93049909D01*
X111405062Y-93049910D01*
X111428937Y-93056307D01*
X111500562Y-93075500D01*
X111500565Y-93075500D01*
X111599437Y-93075500D01*
X111647186Y-93062705D01*
X111694938Y-93049910D01*
X111780562Y-93000475D01*
X111850475Y-92930562D01*
X111899910Y-92844938D01*
X111912705Y-92797186D01*
X111925500Y-92749437D01*
X111925500Y-92650562D01*
X111899910Y-92555063D01*
X111899909Y-92555059D01*
X111850474Y-92469437D01*
X111780562Y-92399525D01*
X111694940Y-92350090D01*
X111694936Y-92350089D01*
X111599438Y-92324500D01*
X111599435Y-92324500D01*
X111500565Y-92324500D01*
X111500562Y-92324500D01*
X111405063Y-92350089D01*
X111405059Y-92350090D01*
X111319437Y-92399525D01*
X111319437Y-92399526D01*
X111249526Y-92469437D01*
X111249525Y-92469437D01*
X111200090Y-92555059D01*
X111200089Y-92555063D01*
X111174500Y-92650562D01*
X103702233Y-92650562D01*
X103697410Y-92632563D01*
X103697410Y-92632562D01*
X103697409Y-92632560D01*
X103697409Y-92632559D01*
X103652665Y-92555062D01*
X103647975Y-92546938D01*
X103578062Y-92477025D01*
X103564919Y-92469437D01*
X103492440Y-92427590D01*
X103492436Y-92427589D01*
X103396938Y-92402000D01*
X103396935Y-92402000D01*
X103298065Y-92402000D01*
X103298062Y-92402000D01*
X103202563Y-92427589D01*
X103202559Y-92427590D01*
X103116937Y-92477025D01*
X103116937Y-92477026D01*
X103047026Y-92546937D01*
X103047025Y-92546937D01*
X102997590Y-92632559D01*
X102997589Y-92632563D01*
X102972000Y-92728062D01*
X100300500Y-92728062D01*
X100300500Y-91380717D01*
X104013783Y-91380717D01*
X104013783Y-91479592D01*
X104039372Y-91575091D01*
X104039373Y-91575095D01*
X104062927Y-91615890D01*
X104088808Y-91660717D01*
X104158721Y-91730630D01*
X104183507Y-91744940D01*
X104244341Y-91780063D01*
X104244345Y-91780065D01*
X104263462Y-91785187D01*
X104293214Y-91808016D01*
X104298110Y-91845198D01*
X104287000Y-91886664D01*
X104287000Y-91985537D01*
X104312589Y-92081036D01*
X104312590Y-92081040D01*
X104329737Y-92110738D01*
X104362025Y-92166662D01*
X104431938Y-92236575D01*
X104463276Y-92254668D01*
X104517559Y-92286009D01*
X104517561Y-92286009D01*
X104517562Y-92286010D01*
X104541437Y-92292407D01*
X104613062Y-92311600D01*
X104613065Y-92311600D01*
X104711937Y-92311600D01*
X104759686Y-92298805D01*
X104807438Y-92286010D01*
X104893062Y-92236575D01*
X104962975Y-92166662D01*
X105012410Y-92081038D01*
X105027678Y-92024056D01*
X105038000Y-91985537D01*
X105038000Y-91916362D01*
X105583700Y-91916362D01*
X105583700Y-92015237D01*
X105609289Y-92110736D01*
X105609290Y-92110740D01*
X105641578Y-92166663D01*
X105658725Y-92196362D01*
X105728638Y-92266275D01*
X105759976Y-92284368D01*
X105814259Y-92315709D01*
X105814261Y-92315709D01*
X105814262Y-92315710D01*
X105838137Y-92322107D01*
X105909762Y-92341300D01*
X105909765Y-92341300D01*
X106008637Y-92341300D01*
X106071333Y-92324500D01*
X106104138Y-92315710D01*
X106189762Y-92266275D01*
X106259675Y-92196362D01*
X106309110Y-92110738D01*
X106321905Y-92062986D01*
X106334700Y-92015237D01*
X106334700Y-91916362D01*
X106309110Y-91820863D01*
X106309109Y-91820859D01*
X106259674Y-91735237D01*
X106189762Y-91665325D01*
X106143030Y-91638344D01*
X106104140Y-91615890D01*
X106104136Y-91615889D01*
X106041547Y-91599118D01*
X111281837Y-91599118D01*
X111281837Y-91697993D01*
X111307426Y-91793492D01*
X111307427Y-91793496D01*
X111337278Y-91845198D01*
X111356862Y-91879118D01*
X111426775Y-91949031D01*
X111458113Y-91967124D01*
X111512396Y-91998465D01*
X111512398Y-91998465D01*
X111512399Y-91998466D01*
X111536274Y-92004863D01*
X111607899Y-92024056D01*
X111607902Y-92024056D01*
X111706774Y-92024056D01*
X111754523Y-92011261D01*
X111802275Y-91998466D01*
X111887899Y-91949031D01*
X111957812Y-91879118D01*
X112007247Y-91793494D01*
X112022857Y-91735237D01*
X112032837Y-91697993D01*
X112032837Y-91599119D01*
X112022364Y-91560036D01*
X112022364Y-91560035D01*
X112019826Y-91550562D01*
X112424500Y-91550562D01*
X112424500Y-91649437D01*
X112450089Y-91744936D01*
X112450090Y-91744940D01*
X112486508Y-91808016D01*
X112499525Y-91830562D01*
X112569438Y-91900475D01*
X112596955Y-91916362D01*
X112655059Y-91949909D01*
X112655061Y-91949909D01*
X112655062Y-91949910D01*
X112678937Y-91956307D01*
X112750562Y-91975500D01*
X112750565Y-91975500D01*
X112849437Y-91975500D01*
X112897186Y-91962705D01*
X112944938Y-91949910D01*
X112946461Y-91949031D01*
X112956411Y-91943286D01*
X113030562Y-91900475D01*
X113100475Y-91830562D01*
X113149910Y-91744938D01*
X113171242Y-91665326D01*
X113175500Y-91649437D01*
X113175500Y-91550562D01*
X113149910Y-91455063D01*
X113149909Y-91455059D01*
X113118568Y-91400776D01*
X113100475Y-91369438D01*
X113030562Y-91299525D01*
X113005775Y-91285214D01*
X112944940Y-91250090D01*
X112944936Y-91250089D01*
X112849438Y-91224500D01*
X112849435Y-91224500D01*
X112750565Y-91224500D01*
X112750562Y-91224500D01*
X112655063Y-91250089D01*
X112655059Y-91250090D01*
X112569437Y-91299525D01*
X112569437Y-91299526D01*
X112499526Y-91369437D01*
X112499525Y-91369437D01*
X112450090Y-91455059D01*
X112450089Y-91455063D01*
X112424500Y-91550562D01*
X112019826Y-91550562D01*
X112007247Y-91503618D01*
X112007246Y-91503615D01*
X111957811Y-91417993D01*
X111887899Y-91348081D01*
X111802277Y-91298646D01*
X111802273Y-91298645D01*
X111706775Y-91273056D01*
X111706772Y-91273056D01*
X111607902Y-91273056D01*
X111607899Y-91273056D01*
X111512400Y-91298645D01*
X111512396Y-91298646D01*
X111426774Y-91348081D01*
X111426774Y-91348082D01*
X111356863Y-91417993D01*
X111356862Y-91417993D01*
X111307427Y-91503615D01*
X111307426Y-91503619D01*
X111281837Y-91599118D01*
X106041547Y-91599118D01*
X106008638Y-91590300D01*
X106008635Y-91590300D01*
X105909765Y-91590300D01*
X105909762Y-91590300D01*
X105814263Y-91615889D01*
X105814259Y-91615890D01*
X105728637Y-91665325D01*
X105728637Y-91665326D01*
X105658726Y-91735237D01*
X105658725Y-91735237D01*
X105609290Y-91820859D01*
X105609289Y-91820863D01*
X105583700Y-91916362D01*
X105038000Y-91916362D01*
X105038000Y-91886662D01*
X105012410Y-91791163D01*
X105012409Y-91791159D01*
X104962974Y-91705537D01*
X104893062Y-91635625D01*
X104807440Y-91586190D01*
X104807436Y-91586189D01*
X104788320Y-91581067D01*
X104758567Y-91558237D01*
X104753672Y-91521055D01*
X104761115Y-91493276D01*
X104764783Y-91479591D01*
X104764783Y-91380717D01*
X104739193Y-91285218D01*
X104739192Y-91285214D01*
X104689757Y-91199592D01*
X104619845Y-91129680D01*
X104534223Y-91080245D01*
X104534219Y-91080244D01*
X104438721Y-91054655D01*
X104438718Y-91054655D01*
X104339848Y-91054655D01*
X104339845Y-91054655D01*
X104244346Y-91080244D01*
X104244342Y-91080245D01*
X104158720Y-91129680D01*
X104158720Y-91129681D01*
X104088809Y-91199592D01*
X104088808Y-91199592D01*
X104039373Y-91285214D01*
X104039372Y-91285218D01*
X104013783Y-91380717D01*
X100300500Y-91380717D01*
X100300500Y-90642804D01*
X111441471Y-90642804D01*
X111441471Y-90741679D01*
X111467060Y-90837178D01*
X111467061Y-90837182D01*
X111516496Y-90922804D01*
X111586409Y-90992717D01*
X111617747Y-91010810D01*
X111672030Y-91042151D01*
X111672032Y-91042151D01*
X111672033Y-91042152D01*
X111695908Y-91048549D01*
X111767533Y-91067742D01*
X111767536Y-91067742D01*
X111866408Y-91067742D01*
X111915247Y-91054655D01*
X111961909Y-91042152D01*
X112047533Y-90992717D01*
X112117446Y-90922804D01*
X112166881Y-90837180D01*
X112179676Y-90789428D01*
X112192471Y-90741679D01*
X112192471Y-90642804D01*
X112166881Y-90547305D01*
X112166880Y-90547301D01*
X112117445Y-90461679D01*
X112047533Y-90391767D01*
X111961911Y-90342332D01*
X111961907Y-90342331D01*
X111866409Y-90316742D01*
X111866406Y-90316742D01*
X111767536Y-90316742D01*
X111767533Y-90316742D01*
X111672034Y-90342331D01*
X111672030Y-90342332D01*
X111586408Y-90391767D01*
X111586408Y-90391768D01*
X111516497Y-90461679D01*
X111516496Y-90461679D01*
X111467061Y-90547301D01*
X111467060Y-90547305D01*
X111441471Y-90642804D01*
X100300500Y-90642804D01*
X100300500Y-89030562D01*
X111184500Y-89030562D01*
X111184500Y-89129437D01*
X111210089Y-89224936D01*
X111210090Y-89224940D01*
X111259525Y-89310562D01*
X111329438Y-89380475D01*
X111360776Y-89398568D01*
X111415059Y-89429909D01*
X111415061Y-89429909D01*
X111415062Y-89429910D01*
X111438937Y-89436307D01*
X111510562Y-89455500D01*
X111510565Y-89455500D01*
X111609437Y-89455500D01*
X111657186Y-89442705D01*
X111704938Y-89429910D01*
X111790562Y-89380475D01*
X111860475Y-89310562D01*
X111909910Y-89224938D01*
X111922705Y-89177186D01*
X111935500Y-89129437D01*
X111935500Y-89030562D01*
X111909910Y-88935063D01*
X111909909Y-88935059D01*
X111860474Y-88849437D01*
X111790562Y-88779525D01*
X111704940Y-88730090D01*
X111704936Y-88730089D01*
X111609438Y-88704500D01*
X111609435Y-88704500D01*
X111510565Y-88704500D01*
X111510562Y-88704500D01*
X111415063Y-88730089D01*
X111415059Y-88730090D01*
X111329437Y-88779525D01*
X111329437Y-88779526D01*
X111259526Y-88849437D01*
X111259525Y-88849437D01*
X111210090Y-88935059D01*
X111210089Y-88935063D01*
X111184500Y-89030562D01*
X100300500Y-89030562D01*
X100300500Y-88233062D01*
X106874500Y-88233062D01*
X106874500Y-88331937D01*
X106900089Y-88427436D01*
X106900090Y-88427440D01*
X106924988Y-88470563D01*
X106949525Y-88513062D01*
X107019438Y-88582975D01*
X107031450Y-88589910D01*
X107105059Y-88632409D01*
X107105061Y-88632409D01*
X107105062Y-88632410D01*
X107128937Y-88638807D01*
X107200562Y-88658000D01*
X107200565Y-88658000D01*
X107299437Y-88658000D01*
X107347186Y-88645205D01*
X107394938Y-88632410D01*
X107480562Y-88582975D01*
X107550475Y-88513062D01*
X107599910Y-88427438D01*
X107612705Y-88379686D01*
X107625500Y-88331937D01*
X107625500Y-88233063D01*
X107616650Y-88200036D01*
X107616650Y-88200035D01*
X107614112Y-88190562D01*
X111644500Y-88190562D01*
X111644500Y-88289437D01*
X111670089Y-88384936D01*
X111670090Y-88384940D01*
X111719525Y-88470562D01*
X111789438Y-88540475D01*
X111820776Y-88558568D01*
X111875059Y-88589909D01*
X111875061Y-88589909D01*
X111875062Y-88589910D01*
X111898937Y-88596307D01*
X111970562Y-88615500D01*
X111970565Y-88615500D01*
X112069437Y-88615500D01*
X112117186Y-88602705D01*
X112164938Y-88589910D01*
X112250562Y-88540475D01*
X112320475Y-88470562D01*
X112369910Y-88384938D01*
X112384112Y-88331935D01*
X112395500Y-88289437D01*
X112395500Y-88190562D01*
X112369910Y-88095063D01*
X112369909Y-88095059D01*
X112320474Y-88009437D01*
X112250562Y-87939525D01*
X112164940Y-87890090D01*
X112164936Y-87890089D01*
X112069438Y-87864500D01*
X112069435Y-87864500D01*
X111970565Y-87864500D01*
X111970562Y-87864500D01*
X111875063Y-87890089D01*
X111875059Y-87890090D01*
X111789437Y-87939525D01*
X111789437Y-87939526D01*
X111719526Y-88009437D01*
X111719525Y-88009437D01*
X111670090Y-88095059D01*
X111670089Y-88095063D01*
X111644500Y-88190562D01*
X107614112Y-88190562D01*
X107599910Y-88137563D01*
X107599909Y-88137559D01*
X107550474Y-88051937D01*
X107480562Y-87982025D01*
X107394940Y-87932590D01*
X107394936Y-87932589D01*
X107299438Y-87907000D01*
X107299435Y-87907000D01*
X107200565Y-87907000D01*
X107200562Y-87907000D01*
X107105063Y-87932589D01*
X107105059Y-87932590D01*
X107019437Y-87982025D01*
X107019437Y-87982026D01*
X106949526Y-88051937D01*
X106949525Y-88051937D01*
X106900090Y-88137559D01*
X106900089Y-88137563D01*
X106874500Y-88233062D01*
X100300500Y-88233062D01*
X100300500Y-86988962D01*
X101950700Y-86988962D01*
X101950700Y-87087837D01*
X101976289Y-87183336D01*
X101976290Y-87183340D01*
X102025725Y-87268962D01*
X102095638Y-87338875D01*
X102126976Y-87356968D01*
X102181259Y-87388309D01*
X102181261Y-87388309D01*
X102181262Y-87388310D01*
X102205137Y-87394707D01*
X102276762Y-87413900D01*
X102276765Y-87413900D01*
X102375637Y-87413900D01*
X102423386Y-87401105D01*
X102471138Y-87388310D01*
X102556762Y-87338875D01*
X102626675Y-87268962D01*
X102676110Y-87183338D01*
X102688905Y-87135586D01*
X102701700Y-87087837D01*
X102701700Y-86988962D01*
X102676110Y-86893463D01*
X102676109Y-86893459D01*
X102626674Y-86807837D01*
X102556762Y-86737925D01*
X102471140Y-86688490D01*
X102471136Y-86688489D01*
X102375638Y-86662900D01*
X102375635Y-86662900D01*
X102276765Y-86662900D01*
X102276762Y-86662900D01*
X102181263Y-86688489D01*
X102181259Y-86688490D01*
X102095637Y-86737925D01*
X102095637Y-86737926D01*
X102025726Y-86807837D01*
X102025725Y-86807837D01*
X101976290Y-86893459D01*
X101976289Y-86893463D01*
X101950700Y-86988962D01*
X100300500Y-86988962D01*
X100300500Y-86350562D01*
X109424500Y-86350562D01*
X109424500Y-86449437D01*
X109450089Y-86544936D01*
X109450090Y-86544940D01*
X109499525Y-86630562D01*
X109569438Y-86700475D01*
X109600776Y-86718568D01*
X109655059Y-86749909D01*
X109655061Y-86749909D01*
X109655062Y-86749910D01*
X109678937Y-86756307D01*
X109750562Y-86775500D01*
X109750565Y-86775500D01*
X109849437Y-86775500D01*
X109897186Y-86762705D01*
X109944938Y-86749910D01*
X110030562Y-86700475D01*
X110100475Y-86630562D01*
X110149910Y-86544938D01*
X110162705Y-86497186D01*
X110175500Y-86449437D01*
X110175500Y-86350562D01*
X110149910Y-86255063D01*
X110149909Y-86255059D01*
X110100474Y-86169437D01*
X110030562Y-86099525D01*
X109944940Y-86050090D01*
X109944936Y-86050089D01*
X109849438Y-86024500D01*
X109849435Y-86024500D01*
X109750565Y-86024500D01*
X109750562Y-86024500D01*
X109655063Y-86050089D01*
X109655059Y-86050090D01*
X109569437Y-86099525D01*
X109569437Y-86099526D01*
X109499526Y-86169437D01*
X109499525Y-86169437D01*
X109450090Y-86255059D01*
X109450089Y-86255063D01*
X109424500Y-86350562D01*
X100300500Y-86350562D01*
X100300500Y-85748862D01*
X101967900Y-85748862D01*
X101967900Y-85847737D01*
X101993489Y-85943236D01*
X101993490Y-85943240D01*
X102040407Y-86024500D01*
X102042925Y-86028862D01*
X102112838Y-86098775D01*
X102144176Y-86116868D01*
X102198459Y-86148209D01*
X102198461Y-86148209D01*
X102198462Y-86148210D01*
X102222337Y-86154607D01*
X102293962Y-86173800D01*
X102293965Y-86173800D01*
X102392837Y-86173800D01*
X102440586Y-86161005D01*
X102488338Y-86148210D01*
X102573962Y-86098775D01*
X102643875Y-86028862D01*
X102693310Y-85943238D01*
X102718444Y-85849437D01*
X102718900Y-85847737D01*
X102718900Y-85748862D01*
X102693766Y-85655063D01*
X102693310Y-85653362D01*
X102693309Y-85653361D01*
X102693309Y-85653359D01*
X102661968Y-85599076D01*
X102643875Y-85567738D01*
X102573962Y-85497825D01*
X102559430Y-85489435D01*
X102488340Y-85448390D01*
X102488336Y-85448389D01*
X102392838Y-85422800D01*
X102392835Y-85422800D01*
X102293965Y-85422800D01*
X102293962Y-85422800D01*
X102198463Y-85448389D01*
X102198459Y-85448390D01*
X102112837Y-85497825D01*
X102112837Y-85497826D01*
X102042926Y-85567737D01*
X102042925Y-85567737D01*
X101993490Y-85653359D01*
X101993489Y-85653363D01*
X101967900Y-85748862D01*
X100300500Y-85748862D01*
X100300500Y-84750562D01*
X105024500Y-84750562D01*
X105024500Y-84849437D01*
X105050089Y-84944936D01*
X105050090Y-84944940D01*
X105095151Y-85022986D01*
X105099525Y-85030562D01*
X105169438Y-85100475D01*
X105200776Y-85118568D01*
X105255059Y-85149909D01*
X105255061Y-85149909D01*
X105255062Y-85149910D01*
X105278937Y-85156307D01*
X105350562Y-85175500D01*
X105350565Y-85175500D01*
X105449437Y-85175500D01*
X105505184Y-85160562D01*
X105544938Y-85149910D01*
X105630562Y-85100475D01*
X105700475Y-85030562D01*
X105743286Y-84956411D01*
X105749909Y-84944940D01*
X105749909Y-84944939D01*
X105749910Y-84944938D01*
X105767160Y-84880562D01*
X107584500Y-84880562D01*
X107584500Y-84979437D01*
X107610089Y-85074936D01*
X107610090Y-85074940D01*
X107647379Y-85139525D01*
X107659525Y-85160562D01*
X107729438Y-85230475D01*
X107778870Y-85259014D01*
X107815058Y-85279908D01*
X107815062Y-85279910D01*
X107841522Y-85287000D01*
X107871274Y-85309828D01*
X107876170Y-85347010D01*
X107876169Y-85347011D01*
X107864500Y-85390561D01*
X107864500Y-85489437D01*
X107890089Y-85584936D01*
X107890090Y-85584940D01*
X107939525Y-85670562D01*
X108009438Y-85740475D01*
X108040776Y-85758568D01*
X108095059Y-85789909D01*
X108095061Y-85789909D01*
X108095062Y-85789910D01*
X108118937Y-85796307D01*
X108190562Y-85815500D01*
X108190565Y-85815500D01*
X108289437Y-85815500D01*
X108337186Y-85802705D01*
X108384938Y-85789910D01*
X108453091Y-85750562D01*
X110824500Y-85750562D01*
X110824500Y-85849437D01*
X110850089Y-85944936D01*
X110850090Y-85944940D01*
X110898544Y-86028863D01*
X110899525Y-86030562D01*
X110969438Y-86100475D01*
X111000776Y-86118568D01*
X111055059Y-86149909D01*
X111055061Y-86149909D01*
X111055062Y-86149910D01*
X111078937Y-86156307D01*
X111150562Y-86175500D01*
X111150565Y-86175500D01*
X111249437Y-86175500D01*
X111297186Y-86162705D01*
X111344938Y-86149910D01*
X111347883Y-86148210D01*
X111356411Y-86143286D01*
X111430562Y-86100475D01*
X111500475Y-86030562D01*
X111549910Y-85944938D01*
X111562705Y-85897186D01*
X111575500Y-85849437D01*
X111575500Y-85750562D01*
X111549910Y-85655063D01*
X111549909Y-85655059D01*
X111500474Y-85569437D01*
X111430562Y-85499525D01*
X111344940Y-85450090D01*
X111344936Y-85450089D01*
X111249438Y-85424500D01*
X111249435Y-85424500D01*
X111150565Y-85424500D01*
X111150562Y-85424500D01*
X111055063Y-85450089D01*
X111055059Y-85450090D01*
X110969437Y-85499525D01*
X110969437Y-85499526D01*
X110899526Y-85569437D01*
X110899525Y-85569437D01*
X110850090Y-85655059D01*
X110850089Y-85655063D01*
X110824500Y-85750562D01*
X108453091Y-85750562D01*
X108470562Y-85740475D01*
X108540475Y-85670562D01*
X108589910Y-85584938D01*
X108602705Y-85537186D01*
X108615500Y-85489437D01*
X108615500Y-85390562D01*
X108596307Y-85318937D01*
X108589910Y-85295062D01*
X108589909Y-85295061D01*
X108589909Y-85295059D01*
X108540474Y-85209437D01*
X108470562Y-85139525D01*
X108384940Y-85090090D01*
X108384936Y-85090089D01*
X108358477Y-85082999D01*
X108328724Y-85060168D01*
X108323830Y-85022986D01*
X108335500Y-84979436D01*
X108335500Y-84880562D01*
X108309910Y-84785063D01*
X108309909Y-84785059D01*
X108260474Y-84699437D01*
X108190562Y-84629525D01*
X108121736Y-84589788D01*
X108104940Y-84580090D01*
X108104936Y-84580089D01*
X108009438Y-84554500D01*
X108009435Y-84554500D01*
X107910565Y-84554500D01*
X107910562Y-84554500D01*
X107815063Y-84580089D01*
X107815059Y-84580090D01*
X107729437Y-84629525D01*
X107729437Y-84629526D01*
X107659526Y-84699437D01*
X107659525Y-84699437D01*
X107610090Y-84785059D01*
X107610089Y-84785063D01*
X107584500Y-84880562D01*
X105767160Y-84880562D01*
X105771418Y-84864670D01*
X105775500Y-84849436D01*
X105775500Y-84750562D01*
X105749910Y-84655063D01*
X105749909Y-84655059D01*
X105700474Y-84569437D01*
X105681599Y-84550562D01*
X110117300Y-84550562D01*
X110117300Y-84649437D01*
X110142889Y-84744936D01*
X110142890Y-84744940D01*
X110166056Y-84785063D01*
X110192325Y-84830562D01*
X110262238Y-84900475D01*
X110293576Y-84918568D01*
X110347859Y-84949909D01*
X110347861Y-84949909D01*
X110347862Y-84949910D01*
X110371737Y-84956307D01*
X110443362Y-84975500D01*
X110443365Y-84975500D01*
X110542237Y-84975500D01*
X110589986Y-84962705D01*
X110637738Y-84949910D01*
X110723362Y-84900475D01*
X110793275Y-84830562D01*
X110842710Y-84744938D01*
X110866792Y-84655063D01*
X110868300Y-84649437D01*
X110868300Y-84550562D01*
X110842710Y-84455063D01*
X110842709Y-84455059D01*
X110793274Y-84369437D01*
X110723362Y-84299525D01*
X110637740Y-84250090D01*
X110637736Y-84250089D01*
X110542238Y-84224500D01*
X110542235Y-84224500D01*
X110443365Y-84224500D01*
X110443362Y-84224500D01*
X110347863Y-84250089D01*
X110347859Y-84250090D01*
X110262237Y-84299525D01*
X110262237Y-84299526D01*
X110192326Y-84369437D01*
X110192325Y-84369437D01*
X110142890Y-84455059D01*
X110142889Y-84455063D01*
X110117300Y-84550562D01*
X105681599Y-84550562D01*
X105630562Y-84499525D01*
X105544940Y-84450090D01*
X105544936Y-84450089D01*
X105449438Y-84424500D01*
X105449435Y-84424500D01*
X105350565Y-84424500D01*
X105350562Y-84424500D01*
X105255063Y-84450089D01*
X105255059Y-84450090D01*
X105169437Y-84499525D01*
X105169437Y-84499526D01*
X105099526Y-84569437D01*
X105099525Y-84569437D01*
X105050090Y-84655059D01*
X105050089Y-84655063D01*
X105024500Y-84750562D01*
X100300500Y-84750562D01*
X100300500Y-83949500D01*
X100314852Y-83914852D01*
X100349500Y-83900500D01*
X113250500Y-83900500D01*
X113285148Y-83914852D01*
G37*
%TD.AperFunction*%
%TD*%
M02*
