%TF.GenerationSoftware,KiCad,Pcbnew,10.0.2*%
%TF.CreationDate,2026-06-19T17:37:30-04:00*%
%TF.ProjectId,nrf54l15-stick,6e726635-346c-4313-952d-737469636b2e,rev?*%
%TF.SameCoordinates,Original*%
%TF.FileFunction,Legend,Bot*%
%TF.FilePolarity,Positive*%
%FSLAX46Y46*%
G04 Gerber Fmt 4.6, Leading zero omitted, Abs format (unit mm)*
G04 Created by KiCad (PCBNEW 10.0.2) date 2026-06-19 17:37:30*
%MOMM*%
%LPD*%
G01*
G04 APERTURE LIST*
%ADD10C,0.125000*%
%ADD11C,0.120000*%
%ADD12C,0.100000*%
%ADD13C,0.180000*%
%ADD14C,0.010000*%
G04 APERTURE END LIST*
D10*
X111736811Y-85456119D02*
X111784430Y-85432309D01*
X111784430Y-85432309D02*
X111855859Y-85432309D01*
X111855859Y-85432309D02*
X111927287Y-85456119D01*
X111927287Y-85456119D02*
X111974906Y-85503738D01*
X111974906Y-85503738D02*
X111998716Y-85551357D01*
X111998716Y-85551357D02*
X112022525Y-85646595D01*
X112022525Y-85646595D02*
X112022525Y-85718023D01*
X112022525Y-85718023D02*
X111998716Y-85813261D01*
X111998716Y-85813261D02*
X111974906Y-85860880D01*
X111974906Y-85860880D02*
X111927287Y-85908500D01*
X111927287Y-85908500D02*
X111855859Y-85932309D01*
X111855859Y-85932309D02*
X111808240Y-85932309D01*
X111808240Y-85932309D02*
X111736811Y-85908500D01*
X111736811Y-85908500D02*
X111713002Y-85884690D01*
X111713002Y-85884690D02*
X111713002Y-85718023D01*
X111713002Y-85718023D02*
X111808240Y-85718023D01*
X109998717Y-85908500D02*
X109927289Y-85932309D01*
X109927289Y-85932309D02*
X109808241Y-85932309D01*
X109808241Y-85932309D02*
X109760622Y-85908500D01*
X109760622Y-85908500D02*
X109736813Y-85884690D01*
X109736813Y-85884690D02*
X109713003Y-85837071D01*
X109713003Y-85837071D02*
X109713003Y-85789452D01*
X109713003Y-85789452D02*
X109736813Y-85741833D01*
X109736813Y-85741833D02*
X109760622Y-85718023D01*
X109760622Y-85718023D02*
X109808241Y-85694214D01*
X109808241Y-85694214D02*
X109903479Y-85670404D01*
X109903479Y-85670404D02*
X109951098Y-85646595D01*
X109951098Y-85646595D02*
X109974908Y-85622785D01*
X109974908Y-85622785D02*
X109998717Y-85575166D01*
X109998717Y-85575166D02*
X109998717Y-85527547D01*
X109998717Y-85527547D02*
X109974908Y-85479928D01*
X109974908Y-85479928D02*
X109951098Y-85456119D01*
X109951098Y-85456119D02*
X109903479Y-85432309D01*
X109903479Y-85432309D02*
X109784432Y-85432309D01*
X109784432Y-85432309D02*
X109713003Y-85456119D01*
X109213004Y-85884690D02*
X109236813Y-85908500D01*
X109236813Y-85908500D02*
X109308242Y-85932309D01*
X109308242Y-85932309D02*
X109355861Y-85932309D01*
X109355861Y-85932309D02*
X109427289Y-85908500D01*
X109427289Y-85908500D02*
X109474908Y-85860880D01*
X109474908Y-85860880D02*
X109498718Y-85813261D01*
X109498718Y-85813261D02*
X109522527Y-85718023D01*
X109522527Y-85718023D02*
X109522527Y-85646595D01*
X109522527Y-85646595D02*
X109498718Y-85551357D01*
X109498718Y-85551357D02*
X109474908Y-85503738D01*
X109474908Y-85503738D02*
X109427289Y-85456119D01*
X109427289Y-85456119D02*
X109355861Y-85432309D01*
X109355861Y-85432309D02*
X109308242Y-85432309D01*
X109308242Y-85432309D02*
X109236813Y-85456119D01*
X109236813Y-85456119D02*
X109213004Y-85479928D01*
X107117767Y-85908500D02*
X107046339Y-85932309D01*
X107046339Y-85932309D02*
X106927291Y-85932309D01*
X106927291Y-85932309D02*
X106879672Y-85908500D01*
X106879672Y-85908500D02*
X106855863Y-85884690D01*
X106855863Y-85884690D02*
X106832053Y-85837071D01*
X106832053Y-85837071D02*
X106832053Y-85789452D01*
X106832053Y-85789452D02*
X106855863Y-85741833D01*
X106855863Y-85741833D02*
X106879672Y-85718023D01*
X106879672Y-85718023D02*
X106927291Y-85694214D01*
X106927291Y-85694214D02*
X107022529Y-85670404D01*
X107022529Y-85670404D02*
X107070148Y-85646595D01*
X107070148Y-85646595D02*
X107093958Y-85622785D01*
X107093958Y-85622785D02*
X107117767Y-85575166D01*
X107117767Y-85575166D02*
X107117767Y-85527547D01*
X107117767Y-85527547D02*
X107093958Y-85479928D01*
X107093958Y-85479928D02*
X107070148Y-85456119D01*
X107070148Y-85456119D02*
X107022529Y-85432309D01*
X107022529Y-85432309D02*
X106903482Y-85432309D01*
X106903482Y-85432309D02*
X106832053Y-85456119D01*
X106617768Y-85932309D02*
X106617768Y-85432309D01*
X106617768Y-85432309D02*
X106498720Y-85432309D01*
X106498720Y-85432309D02*
X106427292Y-85456119D01*
X106427292Y-85456119D02*
X106379673Y-85503738D01*
X106379673Y-85503738D02*
X106355863Y-85551357D01*
X106355863Y-85551357D02*
X106332054Y-85646595D01*
X106332054Y-85646595D02*
X106332054Y-85718023D01*
X106332054Y-85718023D02*
X106355863Y-85813261D01*
X106355863Y-85813261D02*
X106379673Y-85860880D01*
X106379673Y-85860880D02*
X106427292Y-85908500D01*
X106427292Y-85908500D02*
X106498720Y-85932309D01*
X106498720Y-85932309D02*
X106617768Y-85932309D01*
X104593960Y-85741833D02*
X104213008Y-85741833D01*
X104403484Y-85932309D02*
X104403484Y-85551357D01*
X104046340Y-85432309D02*
X103879674Y-85932309D01*
X103879674Y-85932309D02*
X103713007Y-85432309D01*
X102117771Y-85932309D02*
X102284437Y-85694214D01*
X102403485Y-85932309D02*
X102403485Y-85432309D01*
X102403485Y-85432309D02*
X102213009Y-85432309D01*
X102213009Y-85432309D02*
X102165390Y-85456119D01*
X102165390Y-85456119D02*
X102141580Y-85479928D01*
X102141580Y-85479928D02*
X102117771Y-85527547D01*
X102117771Y-85527547D02*
X102117771Y-85598976D01*
X102117771Y-85598976D02*
X102141580Y-85646595D01*
X102141580Y-85646595D02*
X102165390Y-85670404D01*
X102165390Y-85670404D02*
X102213009Y-85694214D01*
X102213009Y-85694214D02*
X102403485Y-85694214D01*
X101903485Y-85670404D02*
X101736818Y-85670404D01*
X101665390Y-85932309D02*
X101903485Y-85932309D01*
X101903485Y-85932309D02*
X101903485Y-85432309D01*
X101903485Y-85432309D02*
X101665390Y-85432309D01*
X103980952Y-89524809D02*
X103980952Y-89929571D01*
X103980952Y-89929571D02*
X103957142Y-89977190D01*
X103957142Y-89977190D02*
X103933333Y-90001000D01*
X103933333Y-90001000D02*
X103885714Y-90024809D01*
X103885714Y-90024809D02*
X103790476Y-90024809D01*
X103790476Y-90024809D02*
X103742857Y-90001000D01*
X103742857Y-90001000D02*
X103719047Y-89977190D01*
X103719047Y-89977190D02*
X103695238Y-89929571D01*
X103695238Y-89929571D02*
X103695238Y-89524809D01*
X103504761Y-89524809D02*
X103195237Y-89524809D01*
X103195237Y-89524809D02*
X103361904Y-89715285D01*
X103361904Y-89715285D02*
X103290475Y-89715285D01*
X103290475Y-89715285D02*
X103242856Y-89739095D01*
X103242856Y-89739095D02*
X103219047Y-89762904D01*
X103219047Y-89762904D02*
X103195237Y-89810523D01*
X103195237Y-89810523D02*
X103195237Y-89929571D01*
X103195237Y-89929571D02*
X103219047Y-89977190D01*
X103219047Y-89977190D02*
X103242856Y-90001000D01*
X103242856Y-90001000D02*
X103290475Y-90024809D01*
X103290475Y-90024809D02*
X103433332Y-90024809D01*
X103433332Y-90024809D02*
X103480951Y-90001000D01*
X103480951Y-90001000D02*
X103504761Y-89977190D01*
X112924809Y-84433333D02*
X113281952Y-84433333D01*
X113281952Y-84433333D02*
X113353380Y-84409524D01*
X113353380Y-84409524D02*
X113401000Y-84361905D01*
X113401000Y-84361905D02*
X113424809Y-84290476D01*
X113424809Y-84290476D02*
X113424809Y-84242857D01*
X112972428Y-84647619D02*
X112948619Y-84671428D01*
X112948619Y-84671428D02*
X112924809Y-84719047D01*
X112924809Y-84719047D02*
X112924809Y-84838095D01*
X112924809Y-84838095D02*
X112948619Y-84885714D01*
X112948619Y-84885714D02*
X112972428Y-84909523D01*
X112972428Y-84909523D02*
X113020047Y-84933333D01*
X113020047Y-84933333D02*
X113067666Y-84933333D01*
X113067666Y-84933333D02*
X113139095Y-84909523D01*
X113139095Y-84909523D02*
X113424809Y-84623809D01*
X113424809Y-84623809D02*
X113424809Y-84933333D01*
X100577190Y-93478571D02*
X100601000Y-93454762D01*
X100601000Y-93454762D02*
X100624809Y-93383333D01*
X100624809Y-93383333D02*
X100624809Y-93335714D01*
X100624809Y-93335714D02*
X100601000Y-93264286D01*
X100601000Y-93264286D02*
X100553380Y-93216667D01*
X100553380Y-93216667D02*
X100505761Y-93192857D01*
X100505761Y-93192857D02*
X100410523Y-93169048D01*
X100410523Y-93169048D02*
X100339095Y-93169048D01*
X100339095Y-93169048D02*
X100243857Y-93192857D01*
X100243857Y-93192857D02*
X100196238Y-93216667D01*
X100196238Y-93216667D02*
X100148619Y-93264286D01*
X100148619Y-93264286D02*
X100124809Y-93335714D01*
X100124809Y-93335714D02*
X100124809Y-93383333D01*
X100124809Y-93383333D02*
X100148619Y-93454762D01*
X100148619Y-93454762D02*
X100172428Y-93478571D01*
X100172428Y-93669048D02*
X100148619Y-93692857D01*
X100148619Y-93692857D02*
X100124809Y-93740476D01*
X100124809Y-93740476D02*
X100124809Y-93859524D01*
X100124809Y-93859524D02*
X100148619Y-93907143D01*
X100148619Y-93907143D02*
X100172428Y-93930952D01*
X100172428Y-93930952D02*
X100220047Y-93954762D01*
X100220047Y-93954762D02*
X100267666Y-93954762D01*
X100267666Y-93954762D02*
X100339095Y-93930952D01*
X100339095Y-93930952D02*
X100624809Y-93645238D01*
X100624809Y-93645238D02*
X100624809Y-93954762D01*
X100124809Y-94264285D02*
X100124809Y-94311904D01*
X100124809Y-94311904D02*
X100148619Y-94359523D01*
X100148619Y-94359523D02*
X100172428Y-94383333D01*
X100172428Y-94383333D02*
X100220047Y-94407142D01*
X100220047Y-94407142D02*
X100315285Y-94430952D01*
X100315285Y-94430952D02*
X100434333Y-94430952D01*
X100434333Y-94430952D02*
X100529571Y-94407142D01*
X100529571Y-94407142D02*
X100577190Y-94383333D01*
X100577190Y-94383333D02*
X100601000Y-94359523D01*
X100601000Y-94359523D02*
X100624809Y-94311904D01*
X100624809Y-94311904D02*
X100624809Y-94264285D01*
X100624809Y-94264285D02*
X100601000Y-94216666D01*
X100601000Y-94216666D02*
X100577190Y-94192857D01*
X100577190Y-94192857D02*
X100529571Y-94169047D01*
X100529571Y-94169047D02*
X100434333Y-94145238D01*
X100434333Y-94145238D02*
X100315285Y-94145238D01*
X100315285Y-94145238D02*
X100220047Y-94169047D01*
X100220047Y-94169047D02*
X100172428Y-94192857D01*
X100172428Y-94192857D02*
X100148619Y-94216666D01*
X100148619Y-94216666D02*
X100124809Y-94264285D01*
X116285713Y-86362904D02*
X116452380Y-86362904D01*
X116452380Y-86624809D02*
X116452380Y-86124809D01*
X116452380Y-86124809D02*
X116214285Y-86124809D01*
X116023809Y-86624809D02*
X116023809Y-86124809D01*
X115785714Y-86624809D02*
X115785714Y-86124809D01*
X115785714Y-86124809D02*
X115666666Y-86124809D01*
X115666666Y-86124809D02*
X115595238Y-86148619D01*
X115595238Y-86148619D02*
X115547619Y-86196238D01*
X115547619Y-86196238D02*
X115523809Y-86243857D01*
X115523809Y-86243857D02*
X115500000Y-86339095D01*
X115500000Y-86339095D02*
X115500000Y-86410523D01*
X115500000Y-86410523D02*
X115523809Y-86505761D01*
X115523809Y-86505761D02*
X115547619Y-86553380D01*
X115547619Y-86553380D02*
X115595238Y-86601000D01*
X115595238Y-86601000D02*
X115666666Y-86624809D01*
X115666666Y-86624809D02*
X115785714Y-86624809D01*
X115071428Y-86291476D02*
X115071428Y-86624809D01*
X115190476Y-86101000D02*
X115309523Y-86458142D01*
X115309523Y-86458142D02*
X115000000Y-86458142D01*
X98385713Y-85612904D02*
X98552380Y-85612904D01*
X98552380Y-85874809D02*
X98552380Y-85374809D01*
X98552380Y-85374809D02*
X98314285Y-85374809D01*
X98123809Y-85874809D02*
X98123809Y-85374809D01*
X97885714Y-85874809D02*
X97885714Y-85374809D01*
X97885714Y-85374809D02*
X97766666Y-85374809D01*
X97766666Y-85374809D02*
X97695238Y-85398619D01*
X97695238Y-85398619D02*
X97647619Y-85446238D01*
X97647619Y-85446238D02*
X97623809Y-85493857D01*
X97623809Y-85493857D02*
X97600000Y-85589095D01*
X97600000Y-85589095D02*
X97600000Y-85660523D01*
X97600000Y-85660523D02*
X97623809Y-85755761D01*
X97623809Y-85755761D02*
X97647619Y-85803380D01*
X97647619Y-85803380D02*
X97695238Y-85851000D01*
X97695238Y-85851000D02*
X97766666Y-85874809D01*
X97766666Y-85874809D02*
X97885714Y-85874809D01*
X97147619Y-85374809D02*
X97385714Y-85374809D01*
X97385714Y-85374809D02*
X97409523Y-85612904D01*
X97409523Y-85612904D02*
X97385714Y-85589095D01*
X97385714Y-85589095D02*
X97338095Y-85565285D01*
X97338095Y-85565285D02*
X97219047Y-85565285D01*
X97219047Y-85565285D02*
X97171428Y-85589095D01*
X97171428Y-85589095D02*
X97147619Y-85612904D01*
X97147619Y-85612904D02*
X97123809Y-85660523D01*
X97123809Y-85660523D02*
X97123809Y-85779571D01*
X97123809Y-85779571D02*
X97147619Y-85827190D01*
X97147619Y-85827190D02*
X97171428Y-85851000D01*
X97171428Y-85851000D02*
X97219047Y-85874809D01*
X97219047Y-85874809D02*
X97338095Y-85874809D01*
X97338095Y-85874809D02*
X97385714Y-85851000D01*
X97385714Y-85851000D02*
X97409523Y-85827190D01*
X118335713Y-95112904D02*
X118502380Y-95112904D01*
X118502380Y-95374809D02*
X118502380Y-94874809D01*
X118502380Y-94874809D02*
X118264285Y-94874809D01*
X118073809Y-95374809D02*
X118073809Y-94874809D01*
X117835714Y-95374809D02*
X117835714Y-94874809D01*
X117835714Y-94874809D02*
X117716666Y-94874809D01*
X117716666Y-94874809D02*
X117645238Y-94898619D01*
X117645238Y-94898619D02*
X117597619Y-94946238D01*
X117597619Y-94946238D02*
X117573809Y-94993857D01*
X117573809Y-94993857D02*
X117550000Y-95089095D01*
X117550000Y-95089095D02*
X117550000Y-95160523D01*
X117550000Y-95160523D02*
X117573809Y-95255761D01*
X117573809Y-95255761D02*
X117597619Y-95303380D01*
X117597619Y-95303380D02*
X117645238Y-95351000D01*
X117645238Y-95351000D02*
X117716666Y-95374809D01*
X117716666Y-95374809D02*
X117835714Y-95374809D01*
X117121428Y-94874809D02*
X117216666Y-94874809D01*
X117216666Y-94874809D02*
X117264285Y-94898619D01*
X117264285Y-94898619D02*
X117288095Y-94922428D01*
X117288095Y-94922428D02*
X117335714Y-94993857D01*
X117335714Y-94993857D02*
X117359523Y-95089095D01*
X117359523Y-95089095D02*
X117359523Y-95279571D01*
X117359523Y-95279571D02*
X117335714Y-95327190D01*
X117335714Y-95327190D02*
X117311904Y-95351000D01*
X117311904Y-95351000D02*
X117264285Y-95374809D01*
X117264285Y-95374809D02*
X117169047Y-95374809D01*
X117169047Y-95374809D02*
X117121428Y-95351000D01*
X117121428Y-95351000D02*
X117097619Y-95327190D01*
X117097619Y-95327190D02*
X117073809Y-95279571D01*
X117073809Y-95279571D02*
X117073809Y-95160523D01*
X117073809Y-95160523D02*
X117097619Y-95112904D01*
X117097619Y-95112904D02*
X117121428Y-95089095D01*
X117121428Y-95089095D02*
X117169047Y-95065285D01*
X117169047Y-95065285D02*
X117264285Y-95065285D01*
X117264285Y-95065285D02*
X117311904Y-95089095D01*
X117311904Y-95089095D02*
X117335714Y-95112904D01*
X117335714Y-95112904D02*
X117359523Y-95160523D01*
X111780952Y-88124809D02*
X111780952Y-88529571D01*
X111780952Y-88529571D02*
X111757142Y-88577190D01*
X111757142Y-88577190D02*
X111733333Y-88601000D01*
X111733333Y-88601000D02*
X111685714Y-88624809D01*
X111685714Y-88624809D02*
X111590476Y-88624809D01*
X111590476Y-88624809D02*
X111542857Y-88601000D01*
X111542857Y-88601000D02*
X111519047Y-88577190D01*
X111519047Y-88577190D02*
X111495238Y-88529571D01*
X111495238Y-88529571D02*
X111495238Y-88124809D01*
X111042856Y-88291476D02*
X111042856Y-88624809D01*
X111161904Y-88101000D02*
X111280951Y-88458142D01*
X111280951Y-88458142D02*
X110971428Y-88458142D01*
X112121428Y-94624809D02*
X112288094Y-94386714D01*
X112407142Y-94624809D02*
X112407142Y-94124809D01*
X112407142Y-94124809D02*
X112216666Y-94124809D01*
X112216666Y-94124809D02*
X112169047Y-94148619D01*
X112169047Y-94148619D02*
X112145237Y-94172428D01*
X112145237Y-94172428D02*
X112121428Y-94220047D01*
X112121428Y-94220047D02*
X112121428Y-94291476D01*
X112121428Y-94291476D02*
X112145237Y-94339095D01*
X112145237Y-94339095D02*
X112169047Y-94362904D01*
X112169047Y-94362904D02*
X112216666Y-94386714D01*
X112216666Y-94386714D02*
X112407142Y-94386714D01*
X111645237Y-94624809D02*
X111930951Y-94624809D01*
X111788094Y-94624809D02*
X111788094Y-94124809D01*
X111788094Y-94124809D02*
X111835713Y-94196238D01*
X111835713Y-94196238D02*
X111883332Y-94243857D01*
X111883332Y-94243857D02*
X111930951Y-94267666D01*
X111216666Y-94124809D02*
X111311904Y-94124809D01*
X111311904Y-94124809D02*
X111359523Y-94148619D01*
X111359523Y-94148619D02*
X111383333Y-94172428D01*
X111383333Y-94172428D02*
X111430952Y-94243857D01*
X111430952Y-94243857D02*
X111454761Y-94339095D01*
X111454761Y-94339095D02*
X111454761Y-94529571D01*
X111454761Y-94529571D02*
X111430952Y-94577190D01*
X111430952Y-94577190D02*
X111407142Y-94601000D01*
X111407142Y-94601000D02*
X111359523Y-94624809D01*
X111359523Y-94624809D02*
X111264285Y-94624809D01*
X111264285Y-94624809D02*
X111216666Y-94601000D01*
X111216666Y-94601000D02*
X111192857Y-94577190D01*
X111192857Y-94577190D02*
X111169047Y-94529571D01*
X111169047Y-94529571D02*
X111169047Y-94410523D01*
X111169047Y-94410523D02*
X111192857Y-94362904D01*
X111192857Y-94362904D02*
X111216666Y-94339095D01*
X111216666Y-94339095D02*
X111264285Y-94315285D01*
X111264285Y-94315285D02*
X111359523Y-94315285D01*
X111359523Y-94315285D02*
X111407142Y-94339095D01*
X111407142Y-94339095D02*
X111430952Y-94362904D01*
X111430952Y-94362904D02*
X111454761Y-94410523D01*
X113121428Y-87424809D02*
X113288094Y-87186714D01*
X113407142Y-87424809D02*
X113407142Y-86924809D01*
X113407142Y-86924809D02*
X113216666Y-86924809D01*
X113216666Y-86924809D02*
X113169047Y-86948619D01*
X113169047Y-86948619D02*
X113145237Y-86972428D01*
X113145237Y-86972428D02*
X113121428Y-87020047D01*
X113121428Y-87020047D02*
X113121428Y-87091476D01*
X113121428Y-87091476D02*
X113145237Y-87139095D01*
X113145237Y-87139095D02*
X113169047Y-87162904D01*
X113169047Y-87162904D02*
X113216666Y-87186714D01*
X113216666Y-87186714D02*
X113407142Y-87186714D01*
X112930951Y-86972428D02*
X112907142Y-86948619D01*
X112907142Y-86948619D02*
X112859523Y-86924809D01*
X112859523Y-86924809D02*
X112740475Y-86924809D01*
X112740475Y-86924809D02*
X112692856Y-86948619D01*
X112692856Y-86948619D02*
X112669047Y-86972428D01*
X112669047Y-86972428D02*
X112645237Y-87020047D01*
X112645237Y-87020047D02*
X112645237Y-87067666D01*
X112645237Y-87067666D02*
X112669047Y-87139095D01*
X112669047Y-87139095D02*
X112954761Y-87424809D01*
X112954761Y-87424809D02*
X112645237Y-87424809D01*
X112407142Y-87424809D02*
X112311904Y-87424809D01*
X112311904Y-87424809D02*
X112264285Y-87401000D01*
X112264285Y-87401000D02*
X112240476Y-87377190D01*
X112240476Y-87377190D02*
X112192857Y-87305761D01*
X112192857Y-87305761D02*
X112169047Y-87210523D01*
X112169047Y-87210523D02*
X112169047Y-87020047D01*
X112169047Y-87020047D02*
X112192857Y-86972428D01*
X112192857Y-86972428D02*
X112216666Y-86948619D01*
X112216666Y-86948619D02*
X112264285Y-86924809D01*
X112264285Y-86924809D02*
X112359523Y-86924809D01*
X112359523Y-86924809D02*
X112407142Y-86948619D01*
X112407142Y-86948619D02*
X112430952Y-86972428D01*
X112430952Y-86972428D02*
X112454761Y-87020047D01*
X112454761Y-87020047D02*
X112454761Y-87139095D01*
X112454761Y-87139095D02*
X112430952Y-87186714D01*
X112430952Y-87186714D02*
X112407142Y-87210523D01*
X112407142Y-87210523D02*
X112359523Y-87234333D01*
X112359523Y-87234333D02*
X112264285Y-87234333D01*
X112264285Y-87234333D02*
X112216666Y-87210523D01*
X112216666Y-87210523D02*
X112192857Y-87186714D01*
X112192857Y-87186714D02*
X112169047Y-87139095D01*
X106804761Y-97124809D02*
X106471428Y-97124809D01*
X106471428Y-97124809D02*
X106804761Y-97624809D01*
X106804761Y-97624809D02*
X106471428Y-97624809D01*
X106019047Y-97624809D02*
X106304761Y-97624809D01*
X106161904Y-97624809D02*
X106161904Y-97124809D01*
X106161904Y-97124809D02*
X106209523Y-97196238D01*
X106209523Y-97196238D02*
X106257142Y-97243857D01*
X106257142Y-97243857D02*
X106304761Y-97267666D01*
D11*
X102801260Y-88333334D02*
X102825069Y-88404762D01*
X102825069Y-88404762D02*
X102825069Y-88523810D01*
X102825069Y-88523810D02*
X102801260Y-88571429D01*
X102801260Y-88571429D02*
X102777450Y-88595238D01*
X102777450Y-88595238D02*
X102729831Y-88619048D01*
X102729831Y-88619048D02*
X102682212Y-88619048D01*
X102682212Y-88619048D02*
X102634593Y-88595238D01*
X102634593Y-88595238D02*
X102610783Y-88571429D01*
X102610783Y-88571429D02*
X102586974Y-88523810D01*
X102586974Y-88523810D02*
X102563164Y-88428572D01*
X102563164Y-88428572D02*
X102539355Y-88380953D01*
X102539355Y-88380953D02*
X102515545Y-88357143D01*
X102515545Y-88357143D02*
X102467926Y-88333334D01*
X102467926Y-88333334D02*
X102420307Y-88333334D01*
X102420307Y-88333334D02*
X102372688Y-88357143D01*
X102372688Y-88357143D02*
X102348879Y-88380953D01*
X102348879Y-88380953D02*
X102325069Y-88428572D01*
X102325069Y-88428572D02*
X102325069Y-88547619D01*
X102325069Y-88547619D02*
X102348879Y-88619048D01*
X102325069Y-88785714D02*
X102825069Y-88904762D01*
X102825069Y-88904762D02*
X102467926Y-89000000D01*
X102467926Y-89000000D02*
X102825069Y-89095238D01*
X102825069Y-89095238D02*
X102325069Y-89214286D01*
X102491736Y-89619048D02*
X102825069Y-89619048D01*
X102301260Y-89500000D02*
X102658402Y-89380953D01*
X102658402Y-89380953D02*
X102658402Y-89690476D01*
D10*
X102769047Y-86824809D02*
X102769047Y-86324809D01*
X102769047Y-86324809D02*
X102649999Y-86324809D01*
X102649999Y-86324809D02*
X102578571Y-86348619D01*
X102578571Y-86348619D02*
X102530952Y-86396238D01*
X102530952Y-86396238D02*
X102507142Y-86443857D01*
X102507142Y-86443857D02*
X102483333Y-86539095D01*
X102483333Y-86539095D02*
X102483333Y-86610523D01*
X102483333Y-86610523D02*
X102507142Y-86705761D01*
X102507142Y-86705761D02*
X102530952Y-86753380D01*
X102530952Y-86753380D02*
X102578571Y-86801000D01*
X102578571Y-86801000D02*
X102649999Y-86824809D01*
X102649999Y-86824809D02*
X102769047Y-86824809D01*
X102316666Y-86324809D02*
X101983333Y-86324809D01*
X101983333Y-86324809D02*
X102197618Y-86824809D01*
X107224809Y-87430952D02*
X106724809Y-87430952D01*
X106724809Y-87430952D02*
X106724809Y-87550000D01*
X106724809Y-87550000D02*
X106748619Y-87621428D01*
X106748619Y-87621428D02*
X106796238Y-87669047D01*
X106796238Y-87669047D02*
X106843857Y-87692857D01*
X106843857Y-87692857D02*
X106939095Y-87716666D01*
X106939095Y-87716666D02*
X107010523Y-87716666D01*
X107010523Y-87716666D02*
X107105761Y-87692857D01*
X107105761Y-87692857D02*
X107153380Y-87669047D01*
X107153380Y-87669047D02*
X107201000Y-87621428D01*
X107201000Y-87621428D02*
X107224809Y-87550000D01*
X107224809Y-87550000D02*
X107224809Y-87430952D01*
X106939095Y-88002381D02*
X106915285Y-87954762D01*
X106915285Y-87954762D02*
X106891476Y-87930952D01*
X106891476Y-87930952D02*
X106843857Y-87907143D01*
X106843857Y-87907143D02*
X106820047Y-87907143D01*
X106820047Y-87907143D02*
X106772428Y-87930952D01*
X106772428Y-87930952D02*
X106748619Y-87954762D01*
X106748619Y-87954762D02*
X106724809Y-88002381D01*
X106724809Y-88002381D02*
X106724809Y-88097619D01*
X106724809Y-88097619D02*
X106748619Y-88145238D01*
X106748619Y-88145238D02*
X106772428Y-88169047D01*
X106772428Y-88169047D02*
X106820047Y-88192857D01*
X106820047Y-88192857D02*
X106843857Y-88192857D01*
X106843857Y-88192857D02*
X106891476Y-88169047D01*
X106891476Y-88169047D02*
X106915285Y-88145238D01*
X106915285Y-88145238D02*
X106939095Y-88097619D01*
X106939095Y-88097619D02*
X106939095Y-88002381D01*
X106939095Y-88002381D02*
X106962904Y-87954762D01*
X106962904Y-87954762D02*
X106986714Y-87930952D01*
X106986714Y-87930952D02*
X107034333Y-87907143D01*
X107034333Y-87907143D02*
X107129571Y-87907143D01*
X107129571Y-87907143D02*
X107177190Y-87930952D01*
X107177190Y-87930952D02*
X107201000Y-87954762D01*
X107201000Y-87954762D02*
X107224809Y-88002381D01*
X107224809Y-88002381D02*
X107224809Y-88097619D01*
X107224809Y-88097619D02*
X107201000Y-88145238D01*
X107201000Y-88145238D02*
X107177190Y-88169047D01*
X107177190Y-88169047D02*
X107129571Y-88192857D01*
X107129571Y-88192857D02*
X107034333Y-88192857D01*
X107034333Y-88192857D02*
X106986714Y-88169047D01*
X106986714Y-88169047D02*
X106962904Y-88145238D01*
X106962904Y-88145238D02*
X106939095Y-88097619D01*
X108683333Y-96224809D02*
X108849999Y-95986714D01*
X108969047Y-96224809D02*
X108969047Y-95724809D01*
X108969047Y-95724809D02*
X108778571Y-95724809D01*
X108778571Y-95724809D02*
X108730952Y-95748619D01*
X108730952Y-95748619D02*
X108707142Y-95772428D01*
X108707142Y-95772428D02*
X108683333Y-95820047D01*
X108683333Y-95820047D02*
X108683333Y-95891476D01*
X108683333Y-95891476D02*
X108707142Y-95939095D01*
X108707142Y-95939095D02*
X108730952Y-95962904D01*
X108730952Y-95962904D02*
X108778571Y-95986714D01*
X108778571Y-95986714D02*
X108969047Y-95986714D01*
X108445237Y-96224809D02*
X108349999Y-96224809D01*
X108349999Y-96224809D02*
X108302380Y-96201000D01*
X108302380Y-96201000D02*
X108278571Y-96177190D01*
X108278571Y-96177190D02*
X108230952Y-96105761D01*
X108230952Y-96105761D02*
X108207142Y-96010523D01*
X108207142Y-96010523D02*
X108207142Y-95820047D01*
X108207142Y-95820047D02*
X108230952Y-95772428D01*
X108230952Y-95772428D02*
X108254761Y-95748619D01*
X108254761Y-95748619D02*
X108302380Y-95724809D01*
X108302380Y-95724809D02*
X108397618Y-95724809D01*
X108397618Y-95724809D02*
X108445237Y-95748619D01*
X108445237Y-95748619D02*
X108469047Y-95772428D01*
X108469047Y-95772428D02*
X108492856Y-95820047D01*
X108492856Y-95820047D02*
X108492856Y-95939095D01*
X108492856Y-95939095D02*
X108469047Y-95986714D01*
X108469047Y-95986714D02*
X108445237Y-96010523D01*
X108445237Y-96010523D02*
X108397618Y-96034333D01*
X108397618Y-96034333D02*
X108302380Y-96034333D01*
X108302380Y-96034333D02*
X108254761Y-96010523D01*
X108254761Y-96010523D02*
X108230952Y-95986714D01*
X108230952Y-95986714D02*
X108207142Y-95939095D01*
X106638094Y-92986714D02*
X106638094Y-93224809D01*
X106804760Y-92724809D02*
X106638094Y-92986714D01*
X106638094Y-92986714D02*
X106471427Y-92724809D01*
X106042856Y-93224809D02*
X106328570Y-93224809D01*
X106185713Y-93224809D02*
X106185713Y-92724809D01*
X106185713Y-92724809D02*
X106233332Y-92796238D01*
X106233332Y-92796238D02*
X106280951Y-92843857D01*
X106280951Y-92843857D02*
X106328570Y-92867666D01*
X110083333Y-97177190D02*
X110107142Y-97201000D01*
X110107142Y-97201000D02*
X110178571Y-97224809D01*
X110178571Y-97224809D02*
X110226190Y-97224809D01*
X110226190Y-97224809D02*
X110297618Y-97201000D01*
X110297618Y-97201000D02*
X110345237Y-97153380D01*
X110345237Y-97153380D02*
X110369047Y-97105761D01*
X110369047Y-97105761D02*
X110392856Y-97010523D01*
X110392856Y-97010523D02*
X110392856Y-96939095D01*
X110392856Y-96939095D02*
X110369047Y-96843857D01*
X110369047Y-96843857D02*
X110345237Y-96796238D01*
X110345237Y-96796238D02*
X110297618Y-96748619D01*
X110297618Y-96748619D02*
X110226190Y-96724809D01*
X110226190Y-96724809D02*
X110178571Y-96724809D01*
X110178571Y-96724809D02*
X110107142Y-96748619D01*
X110107142Y-96748619D02*
X110083333Y-96772428D01*
X109797618Y-96939095D02*
X109845237Y-96915285D01*
X109845237Y-96915285D02*
X109869047Y-96891476D01*
X109869047Y-96891476D02*
X109892856Y-96843857D01*
X109892856Y-96843857D02*
X109892856Y-96820047D01*
X109892856Y-96820047D02*
X109869047Y-96772428D01*
X109869047Y-96772428D02*
X109845237Y-96748619D01*
X109845237Y-96748619D02*
X109797618Y-96724809D01*
X109797618Y-96724809D02*
X109702380Y-96724809D01*
X109702380Y-96724809D02*
X109654761Y-96748619D01*
X109654761Y-96748619D02*
X109630952Y-96772428D01*
X109630952Y-96772428D02*
X109607142Y-96820047D01*
X109607142Y-96820047D02*
X109607142Y-96843857D01*
X109607142Y-96843857D02*
X109630952Y-96891476D01*
X109630952Y-96891476D02*
X109654761Y-96915285D01*
X109654761Y-96915285D02*
X109702380Y-96939095D01*
X109702380Y-96939095D02*
X109797618Y-96939095D01*
X109797618Y-96939095D02*
X109845237Y-96962904D01*
X109845237Y-96962904D02*
X109869047Y-96986714D01*
X109869047Y-96986714D02*
X109892856Y-97034333D01*
X109892856Y-97034333D02*
X109892856Y-97129571D01*
X109892856Y-97129571D02*
X109869047Y-97177190D01*
X109869047Y-97177190D02*
X109845237Y-97201000D01*
X109845237Y-97201000D02*
X109797618Y-97224809D01*
X109797618Y-97224809D02*
X109702380Y-97224809D01*
X109702380Y-97224809D02*
X109654761Y-97201000D01*
X109654761Y-97201000D02*
X109630952Y-97177190D01*
X109630952Y-97177190D02*
X109607142Y-97129571D01*
X109607142Y-97129571D02*
X109607142Y-97034333D01*
X109607142Y-97034333D02*
X109630952Y-96986714D01*
X109630952Y-96986714D02*
X109654761Y-96962904D01*
X109654761Y-96962904D02*
X109702380Y-96939095D01*
X113121428Y-88424809D02*
X113288094Y-88186714D01*
X113407142Y-88424809D02*
X113407142Y-87924809D01*
X113407142Y-87924809D02*
X113216666Y-87924809D01*
X113216666Y-87924809D02*
X113169047Y-87948619D01*
X113169047Y-87948619D02*
X113145237Y-87972428D01*
X113145237Y-87972428D02*
X113121428Y-88020047D01*
X113121428Y-88020047D02*
X113121428Y-88091476D01*
X113121428Y-88091476D02*
X113145237Y-88139095D01*
X113145237Y-88139095D02*
X113169047Y-88162904D01*
X113169047Y-88162904D02*
X113216666Y-88186714D01*
X113216666Y-88186714D02*
X113407142Y-88186714D01*
X112645237Y-88424809D02*
X112930951Y-88424809D01*
X112788094Y-88424809D02*
X112788094Y-87924809D01*
X112788094Y-87924809D02*
X112835713Y-87996238D01*
X112835713Y-87996238D02*
X112883332Y-88043857D01*
X112883332Y-88043857D02*
X112930951Y-88067666D01*
X112192857Y-87924809D02*
X112430952Y-87924809D01*
X112430952Y-87924809D02*
X112454761Y-88162904D01*
X112454761Y-88162904D02*
X112430952Y-88139095D01*
X112430952Y-88139095D02*
X112383333Y-88115285D01*
X112383333Y-88115285D02*
X112264285Y-88115285D01*
X112264285Y-88115285D02*
X112216666Y-88139095D01*
X112216666Y-88139095D02*
X112192857Y-88162904D01*
X112192857Y-88162904D02*
X112169047Y-88210523D01*
X112169047Y-88210523D02*
X112169047Y-88329571D01*
X112169047Y-88329571D02*
X112192857Y-88377190D01*
X112192857Y-88377190D02*
X112216666Y-88401000D01*
X112216666Y-88401000D02*
X112264285Y-88424809D01*
X112264285Y-88424809D02*
X112383333Y-88424809D01*
X112383333Y-88424809D02*
X112430952Y-88401000D01*
X112430952Y-88401000D02*
X112454761Y-88377190D01*
X101424809Y-93478571D02*
X101186714Y-93311905D01*
X101424809Y-93192857D02*
X100924809Y-93192857D01*
X100924809Y-93192857D02*
X100924809Y-93383333D01*
X100924809Y-93383333D02*
X100948619Y-93430952D01*
X100948619Y-93430952D02*
X100972428Y-93454762D01*
X100972428Y-93454762D02*
X101020047Y-93478571D01*
X101020047Y-93478571D02*
X101091476Y-93478571D01*
X101091476Y-93478571D02*
X101139095Y-93454762D01*
X101139095Y-93454762D02*
X101162904Y-93430952D01*
X101162904Y-93430952D02*
X101186714Y-93383333D01*
X101186714Y-93383333D02*
X101186714Y-93192857D01*
X101424809Y-93954762D02*
X101424809Y-93669048D01*
X101424809Y-93811905D02*
X100924809Y-93811905D01*
X100924809Y-93811905D02*
X100996238Y-93764286D01*
X100996238Y-93764286D02*
X101043857Y-93716667D01*
X101043857Y-93716667D02*
X101067666Y-93669048D01*
X100924809Y-94121428D02*
X100924809Y-94454761D01*
X100924809Y-94454761D02*
X101424809Y-94240476D01*
X110483333Y-86577190D02*
X110507142Y-86601000D01*
X110507142Y-86601000D02*
X110578571Y-86624809D01*
X110578571Y-86624809D02*
X110626190Y-86624809D01*
X110626190Y-86624809D02*
X110697618Y-86601000D01*
X110697618Y-86601000D02*
X110745237Y-86553380D01*
X110745237Y-86553380D02*
X110769047Y-86505761D01*
X110769047Y-86505761D02*
X110792856Y-86410523D01*
X110792856Y-86410523D02*
X110792856Y-86339095D01*
X110792856Y-86339095D02*
X110769047Y-86243857D01*
X110769047Y-86243857D02*
X110745237Y-86196238D01*
X110745237Y-86196238D02*
X110697618Y-86148619D01*
X110697618Y-86148619D02*
X110626190Y-86124809D01*
X110626190Y-86124809D02*
X110578571Y-86124809D01*
X110578571Y-86124809D02*
X110507142Y-86148619D01*
X110507142Y-86148619D02*
X110483333Y-86172428D01*
X110316666Y-86124809D02*
X109983333Y-86124809D01*
X109983333Y-86124809D02*
X110197618Y-86624809D01*
X107483333Y-96224809D02*
X107649999Y-95986714D01*
X107769047Y-96224809D02*
X107769047Y-95724809D01*
X107769047Y-95724809D02*
X107578571Y-95724809D01*
X107578571Y-95724809D02*
X107530952Y-95748619D01*
X107530952Y-95748619D02*
X107507142Y-95772428D01*
X107507142Y-95772428D02*
X107483333Y-95820047D01*
X107483333Y-95820047D02*
X107483333Y-95891476D01*
X107483333Y-95891476D02*
X107507142Y-95939095D01*
X107507142Y-95939095D02*
X107530952Y-95962904D01*
X107530952Y-95962904D02*
X107578571Y-95986714D01*
X107578571Y-95986714D02*
X107769047Y-95986714D01*
X107197618Y-95939095D02*
X107245237Y-95915285D01*
X107245237Y-95915285D02*
X107269047Y-95891476D01*
X107269047Y-95891476D02*
X107292856Y-95843857D01*
X107292856Y-95843857D02*
X107292856Y-95820047D01*
X107292856Y-95820047D02*
X107269047Y-95772428D01*
X107269047Y-95772428D02*
X107245237Y-95748619D01*
X107245237Y-95748619D02*
X107197618Y-95724809D01*
X107197618Y-95724809D02*
X107102380Y-95724809D01*
X107102380Y-95724809D02*
X107054761Y-95748619D01*
X107054761Y-95748619D02*
X107030952Y-95772428D01*
X107030952Y-95772428D02*
X107007142Y-95820047D01*
X107007142Y-95820047D02*
X107007142Y-95843857D01*
X107007142Y-95843857D02*
X107030952Y-95891476D01*
X107030952Y-95891476D02*
X107054761Y-95915285D01*
X107054761Y-95915285D02*
X107102380Y-95939095D01*
X107102380Y-95939095D02*
X107197618Y-95939095D01*
X107197618Y-95939095D02*
X107245237Y-95962904D01*
X107245237Y-95962904D02*
X107269047Y-95986714D01*
X107269047Y-95986714D02*
X107292856Y-96034333D01*
X107292856Y-96034333D02*
X107292856Y-96129571D01*
X107292856Y-96129571D02*
X107269047Y-96177190D01*
X107269047Y-96177190D02*
X107245237Y-96201000D01*
X107245237Y-96201000D02*
X107197618Y-96224809D01*
X107197618Y-96224809D02*
X107102380Y-96224809D01*
X107102380Y-96224809D02*
X107054761Y-96201000D01*
X107054761Y-96201000D02*
X107030952Y-96177190D01*
X107030952Y-96177190D02*
X107007142Y-96129571D01*
X107007142Y-96129571D02*
X107007142Y-96034333D01*
X107007142Y-96034333D02*
X107030952Y-95986714D01*
X107030952Y-95986714D02*
X107054761Y-95962904D01*
X107054761Y-95962904D02*
X107102380Y-95939095D01*
X102883333Y-90624809D02*
X103049999Y-90386714D01*
X103169047Y-90624809D02*
X103169047Y-90124809D01*
X103169047Y-90124809D02*
X102978571Y-90124809D01*
X102978571Y-90124809D02*
X102930952Y-90148619D01*
X102930952Y-90148619D02*
X102907142Y-90172428D01*
X102907142Y-90172428D02*
X102883333Y-90220047D01*
X102883333Y-90220047D02*
X102883333Y-90291476D01*
X102883333Y-90291476D02*
X102907142Y-90339095D01*
X102907142Y-90339095D02*
X102930952Y-90362904D01*
X102930952Y-90362904D02*
X102978571Y-90386714D01*
X102978571Y-90386714D02*
X103169047Y-90386714D01*
X102716666Y-90124809D02*
X102383333Y-90124809D01*
X102383333Y-90124809D02*
X102597618Y-90624809D01*
D11*
%TO.C,U3*%
X106180000Y-90640000D02*
X106040000Y-90830000D01*
X106320000Y-90830000D01*
X106180000Y-90640000D01*
G36*
X106320000Y-90830000D02*
G01*
X106040000Y-90830000D01*
X106180000Y-90640000D01*
X106320000Y-90830000D01*
G37*
X105735000Y-90965000D02*
X105735000Y-90635000D01*
X105735000Y-89665000D02*
X104265000Y-89665000D01*
X104265000Y-91935000D02*
X105735000Y-91935000D01*
X104265000Y-91285000D02*
X104265000Y-91935000D01*
X104265000Y-89665000D02*
X104265000Y-90315000D01*
%TO.C,J2*%
D12*
X112960000Y-85600000D02*
G75*
G02*
X112760000Y-85600000I-100000J0D01*
G01*
X112760000Y-85600000D02*
G75*
G02*
X112960000Y-85600000I100000J0D01*
G01*
%TO.C,C20*%
D11*
X101160000Y-92092164D02*
X101160000Y-92307836D01*
X100440000Y-92092164D02*
X100440000Y-92307836D01*
%TO.C,U4*%
X110650000Y-93640000D02*
X110410000Y-93970000D01*
X110890000Y-93970000D01*
X110650000Y-93640000D01*
G36*
X110890000Y-93970000D02*
G01*
X110410000Y-93970000D01*
X110650000Y-93640000D01*
X110890000Y-93970000D01*
G37*
X107290000Y-93110000D02*
X107740000Y-93110000D01*
X111060000Y-93110000D02*
X111510000Y-93110000D01*
X111510000Y-93110000D02*
X111510000Y-92660000D01*
X107290000Y-92660000D02*
X107290000Y-93110000D01*
X111510000Y-89340000D02*
X111510000Y-88890000D01*
X107290000Y-88890000D02*
X107290000Y-89340000D01*
X107740000Y-88890000D02*
X107290000Y-88890000D01*
X111510000Y-88890000D02*
X111060000Y-88890000D01*
%TO.C,R16*%
X113522500Y-92762742D02*
X113522500Y-93237258D01*
X112477500Y-92762742D02*
X112477500Y-93237258D01*
%TO.C,R29*%
X111020000Y-87046359D02*
X111020000Y-87353641D01*
X111780000Y-87046359D02*
X111780000Y-87353641D01*
%TO.C,Z1*%
X106250000Y-94090000D02*
X106490000Y-93760000D01*
X106010000Y-93760000D01*
X106250000Y-94090000D01*
G36*
X106250000Y-94090000D02*
G01*
X106010000Y-93760000D01*
X106490000Y-93760000D01*
X106250000Y-94090000D01*
G37*
X105710000Y-97160000D02*
X105710000Y-97110000D01*
X105710000Y-94090000D02*
X105710000Y-94040000D01*
X105710000Y-94040000D02*
X103890000Y-94040000D01*
X103890000Y-97160000D02*
X105710000Y-97160000D01*
X103890000Y-97110000D02*
X103890000Y-97160000D01*
X103890000Y-94040000D02*
X103890000Y-94090000D01*
%TO.C,SW4*%
D12*
X102560000Y-90900000D02*
G75*
G02*
X102400000Y-90900000I-80000J0D01*
G01*
X102400000Y-90900000D02*
G75*
G02*
X102560000Y-90900000I80000J0D01*
G01*
%TO.C,D7*%
D13*
X103300000Y-86115000D02*
X104300000Y-86115000D01*
%TO.C,D8*%
X106300000Y-89485000D02*
X105300000Y-89485000D01*
%TO.C,R9*%
D11*
X108980000Y-94446359D02*
X108980000Y-94753641D01*
X108220000Y-94446359D02*
X108220000Y-94753641D01*
D14*
%TO.C,H2*%
X101095200Y-95509320D02*
X101100280Y-95514400D01*
X101105360Y-95509320D01*
X101100280Y-95504240D01*
X101095200Y-95509320D01*
G36*
X101105360Y-95509320D02*
G01*
X101100280Y-95514400D01*
X101095200Y-95509320D01*
X101100280Y-95504240D01*
X101105360Y-95509320D01*
G37*
X101562560Y-95712520D02*
X101567640Y-95717600D01*
X101572720Y-95712520D01*
X101567640Y-95707440D01*
X101562560Y-95712520D01*
G36*
X101572720Y-95712520D02*
G01*
X101567640Y-95717600D01*
X101562560Y-95712520D01*
X101567640Y-95707440D01*
X101572720Y-95712520D01*
G37*
X101623520Y-95326440D02*
X101628600Y-95331520D01*
X101633680Y-95326440D01*
X101628600Y-95321360D01*
X101623520Y-95326440D01*
G36*
X101633680Y-95326440D02*
G01*
X101628600Y-95331520D01*
X101623520Y-95326440D01*
X101628600Y-95321360D01*
X101633680Y-95326440D01*
G37*
X101597543Y-95439907D02*
X101599324Y-95447832D01*
X101607523Y-95462133D01*
X101612824Y-95459737D01*
X101613360Y-95454039D01*
X101605981Y-95440262D01*
X101603317Y-95438271D01*
X101597543Y-95439907D01*
G36*
X101605981Y-95440262D02*
G01*
X101613360Y-95454039D01*
X101612824Y-95459737D01*
X101607523Y-95462133D01*
X101599324Y-95447832D01*
X101597543Y-95439907D01*
X101603317Y-95438271D01*
X101605981Y-95440262D01*
G37*
X101582997Y-95410500D02*
X101582880Y-95412800D01*
X101590691Y-95422569D01*
X101593640Y-95422960D01*
X101599708Y-95416735D01*
X101598120Y-95412800D01*
X101588991Y-95403107D01*
X101587361Y-95402640D01*
X101582997Y-95410500D01*
G36*
X101588991Y-95403107D02*
G01*
X101598120Y-95412800D01*
X101599708Y-95416735D01*
X101593640Y-95422960D01*
X101590691Y-95422569D01*
X101582880Y-95412800D01*
X101582997Y-95410500D01*
X101587361Y-95402640D01*
X101588991Y-95403107D01*
G37*
X102019901Y-95695205D02*
X102016086Y-95702360D01*
X102016270Y-95715863D01*
X102027261Y-95715602D01*
X102033307Y-95710826D01*
X102039853Y-95696810D01*
X102033977Y-95687538D01*
X102031008Y-95687120D01*
X102019901Y-95695205D01*
G36*
X102033977Y-95687538D02*
G01*
X102039853Y-95696810D01*
X102033307Y-95710826D01*
X102027261Y-95715602D01*
X102016270Y-95715863D01*
X102016086Y-95702360D01*
X102019901Y-95695205D01*
X102031008Y-95687120D01*
X102033977Y-95687538D01*
G37*
X102328053Y-93671504D02*
X102329640Y-93675440D01*
X102338770Y-93685132D01*
X102340400Y-93685600D01*
X102344764Y-93677739D01*
X102344880Y-93675440D01*
X102337070Y-93665670D01*
X102334121Y-93665280D01*
X102328053Y-93671504D01*
G36*
X102337070Y-93665670D02*
G01*
X102344880Y-93675440D01*
X102344764Y-93677739D01*
X102340400Y-93685600D01*
X102338770Y-93685132D01*
X102329640Y-93675440D01*
X102328053Y-93671504D01*
X102334121Y-93665280D01*
X102337070Y-93665670D01*
G37*
X101712269Y-94966639D02*
X101712695Y-94985361D01*
X101712872Y-94986616D01*
X101717869Y-95010182D01*
X101722345Y-95015125D01*
X101724922Y-95000866D01*
X101725120Y-94991759D01*
X101722078Y-94970744D01*
X101716799Y-94961816D01*
X101712269Y-94966639D01*
G36*
X101722078Y-94970744D02*
G01*
X101725120Y-94991759D01*
X101724922Y-95000866D01*
X101722345Y-95015125D01*
X101717869Y-95010182D01*
X101712872Y-94986616D01*
X101712695Y-94985361D01*
X101712269Y-94966639D01*
X101716799Y-94961816D01*
X101722078Y-94970744D01*
G37*
X101648411Y-94810878D02*
X101658123Y-94830498D01*
X101673277Y-94856940D01*
X101691077Y-94885083D01*
X101694092Y-94889560D01*
X101707267Y-94905799D01*
X101714452Y-94908575D01*
X101714894Y-94906460D01*
X101709755Y-94893079D01*
X101696874Y-94870383D01*
X101680155Y-94844303D01*
X101663500Y-94820770D01*
X101650813Y-94805716D01*
X101646937Y-94803200D01*
X101648411Y-94810878D01*
G36*
X101650813Y-94805716D02*
G01*
X101663500Y-94820770D01*
X101680155Y-94844303D01*
X101696874Y-94870383D01*
X101709755Y-94893079D01*
X101714894Y-94906460D01*
X101714452Y-94908575D01*
X101707267Y-94905799D01*
X101694092Y-94889560D01*
X101691077Y-94885083D01*
X101673277Y-94856940D01*
X101658123Y-94830498D01*
X101648411Y-94810878D01*
X101646937Y-94803200D01*
X101650813Y-94805716D01*
G37*
X102110673Y-93855291D02*
X102105216Y-93859070D01*
X102092840Y-93877781D01*
X102091036Y-93887504D01*
X102092888Y-93898158D01*
X102100255Y-93889721D01*
X102100274Y-93889692D01*
X102107718Y-93883180D01*
X102112595Y-93894835D01*
X102113525Y-93899852D01*
X102117695Y-93924360D01*
X102125564Y-93896997D01*
X102129365Y-93870159D01*
X102123796Y-93855129D01*
X102110673Y-93855291D01*
G36*
X102129365Y-93870159D02*
G01*
X102125564Y-93896997D01*
X102117695Y-93924360D01*
X102113525Y-93899852D01*
X102112595Y-93894835D01*
X102107718Y-93883180D01*
X102100274Y-93889692D01*
X102100255Y-93889721D01*
X102092888Y-93898158D01*
X102091036Y-93887504D01*
X102092840Y-93877781D01*
X102105216Y-93859070D01*
X102110673Y-93855291D01*
X102123796Y-93855129D01*
X102129365Y-93870159D01*
G37*
X101656247Y-94777246D02*
X101658719Y-94787553D01*
X101670867Y-94807664D01*
X101678441Y-94818085D01*
X101699620Y-94849284D01*
X101717391Y-94881068D01*
X101720101Y-94886942D01*
X101729694Y-94905032D01*
X101734525Y-94905146D01*
X101734883Y-94901592D01*
X101730427Y-94881994D01*
X101718492Y-94855387D01*
X101702163Y-94826648D01*
X101684525Y-94800657D01*
X101668662Y-94782289D01*
X101657659Y-94776425D01*
X101656247Y-94777246D01*
G36*
X101668662Y-94782289D02*
G01*
X101684525Y-94800657D01*
X101702163Y-94826648D01*
X101718492Y-94855387D01*
X101730427Y-94881994D01*
X101734883Y-94901592D01*
X101734525Y-94905146D01*
X101729694Y-94905032D01*
X101720101Y-94886942D01*
X101717391Y-94881068D01*
X101699620Y-94849284D01*
X101678441Y-94818085D01*
X101670867Y-94807664D01*
X101658719Y-94787553D01*
X101656247Y-94777246D01*
X101657659Y-94776425D01*
X101668662Y-94782289D01*
G37*
X102136505Y-93459491D02*
X102132743Y-93486444D01*
X102131520Y-93517289D01*
X102133126Y-93568758D01*
X102137543Y-93608519D01*
X102144173Y-93634635D01*
X102152418Y-93645170D01*
X102161681Y-93638187D01*
X102165993Y-93628889D01*
X102171320Y-93605290D01*
X102172484Y-93590789D01*
X102173516Y-93575497D01*
X102178950Y-93577202D01*
X102188459Y-93589080D01*
X102198046Y-93600282D01*
X102201123Y-93597766D01*
X102198835Y-93578851D01*
X102197134Y-93568760D01*
X102188750Y-93533189D01*
X102176850Y-93498453D01*
X102163587Y-93469317D01*
X102151119Y-93450548D01*
X102141921Y-93446691D01*
X102136505Y-93459491D01*
G36*
X102151119Y-93450548D02*
G01*
X102163587Y-93469317D01*
X102176850Y-93498453D01*
X102188750Y-93533189D01*
X102197134Y-93568760D01*
X102198835Y-93578851D01*
X102201123Y-93597766D01*
X102198046Y-93600282D01*
X102188459Y-93589080D01*
X102178950Y-93577202D01*
X102173516Y-93575497D01*
X102172484Y-93590789D01*
X102171320Y-93605290D01*
X102165993Y-93628889D01*
X102161681Y-93638187D01*
X102152418Y-93645170D01*
X102144173Y-93634635D01*
X102137543Y-93608519D01*
X102133126Y-93568758D01*
X102131520Y-93517289D01*
X102132743Y-93486444D01*
X102136505Y-93459491D01*
X102141921Y-93446691D01*
X102151119Y-93450548D01*
G37*
X101328872Y-95511372D02*
X101308645Y-95526809D01*
X101290728Y-95541730D01*
X101275393Y-95541276D01*
X101269566Y-95538105D01*
X101249958Y-95532458D01*
X101226697Y-95541637D01*
X101214428Y-95550322D01*
X101218011Y-95551507D01*
X101219140Y-95551180D01*
X101235346Y-95553874D01*
X101244168Y-95568518D01*
X101243421Y-95587419D01*
X101233369Y-95601278D01*
X101222193Y-95611309D01*
X101228603Y-95616492D01*
X101234664Y-95618179D01*
X101257790Y-95619827D01*
X101266650Y-95618156D01*
X101278415Y-95610920D01*
X101257760Y-95610920D01*
X101252680Y-95616000D01*
X101247600Y-95610920D01*
X101252680Y-95605840D01*
X101257760Y-95610920D01*
X101278415Y-95610920D01*
X101287175Y-95605533D01*
X101307972Y-95584987D01*
X101321392Y-95564507D01*
X101322853Y-95559453D01*
X101331483Y-95543377D01*
X101348754Y-95524947D01*
X101364441Y-95510584D01*
X101365162Y-95505112D01*
X101351413Y-95504240D01*
X101351151Y-95504240D01*
X101328872Y-95511372D01*
G36*
X101266650Y-95618156D02*
G01*
X101257790Y-95619827D01*
X101234664Y-95618179D01*
X101228603Y-95616492D01*
X101222193Y-95611309D01*
X101222626Y-95610920D01*
X101247600Y-95610920D01*
X101252680Y-95616000D01*
X101257760Y-95610920D01*
X101252680Y-95605840D01*
X101247600Y-95610920D01*
X101222626Y-95610920D01*
X101233369Y-95601278D01*
X101243421Y-95587419D01*
X101244168Y-95568518D01*
X101235346Y-95553874D01*
X101219140Y-95551180D01*
X101218011Y-95551507D01*
X101214428Y-95550322D01*
X101226697Y-95541637D01*
X101249958Y-95532458D01*
X101269566Y-95538105D01*
X101275393Y-95541276D01*
X101290728Y-95541730D01*
X101308645Y-95526809D01*
X101328872Y-95511372D01*
X101351151Y-95504240D01*
X101351413Y-95504240D01*
X101365162Y-95505112D01*
X101364441Y-95510584D01*
X101348754Y-95524947D01*
X101331483Y-95543377D01*
X101322853Y-95559453D01*
X101321392Y-95564507D01*
X101307972Y-95584987D01*
X101287175Y-95605533D01*
X101278415Y-95610920D01*
X101266650Y-95618156D01*
G37*
X102233068Y-93391710D02*
X102233064Y-93392255D01*
X102230434Y-93410584D01*
X102223990Y-93438462D01*
X102222067Y-93445600D01*
X102211127Y-93485000D01*
X102180744Y-93448140D01*
X102153393Y-93420201D01*
X102132664Y-93411343D01*
X102117946Y-93421660D01*
X102108626Y-93451245D01*
X102107379Y-93459310D01*
X102098745Y-93503630D01*
X102084155Y-93559704D01*
X102065715Y-93620636D01*
X102045531Y-93679527D01*
X102025708Y-93729479D01*
X102023130Y-93735261D01*
X102001257Y-93775995D01*
X101973484Y-93818209D01*
X101959065Y-93836861D01*
X101935818Y-93867081D01*
X101907170Y-93907844D01*
X101877972Y-93952148D01*
X101866743Y-93970080D01*
X101838740Y-94013673D01*
X101808551Y-94057472D01*
X101778921Y-94097832D01*
X101752594Y-94131113D01*
X101732313Y-94153671D01*
X101722580Y-94161426D01*
X101715546Y-94173125D01*
X101714960Y-94178714D01*
X101706947Y-94190394D01*
X101685673Y-94209030D01*
X101655288Y-94231097D01*
X101646279Y-94237045D01*
X101605242Y-94267189D01*
X101564158Y-94303188D01*
X101532495Y-94336597D01*
X101512217Y-94359947D01*
X101480388Y-94394834D01*
X101439742Y-94438342D01*
X101393014Y-94487558D01*
X101342937Y-94539567D01*
X101318736Y-94564440D01*
X101265768Y-94619840D01*
X101213079Y-94677033D01*
X101163930Y-94732324D01*
X101121583Y-94782020D01*
X101089299Y-94822429D01*
X101080991Y-94833680D01*
X101048460Y-94883366D01*
X101010474Y-94948419D01*
X100968831Y-95025223D01*
X100925330Y-95110166D01*
X100881768Y-95199631D01*
X100839945Y-95290005D01*
X100801659Y-95377673D01*
X100768709Y-95459021D01*
X100765012Y-95468680D01*
X100736210Y-95530923D01*
X100704108Y-95573656D01*
X100667827Y-95597542D01*
X100626488Y-95603244D01*
X100595078Y-95597086D01*
X100561298Y-95587089D01*
X100518203Y-95574861D01*
X100476137Y-95563307D01*
X100455120Y-95557760D01*
X100435660Y-95555076D01*
X100403780Y-95553064D01*
X100364042Y-95551743D01*
X100321010Y-95551134D01*
X100279247Y-95551256D01*
X100243317Y-95552128D01*
X100217782Y-95553769D01*
X100207205Y-95556201D01*
X100207226Y-95556698D01*
X100203750Y-95563847D01*
X100195337Y-95565200D01*
X100167013Y-95572287D01*
X100132085Y-95590596D01*
X100096909Y-95615698D01*
X100067841Y-95643164D01*
X100053008Y-95664374D01*
X100036224Y-95707614D01*
X100034055Y-95736944D01*
X100037744Y-95745424D01*
X100060626Y-95764912D01*
X100098414Y-95783764D01*
X100145773Y-95799544D01*
X100167942Y-95804819D01*
X100206568Y-95811869D01*
X100232882Y-95813257D01*
X100254095Y-95808953D01*
X100265527Y-95804447D01*
X100283266Y-95795148D01*
X100286630Y-95789893D01*
X100284940Y-95789548D01*
X100273010Y-95783706D01*
X100276298Y-95772880D01*
X100292708Y-95763273D01*
X100306935Y-95754947D01*
X100308133Y-95748617D01*
X100307583Y-95745544D01*
X100312183Y-95743770D01*
X100324490Y-95743425D01*
X100347060Y-95744640D01*
X100382449Y-95747547D01*
X100433213Y-95752278D01*
X100493619Y-95758150D01*
X100543749Y-95762494D01*
X100591982Y-95765689D01*
X100631123Y-95767302D01*
X100646019Y-95767360D01*
X100693880Y-95766320D01*
X100658320Y-95756134D01*
X100625235Y-95748582D01*
X100594778Y-95744504D01*
X100594211Y-95744474D01*
X100565661Y-95743000D01*
X100572329Y-95737264D01*
X100287602Y-95737264D01*
X100286872Y-95738904D01*
X100278802Y-95742656D01*
X100270182Y-95726957D01*
X100256712Y-95702680D01*
X100244513Y-95689660D01*
X100235293Y-95679741D01*
X100238048Y-95676960D01*
X100254015Y-95684242D01*
X100271290Y-95701406D01*
X100284332Y-95721422D01*
X100287602Y-95737264D01*
X100572329Y-95737264D01*
X100591967Y-95720372D01*
X100625341Y-95703262D01*
X100660957Y-95703541D01*
X100692471Y-95720856D01*
X100697666Y-95726267D01*
X100712435Y-95741060D01*
X100720434Y-95745355D01*
X100717655Y-95748744D01*
X100709840Y-95755700D01*
X100705087Y-95760447D01*
X100705108Y-95763998D01*
X100712392Y-95766602D01*
X100729428Y-95768506D01*
X100758705Y-95769959D01*
X100802711Y-95771208D01*
X100863935Y-95772503D01*
X100881840Y-95772855D01*
X100917323Y-95775572D01*
X100947083Y-95781330D01*
X100958557Y-95785689D01*
X100980420Y-95792450D01*
X101013453Y-95796856D01*
X101034757Y-95797767D01*
X101074065Y-95799989D01*
X101111264Y-95805247D01*
X101125613Y-95808653D01*
X101157965Y-95815909D01*
X101191419Y-95817281D01*
X101233772Y-95812842D01*
X101252680Y-95809839D01*
X101286611Y-95800775D01*
X101316622Y-95787471D01*
X101319945Y-95785404D01*
X101334102Y-95778083D01*
X101352919Y-95773201D01*
X101380186Y-95770394D01*
X101419694Y-95769297D01*
X101475236Y-95769543D01*
X101483495Y-95769651D01*
X101534853Y-95769827D01*
X101579237Y-95769001D01*
X101612511Y-95767319D01*
X101630540Y-95764932D01*
X101632076Y-95764311D01*
X101650450Y-95744927D01*
X101656828Y-95721420D01*
X101652333Y-95706892D01*
X101645406Y-95698926D01*
X101647287Y-95708640D01*
X101648086Y-95711133D01*
X101649871Y-95723142D01*
X101641135Y-95726535D01*
X101617564Y-95723185D01*
X101592793Y-95720557D01*
X101586736Y-95725507D01*
X101587465Y-95726959D01*
X101584737Y-95733389D01*
X101564242Y-95731652D01*
X101528181Y-95732809D01*
X101497630Y-95743154D01*
X101471032Y-95753611D01*
X101454235Y-95753321D01*
X101445784Y-95748132D01*
X101426015Y-95740274D01*
X101415695Y-95741419D01*
X101399267Y-95741344D01*
X101394602Y-95737404D01*
X101397028Y-95726147D01*
X101404378Y-95721543D01*
X101415179Y-95711979D01*
X101414571Y-95706356D01*
X101418015Y-95696779D01*
X101435112Y-95687595D01*
X101459281Y-95681059D01*
X101483940Y-95679426D01*
X101490706Y-95680277D01*
X101516979Y-95679827D01*
X101532605Y-95674274D01*
X101550887Y-95669544D01*
X101578163Y-95675265D01*
X101594272Y-95681190D01*
X101618076Y-95689314D01*
X101628293Y-95689896D01*
X101626679Y-95686484D01*
X101610152Y-95676752D01*
X101581902Y-95666056D01*
X101565719Y-95661341D01*
X101538215Y-95651996D01*
X101521701Y-95642189D01*
X101519380Y-95637355D01*
X101516207Y-95627120D01*
X101500456Y-95630867D01*
X101492762Y-95635288D01*
X101485237Y-95644038D01*
X101495353Y-95653665D01*
X101497842Y-95655144D01*
X101506798Y-95662078D01*
X101500548Y-95665439D01*
X101476597Y-95666479D01*
X101475235Y-95666491D01*
X101439032Y-95661825D01*
X101415491Y-95648848D01*
X101407246Y-95630019D01*
X101414999Y-95610210D01*
X101426453Y-95585035D01*
X101430157Y-95562060D01*
X101433294Y-95542280D01*
X101442646Y-95540644D01*
X101443180Y-95540946D01*
X101446420Y-95539745D01*
X101437630Y-95527026D01*
X101435560Y-95524560D01*
X101425214Y-95510251D01*
X101428580Y-95508334D01*
X101430480Y-95509320D01*
X101437582Y-95511054D01*
X101429687Y-95499621D01*
X101429084Y-95498922D01*
X101401056Y-95498922D01*
X101398897Y-95503478D01*
X101394813Y-95503916D01*
X101387588Y-95512429D01*
X101383745Y-95531371D01*
X101383853Y-95551676D01*
X101388482Y-95564276D01*
X101390963Y-95565200D01*
X101395557Y-95573585D01*
X101395044Y-95593087D01*
X101389686Y-95615223D01*
X101389392Y-95616000D01*
X101387328Y-95628770D01*
X101385207Y-95651560D01*
X101380712Y-95679189D01*
X101372399Y-95708144D01*
X101362574Y-95732123D01*
X101353545Y-95744824D01*
X101350850Y-95745397D01*
X101339614Y-95750111D01*
X101320346Y-95764412D01*
X101315530Y-95768554D01*
X101284940Y-95787347D01*
X101248285Y-95799260D01*
X101244410Y-95799894D01*
X101216646Y-95804010D01*
X101198350Y-95806976D01*
X101195647Y-95807514D01*
X101182982Y-95806508D01*
X101157003Y-95802301D01*
X101134687Y-95798052D01*
X101090765Y-95790921D01*
X101042050Y-95785416D01*
X101021366Y-95783911D01*
X100974593Y-95778521D01*
X100946241Y-95767166D01*
X100934823Y-95747955D01*
X100938852Y-95718995D01*
X100941435Y-95712726D01*
X100925348Y-95712726D01*
X100924317Y-95723470D01*
X100920133Y-95746032D01*
X100913427Y-95751526D01*
X100906095Y-95747129D01*
X100894249Y-95727749D01*
X100892000Y-95714662D01*
X100894587Y-95700870D01*
X100898686Y-95700578D01*
X100911067Y-95701248D01*
X100916907Y-95697689D01*
X100924193Y-95696750D01*
X100925348Y-95712726D01*
X100941435Y-95712726D01*
X100949701Y-95692672D01*
X100959743Y-95665149D01*
X100958901Y-95650062D01*
X100947911Y-95649684D01*
X100937966Y-95656436D01*
X100925298Y-95662427D01*
X100920402Y-95651667D01*
X100922126Y-95626160D01*
X100921173Y-95616479D01*
X100911138Y-95623620D01*
X100895859Y-95634575D01*
X100889968Y-95636320D01*
X100884038Y-95627951D01*
X100881952Y-95609417D01*
X100884088Y-95590572D01*
X100887914Y-95582833D01*
X100900727Y-95579776D01*
X100913424Y-95586357D01*
X100916351Y-95597251D01*
X100915827Y-95598226D01*
X100918209Y-95604436D01*
X100936205Y-95602048D01*
X100957679Y-95600246D01*
X100962117Y-95608821D01*
X100950928Y-95624128D01*
X100943860Y-95634195D01*
X100950928Y-95636320D01*
X100969617Y-95627839D01*
X100992773Y-95605209D01*
X101016175Y-95572649D01*
X101018475Y-95568825D01*
X101052077Y-95531455D01*
X101102879Y-95502887D01*
X101151080Y-95487862D01*
X101179437Y-95480991D01*
X101189352Y-95477279D01*
X101182228Y-95475518D01*
X101166320Y-95474744D01*
X101133672Y-95471376D01*
X101116279Y-95465548D01*
X101115345Y-95459312D01*
X101132070Y-95454725D01*
X101153947Y-95453595D01*
X101193241Y-95450469D01*
X101230796Y-95442741D01*
X101244088Y-95438200D01*
X101273796Y-95428283D01*
X101299252Y-95423778D01*
X101302181Y-95423762D01*
X101314166Y-95426198D01*
X101311100Y-95429688D01*
X101298683Y-95439206D01*
X101303272Y-95446591D01*
X101321260Y-95446772D01*
X101335892Y-95444282D01*
X101334049Y-95447814D01*
X101318720Y-95457523D01*
X101293320Y-95473039D01*
X101329479Y-95473399D01*
X101349558Y-95476275D01*
X101371463Y-95483021D01*
X101390270Y-95491336D01*
X101401056Y-95498922D01*
X101429084Y-95498922D01*
X101427319Y-95496880D01*
X101415903Y-95480335D01*
X101419621Y-95471636D01*
X101422239Y-95470371D01*
X101426319Y-95461472D01*
X101414625Y-95447221D01*
X101390054Y-95430284D01*
X101364440Y-95417205D01*
X101333960Y-95403435D01*
X101374600Y-95402882D01*
X101406064Y-95400364D01*
X101426933Y-95394814D01*
X101434226Y-95387771D01*
X101424963Y-95380778D01*
X101420157Y-95379333D01*
X101405254Y-95371297D01*
X101404000Y-95363748D01*
X101402604Y-95355226D01*
X101386454Y-95355226D01*
X101385059Y-95361266D01*
X101379680Y-95362000D01*
X101371318Y-95358282D01*
X101372907Y-95355226D01*
X101384965Y-95354010D01*
X101386454Y-95355226D01*
X101402604Y-95355226D01*
X101402169Y-95352576D01*
X101380442Y-95345309D01*
X101338797Y-95341939D01*
X101318615Y-95341680D01*
X101280168Y-95344053D01*
X101253278Y-95350479D01*
X101245786Y-95355038D01*
X101226044Y-95371444D01*
X101212040Y-95381081D01*
X101202044Y-95388540D01*
X101206610Y-95390870D01*
X101228214Y-95388810D01*
X101234900Y-95387923D01*
X101261109Y-95386243D01*
X101276437Y-95388873D01*
X101278080Y-95391115D01*
X101271431Y-95404788D01*
X101257433Y-95415543D01*
X101245010Y-95416816D01*
X101244126Y-95416098D01*
X101237940Y-95417102D01*
X101237440Y-95420976D01*
X101228633Y-95426955D01*
X101207125Y-95429837D01*
X101180291Y-95429678D01*
X101155505Y-95426538D01*
X101140141Y-95420475D01*
X101139866Y-95420211D01*
X101124534Y-95414003D01*
X101111287Y-95412574D01*
X101097729Y-95411493D01*
X101099198Y-95406025D01*
X101114497Y-95393606D01*
X101129697Y-95379240D01*
X101128131Y-95370972D01*
X101124657Y-95369234D01*
X101119394Y-95364466D01*
X101130760Y-95362478D01*
X101144870Y-95360808D01*
X101142385Y-95355075D01*
X101131359Y-95346436D01*
X101120346Y-95335411D01*
X101122498Y-95331520D01*
X101138137Y-95327851D01*
X101163782Y-95318706D01*
X101172206Y-95315288D01*
X101195670Y-95304567D01*
X101202505Y-95297361D01*
X101195177Y-95290240D01*
X101191677Y-95288214D01*
X101178091Y-95279381D01*
X101182556Y-95273969D01*
X101192171Y-95270401D01*
X101208956Y-95259731D01*
X101213310Y-95251756D01*
X101215623Y-95231257D01*
X101215850Y-95229320D01*
X101223254Y-95223048D01*
X101226549Y-95224387D01*
X101236655Y-95221196D01*
X101242082Y-95210981D01*
X101249002Y-95199619D01*
X101263881Y-95194494D01*
X101292167Y-95194087D01*
X101301234Y-95194506D01*
X101333889Y-95194217D01*
X101358963Y-95190441D01*
X101366980Y-95186949D01*
X101377839Y-95182440D01*
X101379680Y-95188635D01*
X101385812Y-95195860D01*
X101389840Y-95194360D01*
X101399190Y-95195449D01*
X101400000Y-95199345D01*
X101406303Y-95205380D01*
X101417075Y-95201054D01*
X101437355Y-95198354D01*
X101449159Y-95206507D01*
X101470436Y-95216621D01*
X101488053Y-95216949D01*
X101504074Y-95215591D01*
X101503369Y-95222467D01*
X101500445Y-95226231D01*
X101495498Y-95236821D01*
X101507726Y-95240037D01*
X101511116Y-95240080D01*
X101525971Y-95243819D01*
X101526956Y-95250311D01*
X101529137Y-95261935D01*
X101536458Y-95266616D01*
X101547618Y-95275645D01*
X101547374Y-95280633D01*
X101549925Y-95292697D01*
X101557480Y-95301040D01*
X101567746Y-95314853D01*
X101567587Y-95321446D01*
X101569491Y-95330900D01*
X101583080Y-95335679D01*
X101599838Y-95333305D01*
X101602883Y-95331715D01*
X101610719Y-95318564D01*
X101608983Y-95312335D01*
X101609085Y-95302194D01*
X101613360Y-95301040D01*
X101619382Y-95294654D01*
X101616981Y-95288518D01*
X101608655Y-95266909D01*
X101607532Y-95260578D01*
X101602328Y-95238424D01*
X101597529Y-95224840D01*
X101593084Y-95210960D01*
X101599991Y-95213429D01*
X101606378Y-95218464D01*
X101618748Y-95227306D01*
X101622413Y-95224848D01*
X101617478Y-95208500D01*
X101607749Y-95184495D01*
X101598806Y-95157715D01*
X101596153Y-95138004D01*
X101596787Y-95134994D01*
X101601227Y-95133478D01*
X101603411Y-95143560D01*
X101605538Y-95155352D01*
X101609527Y-95148944D01*
X101612855Y-95138480D01*
X101618223Y-95122967D01*
X101622581Y-95123240D01*
X101628902Y-95140940D01*
X101631246Y-95148640D01*
X101638316Y-95170813D01*
X101641535Y-95174583D01*
X101642740Y-95161052D01*
X101642924Y-95155660D01*
X101646566Y-95136933D01*
X101654000Y-95133400D01*
X101663693Y-95131573D01*
X101665173Y-95126379D01*
X101668334Y-95124523D01*
X101674320Y-95138480D01*
X101678916Y-95148241D01*
X101681739Y-95141338D01*
X101683221Y-95116187D01*
X101683468Y-95104860D01*
X101682517Y-95070727D01*
X101678462Y-95053401D01*
X101674320Y-95052120D01*
X101666924Y-95048318D01*
X101664005Y-95029859D01*
X101662497Y-95011790D01*
X101657310Y-95011987D01*
X101654000Y-95016560D01*
X101646037Y-95026675D01*
X101643909Y-95019082D01*
X101643840Y-95016560D01*
X101641866Y-95006833D01*
X101634617Y-95015392D01*
X101626030Y-95022666D01*
X101616722Y-95012532D01*
X101614453Y-95008440D01*
X101607861Y-94989731D01*
X101604074Y-94967084D01*
X101603228Y-94946159D01*
X101605460Y-94932617D01*
X101610907Y-94932119D01*
X101612670Y-94934511D01*
X101619696Y-94940036D01*
X101624097Y-94927581D01*
X101625215Y-94919271D01*
X101627644Y-94903165D01*
X101631563Y-94900246D01*
X101639480Y-94912256D01*
X101652624Y-94938350D01*
X101666732Y-94964429D01*
X101677645Y-94979961D01*
X101681727Y-94982060D01*
X101680606Y-94970851D01*
X101672283Y-94947500D01*
X101663743Y-94928190D01*
X101644046Y-94886460D01*
X101632133Y-94860581D01*
X101627152Y-94848013D01*
X101628248Y-94846213D01*
X101634568Y-94852640D01*
X101640727Y-94859631D01*
X101661017Y-94884591D01*
X101676328Y-94905351D01*
X101689973Y-94923136D01*
X101695107Y-94925779D01*
X101692765Y-94916075D01*
X101683982Y-94896818D01*
X101669793Y-94870804D01*
X101654000Y-94845072D01*
X101634044Y-94812750D01*
X101619324Y-94786166D01*
X101612746Y-94770606D01*
X101612646Y-94769837D01*
X101609268Y-94767613D01*
X101604059Y-94777638D01*
X101598252Y-94787898D01*
X101592439Y-94783164D01*
X101584105Y-94761181D01*
X101583436Y-94759161D01*
X101571611Y-94732932D01*
X101559093Y-94725419D01*
X101555899Y-94726201D01*
X101541806Y-94722299D01*
X101529818Y-94699477D01*
X101521725Y-94679184D01*
X101516119Y-94676400D01*
X101510776Y-94686879D01*
X101504756Y-94699786D01*
X101502585Y-94694002D01*
X101502315Y-94688900D01*
X101496898Y-94673802D01*
X101491440Y-94671120D01*
X101483450Y-94662504D01*
X101481125Y-94648260D01*
X101479508Y-94633212D01*
X101473203Y-94636524D01*
X101470123Y-94640640D01*
X101463775Y-94645835D01*
X101462716Y-94634465D01*
X101464783Y-94616406D01*
X101467617Y-94592090D01*
X101465749Y-94585021D01*
X101457801Y-94592399D01*
X101454772Y-94596086D01*
X101444407Y-94607630D01*
X101442126Y-94603672D01*
X101445511Y-94584760D01*
X101451881Y-94555433D01*
X101457000Y-94533960D01*
X101458782Y-94522357D01*
X101452799Y-94525423D01*
X101440640Y-94539040D01*
X101419047Y-94564440D01*
X101425825Y-94539040D01*
X101441259Y-94507021D01*
X101465393Y-94482852D01*
X101490801Y-94472859D01*
X101505028Y-94474995D01*
X101506894Y-94488203D01*
X101504937Y-94497575D01*
X101498587Y-94523800D01*
X101543315Y-94473000D01*
X101536609Y-94497132D01*
X101534419Y-94513998D01*
X101541152Y-94514312D01*
X101551261Y-94514456D01*
X101552400Y-94518719D01*
X101558386Y-94525591D01*
X101561829Y-94524252D01*
X101571800Y-94527601D01*
X101577754Y-94538892D01*
X101586739Y-94555386D01*
X101593406Y-94559360D01*
X101598108Y-94566955D01*
X101596038Y-94576363D01*
X101594733Y-94588416D01*
X101606642Y-94586794D01*
X101618177Y-94585234D01*
X101619628Y-94596596D01*
X101617360Y-94607890D01*
X101613615Y-94626588D01*
X101617013Y-94627290D01*
X101627071Y-94615240D01*
X101638971Y-94601566D01*
X101642964Y-94605175D01*
X101643517Y-94619721D01*
X101644685Y-94636946D01*
X101650429Y-94635325D01*
X101658757Y-94624801D01*
X101667539Y-94614933D01*
X101672104Y-94617470D01*
X101673977Y-94635425D01*
X101674456Y-94655880D01*
X101675239Y-94706680D01*
X101698726Y-94661776D01*
X101722212Y-94616872D01*
X101730250Y-94656696D01*
X101735648Y-94680842D01*
X101739586Y-94686915D01*
X101744165Y-94676846D01*
X101745932Y-94671120D01*
X101753575Y-94645720D01*
X101754588Y-94673060D01*
X101758363Y-94692446D01*
X101765700Y-94706219D01*
X101772921Y-94709876D01*
X101776327Y-94699659D01*
X101780537Y-94697998D01*
X101790305Y-94711451D01*
X101791892Y-94714300D01*
X101805076Y-94733838D01*
X101815865Y-94742233D01*
X101816056Y-94742240D01*
X101829796Y-94751159D01*
X101844639Y-94773766D01*
X101857653Y-94803833D01*
X101865908Y-94835132D01*
X101867361Y-94851241D01*
X101865781Y-94893348D01*
X101861592Y-94932572D01*
X101855617Y-94964037D01*
X101848681Y-94982868D01*
X101844573Y-94986080D01*
X101838961Y-94978633D01*
X101840555Y-94970840D01*
X101842559Y-94957324D01*
X101833627Y-94958634D01*
X101815757Y-94973922D01*
X101804449Y-94986137D01*
X101784601Y-95004839D01*
X101773587Y-95005812D01*
X101772509Y-95003917D01*
X101767938Y-95001506D01*
X101765849Y-95011480D01*
X101763959Y-95025551D01*
X101759721Y-95019900D01*
X101756956Y-95013057D01*
X101750720Y-95001269D01*
X101744504Y-95006332D01*
X101738798Y-95018137D01*
X101733340Y-95044837D01*
X101736015Y-95062280D01*
X101742183Y-95075698D01*
X101744394Y-95070482D01*
X101744726Y-95064220D01*
X101749940Y-95051899D01*
X101756424Y-95052628D01*
X101762910Y-95066611D01*
X101761792Y-95081787D01*
X101760742Y-95106320D01*
X101765466Y-95137468D01*
X101766731Y-95142380D01*
X101772181Y-95172353D01*
X101767357Y-95194456D01*
X101761363Y-95204904D01*
X101749375Y-95230186D01*
X101745440Y-95249537D01*
X101741362Y-95269966D01*
X101731381Y-95298795D01*
X101718884Y-95327659D01*
X101707252Y-95348196D01*
X101704046Y-95351840D01*
X101695873Y-95362911D01*
X101681573Y-95385438D01*
X101672559Y-95400448D01*
X101656418Y-95425623D01*
X101645637Y-95435119D01*
X101636762Y-95431566D01*
X101634701Y-95429269D01*
X101623739Y-95408396D01*
X101617310Y-95385969D01*
X101611334Y-95361068D01*
X101602390Y-95349745D01*
X101587099Y-95345588D01*
X101577161Y-95346695D01*
X101583542Y-95357716D01*
X101583558Y-95357735D01*
X101589982Y-95369559D01*
X101587630Y-95372160D01*
X101586732Y-95378609D01*
X101594006Y-95389940D01*
X101617963Y-95424018D01*
X101626247Y-95447701D01*
X101619776Y-95462491D01*
X101603664Y-95467250D01*
X101594105Y-95460818D01*
X101585054Y-95454965D01*
X101584559Y-95458520D01*
X101581047Y-95475448D01*
X101566247Y-95501802D01*
X101543664Y-95533079D01*
X101516807Y-95564777D01*
X101489182Y-95592394D01*
X101466521Y-95610063D01*
X101441699Y-95626976D01*
X101426752Y-95639577D01*
X101424562Y-95643948D01*
X101435261Y-95642410D01*
X101455451Y-95633400D01*
X101477817Y-95620868D01*
X101495046Y-95608765D01*
X101499928Y-95603236D01*
X101509759Y-95599953D01*
X101512628Y-95601296D01*
X101520759Y-95598688D01*
X101521920Y-95592286D01*
X101530127Y-95576061D01*
X101537160Y-95571685D01*
X101550681Y-95557772D01*
X101552400Y-95549679D01*
X101557247Y-95538918D01*
X101562560Y-95539800D01*
X101570475Y-95536599D01*
X101572720Y-95524484D01*
X101576555Y-95509061D01*
X101591900Y-95505379D01*
X101600574Y-95506105D01*
X101623039Y-95515033D01*
X101630484Y-95532502D01*
X101624307Y-95555083D01*
X101605907Y-95579345D01*
X101576683Y-95601856D01*
X101557480Y-95611817D01*
X101541339Y-95620783D01*
X101540550Y-95625552D01*
X101542520Y-95625762D01*
X101564940Y-95619050D01*
X101593259Y-95601063D01*
X101620625Y-95576346D01*
X101625722Y-95570592D01*
X101640472Y-95543026D01*
X101642236Y-95515221D01*
X101633642Y-95498105D01*
X101630825Y-95482429D01*
X101639476Y-95468133D01*
X101648713Y-95458304D01*
X101648104Y-95462629D01*
X101646151Y-95471931D01*
X101652431Y-95469650D01*
X101663415Y-95454153D01*
X101664160Y-95449004D01*
X101671313Y-95431995D01*
X101680459Y-95422081D01*
X101697223Y-95401638D01*
X101705607Y-95385277D01*
X101717926Y-95367367D01*
X101729630Y-95362000D01*
X101740115Y-95355350D01*
X101738955Y-95346760D01*
X101739154Y-95333698D01*
X101743823Y-95331520D01*
X101750339Y-95322350D01*
X101755585Y-95298797D01*
X101757610Y-95278180D01*
X101762443Y-95245570D01*
X101770781Y-95226862D01*
X101780126Y-95223561D01*
X101787982Y-95237175D01*
X101791280Y-95257860D01*
X101790485Y-95280265D01*
X101785074Y-95290769D01*
X101784300Y-95290880D01*
X101780028Y-95297432D01*
X101782672Y-95303580D01*
X101790578Y-95321727D01*
X101791473Y-95326440D01*
X101795865Y-95344395D01*
X101798625Y-95351840D01*
X101803182Y-95369939D01*
X101808276Y-95400498D01*
X101811475Y-95425500D01*
X101816194Y-95456847D01*
X101821694Y-95478051D01*
X101825692Y-95483920D01*
X101829849Y-95492579D01*
X101829056Y-95513254D01*
X101831544Y-95544001D01*
X101848640Y-95578567D01*
X101881728Y-95619426D01*
X101897840Y-95636173D01*
X101924174Y-95668737D01*
X101947360Y-95707302D01*
X101953123Y-95719819D01*
X101967459Y-95748644D01*
X101982062Y-95768834D01*
X101988683Y-95773841D01*
X102011887Y-95778768D01*
X102048299Y-95782289D01*
X102091392Y-95784253D01*
X102134639Y-95784507D01*
X102171514Y-95782899D01*
X102195491Y-95779277D01*
X102197180Y-95778704D01*
X102223090Y-95762461D01*
X102229312Y-95741285D01*
X102215709Y-95715778D01*
X102212315Y-95712003D01*
X102188938Y-95687120D01*
X102244616Y-95687120D01*
X102285270Y-95684274D01*
X102315599Y-95673991D01*
X102334034Y-95662226D01*
X102366085Y-95638579D01*
X102344880Y-95638579D01*
X102337447Y-95643165D01*
X102320542Y-95640021D01*
X102302260Y-95631630D01*
X102291696Y-95622250D01*
X102285175Y-95616768D01*
X102284076Y-95623020D01*
X102291313Y-95639225D01*
X102294080Y-95641400D01*
X102304790Y-95652803D01*
X102298350Y-95660202D01*
X102277879Y-95661057D01*
X102271220Y-95660006D01*
X102247764Y-95654981D01*
X102235198Y-95651227D01*
X102234896Y-95651029D01*
X102223939Y-95651667D01*
X102201840Y-95656874D01*
X102200127Y-95657360D01*
X102172048Y-95660786D01*
X102153072Y-95654740D01*
X102147265Y-95641646D01*
X102153317Y-95629461D01*
X102159931Y-95613748D01*
X102153442Y-95603377D01*
X102143911Y-95598065D01*
X102141680Y-95608888D01*
X102134483Y-95623620D01*
X102126675Y-95626160D01*
X102108279Y-95616882D01*
X102091659Y-95593180D01*
X102048166Y-95593180D01*
X102044782Y-95592957D01*
X102034252Y-95583221D01*
X102022570Y-95567921D01*
X102022082Y-95559491D01*
X102030528Y-95562576D01*
X102040444Y-95577029D01*
X102048166Y-95593180D01*
X102091659Y-95593180D01*
X102091109Y-95592396D01*
X102078322Y-95557719D01*
X102075632Y-95545060D01*
X102066862Y-95515586D01*
X102054133Y-95492788D01*
X102053509Y-95492078D01*
X102040067Y-95468005D01*
X102027638Y-95429591D01*
X102017589Y-95382812D01*
X102011287Y-95333644D01*
X102009836Y-95301040D01*
X102011780Y-95252177D01*
X102017141Y-95202424D01*
X102025006Y-95156941D01*
X102034463Y-95120891D01*
X102044598Y-95099435D01*
X102045701Y-95098202D01*
X102054015Y-95092169D01*
X102058460Y-95097788D01*
X102060188Y-95118355D01*
X102060400Y-95140264D01*
X102062524Y-95176763D01*
X102068182Y-95224589D01*
X102076309Y-95275278D01*
X102079573Y-95292301D01*
X102088955Y-95340353D01*
X102097509Y-95386823D01*
X102103842Y-95424051D01*
X102105408Y-95434407D01*
X102120217Y-95482909D01*
X102152219Y-95535214D01*
X102152810Y-95536007D01*
X102175150Y-95565036D01*
X102191788Y-95581364D01*
X102209083Y-95588646D01*
X102233395Y-95590535D01*
X102247824Y-95590600D01*
X102288510Y-95595225D01*
X102321089Y-95607584D01*
X102340958Y-95625402D01*
X102344880Y-95638579D01*
X102366085Y-95638579D01*
X102367776Y-95637332D01*
X102336790Y-95606346D01*
X102314691Y-95587375D01*
X102292230Y-95578078D01*
X102260447Y-95575157D01*
X102251682Y-95575045D01*
X102219620Y-95573808D01*
X102199063Y-95567786D01*
X102181869Y-95552810D01*
X102163955Y-95530109D01*
X102147067Y-95504818D01*
X102134414Y-95477419D01*
X102124027Y-95442297D01*
X102113939Y-95393840D01*
X102111515Y-95380563D01*
X102102349Y-95330922D01*
X102093146Y-95283472D01*
X102085268Y-95245139D01*
X102081869Y-95229920D01*
X102072671Y-95176328D01*
X102070960Y-95128530D01*
X102076542Y-95091000D01*
X102088839Y-95068551D01*
X102102606Y-95050909D01*
X102120189Y-95021392D01*
X102135482Y-94991160D01*
X102154579Y-94953311D01*
X102174868Y-94917979D01*
X102188323Y-94897857D01*
X102204121Y-94873200D01*
X102212429Y-94852852D01*
X102212800Y-94849597D01*
X102217983Y-94835646D01*
X102222767Y-94833680D01*
X102232114Y-94824998D01*
X102239631Y-94805740D01*
X102250791Y-94772932D01*
X102267062Y-94738770D01*
X102284753Y-94710041D01*
X102300175Y-94693534D01*
X102300849Y-94693135D01*
X102308608Y-94679381D01*
X102314858Y-94651694D01*
X102319082Y-94616441D01*
X102320762Y-94579985D01*
X102319381Y-94548691D01*
X102314421Y-94528923D01*
X102314227Y-94528599D01*
X102313502Y-94513209D01*
X102318904Y-94486217D01*
X102328257Y-94454473D01*
X102339383Y-94424830D01*
X102350103Y-94404136D01*
X102355470Y-94398852D01*
X102359211Y-94388052D01*
X102358044Y-94379225D01*
X102308021Y-94379225D01*
X102305022Y-94403909D01*
X102298075Y-94435880D01*
X102290013Y-94478929D01*
X102290008Y-94505055D01*
X102293418Y-94512841D01*
X102298074Y-94528673D01*
X102300270Y-94557587D01*
X102300236Y-94593271D01*
X102298204Y-94629411D01*
X102294404Y-94659694D01*
X102289069Y-94677806D01*
X102287299Y-94679859D01*
X102269512Y-94698453D01*
X102249976Y-94727612D01*
X102233850Y-94758792D01*
X102226754Y-94780087D01*
X102219648Y-94802747D01*
X102211505Y-94814160D01*
X102200851Y-94828975D01*
X102199049Y-94835738D01*
X102191371Y-94853189D01*
X102175341Y-94876538D01*
X102171785Y-94880915D01*
X102150585Y-94910496D01*
X102130505Y-94944942D01*
X102127493Y-94950994D01*
X102113427Y-94979549D01*
X102101744Y-95001987D01*
X102099258Y-95006400D01*
X102087918Y-95029909D01*
X102084321Y-95039420D01*
X102070555Y-95054508D01*
X102059946Y-95057200D01*
X102045192Y-95064934D01*
X102030246Y-95089542D01*
X102021230Y-95111484D01*
X102013730Y-95134316D01*
X102008156Y-95159378D01*
X102004168Y-95190281D01*
X102001425Y-95230639D01*
X101999586Y-95284064D01*
X101998311Y-95354170D01*
X101998303Y-95354739D01*
X101995686Y-95543710D01*
X102032103Y-95602375D01*
X102052487Y-95632743D01*
X102070591Y-95655444D01*
X102082240Y-95665404D01*
X102089148Y-95664659D01*
X102081174Y-95652240D01*
X102079726Y-95650504D01*
X102060167Y-95624680D01*
X102053478Y-95609438D01*
X102057261Y-95606159D01*
X102068434Y-95613796D01*
X102083886Y-95631750D01*
X102084101Y-95632045D01*
X102095939Y-95652685D01*
X102094024Y-95667370D01*
X102090172Y-95672733D01*
X102084785Y-95681875D01*
X102092047Y-95684550D01*
X102115410Y-95681808D01*
X102118443Y-95681328D01*
X102146237Y-95678978D01*
X102166845Y-95685130D01*
X102189877Y-95702993D01*
X102193652Y-95706436D01*
X102210097Y-95723392D01*
X102214332Y-95731959D01*
X102210260Y-95731828D01*
X102195554Y-95731502D01*
X102192480Y-95736832D01*
X102184363Y-95745925D01*
X102164902Y-95747424D01*
X102141435Y-95741734D01*
X102125842Y-95733163D01*
X102105588Y-95721050D01*
X102091321Y-95717617D01*
X102087450Y-95722807D01*
X102095235Y-95733565D01*
X102108092Y-95750731D01*
X102111200Y-95760067D01*
X102103581Y-95765998D01*
X102085749Y-95764151D01*
X102065247Y-95756631D01*
X102049615Y-95745544D01*
X102047196Y-95742191D01*
X102031827Y-95731338D01*
X102011636Y-95727604D01*
X101991035Y-95726070D01*
X101975373Y-95719406D01*
X101961238Y-95704111D01*
X101945219Y-95676682D01*
X101927664Y-95641400D01*
X101909341Y-95605871D01*
X101892429Y-95577049D01*
X101880162Y-95560377D01*
X101878804Y-95559168D01*
X101868912Y-95539987D01*
X101869406Y-95521785D01*
X101870158Y-95499962D01*
X101868240Y-95470972D01*
X101857200Y-95470972D01*
X101855833Y-95490275D01*
X101851774Y-95489495D01*
X101845091Y-95468684D01*
X101842983Y-95460208D01*
X101840531Y-95440255D01*
X101846633Y-95437948D01*
X101854617Y-95452066D01*
X101857200Y-95470972D01*
X101868240Y-95470972D01*
X101867814Y-95464537D01*
X101862864Y-95421907D01*
X101860518Y-95405897D01*
X101853449Y-95359814D01*
X101846926Y-95316364D01*
X101842087Y-95283143D01*
X101841145Y-95276392D01*
X101835635Y-95246363D01*
X101829034Y-95223344D01*
X101827797Y-95220512D01*
X101822448Y-95200834D01*
X101818466Y-95170608D01*
X101817664Y-95158800D01*
X101815418Y-95113080D01*
X101862654Y-95096219D01*
X101890558Y-95086681D01*
X101903781Y-95084445D01*
X101906707Y-95089776D01*
X101904816Y-95098759D01*
X101904254Y-95115414D01*
X101914624Y-95115498D01*
X101927671Y-95105460D01*
X101936999Y-95099208D01*
X101937191Y-95109124D01*
X101935730Y-95115634D01*
X101934749Y-95130916D01*
X101939428Y-95132814D01*
X101943358Y-95139677D01*
X101946823Y-95162194D01*
X101949562Y-95195703D01*
X101951316Y-95235539D01*
X101951824Y-95277038D01*
X101950827Y-95315536D01*
X101950188Y-95325903D01*
X101950887Y-95344375D01*
X101955541Y-95348294D01*
X101955916Y-95347950D01*
X101960025Y-95334900D01*
X101964416Y-95306558D01*
X101968392Y-95267929D01*
X101969969Y-95246887D01*
X101980357Y-95172099D01*
X102000684Y-95092778D01*
X102013230Y-95058151D01*
X101861579Y-95058151D01*
X101857200Y-95067360D01*
X101844523Y-95083448D01*
X101835923Y-95087680D01*
X101830189Y-95081434D01*
X101831800Y-95077520D01*
X101828690Y-95069523D01*
X101817160Y-95067360D01*
X101799229Y-95062822D01*
X101799373Y-95050467D01*
X101813431Y-95035584D01*
X101824716Y-95028159D01*
X101822991Y-95034340D01*
X101823557Y-95044072D01*
X101841718Y-95047040D01*
X101859880Y-95049002D01*
X101861579Y-95058151D01*
X102013230Y-95058151D01*
X102028623Y-95015669D01*
X102061849Y-94947519D01*
X102086169Y-94909880D01*
X102088482Y-94906277D01*
X102015947Y-94906277D01*
X102010253Y-94928482D01*
X102000228Y-94946779D01*
X101991001Y-94951576D01*
X101990831Y-94951478D01*
X101980551Y-94955409D01*
X101968301Y-94972072D01*
X101954419Y-94998010D01*
X101942522Y-94964105D01*
X101933930Y-94943362D01*
X101927740Y-94940266D01*
X101923305Y-94947980D01*
X101913269Y-94964440D01*
X101906465Y-94963352D01*
X101905553Y-94947481D01*
X101908710Y-94932807D01*
X101916210Y-94901365D01*
X101917306Y-94883691D01*
X101912292Y-94881795D01*
X101903134Y-94894640D01*
X101896331Y-94905127D01*
X101892408Y-94904999D01*
X101890900Y-94891602D01*
X101891342Y-94862283D01*
X101892444Y-94833680D01*
X101893523Y-94796573D01*
X101893347Y-94770507D01*
X101891989Y-94759266D01*
X101891023Y-94760020D01*
X101881286Y-94772175D01*
X101871337Y-94765758D01*
X101864522Y-94745478D01*
X101864275Y-94719803D01*
X101870647Y-94693935D01*
X101881091Y-94675507D01*
X101889311Y-94671120D01*
X101896108Y-94679693D01*
X101897840Y-94692684D01*
X101900163Y-94707302D01*
X101909675Y-94704338D01*
X101912480Y-94702098D01*
X101922735Y-94697302D01*
X101929378Y-94706763D01*
X101934045Y-94726863D01*
X101941894Y-94752350D01*
X101952792Y-94759025D01*
X101954966Y-94758408D01*
X101964189Y-94760177D01*
X101968369Y-94776938D01*
X101968960Y-94795300D01*
X101969555Y-94820952D01*
X101972606Y-94829167D01*
X101980017Y-94822819D01*
X101983877Y-94817841D01*
X101992858Y-94807686D01*
X101997318Y-94810366D01*
X101998895Y-94828855D01*
X101999117Y-94845533D01*
X102001414Y-94874284D01*
X102006868Y-94893075D01*
X102010234Y-94896544D01*
X102015947Y-94906277D01*
X102088482Y-94906277D01*
X102117378Y-94861270D01*
X102139157Y-94809802D01*
X102154666Y-94747615D01*
X102157325Y-94733022D01*
X102162778Y-94697314D01*
X102165709Y-94669545D01*
X102166197Y-94652310D01*
X102164318Y-94648203D01*
X102160151Y-94659818D01*
X102155721Y-94679657D01*
X102149124Y-94701681D01*
X102141795Y-94711702D01*
X102141304Y-94711760D01*
X102134858Y-94720737D01*
X102128238Y-94743260D01*
X102126216Y-94753730D01*
X102120250Y-94779134D01*
X102113852Y-94785405D01*
X102110238Y-94781670D01*
X102103104Y-94774099D01*
X102101196Y-94785420D01*
X102096268Y-94800502D01*
X102090880Y-94803200D01*
X102081132Y-94811026D01*
X102080720Y-94814085D01*
X102074185Y-94829543D01*
X102065480Y-94840211D01*
X102052753Y-94861517D01*
X102050240Y-94874446D01*
X102046461Y-94892873D01*
X102042204Y-94898407D01*
X102037912Y-94892919D01*
X102037233Y-94873108D01*
X102037779Y-94865987D01*
X102038867Y-94843289D01*
X102035456Y-94838543D01*
X102030732Y-94843840D01*
X102023414Y-94850411D01*
X102020331Y-94840260D01*
X102019916Y-94826890D01*
X102016981Y-94789772D01*
X102008813Y-94771225D01*
X101995692Y-94771814D01*
X101993174Y-94773704D01*
X101984346Y-94777713D01*
X101980163Y-94768152D01*
X101979120Y-94742239D01*
X101978076Y-94716062D01*
X101973896Y-94706727D01*
X101965016Y-94710818D01*
X101964794Y-94711001D01*
X101954022Y-94715762D01*
X101947034Y-94705036D01*
X101943667Y-94691925D01*
X101935142Y-94670357D01*
X101923927Y-94660973D01*
X101923535Y-94660960D01*
X101911039Y-94652359D01*
X101904375Y-94637737D01*
X101893784Y-94621307D01*
X101877415Y-94614259D01*
X101862752Y-94617705D01*
X101857200Y-94630715D01*
X101851348Y-94651298D01*
X101842284Y-94666638D01*
X101831206Y-94679640D01*
X101827459Y-94676381D01*
X101827044Y-94668580D01*
X101821968Y-94653492D01*
X101816560Y-94650800D01*
X101807547Y-94642570D01*
X101806400Y-94635560D01*
X101800340Y-94622048D01*
X101795153Y-94620320D01*
X101788617Y-94612833D01*
X101790306Y-94603642D01*
X101792911Y-94592674D01*
X101784243Y-94597351D01*
X101781233Y-94599806D01*
X101768339Y-94607295D01*
X101767440Y-94598550D01*
X101777164Y-94576472D01*
X101783771Y-94561901D01*
X101779668Y-94562872D01*
X101775132Y-94566979D01*
X101758305Y-94578530D01*
X101750126Y-94575777D01*
X101751926Y-94564440D01*
X101752155Y-94551357D01*
X101741004Y-94551262D01*
X101725841Y-94561900D01*
X101717232Y-94567526D01*
X101716548Y-94558230D01*
X101719368Y-94544885D01*
X101723124Y-94525174D01*
X101719233Y-94521959D01*
X101708617Y-94529645D01*
X101695942Y-94538665D01*
X101695134Y-94533079D01*
X101697499Y-94526339D01*
X101699995Y-94511047D01*
X101690087Y-94511770D01*
X101670386Y-94526339D01*
X101656436Y-94537815D01*
X101655466Y-94535568D01*
X101665974Y-94518720D01*
X101681648Y-94501307D01*
X101702400Y-94494922D01*
X101733820Y-94498487D01*
X101750520Y-94502431D01*
X101781000Y-94510213D01*
X101755600Y-94482348D01*
X101742523Y-94466538D01*
X101740688Y-94460869D01*
X101742900Y-94461801D01*
X101754056Y-94462728D01*
X101755600Y-94458611D01*
X101762914Y-94453180D01*
X101782698Y-94458405D01*
X101806075Y-94463558D01*
X101816909Y-94457195D01*
X101829993Y-94453032D01*
X101852336Y-94460217D01*
X101878425Y-94476144D01*
X101901979Y-94497359D01*
X101920510Y-94514155D01*
X101932050Y-94517796D01*
X101933386Y-94507626D01*
X101931995Y-94503480D01*
X101929457Y-94490760D01*
X101937307Y-94491256D01*
X101956720Y-94505564D01*
X101984428Y-94530173D01*
X102011771Y-94553864D01*
X102026081Y-94562273D01*
X102027734Y-94555382D01*
X102017107Y-94533176D01*
X102014680Y-94528880D01*
X102002044Y-94503860D01*
X102001872Y-94494851D01*
X102014130Y-94501842D01*
X102038783Y-94524823D01*
X102054160Y-94540639D01*
X102083760Y-94570087D01*
X102111231Y-94594671D01*
X102131169Y-94609593D01*
X102132900Y-94610560D01*
X102156920Y-94623077D01*
X102106120Y-94567023D01*
X102148629Y-94588455D01*
X102178240Y-94606530D01*
X102201744Y-94626270D01*
X102207049Y-94632604D01*
X102218409Y-94646819D01*
X102222592Y-94644469D01*
X102222960Y-94637543D01*
X102215176Y-94620249D01*
X102193989Y-94594484D01*
X102162644Y-94563427D01*
X102124390Y-94530255D01*
X102082473Y-94498143D01*
X102075377Y-94493130D01*
X102043103Y-94473199D01*
X102009732Y-94459329D01*
X101967881Y-94448884D01*
X101935549Y-94443148D01*
X101885026Y-94432860D01*
X101841268Y-94420037D01*
X101810979Y-94406648D01*
X101810669Y-94406458D01*
X101796676Y-94394531D01*
X101754932Y-94394531D01*
X101751294Y-94400815D01*
X101735280Y-94394442D01*
X101719450Y-94381663D01*
X101714960Y-94374036D01*
X101721268Y-94366618D01*
X101735913Y-94372161D01*
X101743408Y-94378512D01*
X101754932Y-94394531D01*
X101796676Y-94394531D01*
X101772116Y-94373599D01*
X101753663Y-94348405D01*
X101713931Y-94348405D01*
X101712491Y-94360181D01*
X101708531Y-94371251D01*
X101699796Y-94381358D01*
X101689845Y-94372540D01*
X101680064Y-94346026D01*
X101680057Y-94346000D01*
X101676481Y-94329777D01*
X101679923Y-94331437D01*
X101684620Y-94338593D01*
X101697478Y-94350625D01*
X101705425Y-94350694D01*
X101713931Y-94348405D01*
X101753663Y-94348405D01*
X101740054Y-94329825D01*
X101720573Y-94283608D01*
X101719719Y-94279960D01*
X101713081Y-94249480D01*
X101732989Y-94279960D01*
X101749280Y-94301768D01*
X101768929Y-94323961D01*
X101787767Y-94342422D01*
X101801627Y-94353037D01*
X101806400Y-94352446D01*
X101802146Y-94339678D01*
X101791447Y-94316137D01*
X101786080Y-94305360D01*
X101770767Y-94272287D01*
X101767056Y-94255881D01*
X101774928Y-94256159D01*
X101794365Y-94273141D01*
X101806913Y-94286273D01*
X101826506Y-94306010D01*
X101837601Y-94314228D01*
X101837947Y-94309604D01*
X101822648Y-94286359D01*
X101812035Y-94275340D01*
X101796166Y-94256546D01*
X101799576Y-94243132D01*
X101821804Y-94235654D01*
X101846047Y-94234240D01*
X101876400Y-94235322D01*
X101892987Y-94240766D01*
X101902335Y-94253861D01*
X101906478Y-94264720D01*
X101916220Y-94288748D01*
X101921654Y-94292945D01*
X101922600Y-94277340D01*
X101921341Y-94262179D01*
X101920538Y-94246796D01*
X101923666Y-94246929D01*
X101931900Y-94263930D01*
X101940245Y-94283931D01*
X101953472Y-94313660D01*
X101962244Y-94325912D01*
X101968113Y-94322624D01*
X101969158Y-94320036D01*
X101974653Y-94308819D01*
X101979765Y-94315068D01*
X101983571Y-94326224D01*
X101989799Y-94342185D01*
X101994130Y-94339750D01*
X101996330Y-94332533D01*
X102000981Y-94320163D01*
X102009049Y-94321547D01*
X102022248Y-94332533D01*
X102037084Y-94344749D01*
X102040588Y-94342302D01*
X102037547Y-94328220D01*
X102036581Y-94309513D01*
X102043521Y-94306694D01*
X102053189Y-94320104D01*
X102055747Y-94327022D01*
X102063114Y-94340749D01*
X102070401Y-94336097D01*
X102079977Y-94329611D01*
X102087854Y-94340532D01*
X102092721Y-94365949D01*
X102093651Y-94387654D01*
X102095666Y-94413492D01*
X102100458Y-94421474D01*
X102106149Y-94413523D01*
X102110862Y-94391563D01*
X102112591Y-94368260D01*
X102113481Y-94344003D01*
X102114663Y-94336451D01*
X102116726Y-94346696D01*
X102120257Y-94375827D01*
X102121220Y-94384262D01*
X102126195Y-94418743D01*
X102131751Y-94443956D01*
X102136863Y-94457121D01*
X102140506Y-94455455D01*
X102141680Y-94439732D01*
X102145041Y-94418006D01*
X102152798Y-94414216D01*
X102161467Y-94427574D01*
X102165968Y-94445244D01*
X102174358Y-94476094D01*
X102186187Y-94500973D01*
X102187557Y-94502881D01*
X102197753Y-94514608D01*
X102201868Y-94511110D01*
X102202640Y-94489877D01*
X102202640Y-94455508D01*
X102242604Y-94503480D01*
X102243745Y-94467920D01*
X102244914Y-94445740D01*
X102247392Y-94442256D01*
X102252712Y-94455842D01*
X102253354Y-94457760D01*
X102262213Y-94487866D01*
X102268286Y-94512298D01*
X102274059Y-94534060D01*
X102277256Y-94535824D01*
X102277869Y-94517754D01*
X102275887Y-94480008D01*
X102272791Y-94440061D01*
X102267097Y-94383978D01*
X102261019Y-94347660D01*
X102254385Y-94330551D01*
X102247021Y-94332097D01*
X102242242Y-94341594D01*
X102236248Y-94354069D01*
X102234036Y-94347809D01*
X102233835Y-94344059D01*
X102227946Y-94325697D01*
X102223113Y-94320694D01*
X102217294Y-94324554D01*
X102217721Y-94345122D01*
X102218133Y-94348034D01*
X102220387Y-94365997D01*
X102218612Y-94367252D01*
X102211696Y-94350790D01*
X102206762Y-94337745D01*
X102194555Y-94310476D01*
X102186077Y-94300046D01*
X102183523Y-94306583D01*
X102189086Y-94330217D01*
X102191306Y-94336837D01*
X102199177Y-94363457D01*
X102202633Y-94383147D01*
X102202640Y-94383675D01*
X102199369Y-94394431D01*
X102191691Y-94389959D01*
X102182813Y-94373871D01*
X102176918Y-94354690D01*
X102170492Y-94334759D01*
X102163584Y-94333829D01*
X102161443Y-94336742D01*
X102156666Y-94343914D01*
X102152663Y-94344496D01*
X102147526Y-94335229D01*
X102139347Y-94312857D01*
X102128193Y-94279960D01*
X102106113Y-94240389D01*
X102072193Y-94210708D01*
X102044230Y-94187541D01*
X102030664Y-94166749D01*
X102029920Y-94161848D01*
X102033941Y-94148228D01*
X102040080Y-94147879D01*
X102049429Y-94162580D01*
X102050240Y-94168799D01*
X102055921Y-94181930D01*
X102060400Y-94183440D01*
X102070023Y-94175830D01*
X102069845Y-94156607D01*
X102061162Y-94131179D01*
X102045270Y-94104955D01*
X102040080Y-94098632D01*
X102021598Y-94074700D01*
X102010803Y-94055146D01*
X102009651Y-94050018D01*
X102015248Y-94047957D01*
X102029239Y-94059335D01*
X102035866Y-94066600D01*
X102050879Y-94082002D01*
X102057781Y-94084792D01*
X102057530Y-94081840D01*
X102051667Y-94060162D01*
X102046937Y-94041200D01*
X102044626Y-94028727D01*
X102048366Y-94034958D01*
X102053066Y-94046280D01*
X102071094Y-94088129D01*
X102091350Y-94130251D01*
X102111882Y-94169194D01*
X102130739Y-94201507D01*
X102145967Y-94223736D01*
X102155615Y-94232432D01*
X102157590Y-94231078D01*
X102165655Y-94220508D01*
X102180329Y-94225241D01*
X102183224Y-94227002D01*
X102198727Y-94241798D01*
X102202640Y-94251923D01*
X102210664Y-94263653D01*
X102215980Y-94264720D01*
X102232241Y-94272468D01*
X102254843Y-94292580D01*
X102279093Y-94320357D01*
X102297190Y-94346000D01*
X102305432Y-94362083D01*
X102308021Y-94379225D01*
X102358044Y-94379225D01*
X102357280Y-94373452D01*
X102354842Y-94358257D01*
X102361815Y-94359735D01*
X102367262Y-94363981D01*
X102377525Y-94369298D01*
X102384947Y-94362253D01*
X102392397Y-94339419D01*
X102394424Y-94331541D01*
X102402706Y-94280266D01*
X102404906Y-94222419D01*
X102401175Y-94166464D01*
X102391665Y-94120866D01*
X102390612Y-94117788D01*
X102382883Y-94091790D01*
X102380674Y-94074814D01*
X102381522Y-94072291D01*
X102392941Y-94072953D01*
X102417754Y-94079768D01*
X102449644Y-94090914D01*
X102487475Y-94103784D01*
X102522286Y-94113124D01*
X102543000Y-94116532D01*
X102573886Y-94122227D01*
X102596550Y-94131011D01*
X102620046Y-94139040D01*
X102633827Y-94130533D01*
X102639290Y-94104299D01*
X102639425Y-94098450D01*
X102629360Y-94098450D01*
X102626314Y-94117337D01*
X102616292Y-94120001D01*
X102597972Y-94106056D01*
X102584782Y-94091748D01*
X102548080Y-94091748D01*
X102540502Y-94101817D01*
X102537920Y-94102160D01*
X102528151Y-94094349D01*
X102527760Y-94091400D01*
X102522311Y-94084605D01*
X102519655Y-94085650D01*
X102506897Y-94085911D01*
X102493135Y-94078752D01*
X102487217Y-94069515D01*
X102488546Y-94066868D01*
X102501907Y-94065459D01*
X102522504Y-94071880D01*
X102540985Y-94082223D01*
X102548080Y-94091748D01*
X102584782Y-94091748D01*
X102576863Y-94083159D01*
X102550280Y-94055999D01*
X102538733Y-94045761D01*
X102446480Y-94045761D01*
X102443669Y-94050588D01*
X102432351Y-94048916D01*
X102408205Y-94039843D01*
X102398033Y-94035635D01*
X102366609Y-94019186D01*
X102338683Y-93998988D01*
X102319635Y-93979431D01*
X102314400Y-93967405D01*
X102321109Y-93967351D01*
X102337963Y-93978252D01*
X102346107Y-93984792D01*
X102376648Y-94006637D01*
X102408997Y-94024449D01*
X102412147Y-94025817D01*
X102434561Y-94036548D01*
X102446073Y-94044731D01*
X102446480Y-94045761D01*
X102538733Y-94045761D01*
X102529221Y-94037328D01*
X102492696Y-94037328D01*
X102491004Y-94041200D01*
X102475644Y-94035580D01*
X102461122Y-94026283D01*
X102449868Y-94015237D01*
X102451560Y-94011366D01*
X102466920Y-94016985D01*
X102481442Y-94026283D01*
X102492696Y-94037328D01*
X102529221Y-94037328D01*
X102515174Y-94024874D01*
X102484580Y-94000659D01*
X102484449Y-94000560D01*
X102436320Y-94000560D01*
X102432854Y-94010455D01*
X102431840Y-94010720D01*
X102423166Y-94003600D01*
X102421080Y-94000560D01*
X102421886Y-93991197D01*
X102425561Y-93990400D01*
X102435907Y-93997775D01*
X102436320Y-94000560D01*
X102484449Y-94000560D01*
X102455974Y-93979075D01*
X102452488Y-93976304D01*
X102412508Y-93976304D01*
X102410920Y-93980240D01*
X102401791Y-93989932D01*
X102400161Y-93990400D01*
X102395797Y-93982539D01*
X102395680Y-93980240D01*
X102403491Y-93970470D01*
X102406440Y-93970080D01*
X102412508Y-93976304D01*
X102452488Y-93976304D01*
X102435150Y-93962525D01*
X102426238Y-93954302D01*
X102426160Y-93954070D01*
X102434181Y-93953426D01*
X102454577Y-93960051D01*
X102481856Y-93971541D01*
X102510523Y-93985496D01*
X102535081Y-93999514D01*
X102543589Y-94005399D01*
X102565079Y-94019765D01*
X102579252Y-94025514D01*
X102581228Y-94024985D01*
X102590677Y-94027193D01*
X102604100Y-94042099D01*
X102617558Y-94063690D01*
X102627109Y-94085949D01*
X102629360Y-94098450D01*
X102639425Y-94098450D01*
X102639521Y-94094316D01*
X102637443Y-94072887D01*
X102629073Y-94053694D01*
X102611205Y-94031610D01*
X102582716Y-94003476D01*
X102529493Y-93953146D01*
X102382134Y-93953146D01*
X102380739Y-93959186D01*
X102375360Y-93959920D01*
X102366998Y-93956202D01*
X102368587Y-93953146D01*
X102380645Y-93951930D01*
X102382134Y-93953146D01*
X102529493Y-93953146D01*
X102525912Y-93949760D01*
X102593544Y-93949760D01*
X102631576Y-93948196D01*
X102663643Y-93944120D01*
X102681147Y-93939071D01*
X102703146Y-93921048D01*
X102726669Y-93892626D01*
X102747038Y-93860689D01*
X102759573Y-93832120D01*
X102761441Y-93820984D01*
X102759766Y-93810126D01*
X102747113Y-93810126D01*
X102747107Y-93821866D01*
X102737451Y-93837313D01*
X102724363Y-93847481D01*
X102720800Y-93848160D01*
X102708664Y-93841262D01*
X102700480Y-93832920D01*
X102682863Y-93819993D01*
X102673237Y-93817680D01*
X102663173Y-93813192D01*
X102663918Y-93809141D01*
X102676784Y-93803833D01*
X102700574Y-93802004D01*
X102726214Y-93803546D01*
X102744626Y-93808352D01*
X102747113Y-93810126D01*
X102759766Y-93810126D01*
X102759382Y-93807644D01*
X102751657Y-93797355D01*
X102578553Y-93797355D01*
X102577449Y-93803157D01*
X102559520Y-93809132D01*
X102545235Y-93811733D01*
X102512131Y-93820929D01*
X102472097Y-93837928D01*
X102440070Y-93855368D01*
X102397668Y-93877743D01*
X102355933Y-93893432D01*
X102334720Y-93898107D01*
X102306090Y-93903264D01*
X102291932Y-93911612D01*
X102286418Y-93927186D01*
X102285786Y-93931980D01*
X102278715Y-93952876D01*
X102268006Y-93959920D01*
X102256168Y-93968217D01*
X102252135Y-93989301D01*
X102255302Y-94017459D01*
X102265064Y-94046979D01*
X102279744Y-94070900D01*
X102299344Y-94090793D01*
X102315506Y-94101542D01*
X102318483Y-94102160D01*
X102332742Y-94108988D01*
X102353414Y-94126078D01*
X102360760Y-94133406D01*
X102375697Y-94150353D01*
X102384414Y-94166324D01*
X102388374Y-94187238D01*
X102389042Y-94219014D01*
X102388480Y-94245458D01*
X102385821Y-94297897D01*
X102381062Y-94330553D01*
X102374107Y-94343863D01*
X102367664Y-94341690D01*
X102359119Y-94330319D01*
X102344268Y-94308352D01*
X102337424Y-94297834D01*
X102324256Y-94279066D01*
X102317987Y-94273646D01*
X102318384Y-94277420D01*
X102321508Y-94293231D01*
X102317096Y-94292928D01*
X102307323Y-94278245D01*
X102299294Y-94262180D01*
X102291106Y-94246645D01*
X102288882Y-94247548D01*
X102289790Y-94252020D01*
X102292574Y-94270987D01*
X102286947Y-94271668D01*
X102272807Y-94254021D01*
X102264769Y-94241860D01*
X102251095Y-94221328D01*
X102244955Y-94216860D01*
X102243069Y-94227317D01*
X102242808Y-94234240D01*
X102241992Y-94259640D01*
X102232562Y-94236127D01*
X102222062Y-94220694D01*
X102212886Y-94218946D01*
X102204027Y-94216803D01*
X102202640Y-94210015D01*
X102195132Y-94192098D01*
X102184633Y-94181476D01*
X102166441Y-94161961D01*
X102154840Y-94142800D01*
X102143056Y-94117400D01*
X102141970Y-94142800D01*
X102139244Y-94156331D01*
X102133793Y-94153454D01*
X102126775Y-94137709D01*
X102119347Y-94112633D01*
X102112666Y-94081764D01*
X102107889Y-94048642D01*
X102106737Y-94035045D01*
X102103393Y-94004107D01*
X102098082Y-93975284D01*
X102091972Y-93952403D01*
X102086235Y-93939294D01*
X102082040Y-93939784D01*
X102080669Y-93949760D01*
X102076481Y-93954161D01*
X102066237Y-93940907D01*
X102065480Y-93939600D01*
X102055325Y-93925895D01*
X102050979Y-93928633D01*
X102050961Y-93929440D01*
X102055780Y-93949186D01*
X102065480Y-93970080D01*
X102076206Y-93991469D01*
X102080360Y-94004344D01*
X102076006Y-94008400D01*
X102064719Y-93999807D01*
X102050610Y-93982974D01*
X102037792Y-93962310D01*
X102034393Y-93955043D01*
X102026886Y-93928602D01*
X102031803Y-93905652D01*
X102035450Y-93898090D01*
X102043880Y-93871573D01*
X102039994Y-93841547D01*
X102038359Y-93835962D01*
X102032799Y-93806520D01*
X102038178Y-93779407D01*
X102045096Y-93763371D01*
X102062310Y-93736259D01*
X102078412Y-93727388D01*
X102091460Y-93737199D01*
X102096868Y-93751640D01*
X102104959Y-93769783D01*
X102114667Y-93777554D01*
X102120918Y-93771798D01*
X102121360Y-93766880D01*
X102129859Y-93758590D01*
X102141426Y-93756720D01*
X102154955Y-93759911D01*
X102157618Y-93773326D01*
X102155396Y-93787200D01*
X102152980Y-93808379D01*
X102155522Y-93817662D01*
X102155738Y-93817679D01*
X102166987Y-93812192D01*
X102188684Y-93798164D01*
X102204253Y-93787199D01*
X102230773Y-93769648D01*
X102251825Y-93758631D01*
X102258801Y-93756720D01*
X102274852Y-93749583D01*
X102285216Y-93739816D01*
X102293503Y-93728475D01*
X102287479Y-93729340D01*
X102276968Y-93734736D01*
X102255961Y-93744585D01*
X102248470Y-93741633D01*
X102251499Y-93723103D01*
X102254150Y-93713607D01*
X102261674Y-93684622D01*
X102262515Y-93670145D01*
X102256604Y-93665473D01*
X102253440Y-93665280D01*
X102245785Y-93673969D01*
X102243280Y-93690519D01*
X102236198Y-93714244D01*
X102218165Y-93741812D01*
X102211866Y-93748939D01*
X102193311Y-93766881D01*
X102186387Y-93768995D01*
X102187903Y-93761800D01*
X102194637Y-93736401D01*
X102198851Y-93711000D01*
X102200614Y-93692872D01*
X102199010Y-93692579D01*
X102192917Y-93710872D01*
X102191294Y-93716080D01*
X102180241Y-93751640D01*
X102163501Y-93727368D01*
X102144617Y-93703330D01*
X102121037Y-93677280D01*
X102118820Y-93675032D01*
X102100099Y-93652151D01*
X102091076Y-93633015D01*
X102092422Y-93621521D01*
X102104803Y-93621567D01*
X102110075Y-93624037D01*
X102122623Y-93629009D01*
X102125744Y-93622034D01*
X102122094Y-93601535D01*
X102119073Y-93574717D01*
X102118084Y-93536084D01*
X102119315Y-93494581D01*
X102122343Y-93455800D01*
X102126429Y-93433606D01*
X102132671Y-93424262D01*
X102140180Y-93423574D01*
X102159582Y-93436654D01*
X102178277Y-93465569D01*
X102194330Y-93505870D01*
X102205808Y-93553109D01*
X102209755Y-93583636D01*
X102213658Y-93618765D01*
X102218321Y-93644274D01*
X102222786Y-93655047D01*
X102223124Y-93655119D01*
X102232896Y-93647490D01*
X102248547Y-93628365D01*
X102254671Y-93619724D01*
X102278067Y-93594970D01*
X102302036Y-93590210D01*
X102328619Y-93605172D01*
X102333130Y-93609263D01*
X102339700Y-93617924D01*
X102330224Y-93618814D01*
X102320430Y-93617148D01*
X102300869Y-93616386D01*
X102294339Y-93626974D01*
X102294080Y-93632540D01*
X102300493Y-93648970D01*
X102316940Y-93652649D01*
X102342985Y-93654755D01*
X102373916Y-93660277D01*
X102374400Y-93660390D01*
X102397170Y-93664107D01*
X102403279Y-93660203D01*
X102401741Y-93656705D01*
X102399815Y-93646269D01*
X102402701Y-93645115D01*
X102425689Y-93655404D01*
X102445302Y-93684212D01*
X102452489Y-93702342D01*
X102459915Y-93725652D01*
X102460143Y-93732244D01*
X102453046Y-93724453D01*
X102451394Y-93722259D01*
X102437694Y-93702296D01*
X102431607Y-93691779D01*
X102424473Y-93687145D01*
X102420092Y-93693644D01*
X102410245Y-93701156D01*
X102401315Y-93696219D01*
X102386855Y-93692899D01*
X102370248Y-93705955D01*
X102360687Y-93721776D01*
X102365710Y-93726471D01*
X102381044Y-93716480D01*
X102381887Y-93715649D01*
X102395325Y-93712148D01*
X102405676Y-93720961D01*
X102413637Y-93732404D01*
X102406979Y-93732259D01*
X102404171Y-93731222D01*
X102387932Y-93734664D01*
X102366498Y-93751592D01*
X102362015Y-93756390D01*
X102332657Y-93780869D01*
X102305942Y-93786100D01*
X102285953Y-93775008D01*
X102277058Y-93770250D01*
X102273896Y-93782467D01*
X102273760Y-93789440D01*
X102268940Y-93810579D01*
X102250693Y-93821011D01*
X102245619Y-93822246D01*
X102225886Y-93829678D01*
X102203422Y-93842311D01*
X102182872Y-93856737D01*
X102168878Y-93869545D01*
X102166085Y-93877327D01*
X102169314Y-93878274D01*
X102172345Y-93885736D01*
X102163050Y-93905603D01*
X102156614Y-93915617D01*
X102138362Y-93947129D01*
X102131782Y-93969476D01*
X102137568Y-93979845D01*
X102140687Y-93980240D01*
X102150013Y-93988783D01*
X102160034Y-94009468D01*
X102160478Y-94010720D01*
X102169610Y-94031783D01*
X102177218Y-94041168D01*
X102177519Y-94041200D01*
X102180165Y-94032855D01*
X102177452Y-94012615D01*
X102171000Y-93987667D01*
X102162426Y-93965200D01*
X102158983Y-93958863D01*
X102157374Y-93939093D01*
X102169490Y-93914750D01*
X102191269Y-93891083D01*
X102218645Y-93873336D01*
X102228040Y-93869728D01*
X102244138Y-93863083D01*
X102242562Y-93859458D01*
X102240141Y-93859236D01*
X102226180Y-93855545D01*
X102229880Y-93847718D01*
X102249343Y-93837120D01*
X102282668Y-93825115D01*
X102291198Y-93822558D01*
X102327484Y-93814179D01*
X102359827Y-93810364D01*
X102375309Y-93811065D01*
X102400174Y-93812174D01*
X102415024Y-93808123D01*
X102418288Y-93801980D01*
X102401679Y-93799900D01*
X102401422Y-93799900D01*
X102378684Y-93797429D01*
X102367333Y-93792719D01*
X102368053Y-93782561D01*
X102380844Y-93770742D01*
X102398532Y-93762122D01*
X102413554Y-93761404D01*
X102428092Y-93758158D01*
X102432812Y-93751209D01*
X102441154Y-93741493D01*
X102452747Y-93747544D01*
X102464948Y-93764113D01*
X102466800Y-93771959D01*
X102475170Y-93791938D01*
X102498358Y-93800738D01*
X102529616Y-93798087D01*
X102557026Y-93794507D01*
X102576702Y-93796462D01*
X102578553Y-93797355D01*
X102751657Y-93797355D01*
X102751261Y-93796828D01*
X102734162Y-93787248D01*
X102705170Y-93777615D01*
X102661369Y-93766640D01*
X102615216Y-93756355D01*
X102571660Y-93746874D01*
X102533494Y-93738520D01*
X102506628Y-93732589D01*
X102499821Y-93731060D01*
X102481964Y-93720946D01*
X102476960Y-93709834D01*
X102467163Y-93680607D01*
X102437656Y-93649106D01*
X102388272Y-93615175D01*
X102351019Y-93594613D01*
X102335110Y-93586375D01*
X102249464Y-93586375D01*
X102241753Y-93605769D01*
X102228183Y-93629720D01*
X102224807Y-93600851D01*
X102224247Y-93577979D01*
X102227445Y-93565968D01*
X102238610Y-93566495D01*
X102244391Y-93570886D01*
X102249464Y-93586375D01*
X102335110Y-93586375D01*
X102263601Y-93549347D01*
X102263600Y-93476477D01*
X102261984Y-93431957D01*
X102256747Y-93404267D01*
X102248360Y-93390960D01*
X102236235Y-93383560D01*
X102233068Y-93391710D01*
G36*
X102351019Y-93594613D02*
G01*
X102388272Y-93615175D01*
X102437656Y-93649106D01*
X102467163Y-93680607D01*
X102476960Y-93709834D01*
X102481964Y-93720946D01*
X102499821Y-93731060D01*
X102506628Y-93732589D01*
X102533494Y-93738520D01*
X102571660Y-93746874D01*
X102615216Y-93756355D01*
X102661369Y-93766640D01*
X102705170Y-93777615D01*
X102734162Y-93787248D01*
X102751261Y-93796828D01*
X102751657Y-93797355D01*
X102759382Y-93807644D01*
X102759766Y-93810126D01*
X102761441Y-93820984D01*
X102759573Y-93832120D01*
X102747038Y-93860689D01*
X102726669Y-93892626D01*
X102703146Y-93921048D01*
X102681147Y-93939071D01*
X102663643Y-93944120D01*
X102631576Y-93948196D01*
X102593544Y-93949760D01*
X102525912Y-93949760D01*
X102529493Y-93953146D01*
X102582716Y-94003476D01*
X102611205Y-94031610D01*
X102629073Y-94053694D01*
X102637443Y-94072887D01*
X102639521Y-94094316D01*
X102639425Y-94098450D01*
X102639290Y-94104299D01*
X102633827Y-94130533D01*
X102620046Y-94139040D01*
X102596550Y-94131011D01*
X102573886Y-94122227D01*
X102543000Y-94116532D01*
X102522286Y-94113124D01*
X102487475Y-94103784D01*
X102449644Y-94090914D01*
X102417754Y-94079768D01*
X102392941Y-94072953D01*
X102381522Y-94072291D01*
X102380674Y-94074814D01*
X102382883Y-94091790D01*
X102390612Y-94117788D01*
X102391665Y-94120866D01*
X102401175Y-94166464D01*
X102404906Y-94222419D01*
X102402706Y-94280266D01*
X102394424Y-94331541D01*
X102392397Y-94339419D01*
X102384947Y-94362253D01*
X102377525Y-94369298D01*
X102367262Y-94363981D01*
X102361815Y-94359735D01*
X102354842Y-94358257D01*
X102357280Y-94373452D01*
X102358044Y-94379225D01*
X102359211Y-94388052D01*
X102355470Y-94398852D01*
X102350103Y-94404136D01*
X102339383Y-94424830D01*
X102328257Y-94454473D01*
X102318904Y-94486217D01*
X102313502Y-94513209D01*
X102314227Y-94528599D01*
X102314421Y-94528923D01*
X102319381Y-94548691D01*
X102320762Y-94579985D01*
X102319082Y-94616441D01*
X102314858Y-94651694D01*
X102308608Y-94679381D01*
X102300849Y-94693135D01*
X102300175Y-94693534D01*
X102284753Y-94710041D01*
X102267062Y-94738770D01*
X102250791Y-94772932D01*
X102239631Y-94805740D01*
X102232114Y-94824998D01*
X102222767Y-94833680D01*
X102217983Y-94835646D01*
X102212800Y-94849597D01*
X102212429Y-94852852D01*
X102204121Y-94873200D01*
X102188323Y-94897857D01*
X102174868Y-94917979D01*
X102154579Y-94953311D01*
X102135482Y-94991160D01*
X102120189Y-95021392D01*
X102102606Y-95050909D01*
X102088839Y-95068551D01*
X102076542Y-95091000D01*
X102070960Y-95128530D01*
X102072671Y-95176328D01*
X102081869Y-95229920D01*
X102085268Y-95245139D01*
X102093146Y-95283472D01*
X102102349Y-95330922D01*
X102111515Y-95380563D01*
X102113939Y-95393840D01*
X102124027Y-95442297D01*
X102134414Y-95477419D01*
X102147067Y-95504818D01*
X102163955Y-95530109D01*
X102181869Y-95552810D01*
X102199063Y-95567786D01*
X102219620Y-95573808D01*
X102251682Y-95575045D01*
X102260447Y-95575157D01*
X102292230Y-95578078D01*
X102314691Y-95587375D01*
X102336790Y-95606346D01*
X102367776Y-95637332D01*
X102366085Y-95638579D01*
X102334034Y-95662226D01*
X102315599Y-95673991D01*
X102285270Y-95684274D01*
X102244616Y-95687120D01*
X102188938Y-95687120D01*
X102212315Y-95712003D01*
X102215709Y-95715778D01*
X102229312Y-95741285D01*
X102223090Y-95762461D01*
X102197180Y-95778704D01*
X102195491Y-95779277D01*
X102171514Y-95782899D01*
X102134639Y-95784507D01*
X102091392Y-95784253D01*
X102048299Y-95782289D01*
X102011887Y-95778768D01*
X101988683Y-95773841D01*
X101982062Y-95768834D01*
X101967459Y-95748644D01*
X101953123Y-95719819D01*
X101947360Y-95707302D01*
X101924174Y-95668737D01*
X101897840Y-95636173D01*
X101881728Y-95619426D01*
X101848640Y-95578567D01*
X101831544Y-95544001D01*
X101829056Y-95513254D01*
X101829849Y-95492579D01*
X101825692Y-95483920D01*
X101821694Y-95478051D01*
X101816194Y-95456847D01*
X101813696Y-95440255D01*
X101840531Y-95440255D01*
X101842983Y-95460208D01*
X101845091Y-95468684D01*
X101851774Y-95489495D01*
X101855833Y-95490275D01*
X101857200Y-95470972D01*
X101854617Y-95452066D01*
X101846633Y-95437948D01*
X101840531Y-95440255D01*
X101813696Y-95440255D01*
X101811475Y-95425500D01*
X101808276Y-95400498D01*
X101803182Y-95369939D01*
X101798625Y-95351840D01*
X101795865Y-95344395D01*
X101791473Y-95326440D01*
X101790578Y-95321727D01*
X101782672Y-95303580D01*
X101780028Y-95297432D01*
X101784300Y-95290880D01*
X101785074Y-95290769D01*
X101790485Y-95280265D01*
X101791280Y-95257860D01*
X101787982Y-95237175D01*
X101780126Y-95223561D01*
X101770781Y-95226862D01*
X101762443Y-95245570D01*
X101757610Y-95278180D01*
X101755585Y-95298797D01*
X101750339Y-95322350D01*
X101743823Y-95331520D01*
X101739154Y-95333698D01*
X101738955Y-95346760D01*
X101740115Y-95355350D01*
X101729630Y-95362000D01*
X101717926Y-95367367D01*
X101705607Y-95385277D01*
X101697223Y-95401638D01*
X101680459Y-95422081D01*
X101671313Y-95431995D01*
X101664160Y-95449004D01*
X101663415Y-95454153D01*
X101652431Y-95469650D01*
X101646151Y-95471931D01*
X101648104Y-95462629D01*
X101648713Y-95458304D01*
X101639476Y-95468133D01*
X101630825Y-95482429D01*
X101633642Y-95498105D01*
X101642236Y-95515221D01*
X101640472Y-95543026D01*
X101625722Y-95570592D01*
X101620625Y-95576346D01*
X101593259Y-95601063D01*
X101564940Y-95619050D01*
X101542520Y-95625762D01*
X101540550Y-95625552D01*
X101541339Y-95620783D01*
X101557480Y-95611817D01*
X101576683Y-95601856D01*
X101605907Y-95579345D01*
X101624307Y-95555083D01*
X101630484Y-95532502D01*
X101623039Y-95515033D01*
X101600574Y-95506105D01*
X101591900Y-95505379D01*
X101576555Y-95509061D01*
X101572720Y-95524484D01*
X101570475Y-95536599D01*
X101562560Y-95539800D01*
X101557247Y-95538918D01*
X101552400Y-95549679D01*
X101550681Y-95557772D01*
X101537160Y-95571685D01*
X101530127Y-95576061D01*
X101521920Y-95592286D01*
X101520759Y-95598688D01*
X101512628Y-95601296D01*
X101509759Y-95599953D01*
X101499928Y-95603236D01*
X101495046Y-95608765D01*
X101477817Y-95620868D01*
X101455451Y-95633400D01*
X101435261Y-95642410D01*
X101424562Y-95643948D01*
X101426752Y-95639577D01*
X101441699Y-95626976D01*
X101466521Y-95610063D01*
X101489182Y-95592394D01*
X101516807Y-95564777D01*
X101543664Y-95533079D01*
X101566247Y-95501802D01*
X101581047Y-95475448D01*
X101584559Y-95458520D01*
X101585054Y-95454965D01*
X101594105Y-95460818D01*
X101603664Y-95467250D01*
X101619776Y-95462491D01*
X101626247Y-95447701D01*
X101617963Y-95424018D01*
X101594006Y-95389940D01*
X101586732Y-95378609D01*
X101587630Y-95372160D01*
X101589982Y-95369559D01*
X101583558Y-95357735D01*
X101583542Y-95357716D01*
X101577161Y-95346695D01*
X101587099Y-95345588D01*
X101602390Y-95349745D01*
X101611334Y-95361068D01*
X101617310Y-95385969D01*
X101623739Y-95408396D01*
X101634701Y-95429269D01*
X101636762Y-95431566D01*
X101645637Y-95435119D01*
X101656418Y-95425623D01*
X101672559Y-95400448D01*
X101681573Y-95385438D01*
X101695873Y-95362911D01*
X101704046Y-95351840D01*
X101707252Y-95348196D01*
X101718884Y-95327659D01*
X101731381Y-95298795D01*
X101741362Y-95269966D01*
X101745440Y-95249537D01*
X101749375Y-95230186D01*
X101761363Y-95204904D01*
X101767357Y-95194456D01*
X101772181Y-95172353D01*
X101766731Y-95142380D01*
X101765466Y-95137468D01*
X101760742Y-95106320D01*
X101761792Y-95081787D01*
X101762910Y-95066611D01*
X101761152Y-95062822D01*
X101799229Y-95062822D01*
X101817160Y-95067360D01*
X101828690Y-95069523D01*
X101831800Y-95077520D01*
X101830189Y-95081434D01*
X101835923Y-95087680D01*
X101844523Y-95083448D01*
X101857200Y-95067360D01*
X101861579Y-95058151D01*
X101859880Y-95049002D01*
X101841718Y-95047040D01*
X101823557Y-95044072D01*
X101822991Y-95034340D01*
X101824716Y-95028159D01*
X101813431Y-95035584D01*
X101799373Y-95050467D01*
X101799229Y-95062822D01*
X101761152Y-95062822D01*
X101756424Y-95052628D01*
X101749940Y-95051899D01*
X101744726Y-95064220D01*
X101744394Y-95070482D01*
X101742183Y-95075698D01*
X101736015Y-95062280D01*
X101733340Y-95044837D01*
X101738798Y-95018137D01*
X101744504Y-95006332D01*
X101750720Y-95001269D01*
X101756956Y-95013057D01*
X101759721Y-95019900D01*
X101763959Y-95025551D01*
X101765849Y-95011480D01*
X101767938Y-95001506D01*
X101772509Y-95003917D01*
X101773587Y-95005812D01*
X101784601Y-95004839D01*
X101804449Y-94986137D01*
X101815757Y-94973922D01*
X101833627Y-94958634D01*
X101842559Y-94957324D01*
X101840555Y-94970840D01*
X101838961Y-94978633D01*
X101844573Y-94986080D01*
X101848681Y-94982868D01*
X101855617Y-94964037D01*
X101861592Y-94932572D01*
X101865781Y-94893348D01*
X101867361Y-94851241D01*
X101865908Y-94835132D01*
X101857653Y-94803833D01*
X101844639Y-94773766D01*
X101829796Y-94751159D01*
X101816056Y-94742240D01*
X101815865Y-94742233D01*
X101805076Y-94733838D01*
X101795605Y-94719803D01*
X101864275Y-94719803D01*
X101864522Y-94745478D01*
X101871337Y-94765758D01*
X101881286Y-94772175D01*
X101891023Y-94760020D01*
X101891989Y-94759266D01*
X101893347Y-94770507D01*
X101893523Y-94796573D01*
X101892444Y-94833680D01*
X101891342Y-94862283D01*
X101890900Y-94891602D01*
X101892408Y-94904999D01*
X101896331Y-94905127D01*
X101903134Y-94894640D01*
X101912292Y-94881795D01*
X101917306Y-94883691D01*
X101916210Y-94901365D01*
X101908710Y-94932807D01*
X101905553Y-94947481D01*
X101906465Y-94963352D01*
X101913269Y-94964440D01*
X101923305Y-94947980D01*
X101927740Y-94940266D01*
X101933930Y-94943362D01*
X101942522Y-94964105D01*
X101954419Y-94998010D01*
X101968301Y-94972072D01*
X101980551Y-94955409D01*
X101990831Y-94951478D01*
X101991001Y-94951576D01*
X102000228Y-94946779D01*
X102010253Y-94928482D01*
X102015947Y-94906277D01*
X102010234Y-94896544D01*
X102006868Y-94893075D01*
X102001414Y-94874284D01*
X101999117Y-94845533D01*
X101998895Y-94828855D01*
X101997318Y-94810366D01*
X101992858Y-94807686D01*
X101983877Y-94817841D01*
X101980017Y-94822819D01*
X101972606Y-94829167D01*
X101969555Y-94820952D01*
X101968960Y-94795300D01*
X101968369Y-94776938D01*
X101964189Y-94760177D01*
X101954966Y-94758408D01*
X101952792Y-94759025D01*
X101941894Y-94752350D01*
X101934045Y-94726863D01*
X101929378Y-94706763D01*
X101922735Y-94697302D01*
X101912480Y-94702098D01*
X101909675Y-94704338D01*
X101900163Y-94707302D01*
X101897840Y-94692684D01*
X101896108Y-94679693D01*
X101889311Y-94671120D01*
X101881091Y-94675507D01*
X101870647Y-94693935D01*
X101864275Y-94719803D01*
X101795605Y-94719803D01*
X101791892Y-94714300D01*
X101790305Y-94711451D01*
X101780537Y-94697998D01*
X101776327Y-94699659D01*
X101772921Y-94709876D01*
X101765700Y-94706219D01*
X101758363Y-94692446D01*
X101754588Y-94673060D01*
X101753575Y-94645720D01*
X101745932Y-94671120D01*
X101744165Y-94676846D01*
X101739586Y-94686915D01*
X101735648Y-94680842D01*
X101730250Y-94656696D01*
X101722212Y-94616872D01*
X101698726Y-94661776D01*
X101675239Y-94706680D01*
X101674456Y-94655880D01*
X101673977Y-94635425D01*
X101672104Y-94617470D01*
X101667539Y-94614933D01*
X101658757Y-94624801D01*
X101650429Y-94635325D01*
X101644685Y-94636946D01*
X101643517Y-94619721D01*
X101642964Y-94605175D01*
X101638971Y-94601566D01*
X101627071Y-94615240D01*
X101617013Y-94627290D01*
X101613615Y-94626588D01*
X101617360Y-94607890D01*
X101619628Y-94596596D01*
X101618177Y-94585234D01*
X101606642Y-94586794D01*
X101594733Y-94588416D01*
X101596038Y-94576363D01*
X101598108Y-94566955D01*
X101593406Y-94559360D01*
X101586739Y-94555386D01*
X101577754Y-94538892D01*
X101576001Y-94535568D01*
X101655466Y-94535568D01*
X101656436Y-94537815D01*
X101670386Y-94526339D01*
X101690087Y-94511770D01*
X101699995Y-94511047D01*
X101697499Y-94526339D01*
X101695134Y-94533079D01*
X101695942Y-94538665D01*
X101708617Y-94529645D01*
X101719233Y-94521959D01*
X101723124Y-94525174D01*
X101719368Y-94544885D01*
X101716548Y-94558230D01*
X101717232Y-94567526D01*
X101725841Y-94561900D01*
X101741004Y-94551262D01*
X101752155Y-94551357D01*
X101751926Y-94564440D01*
X101750126Y-94575777D01*
X101758305Y-94578530D01*
X101775132Y-94566979D01*
X101779668Y-94562872D01*
X101783771Y-94561901D01*
X101777164Y-94576472D01*
X101767440Y-94598550D01*
X101768339Y-94607295D01*
X101781233Y-94599806D01*
X101784243Y-94597351D01*
X101792911Y-94592674D01*
X101790306Y-94603642D01*
X101788617Y-94612833D01*
X101795153Y-94620320D01*
X101800340Y-94622048D01*
X101806400Y-94635560D01*
X101807547Y-94642570D01*
X101816560Y-94650800D01*
X101821968Y-94653492D01*
X101827044Y-94668580D01*
X101827459Y-94676381D01*
X101831206Y-94679640D01*
X101842284Y-94666638D01*
X101851348Y-94651298D01*
X101857200Y-94630715D01*
X101862752Y-94617705D01*
X101877415Y-94614259D01*
X101893784Y-94621307D01*
X101904375Y-94637737D01*
X101911039Y-94652359D01*
X101923535Y-94660960D01*
X101923927Y-94660973D01*
X101935142Y-94670357D01*
X101943667Y-94691925D01*
X101947034Y-94705036D01*
X101954022Y-94715762D01*
X101964794Y-94711001D01*
X101965016Y-94710818D01*
X101973896Y-94706727D01*
X101978076Y-94716062D01*
X101979120Y-94742239D01*
X101980163Y-94768152D01*
X101984346Y-94777713D01*
X101993174Y-94773704D01*
X101995692Y-94771814D01*
X102008813Y-94771225D01*
X102016981Y-94789772D01*
X102019916Y-94826890D01*
X102020331Y-94840260D01*
X102023414Y-94850411D01*
X102030732Y-94843840D01*
X102035456Y-94838543D01*
X102038867Y-94843289D01*
X102037779Y-94865987D01*
X102037233Y-94873108D01*
X102037912Y-94892919D01*
X102042204Y-94898407D01*
X102046461Y-94892873D01*
X102050240Y-94874446D01*
X102052753Y-94861517D01*
X102065480Y-94840211D01*
X102074185Y-94829543D01*
X102080720Y-94814085D01*
X102081132Y-94811026D01*
X102090880Y-94803200D01*
X102096268Y-94800502D01*
X102101196Y-94785420D01*
X102103104Y-94774099D01*
X102110238Y-94781670D01*
X102113852Y-94785405D01*
X102120250Y-94779134D01*
X102126216Y-94753730D01*
X102128238Y-94743260D01*
X102134858Y-94720737D01*
X102141304Y-94711760D01*
X102141795Y-94711702D01*
X102149124Y-94701681D01*
X102155721Y-94679657D01*
X102160151Y-94659818D01*
X102164318Y-94648203D01*
X102166197Y-94652310D01*
X102165709Y-94669545D01*
X102162778Y-94697314D01*
X102157325Y-94733022D01*
X102154666Y-94747615D01*
X102139157Y-94809802D01*
X102117378Y-94861270D01*
X102088482Y-94906277D01*
X102086169Y-94909880D01*
X102061849Y-94947519D01*
X102028623Y-95015669D01*
X102013230Y-95058151D01*
X102000684Y-95092778D01*
X101980357Y-95172099D01*
X101969969Y-95246887D01*
X101968392Y-95267929D01*
X101964416Y-95306558D01*
X101960025Y-95334900D01*
X101955916Y-95347950D01*
X101955541Y-95348294D01*
X101950887Y-95344375D01*
X101950188Y-95325903D01*
X101950827Y-95315536D01*
X101951824Y-95277038D01*
X101951316Y-95235539D01*
X101949562Y-95195703D01*
X101946823Y-95162194D01*
X101943358Y-95139677D01*
X101939428Y-95132814D01*
X101934749Y-95130916D01*
X101935730Y-95115634D01*
X101937191Y-95109124D01*
X101936999Y-95099208D01*
X101927671Y-95105460D01*
X101914624Y-95115498D01*
X101904254Y-95115414D01*
X101904816Y-95098759D01*
X101906707Y-95089776D01*
X101903781Y-95084445D01*
X101890558Y-95086681D01*
X101862654Y-95096219D01*
X101815418Y-95113080D01*
X101817664Y-95158800D01*
X101818466Y-95170608D01*
X101822448Y-95200834D01*
X101827797Y-95220512D01*
X101829034Y-95223344D01*
X101835635Y-95246363D01*
X101841145Y-95276392D01*
X101842087Y-95283143D01*
X101846926Y-95316364D01*
X101853449Y-95359814D01*
X101860518Y-95405897D01*
X101862864Y-95421907D01*
X101867814Y-95464537D01*
X101868240Y-95470972D01*
X101870158Y-95499962D01*
X101869406Y-95521785D01*
X101868912Y-95539987D01*
X101878804Y-95559168D01*
X101880162Y-95560377D01*
X101892429Y-95577049D01*
X101909341Y-95605871D01*
X101927664Y-95641400D01*
X101945219Y-95676682D01*
X101961238Y-95704111D01*
X101975373Y-95719406D01*
X101991035Y-95726070D01*
X102011636Y-95727604D01*
X102031827Y-95731338D01*
X102047196Y-95742191D01*
X102049615Y-95745544D01*
X102065247Y-95756631D01*
X102085749Y-95764151D01*
X102103581Y-95765998D01*
X102111200Y-95760067D01*
X102108092Y-95750731D01*
X102095235Y-95733565D01*
X102087450Y-95722807D01*
X102091321Y-95717617D01*
X102105588Y-95721050D01*
X102125842Y-95733163D01*
X102141435Y-95741734D01*
X102164902Y-95747424D01*
X102184363Y-95745925D01*
X102192480Y-95736832D01*
X102195554Y-95731502D01*
X102210260Y-95731828D01*
X102214332Y-95731959D01*
X102210097Y-95723392D01*
X102193652Y-95706436D01*
X102189877Y-95702993D01*
X102166845Y-95685130D01*
X102146237Y-95678978D01*
X102118443Y-95681328D01*
X102115410Y-95681808D01*
X102092047Y-95684550D01*
X102084785Y-95681875D01*
X102090172Y-95672733D01*
X102094024Y-95667370D01*
X102095939Y-95652685D01*
X102084101Y-95632045D01*
X102083886Y-95631750D01*
X102068434Y-95613796D01*
X102057261Y-95606159D01*
X102053478Y-95609438D01*
X102060167Y-95624680D01*
X102079726Y-95650504D01*
X102081174Y-95652240D01*
X102089148Y-95664659D01*
X102082240Y-95665404D01*
X102070591Y-95655444D01*
X102052487Y-95632743D01*
X102032103Y-95602375D01*
X102005482Y-95559491D01*
X102022082Y-95559491D01*
X102022570Y-95567921D01*
X102034252Y-95583221D01*
X102044782Y-95592957D01*
X102048166Y-95593180D01*
X102040444Y-95577029D01*
X102030528Y-95562576D01*
X102022082Y-95559491D01*
X102005482Y-95559491D01*
X101995686Y-95543710D01*
X101998303Y-95354739D01*
X101998311Y-95354170D01*
X101999277Y-95301040D01*
X102009836Y-95301040D01*
X102011287Y-95333644D01*
X102017589Y-95382812D01*
X102027638Y-95429591D01*
X102040067Y-95468005D01*
X102053509Y-95492078D01*
X102054133Y-95492788D01*
X102066862Y-95515586D01*
X102075632Y-95545060D01*
X102078322Y-95557719D01*
X102091109Y-95592396D01*
X102091659Y-95593180D01*
X102108279Y-95616882D01*
X102126675Y-95626160D01*
X102134483Y-95623620D01*
X102141680Y-95608888D01*
X102143911Y-95598065D01*
X102153442Y-95603377D01*
X102159931Y-95613748D01*
X102153317Y-95629461D01*
X102147265Y-95641646D01*
X102153072Y-95654740D01*
X102172048Y-95660786D01*
X102200127Y-95657360D01*
X102201840Y-95656874D01*
X102223939Y-95651667D01*
X102234896Y-95651029D01*
X102235198Y-95651227D01*
X102247764Y-95654981D01*
X102271220Y-95660006D01*
X102277879Y-95661057D01*
X102298350Y-95660202D01*
X102304790Y-95652803D01*
X102294080Y-95641400D01*
X102291313Y-95639225D01*
X102284076Y-95623020D01*
X102285175Y-95616768D01*
X102291696Y-95622250D01*
X102302260Y-95631630D01*
X102320542Y-95640021D01*
X102337447Y-95643165D01*
X102344880Y-95638579D01*
X102340958Y-95625402D01*
X102321089Y-95607584D01*
X102288510Y-95595225D01*
X102247824Y-95590600D01*
X102233395Y-95590535D01*
X102209083Y-95588646D01*
X102191788Y-95581364D01*
X102175150Y-95565036D01*
X102152810Y-95536007D01*
X102152219Y-95535214D01*
X102120217Y-95482909D01*
X102105408Y-95434407D01*
X102103842Y-95424051D01*
X102097509Y-95386823D01*
X102088955Y-95340353D01*
X102079573Y-95292301D01*
X102076309Y-95275278D01*
X102068182Y-95224589D01*
X102062524Y-95176763D01*
X102060400Y-95140264D01*
X102060188Y-95118355D01*
X102058460Y-95097788D01*
X102054015Y-95092169D01*
X102045701Y-95098202D01*
X102044598Y-95099435D01*
X102034463Y-95120891D01*
X102025006Y-95156941D01*
X102017141Y-95202424D01*
X102011780Y-95252177D01*
X102009836Y-95301040D01*
X101999277Y-95301040D01*
X101999586Y-95284064D01*
X102001425Y-95230639D01*
X102004168Y-95190281D01*
X102008156Y-95159378D01*
X102013730Y-95134316D01*
X102021230Y-95111484D01*
X102030246Y-95089542D01*
X102045192Y-95064934D01*
X102059946Y-95057200D01*
X102070555Y-95054508D01*
X102084321Y-95039420D01*
X102087918Y-95029909D01*
X102099258Y-95006400D01*
X102101744Y-95001987D01*
X102113427Y-94979549D01*
X102127493Y-94950994D01*
X102130505Y-94944942D01*
X102150585Y-94910496D01*
X102171785Y-94880915D01*
X102175341Y-94876538D01*
X102191371Y-94853189D01*
X102199049Y-94835738D01*
X102200851Y-94828975D01*
X102211505Y-94814160D01*
X102219648Y-94802747D01*
X102226754Y-94780087D01*
X102233850Y-94758792D01*
X102249976Y-94727612D01*
X102269512Y-94698453D01*
X102287299Y-94679859D01*
X102289069Y-94677806D01*
X102294404Y-94659694D01*
X102298204Y-94629411D01*
X102300236Y-94593271D01*
X102300270Y-94557587D01*
X102298074Y-94528673D01*
X102293418Y-94512841D01*
X102290008Y-94505055D01*
X102290013Y-94478929D01*
X102298075Y-94435880D01*
X102305022Y-94403909D01*
X102308021Y-94379225D01*
X102305432Y-94362083D01*
X102297190Y-94346000D01*
X102279093Y-94320357D01*
X102254843Y-94292580D01*
X102232241Y-94272468D01*
X102215980Y-94264720D01*
X102210664Y-94263653D01*
X102202640Y-94251923D01*
X102198727Y-94241798D01*
X102183224Y-94227002D01*
X102180329Y-94225241D01*
X102165655Y-94220508D01*
X102157590Y-94231078D01*
X102155615Y-94232432D01*
X102145967Y-94223736D01*
X102130739Y-94201507D01*
X102111882Y-94169194D01*
X102091350Y-94130251D01*
X102071094Y-94088129D01*
X102053066Y-94046280D01*
X102048366Y-94034958D01*
X102044626Y-94028727D01*
X102046937Y-94041200D01*
X102051667Y-94060162D01*
X102057530Y-94081840D01*
X102057781Y-94084792D01*
X102050879Y-94082002D01*
X102035866Y-94066600D01*
X102029239Y-94059335D01*
X102015248Y-94047957D01*
X102009651Y-94050018D01*
X102010803Y-94055146D01*
X102021598Y-94074700D01*
X102040080Y-94098632D01*
X102045270Y-94104955D01*
X102061162Y-94131179D01*
X102069845Y-94156607D01*
X102070023Y-94175830D01*
X102060400Y-94183440D01*
X102055921Y-94181930D01*
X102050240Y-94168799D01*
X102049429Y-94162580D01*
X102040080Y-94147879D01*
X102033941Y-94148228D01*
X102029920Y-94161848D01*
X102030664Y-94166749D01*
X102044230Y-94187541D01*
X102072193Y-94210708D01*
X102106113Y-94240389D01*
X102128193Y-94279960D01*
X102139347Y-94312857D01*
X102147526Y-94335229D01*
X102152663Y-94344496D01*
X102156666Y-94343914D01*
X102161443Y-94336742D01*
X102163584Y-94333829D01*
X102170492Y-94334759D01*
X102176918Y-94354690D01*
X102182813Y-94373871D01*
X102191691Y-94389959D01*
X102199369Y-94394431D01*
X102202640Y-94383675D01*
X102202633Y-94383147D01*
X102199177Y-94363457D01*
X102191306Y-94336837D01*
X102189086Y-94330217D01*
X102183523Y-94306583D01*
X102186077Y-94300046D01*
X102194555Y-94310476D01*
X102206762Y-94337745D01*
X102211696Y-94350790D01*
X102218612Y-94367252D01*
X102220387Y-94365997D01*
X102218133Y-94348034D01*
X102217721Y-94345122D01*
X102217294Y-94324554D01*
X102223113Y-94320694D01*
X102227946Y-94325697D01*
X102233835Y-94344059D01*
X102234036Y-94347809D01*
X102236248Y-94354069D01*
X102242242Y-94341594D01*
X102247021Y-94332097D01*
X102254385Y-94330551D01*
X102261019Y-94347660D01*
X102267097Y-94383978D01*
X102272791Y-94440061D01*
X102275887Y-94480008D01*
X102277869Y-94517754D01*
X102277256Y-94535824D01*
X102274059Y-94534060D01*
X102268286Y-94512298D01*
X102262213Y-94487866D01*
X102253354Y-94457760D01*
X102252712Y-94455842D01*
X102247392Y-94442256D01*
X102244914Y-94445740D01*
X102243745Y-94467920D01*
X102242604Y-94503480D01*
X102202640Y-94455508D01*
X102202640Y-94489877D01*
X102201868Y-94511110D01*
X102197753Y-94514608D01*
X102187557Y-94502881D01*
X102186187Y-94500973D01*
X102174358Y-94476094D01*
X102165968Y-94445244D01*
X102161467Y-94427574D01*
X102152798Y-94414216D01*
X102145041Y-94418006D01*
X102141680Y-94439732D01*
X102140506Y-94455455D01*
X102136863Y-94457121D01*
X102131751Y-94443956D01*
X102126195Y-94418743D01*
X102121220Y-94384262D01*
X102120257Y-94375827D01*
X102116726Y-94346696D01*
X102114663Y-94336451D01*
X102113481Y-94344003D01*
X102112591Y-94368260D01*
X102110862Y-94391563D01*
X102106149Y-94413523D01*
X102100458Y-94421474D01*
X102095666Y-94413492D01*
X102093651Y-94387654D01*
X102092721Y-94365949D01*
X102087854Y-94340532D01*
X102079977Y-94329611D01*
X102070401Y-94336097D01*
X102063114Y-94340749D01*
X102055747Y-94327022D01*
X102053189Y-94320104D01*
X102043521Y-94306694D01*
X102036581Y-94309513D01*
X102037547Y-94328220D01*
X102040588Y-94342302D01*
X102037084Y-94344749D01*
X102022248Y-94332533D01*
X102009049Y-94321547D01*
X102000981Y-94320163D01*
X101996330Y-94332533D01*
X101994130Y-94339750D01*
X101989799Y-94342185D01*
X101983571Y-94326224D01*
X101979765Y-94315068D01*
X101974653Y-94308819D01*
X101969158Y-94320036D01*
X101968113Y-94322624D01*
X101962244Y-94325912D01*
X101953472Y-94313660D01*
X101940245Y-94283931D01*
X101931900Y-94263930D01*
X101923666Y-94246929D01*
X101920538Y-94246796D01*
X101921341Y-94262179D01*
X101922600Y-94277340D01*
X101921654Y-94292945D01*
X101916220Y-94288748D01*
X101906478Y-94264720D01*
X101902335Y-94253861D01*
X101892987Y-94240766D01*
X101876400Y-94235322D01*
X101846047Y-94234240D01*
X101821804Y-94235654D01*
X101799576Y-94243132D01*
X101796166Y-94256546D01*
X101812035Y-94275340D01*
X101822648Y-94286359D01*
X101837947Y-94309604D01*
X101837601Y-94314228D01*
X101826506Y-94306010D01*
X101806913Y-94286273D01*
X101794365Y-94273141D01*
X101774928Y-94256159D01*
X101767056Y-94255881D01*
X101770767Y-94272287D01*
X101786080Y-94305360D01*
X101791447Y-94316137D01*
X101802146Y-94339678D01*
X101806400Y-94352446D01*
X101801627Y-94353037D01*
X101787767Y-94342422D01*
X101768929Y-94323961D01*
X101749280Y-94301768D01*
X101732989Y-94279960D01*
X101713081Y-94249480D01*
X101719719Y-94279960D01*
X101720573Y-94283608D01*
X101740054Y-94329825D01*
X101753663Y-94348405D01*
X101772116Y-94373599D01*
X101796676Y-94394531D01*
X101810669Y-94406458D01*
X101810979Y-94406648D01*
X101841268Y-94420037D01*
X101885026Y-94432860D01*
X101935549Y-94443148D01*
X101967881Y-94448884D01*
X102009732Y-94459329D01*
X102043103Y-94473199D01*
X102075377Y-94493130D01*
X102082473Y-94498143D01*
X102124390Y-94530255D01*
X102162644Y-94563427D01*
X102193989Y-94594484D01*
X102215176Y-94620249D01*
X102222960Y-94637543D01*
X102222592Y-94644469D01*
X102218409Y-94646819D01*
X102207049Y-94632604D01*
X102201744Y-94626270D01*
X102178240Y-94606530D01*
X102148629Y-94588455D01*
X102106120Y-94567023D01*
X102156920Y-94623077D01*
X102132900Y-94610560D01*
X102131169Y-94609593D01*
X102111231Y-94594671D01*
X102083760Y-94570087D01*
X102054160Y-94540639D01*
X102038783Y-94524823D01*
X102014130Y-94501842D01*
X102001872Y-94494851D01*
X102002044Y-94503860D01*
X102014680Y-94528880D01*
X102017107Y-94533176D01*
X102027734Y-94555382D01*
X102026081Y-94562273D01*
X102011771Y-94553864D01*
X101984428Y-94530173D01*
X101956720Y-94505564D01*
X101937307Y-94491256D01*
X101929457Y-94490760D01*
X101931995Y-94503480D01*
X101933386Y-94507626D01*
X101932050Y-94517796D01*
X101920510Y-94514155D01*
X101901979Y-94497359D01*
X101878425Y-94476144D01*
X101852336Y-94460217D01*
X101829993Y-94453032D01*
X101816909Y-94457195D01*
X101806075Y-94463558D01*
X101782698Y-94458405D01*
X101762914Y-94453180D01*
X101755600Y-94458611D01*
X101754056Y-94462728D01*
X101742900Y-94461801D01*
X101740688Y-94460869D01*
X101742523Y-94466538D01*
X101755600Y-94482348D01*
X101781000Y-94510213D01*
X101750520Y-94502431D01*
X101733820Y-94498487D01*
X101702400Y-94494922D01*
X101681648Y-94501307D01*
X101665974Y-94518720D01*
X101655466Y-94535568D01*
X101576001Y-94535568D01*
X101571800Y-94527601D01*
X101561829Y-94524252D01*
X101558386Y-94525591D01*
X101552400Y-94518719D01*
X101551261Y-94514456D01*
X101541152Y-94514312D01*
X101534419Y-94513998D01*
X101536609Y-94497132D01*
X101543315Y-94473000D01*
X101498587Y-94523800D01*
X101504937Y-94497575D01*
X101506894Y-94488203D01*
X101505028Y-94474995D01*
X101490801Y-94472859D01*
X101465393Y-94482852D01*
X101441259Y-94507021D01*
X101425825Y-94539040D01*
X101419047Y-94564440D01*
X101440640Y-94539040D01*
X101452799Y-94525423D01*
X101458782Y-94522357D01*
X101457000Y-94533960D01*
X101451881Y-94555433D01*
X101445511Y-94584760D01*
X101442126Y-94603672D01*
X101444407Y-94607630D01*
X101454772Y-94596086D01*
X101457801Y-94592399D01*
X101465749Y-94585021D01*
X101467617Y-94592090D01*
X101464783Y-94616406D01*
X101462716Y-94634465D01*
X101463775Y-94645835D01*
X101470123Y-94640640D01*
X101473203Y-94636524D01*
X101479508Y-94633212D01*
X101481125Y-94648260D01*
X101483450Y-94662504D01*
X101491440Y-94671120D01*
X101496898Y-94673802D01*
X101502315Y-94688900D01*
X101502585Y-94694002D01*
X101504756Y-94699786D01*
X101510776Y-94686879D01*
X101516119Y-94676400D01*
X101521725Y-94679184D01*
X101529818Y-94699477D01*
X101541806Y-94722299D01*
X101555899Y-94726201D01*
X101559093Y-94725419D01*
X101571611Y-94732932D01*
X101583436Y-94759161D01*
X101584105Y-94761181D01*
X101592439Y-94783164D01*
X101598252Y-94787898D01*
X101604059Y-94777638D01*
X101609268Y-94767613D01*
X101612646Y-94769837D01*
X101612746Y-94770606D01*
X101619324Y-94786166D01*
X101634044Y-94812750D01*
X101654000Y-94845072D01*
X101669793Y-94870804D01*
X101683982Y-94896818D01*
X101692765Y-94916075D01*
X101695107Y-94925779D01*
X101689973Y-94923136D01*
X101676328Y-94905351D01*
X101661017Y-94884591D01*
X101640727Y-94859631D01*
X101634568Y-94852640D01*
X101628248Y-94846213D01*
X101627152Y-94848013D01*
X101632133Y-94860581D01*
X101644046Y-94886460D01*
X101663743Y-94928190D01*
X101672283Y-94947500D01*
X101680606Y-94970851D01*
X101681727Y-94982060D01*
X101677645Y-94979961D01*
X101666732Y-94964429D01*
X101652624Y-94938350D01*
X101639480Y-94912256D01*
X101631563Y-94900246D01*
X101627644Y-94903165D01*
X101625215Y-94919271D01*
X101624097Y-94927581D01*
X101619696Y-94940036D01*
X101612670Y-94934511D01*
X101610907Y-94932119D01*
X101605460Y-94932617D01*
X101603228Y-94946159D01*
X101604074Y-94967084D01*
X101607861Y-94989731D01*
X101614453Y-95008440D01*
X101616722Y-95012532D01*
X101626030Y-95022666D01*
X101634617Y-95015392D01*
X101641866Y-95006833D01*
X101643840Y-95016560D01*
X101643909Y-95019082D01*
X101646037Y-95026675D01*
X101654000Y-95016560D01*
X101657310Y-95011987D01*
X101662497Y-95011790D01*
X101664005Y-95029859D01*
X101666924Y-95048318D01*
X101674320Y-95052120D01*
X101678462Y-95053401D01*
X101682517Y-95070727D01*
X101683468Y-95104860D01*
X101683221Y-95116187D01*
X101681739Y-95141338D01*
X101678916Y-95148241D01*
X101674320Y-95138480D01*
X101668334Y-95124523D01*
X101665173Y-95126379D01*
X101663693Y-95131573D01*
X101654000Y-95133400D01*
X101646566Y-95136933D01*
X101642924Y-95155660D01*
X101642740Y-95161052D01*
X101641535Y-95174583D01*
X101638316Y-95170813D01*
X101631246Y-95148640D01*
X101628902Y-95140940D01*
X101622581Y-95123240D01*
X101618223Y-95122967D01*
X101612855Y-95138480D01*
X101609527Y-95148944D01*
X101605538Y-95155352D01*
X101603411Y-95143560D01*
X101601227Y-95133478D01*
X101596787Y-95134994D01*
X101596153Y-95138004D01*
X101598806Y-95157715D01*
X101607749Y-95184495D01*
X101617478Y-95208500D01*
X101622413Y-95224848D01*
X101618748Y-95227306D01*
X101606378Y-95218464D01*
X101599991Y-95213429D01*
X101593084Y-95210960D01*
X101597529Y-95224840D01*
X101602328Y-95238424D01*
X101607532Y-95260578D01*
X101608655Y-95266909D01*
X101616981Y-95288518D01*
X101619382Y-95294654D01*
X101613360Y-95301040D01*
X101609085Y-95302194D01*
X101608983Y-95312335D01*
X101610719Y-95318564D01*
X101602883Y-95331715D01*
X101599838Y-95333305D01*
X101583080Y-95335679D01*
X101569491Y-95330900D01*
X101567587Y-95321446D01*
X101567746Y-95314853D01*
X101557480Y-95301040D01*
X101549925Y-95292697D01*
X101547374Y-95280633D01*
X101547618Y-95275645D01*
X101536458Y-95266616D01*
X101529137Y-95261935D01*
X101526956Y-95250311D01*
X101525971Y-95243819D01*
X101511116Y-95240080D01*
X101507726Y-95240037D01*
X101495498Y-95236821D01*
X101500445Y-95226231D01*
X101503369Y-95222467D01*
X101504074Y-95215591D01*
X101488053Y-95216949D01*
X101470436Y-95216621D01*
X101449159Y-95206507D01*
X101437355Y-95198354D01*
X101417075Y-95201054D01*
X101406303Y-95205380D01*
X101400000Y-95199345D01*
X101399190Y-95195449D01*
X101389840Y-95194360D01*
X101385812Y-95195860D01*
X101379680Y-95188635D01*
X101377839Y-95182440D01*
X101366980Y-95186949D01*
X101358963Y-95190441D01*
X101333889Y-95194217D01*
X101301234Y-95194506D01*
X101292167Y-95194087D01*
X101263881Y-95194494D01*
X101249002Y-95199619D01*
X101242082Y-95210981D01*
X101236655Y-95221196D01*
X101226549Y-95224387D01*
X101223254Y-95223048D01*
X101215850Y-95229320D01*
X101215623Y-95231257D01*
X101213310Y-95251756D01*
X101208956Y-95259731D01*
X101192171Y-95270401D01*
X101182556Y-95273969D01*
X101178091Y-95279381D01*
X101191677Y-95288214D01*
X101195177Y-95290240D01*
X101202505Y-95297361D01*
X101195670Y-95304567D01*
X101172206Y-95315288D01*
X101163782Y-95318706D01*
X101138137Y-95327851D01*
X101122498Y-95331520D01*
X101120346Y-95335411D01*
X101131359Y-95346436D01*
X101142385Y-95355075D01*
X101144870Y-95360808D01*
X101130760Y-95362478D01*
X101119394Y-95364466D01*
X101124657Y-95369234D01*
X101128131Y-95370972D01*
X101129697Y-95379240D01*
X101114497Y-95393606D01*
X101099198Y-95406025D01*
X101097729Y-95411493D01*
X101111287Y-95412574D01*
X101124534Y-95414003D01*
X101139866Y-95420211D01*
X101140141Y-95420475D01*
X101155505Y-95426538D01*
X101180291Y-95429678D01*
X101207125Y-95429837D01*
X101228633Y-95426955D01*
X101237440Y-95420976D01*
X101237940Y-95417102D01*
X101244126Y-95416098D01*
X101245010Y-95416816D01*
X101257433Y-95415543D01*
X101271431Y-95404788D01*
X101278080Y-95391115D01*
X101276437Y-95388873D01*
X101261109Y-95386243D01*
X101234900Y-95387923D01*
X101228214Y-95388810D01*
X101206610Y-95390870D01*
X101202044Y-95388540D01*
X101212040Y-95381081D01*
X101226044Y-95371444D01*
X101241882Y-95358282D01*
X101371318Y-95358282D01*
X101379680Y-95362000D01*
X101385059Y-95361266D01*
X101386454Y-95355226D01*
X101384965Y-95354010D01*
X101372907Y-95355226D01*
X101371318Y-95358282D01*
X101241882Y-95358282D01*
X101245786Y-95355038D01*
X101253278Y-95350479D01*
X101280168Y-95344053D01*
X101318615Y-95341680D01*
X101338797Y-95341939D01*
X101380442Y-95345309D01*
X101402169Y-95352576D01*
X101402604Y-95355226D01*
X101404000Y-95363748D01*
X101405254Y-95371297D01*
X101420157Y-95379333D01*
X101424963Y-95380778D01*
X101434226Y-95387771D01*
X101426933Y-95394814D01*
X101406064Y-95400364D01*
X101374600Y-95402882D01*
X101333960Y-95403435D01*
X101364440Y-95417205D01*
X101390054Y-95430284D01*
X101414625Y-95447221D01*
X101426319Y-95461472D01*
X101422239Y-95470371D01*
X101419621Y-95471636D01*
X101415903Y-95480335D01*
X101427319Y-95496880D01*
X101429084Y-95498922D01*
X101429687Y-95499621D01*
X101437582Y-95511054D01*
X101430480Y-95509320D01*
X101428580Y-95508334D01*
X101425214Y-95510251D01*
X101435560Y-95524560D01*
X101437630Y-95527026D01*
X101446420Y-95539745D01*
X101443180Y-95540946D01*
X101442646Y-95540644D01*
X101433294Y-95542280D01*
X101430157Y-95562060D01*
X101426453Y-95585035D01*
X101414999Y-95610210D01*
X101407246Y-95630019D01*
X101415491Y-95648848D01*
X101439032Y-95661825D01*
X101475235Y-95666491D01*
X101476597Y-95666479D01*
X101500548Y-95665439D01*
X101506798Y-95662078D01*
X101497842Y-95655144D01*
X101495353Y-95653665D01*
X101485237Y-95644038D01*
X101492762Y-95635288D01*
X101500456Y-95630867D01*
X101516207Y-95627120D01*
X101519380Y-95637355D01*
X101521701Y-95642189D01*
X101538215Y-95651996D01*
X101565719Y-95661341D01*
X101581902Y-95666056D01*
X101610152Y-95676752D01*
X101626679Y-95686484D01*
X101628293Y-95689896D01*
X101618076Y-95689314D01*
X101594272Y-95681190D01*
X101578163Y-95675265D01*
X101550887Y-95669544D01*
X101532605Y-95674274D01*
X101516979Y-95679827D01*
X101490706Y-95680277D01*
X101483940Y-95679426D01*
X101459281Y-95681059D01*
X101435112Y-95687595D01*
X101418015Y-95696779D01*
X101414571Y-95706356D01*
X101415179Y-95711979D01*
X101404378Y-95721543D01*
X101397028Y-95726147D01*
X101394602Y-95737404D01*
X101399267Y-95741344D01*
X101415695Y-95741419D01*
X101426015Y-95740274D01*
X101445784Y-95748132D01*
X101454235Y-95753321D01*
X101471032Y-95753611D01*
X101497630Y-95743154D01*
X101528181Y-95732809D01*
X101564242Y-95731652D01*
X101584737Y-95733389D01*
X101587465Y-95726959D01*
X101586736Y-95725507D01*
X101592793Y-95720557D01*
X101617564Y-95723185D01*
X101641135Y-95726535D01*
X101649871Y-95723142D01*
X101648086Y-95711133D01*
X101647287Y-95708640D01*
X101645406Y-95698926D01*
X101652333Y-95706892D01*
X101656828Y-95721420D01*
X101650450Y-95744927D01*
X101632076Y-95764311D01*
X101630540Y-95764932D01*
X101612511Y-95767319D01*
X101579237Y-95769001D01*
X101534853Y-95769827D01*
X101483495Y-95769651D01*
X101475236Y-95769543D01*
X101419694Y-95769297D01*
X101380186Y-95770394D01*
X101352919Y-95773201D01*
X101334102Y-95778083D01*
X101319945Y-95785404D01*
X101316622Y-95787471D01*
X101286611Y-95800775D01*
X101252680Y-95809839D01*
X101233772Y-95812842D01*
X101191419Y-95817281D01*
X101157965Y-95815909D01*
X101125613Y-95808653D01*
X101111264Y-95805247D01*
X101074065Y-95799989D01*
X101034757Y-95797767D01*
X101013453Y-95796856D01*
X100980420Y-95792450D01*
X100958557Y-95785689D01*
X100947083Y-95781330D01*
X100917323Y-95775572D01*
X100881840Y-95772855D01*
X100863935Y-95772503D01*
X100802711Y-95771208D01*
X100758705Y-95769959D01*
X100729428Y-95768506D01*
X100712392Y-95766602D01*
X100705108Y-95763998D01*
X100705087Y-95760447D01*
X100709840Y-95755700D01*
X100717655Y-95748744D01*
X100720434Y-95745355D01*
X100712435Y-95741060D01*
X100697666Y-95726267D01*
X100692471Y-95720856D01*
X100681198Y-95714662D01*
X100892000Y-95714662D01*
X100894249Y-95727749D01*
X100906095Y-95747129D01*
X100913427Y-95751526D01*
X100920133Y-95746032D01*
X100924317Y-95723470D01*
X100925348Y-95712726D01*
X100924193Y-95696750D01*
X100916907Y-95697689D01*
X100911067Y-95701248D01*
X100898686Y-95700578D01*
X100894587Y-95700870D01*
X100892000Y-95714662D01*
X100681198Y-95714662D01*
X100660957Y-95703541D01*
X100625341Y-95703262D01*
X100591967Y-95720372D01*
X100572329Y-95737264D01*
X100565661Y-95743000D01*
X100594211Y-95744474D01*
X100594778Y-95744504D01*
X100625235Y-95748582D01*
X100658320Y-95756134D01*
X100693880Y-95766320D01*
X100646019Y-95767360D01*
X100631123Y-95767302D01*
X100591982Y-95765689D01*
X100543749Y-95762494D01*
X100493619Y-95758150D01*
X100433213Y-95752278D01*
X100382449Y-95747547D01*
X100347060Y-95744640D01*
X100324490Y-95743425D01*
X100312183Y-95743770D01*
X100307583Y-95745544D01*
X100308133Y-95748617D01*
X100306935Y-95754947D01*
X100292708Y-95763273D01*
X100276298Y-95772880D01*
X100273010Y-95783706D01*
X100284940Y-95789548D01*
X100286630Y-95789893D01*
X100283266Y-95795148D01*
X100265527Y-95804447D01*
X100254095Y-95808953D01*
X100232882Y-95813257D01*
X100206568Y-95811869D01*
X100167942Y-95804819D01*
X100145773Y-95799544D01*
X100098414Y-95783764D01*
X100060626Y-95764912D01*
X100037744Y-95745424D01*
X100034055Y-95736944D01*
X100036224Y-95707614D01*
X100047043Y-95679741D01*
X100235293Y-95679741D01*
X100244513Y-95689660D01*
X100256712Y-95702680D01*
X100270182Y-95726957D01*
X100278802Y-95742656D01*
X100286872Y-95738904D01*
X100287602Y-95737264D01*
X100284332Y-95721422D01*
X100271290Y-95701406D01*
X100254015Y-95684242D01*
X100238048Y-95676960D01*
X100235293Y-95679741D01*
X100047043Y-95679741D01*
X100053008Y-95664374D01*
X100067841Y-95643164D01*
X100096909Y-95615698D01*
X100105711Y-95609417D01*
X100881952Y-95609417D01*
X100884038Y-95627951D01*
X100889968Y-95636320D01*
X100895859Y-95634575D01*
X100911138Y-95623620D01*
X100921173Y-95616479D01*
X100922126Y-95626160D01*
X100920402Y-95651667D01*
X100925298Y-95662427D01*
X100937966Y-95656436D01*
X100947911Y-95649684D01*
X100958901Y-95650062D01*
X100959743Y-95665149D01*
X100949701Y-95692672D01*
X100941435Y-95712726D01*
X100938852Y-95718995D01*
X100934823Y-95747955D01*
X100946241Y-95767166D01*
X100974593Y-95778521D01*
X101021366Y-95783911D01*
X101042050Y-95785416D01*
X101090765Y-95790921D01*
X101134687Y-95798052D01*
X101157003Y-95802301D01*
X101182982Y-95806508D01*
X101195647Y-95807514D01*
X101198350Y-95806976D01*
X101216646Y-95804010D01*
X101244410Y-95799894D01*
X101248285Y-95799260D01*
X101284940Y-95787347D01*
X101315530Y-95768554D01*
X101320346Y-95764412D01*
X101339614Y-95750111D01*
X101350850Y-95745397D01*
X101353545Y-95744824D01*
X101362574Y-95732123D01*
X101372399Y-95708144D01*
X101380712Y-95679189D01*
X101385207Y-95651560D01*
X101387328Y-95628770D01*
X101389392Y-95616000D01*
X101389686Y-95615223D01*
X101395044Y-95593087D01*
X101395557Y-95573585D01*
X101390963Y-95565200D01*
X101388482Y-95564276D01*
X101383853Y-95551676D01*
X101383745Y-95531371D01*
X101387588Y-95512429D01*
X101394813Y-95503916D01*
X101398897Y-95503478D01*
X101401056Y-95498922D01*
X101390270Y-95491336D01*
X101371463Y-95483021D01*
X101349558Y-95476275D01*
X101329479Y-95473399D01*
X101293320Y-95473039D01*
X101318720Y-95457523D01*
X101334049Y-95447814D01*
X101335892Y-95444282D01*
X101321260Y-95446772D01*
X101303272Y-95446591D01*
X101298683Y-95439206D01*
X101311100Y-95429688D01*
X101314166Y-95426198D01*
X101302181Y-95423762D01*
X101299252Y-95423778D01*
X101273796Y-95428283D01*
X101244088Y-95438200D01*
X101230796Y-95442741D01*
X101193241Y-95450469D01*
X101153947Y-95453595D01*
X101132070Y-95454725D01*
X101115345Y-95459312D01*
X101116279Y-95465548D01*
X101133672Y-95471376D01*
X101166320Y-95474744D01*
X101182228Y-95475518D01*
X101189352Y-95477279D01*
X101179437Y-95480991D01*
X101151080Y-95487862D01*
X101102879Y-95502887D01*
X101052077Y-95531455D01*
X101018475Y-95568825D01*
X101016175Y-95572649D01*
X100992773Y-95605209D01*
X100969617Y-95627839D01*
X100950928Y-95636320D01*
X100943860Y-95634195D01*
X100950928Y-95624128D01*
X100962117Y-95608821D01*
X100957679Y-95600246D01*
X100936205Y-95602048D01*
X100918209Y-95604436D01*
X100915827Y-95598226D01*
X100916351Y-95597251D01*
X100913424Y-95586357D01*
X100900727Y-95579776D01*
X100887914Y-95582833D01*
X100884088Y-95590572D01*
X100881952Y-95609417D01*
X100105711Y-95609417D01*
X100132085Y-95590596D01*
X100167013Y-95572287D01*
X100195337Y-95565200D01*
X100203750Y-95563847D01*
X100207226Y-95556698D01*
X100207205Y-95556201D01*
X100217782Y-95553769D01*
X100243317Y-95552128D01*
X100279247Y-95551256D01*
X100321010Y-95551134D01*
X100364042Y-95551743D01*
X100403780Y-95553064D01*
X100435660Y-95555076D01*
X100455120Y-95557760D01*
X100476137Y-95563307D01*
X100518203Y-95574861D01*
X100561298Y-95587089D01*
X100595078Y-95597086D01*
X100626488Y-95603244D01*
X100667827Y-95597542D01*
X100704108Y-95573656D01*
X100736210Y-95530923D01*
X100765012Y-95468680D01*
X100768709Y-95459021D01*
X100801659Y-95377673D01*
X100839945Y-95290005D01*
X100881768Y-95199631D01*
X100925330Y-95110166D01*
X100968831Y-95025223D01*
X101010474Y-94948419D01*
X101048460Y-94883366D01*
X101080991Y-94833680D01*
X101089299Y-94822429D01*
X101121583Y-94782020D01*
X101163930Y-94732324D01*
X101213079Y-94677033D01*
X101265768Y-94619840D01*
X101318736Y-94564440D01*
X101342937Y-94539567D01*
X101393014Y-94487558D01*
X101439742Y-94438342D01*
X101480388Y-94394834D01*
X101512217Y-94359947D01*
X101532495Y-94336597D01*
X101538959Y-94329777D01*
X101676481Y-94329777D01*
X101680057Y-94346000D01*
X101680064Y-94346026D01*
X101689845Y-94372540D01*
X101699796Y-94381358D01*
X101706124Y-94374036D01*
X101714960Y-94374036D01*
X101719450Y-94381663D01*
X101735280Y-94394442D01*
X101751294Y-94400815D01*
X101754932Y-94394531D01*
X101743408Y-94378512D01*
X101735913Y-94372161D01*
X101721268Y-94366618D01*
X101714960Y-94374036D01*
X101706124Y-94374036D01*
X101708531Y-94371251D01*
X101712491Y-94360181D01*
X101713931Y-94348405D01*
X101705425Y-94350694D01*
X101697478Y-94350625D01*
X101684620Y-94338593D01*
X101679923Y-94331437D01*
X101676481Y-94329777D01*
X101538959Y-94329777D01*
X101564158Y-94303188D01*
X101605242Y-94267189D01*
X101646279Y-94237045D01*
X101655288Y-94231097D01*
X101685673Y-94209030D01*
X101706947Y-94190394D01*
X101714960Y-94178714D01*
X101715546Y-94173125D01*
X101722580Y-94161426D01*
X101732313Y-94153671D01*
X101752594Y-94131113D01*
X101778921Y-94097832D01*
X101808551Y-94057472D01*
X101838740Y-94013673D01*
X101866743Y-93970080D01*
X101877972Y-93952148D01*
X101893490Y-93928602D01*
X102026886Y-93928602D01*
X102034393Y-93955043D01*
X102037792Y-93962310D01*
X102050610Y-93982974D01*
X102064719Y-93999807D01*
X102076006Y-94008400D01*
X102080360Y-94004344D01*
X102076206Y-93991469D01*
X102065480Y-93970080D01*
X102055780Y-93949186D01*
X102050961Y-93929440D01*
X102050979Y-93928633D01*
X102055325Y-93925895D01*
X102065480Y-93939600D01*
X102066237Y-93940907D01*
X102076481Y-93954161D01*
X102080669Y-93949760D01*
X102082040Y-93939784D01*
X102086235Y-93939294D01*
X102091972Y-93952403D01*
X102098082Y-93975284D01*
X102103393Y-94004107D01*
X102106737Y-94035045D01*
X102107889Y-94048642D01*
X102112666Y-94081764D01*
X102119347Y-94112633D01*
X102126775Y-94137709D01*
X102133793Y-94153454D01*
X102139244Y-94156331D01*
X102141970Y-94142800D01*
X102143056Y-94117400D01*
X102154840Y-94142800D01*
X102166441Y-94161961D01*
X102184633Y-94181476D01*
X102195132Y-94192098D01*
X102202640Y-94210015D01*
X102204027Y-94216803D01*
X102212886Y-94218946D01*
X102222062Y-94220694D01*
X102232562Y-94236127D01*
X102241992Y-94259640D01*
X102242808Y-94234240D01*
X102243069Y-94227317D01*
X102244955Y-94216860D01*
X102251095Y-94221328D01*
X102264769Y-94241860D01*
X102272807Y-94254021D01*
X102286947Y-94271668D01*
X102292574Y-94270987D01*
X102289790Y-94252020D01*
X102288882Y-94247548D01*
X102291106Y-94246645D01*
X102299294Y-94262180D01*
X102307323Y-94278245D01*
X102317096Y-94292928D01*
X102321508Y-94293231D01*
X102318384Y-94277420D01*
X102317987Y-94273646D01*
X102324256Y-94279066D01*
X102337424Y-94297834D01*
X102344268Y-94308352D01*
X102359119Y-94330319D01*
X102367664Y-94341690D01*
X102374107Y-94343863D01*
X102381062Y-94330553D01*
X102385821Y-94297897D01*
X102388480Y-94245458D01*
X102389042Y-94219014D01*
X102388374Y-94187238D01*
X102384414Y-94166324D01*
X102375697Y-94150353D01*
X102360760Y-94133406D01*
X102353414Y-94126078D01*
X102332742Y-94108988D01*
X102318483Y-94102160D01*
X102315506Y-94101542D01*
X102299344Y-94090793D01*
X102279744Y-94070900D01*
X102278894Y-94069515D01*
X102487217Y-94069515D01*
X102493135Y-94078752D01*
X102506897Y-94085911D01*
X102519655Y-94085650D01*
X102522311Y-94084605D01*
X102527760Y-94091400D01*
X102528151Y-94094349D01*
X102537920Y-94102160D01*
X102540502Y-94101817D01*
X102548080Y-94091748D01*
X102540985Y-94082223D01*
X102522504Y-94071880D01*
X102501907Y-94065459D01*
X102488546Y-94066868D01*
X102487217Y-94069515D01*
X102278894Y-94069515D01*
X102265064Y-94046979D01*
X102255302Y-94017459D01*
X102252135Y-93989301D01*
X102256168Y-93968217D01*
X102257327Y-93967405D01*
X102314400Y-93967405D01*
X102319635Y-93979431D01*
X102338683Y-93998988D01*
X102366609Y-94019186D01*
X102398033Y-94035635D01*
X102408205Y-94039843D01*
X102432351Y-94048916D01*
X102443669Y-94050588D01*
X102446480Y-94045761D01*
X102446073Y-94044731D01*
X102434561Y-94036548D01*
X102412147Y-94025817D01*
X102408997Y-94024449D01*
X102392267Y-94015237D01*
X102449868Y-94015237D01*
X102461122Y-94026283D01*
X102475644Y-94035580D01*
X102491004Y-94041200D01*
X102492696Y-94037328D01*
X102481442Y-94026283D01*
X102466920Y-94016985D01*
X102451560Y-94011366D01*
X102449868Y-94015237D01*
X102392267Y-94015237D01*
X102376648Y-94006637D01*
X102368152Y-94000560D01*
X102421080Y-94000560D01*
X102423166Y-94003600D01*
X102431840Y-94010720D01*
X102432854Y-94010455D01*
X102436320Y-94000560D01*
X102435907Y-93997775D01*
X102425561Y-93990400D01*
X102421886Y-93991197D01*
X102421080Y-94000560D01*
X102368152Y-94000560D01*
X102346107Y-93984792D01*
X102340439Y-93980240D01*
X102395680Y-93980240D01*
X102395797Y-93982539D01*
X102400161Y-93990400D01*
X102401791Y-93989932D01*
X102410920Y-93980240D01*
X102412508Y-93976304D01*
X102406440Y-93970080D01*
X102403491Y-93970470D01*
X102395680Y-93980240D01*
X102340439Y-93980240D01*
X102337963Y-93978252D01*
X102321109Y-93967351D01*
X102314400Y-93967405D01*
X102257327Y-93967405D01*
X102268006Y-93959920D01*
X102273658Y-93956202D01*
X102366998Y-93956202D01*
X102375360Y-93959920D01*
X102380739Y-93959186D01*
X102381921Y-93954070D01*
X102426160Y-93954070D01*
X102426238Y-93954302D01*
X102435150Y-93962525D01*
X102452488Y-93976304D01*
X102455974Y-93979075D01*
X102484449Y-94000560D01*
X102484580Y-94000659D01*
X102515174Y-94024874D01*
X102529221Y-94037328D01*
X102538733Y-94045761D01*
X102550280Y-94055999D01*
X102576863Y-94083159D01*
X102584782Y-94091748D01*
X102597972Y-94106056D01*
X102616292Y-94120001D01*
X102626314Y-94117337D01*
X102629360Y-94098450D01*
X102627109Y-94085949D01*
X102617558Y-94063690D01*
X102604100Y-94042099D01*
X102590677Y-94027193D01*
X102581228Y-94024985D01*
X102579252Y-94025514D01*
X102565079Y-94019765D01*
X102543589Y-94005399D01*
X102535081Y-93999514D01*
X102510523Y-93985496D01*
X102481856Y-93971541D01*
X102454577Y-93960051D01*
X102434181Y-93953426D01*
X102426160Y-93954070D01*
X102381921Y-93954070D01*
X102382134Y-93953146D01*
X102380645Y-93951930D01*
X102368587Y-93953146D01*
X102366998Y-93956202D01*
X102273658Y-93956202D01*
X102278715Y-93952876D01*
X102285786Y-93931980D01*
X102286418Y-93927186D01*
X102291932Y-93911612D01*
X102306090Y-93903264D01*
X102334720Y-93898107D01*
X102355933Y-93893432D01*
X102397668Y-93877743D01*
X102440070Y-93855368D01*
X102472097Y-93837928D01*
X102512131Y-93820929D01*
X102539983Y-93813192D01*
X102663173Y-93813192D01*
X102673237Y-93817680D01*
X102682863Y-93819993D01*
X102700480Y-93832920D01*
X102708664Y-93841262D01*
X102720800Y-93848160D01*
X102724363Y-93847481D01*
X102737451Y-93837313D01*
X102747107Y-93821866D01*
X102747113Y-93810126D01*
X102744626Y-93808352D01*
X102726214Y-93803546D01*
X102700574Y-93802004D01*
X102676784Y-93803833D01*
X102663918Y-93809141D01*
X102663173Y-93813192D01*
X102539983Y-93813192D01*
X102545235Y-93811733D01*
X102559520Y-93809132D01*
X102577449Y-93803157D01*
X102578553Y-93797355D01*
X102576702Y-93796462D01*
X102557026Y-93794507D01*
X102529616Y-93798087D01*
X102498358Y-93800738D01*
X102475170Y-93791938D01*
X102466800Y-93771959D01*
X102464948Y-93764113D01*
X102452747Y-93747544D01*
X102441154Y-93741493D01*
X102432812Y-93751209D01*
X102428092Y-93758158D01*
X102413554Y-93761404D01*
X102398532Y-93762122D01*
X102380844Y-93770742D01*
X102368053Y-93782561D01*
X102367333Y-93792719D01*
X102378684Y-93797429D01*
X102401422Y-93799900D01*
X102401679Y-93799900D01*
X102418288Y-93801980D01*
X102415024Y-93808123D01*
X102400174Y-93812174D01*
X102375309Y-93811065D01*
X102359827Y-93810364D01*
X102327484Y-93814179D01*
X102291198Y-93822558D01*
X102282668Y-93825115D01*
X102249343Y-93837120D01*
X102229880Y-93847718D01*
X102226180Y-93855545D01*
X102240141Y-93859236D01*
X102242562Y-93859458D01*
X102244138Y-93863083D01*
X102228040Y-93869728D01*
X102218645Y-93873336D01*
X102191269Y-93891083D01*
X102169490Y-93914750D01*
X102157374Y-93939093D01*
X102158983Y-93958863D01*
X102162426Y-93965200D01*
X102171000Y-93987667D01*
X102177452Y-94012615D01*
X102180165Y-94032855D01*
X102177519Y-94041200D01*
X102177218Y-94041168D01*
X102169610Y-94031783D01*
X102160478Y-94010720D01*
X102160034Y-94009468D01*
X102150013Y-93988783D01*
X102140687Y-93980240D01*
X102137568Y-93979845D01*
X102131782Y-93969476D01*
X102138362Y-93947129D01*
X102156614Y-93915617D01*
X102163050Y-93905603D01*
X102172345Y-93885736D01*
X102169314Y-93878274D01*
X102166085Y-93877327D01*
X102168878Y-93869545D01*
X102182872Y-93856737D01*
X102203422Y-93842311D01*
X102225886Y-93829678D01*
X102245619Y-93822246D01*
X102250693Y-93821011D01*
X102268940Y-93810579D01*
X102273760Y-93789440D01*
X102273896Y-93782467D01*
X102277058Y-93770250D01*
X102285953Y-93775008D01*
X102305942Y-93786100D01*
X102332657Y-93780869D01*
X102362015Y-93756390D01*
X102366498Y-93751592D01*
X102387932Y-93734664D01*
X102404171Y-93731222D01*
X102406979Y-93732259D01*
X102413637Y-93732404D01*
X102405676Y-93720961D01*
X102395325Y-93712148D01*
X102381887Y-93715649D01*
X102381044Y-93716480D01*
X102365710Y-93726471D01*
X102360687Y-93721776D01*
X102370248Y-93705955D01*
X102386855Y-93692899D01*
X102401315Y-93696219D01*
X102410245Y-93701156D01*
X102420092Y-93693644D01*
X102424473Y-93687145D01*
X102431607Y-93691779D01*
X102437694Y-93702296D01*
X102451394Y-93722259D01*
X102453046Y-93724453D01*
X102460143Y-93732244D01*
X102459915Y-93725652D01*
X102452489Y-93702342D01*
X102445302Y-93684212D01*
X102425689Y-93655404D01*
X102402701Y-93645115D01*
X102399815Y-93646269D01*
X102401741Y-93656705D01*
X102403279Y-93660203D01*
X102397170Y-93664107D01*
X102374400Y-93660390D01*
X102373916Y-93660277D01*
X102342985Y-93654755D01*
X102316940Y-93652649D01*
X102300493Y-93648970D01*
X102294080Y-93632540D01*
X102294339Y-93626974D01*
X102300869Y-93616386D01*
X102320430Y-93617148D01*
X102330224Y-93618814D01*
X102339700Y-93617924D01*
X102333130Y-93609263D01*
X102328619Y-93605172D01*
X102302036Y-93590210D01*
X102278067Y-93594970D01*
X102254671Y-93619724D01*
X102248547Y-93628365D01*
X102232896Y-93647490D01*
X102223124Y-93655119D01*
X102222786Y-93655047D01*
X102218321Y-93644274D01*
X102213658Y-93618765D01*
X102209755Y-93583636D01*
X102209024Y-93577979D01*
X102224247Y-93577979D01*
X102224807Y-93600851D01*
X102228183Y-93629720D01*
X102241753Y-93605769D01*
X102249464Y-93586375D01*
X102244391Y-93570886D01*
X102238610Y-93566495D01*
X102227445Y-93565968D01*
X102224247Y-93577979D01*
X102209024Y-93577979D01*
X102205808Y-93553109D01*
X102194330Y-93505870D01*
X102178277Y-93465569D01*
X102159582Y-93436654D01*
X102140180Y-93423574D01*
X102132671Y-93424262D01*
X102126429Y-93433606D01*
X102122343Y-93455800D01*
X102119315Y-93494581D01*
X102118084Y-93536084D01*
X102119073Y-93574717D01*
X102122094Y-93601535D01*
X102125744Y-93622034D01*
X102122623Y-93629009D01*
X102110075Y-93624037D01*
X102104803Y-93621567D01*
X102092422Y-93621521D01*
X102091076Y-93633015D01*
X102100099Y-93652151D01*
X102118820Y-93675032D01*
X102121037Y-93677280D01*
X102144617Y-93703330D01*
X102163501Y-93727368D01*
X102180241Y-93751640D01*
X102191294Y-93716080D01*
X102192917Y-93710872D01*
X102199010Y-93692579D01*
X102200614Y-93692872D01*
X102198851Y-93711000D01*
X102194637Y-93736401D01*
X102187903Y-93761800D01*
X102186387Y-93768995D01*
X102193311Y-93766881D01*
X102211866Y-93748939D01*
X102218165Y-93741812D01*
X102236198Y-93714244D01*
X102243280Y-93690519D01*
X102245785Y-93673969D01*
X102253440Y-93665280D01*
X102256604Y-93665473D01*
X102262515Y-93670145D01*
X102261674Y-93684622D01*
X102254150Y-93713607D01*
X102251499Y-93723103D01*
X102248470Y-93741633D01*
X102255961Y-93744585D01*
X102276968Y-93734736D01*
X102287479Y-93729340D01*
X102293503Y-93728475D01*
X102285216Y-93739816D01*
X102274852Y-93749583D01*
X102258801Y-93756720D01*
X102251825Y-93758631D01*
X102230773Y-93769648D01*
X102204253Y-93787199D01*
X102188684Y-93798164D01*
X102166987Y-93812192D01*
X102155738Y-93817679D01*
X102155522Y-93817662D01*
X102152980Y-93808379D01*
X102155396Y-93787200D01*
X102157618Y-93773326D01*
X102154955Y-93759911D01*
X102141426Y-93756720D01*
X102129859Y-93758590D01*
X102121360Y-93766880D01*
X102120918Y-93771798D01*
X102114667Y-93777554D01*
X102104959Y-93769783D01*
X102096868Y-93751640D01*
X102091460Y-93737199D01*
X102078412Y-93727388D01*
X102062310Y-93736259D01*
X102045096Y-93763371D01*
X102038178Y-93779407D01*
X102032799Y-93806520D01*
X102038359Y-93835962D01*
X102039994Y-93841547D01*
X102043880Y-93871573D01*
X102035450Y-93898090D01*
X102031803Y-93905652D01*
X102026886Y-93928602D01*
X101893490Y-93928602D01*
X101907170Y-93907844D01*
X101935818Y-93867081D01*
X101959065Y-93836861D01*
X101973484Y-93818209D01*
X102001257Y-93775995D01*
X102023130Y-93735261D01*
X102025708Y-93729479D01*
X102045531Y-93679527D01*
X102065715Y-93620636D01*
X102084155Y-93559704D01*
X102098745Y-93503630D01*
X102107379Y-93459310D01*
X102108626Y-93451245D01*
X102117946Y-93421660D01*
X102132664Y-93411343D01*
X102153393Y-93420201D01*
X102180744Y-93448140D01*
X102211127Y-93485000D01*
X102222067Y-93445600D01*
X102223990Y-93438462D01*
X102230434Y-93410584D01*
X102233064Y-93392255D01*
X102233068Y-93391710D01*
X102236235Y-93383560D01*
X102248360Y-93390960D01*
X102256747Y-93404267D01*
X102261984Y-93431957D01*
X102263600Y-93476477D01*
X102263601Y-93549347D01*
X102335110Y-93586375D01*
X102351019Y-93594613D01*
G37*
%TO.C,C8*%
D11*
X109490000Y-95059420D02*
X109490000Y-95340580D01*
X110510000Y-95059420D02*
X110510000Y-95340580D01*
%TO.C,R15*%
X112477500Y-89762742D02*
X112477500Y-90237258D01*
X113522500Y-89762742D02*
X113522500Y-90237258D01*
%TO.C,R17*%
X102180000Y-92353641D02*
X102180000Y-92046359D01*
X101420000Y-92353641D02*
X101420000Y-92046359D01*
%TO.C,C7*%
X109259420Y-87910000D02*
X109540580Y-87910000D01*
X109259420Y-86890000D02*
X109540580Y-86890000D01*
%TO.C,R8*%
X107980000Y-94753641D02*
X107980000Y-94446359D01*
X107220000Y-94753641D02*
X107220000Y-94446359D01*
%TO.C,R7*%
X103180000Y-92353641D02*
X103180000Y-92046359D01*
X102420000Y-92353641D02*
X102420000Y-92046359D01*
%TD*%
M02*
