%TF.GenerationSoftware,KiCad,Pcbnew,10.0.2*%
%TF.CreationDate,2026-06-22T21:47:42-04:00*%
%TF.ProjectId,nrf54l15-stick,6e726635-346c-4313-952d-737469636b2e,rev?*%
%TF.SameCoordinates,Original*%
%TF.FileFunction,Soldermask,Top*%
%TF.FilePolarity,Negative*%
%FSLAX46Y46*%
G04 Gerber Fmt 4.6, Leading zero omitted, Abs format (unit mm)*
G04 Created by KiCad (PCBNEW 10.0.2) date 2026-06-22 21:47:42*
%MOMM*%
%LPD*%
G01*
G04 APERTURE LIST*
G04 Aperture macros list*
%AMRoundRect*
0 Rectangle with rounded corners*
0 $1 Rounding radius*
0 $2 $3 $4 $5 $6 $7 $8 $9 X,Y pos of 4 corners*
0 Add a 4 corners polygon primitive as box body*
4,1,4,$2,$3,$4,$5,$6,$7,$8,$9,$2,$3,0*
0 Add four circle primitives for the rounded corners*
1,1,$1+$1,$2,$3*
1,1,$1+$1,$4,$5*
1,1,$1+$1,$6,$7*
1,1,$1+$1,$8,$9*
0 Add four rect primitives between the rounded corners*
20,1,$1+$1,$2,$3,$4,$5,0*
20,1,$1+$1,$4,$5,$6,$7,0*
20,1,$1+$1,$6,$7,$8,$9,0*
20,1,$1+$1,$8,$9,$2,$3,0*%
%AMFreePoly0*
4,1,35,0.538128,0.292946,0.538482,0.292800,0.585538,0.252734,0.592800,0.238482,0.592946,0.238128,0.600500,0.200000,0.600500,-0.200000,0.592946,-0.238128,0.592800,-0.238482,0.552734,-0.285538,0.538482,-0.292800,0.538128,-0.292946,0.500000,-0.300500,0.000000,-0.300500,-0.021921,-0.296157,-0.039018,-0.296157,-0.077286,-0.288545,-0.149382,-0.258682,-0.181825,-0.237005,-0.237005,-0.181825,
-0.258682,-0.149382,-0.288545,-0.077286,-0.296157,-0.039018,-0.296157,0.039018,-0.288545,0.077286,-0.258682,0.149382,-0.237005,0.181825,-0.181825,0.237005,-0.149382,0.258682,-0.077286,0.288545,-0.039018,0.296157,-0.021921,0.296157,0.000000,0.300500,0.500000,0.300500,0.538128,0.292946,0.538128,0.292946,$1*%
G04 Aperture macros list end*
%ADD10R,1.200000X2.000000*%
%ADD11RoundRect,0.300000X-0.700000X-1.450000X0.700000X-1.450000X0.700000X1.450000X-0.700000X1.450000X0*%
%ADD12C,1.000000*%
%ADD13C,0.600000*%
%ADD14FreePoly0,270.000000*%
%ADD15RoundRect,0.140000X0.170000X-0.140000X0.170000X0.140000X-0.170000X0.140000X-0.170000X-0.140000X0*%
G04 APERTURE END LIST*
D10*
%TO.C,J1*%
X110550000Y-95400000D03*
X108050000Y-95400000D03*
X105550000Y-95400000D03*
X103050000Y-95400000D03*
D11*
X100950000Y-98000000D03*
X112650000Y-98000000D03*
%TD*%
D12*
%TO.C,FID1*%
X100800000Y-86500000D03*
%TD*%
D13*
%TO.C,U5*%
X102750000Y-86175000D03*
X102750000Y-87975000D03*
D14*
X102750000Y-93375000D03*
D13*
X103650000Y-86175000D03*
X103650000Y-87075000D03*
X103650000Y-87975000D03*
X103650000Y-88875000D03*
X103650000Y-89775000D03*
X103650000Y-90675000D03*
X103650000Y-91575000D03*
X103650000Y-92475000D03*
D14*
X103650000Y-93375000D03*
D13*
X104550000Y-92475000D03*
D14*
X104550000Y-93375000D03*
D13*
X105450000Y-86175000D03*
X105450000Y-92475000D03*
D14*
X105450000Y-93375000D03*
D13*
X106350000Y-86175000D03*
X106350000Y-92475000D03*
D14*
X106350000Y-93375000D03*
D13*
X107250000Y-86175000D03*
X107250000Y-92475000D03*
D14*
X107250000Y-93375000D03*
D13*
X108150000Y-87075000D03*
X108150000Y-92475000D03*
D14*
X108150000Y-93375000D03*
D13*
X109050000Y-87075000D03*
X109050000Y-92475000D03*
D14*
X109050000Y-93375000D03*
D13*
X109950000Y-87075000D03*
X109950000Y-87975000D03*
X109950000Y-88875000D03*
X109950000Y-89775000D03*
X109950000Y-90675000D03*
X109950000Y-91575000D03*
X109950000Y-92475000D03*
D14*
X109950000Y-93375000D03*
D13*
X110850000Y-87075000D03*
X110850000Y-87975000D03*
X110850000Y-88875000D03*
X110850000Y-89775000D03*
X110850000Y-90675000D03*
X110850000Y-91575000D03*
X110850000Y-92475000D03*
D14*
X110850000Y-93375000D03*
%TD*%
D12*
%TO.C,FID3*%
X112400000Y-95300000D03*
%TD*%
D15*
%TO.C,C16*%
X101600000Y-95480000D03*
X101600000Y-94520000D03*
%TD*%
D12*
%TO.C,FID2*%
X112800000Y-86500000D03*
%TD*%
M02*
