%TF.GenerationSoftware,KiCad,Pcbnew,10.0.2*%
%TF.CreationDate,2026-06-19T17:37:30-04:00*%
%TF.ProjectId,nrf54l15-stick,6e726635-346c-4313-952d-737469636b2e,rev?*%
%TF.SameCoordinates,Original*%
%TF.FileFunction,Paste,Bot*%
%TF.FilePolarity,Positive*%
%FSLAX46Y46*%
G04 Gerber Fmt 4.6, Leading zero omitted, Abs format (unit mm)*
G04 Created by KiCad (PCBNEW 10.0.2) date 2026-06-19 17:37:30*
%MOMM*%
%LPD*%
G01*
G04 APERTURE LIST*
G04 Aperture macros list*
%AMRoundRect*
0 Rectangle with rounded corners*
0 $1 Rounding radius*
0 $2 $3 $4 $5 $6 $7 $8 $9 X,Y pos of 4 corners*
0 Add a 4 corners polygon primitive as box body*
4,1,4,$2,$3,$4,$5,$6,$7,$8,$9,$2,$3,0*
0 Add four circle primitives for the rounded corners*
1,1,$1+$1,$2,$3*
1,1,$1+$1,$4,$5*
1,1,$1+$1,$6,$7*
1,1,$1+$1,$8,$9*
0 Add four rect primitives between the rounded corners*
20,1,$1+$1,$2,$3,$4,$5,0*
20,1,$1+$1,$4,$5,$6,$7,0*
20,1,$1+$1,$6,$7,$8,$9,0*
20,1,$1+$1,$8,$9,$2,$3,0*%
G04 Aperture macros list end*
%ADD10RoundRect,0.112500X0.350000X0.112500X-0.350000X0.112500X-0.350000X-0.112500X0.350000X-0.112500X0*%
%ADD11R,1.500000X1.500000*%
%ADD12RoundRect,0.140000X-0.170000X0.140000X-0.170000X-0.140000X0.170000X-0.140000X0.170000X0.140000X0*%
%ADD13RoundRect,0.075000X0.362500X-0.075000X0.362500X0.075000X-0.362500X0.075000X-0.362500X-0.075000X0*%
%ADD14RoundRect,0.075000X0.075000X-0.362500X0.075000X0.362500X-0.075000X0.362500X-0.075000X-0.362500X0*%
%ADD15RoundRect,0.247500X0.247500X-0.247500X0.247500X0.247500X-0.247500X0.247500X-0.247500X-0.247500X0*%
%ADD16RoundRect,0.200000X-0.275000X0.200000X-0.275000X-0.200000X0.275000X-0.200000X0.275000X0.200000X0*%
%ADD17RoundRect,0.135000X-0.185000X0.135000X-0.185000X-0.135000X0.185000X-0.135000X0.185000X0.135000X0*%
%ADD18RoundRect,0.150000X0.512500X0.150000X-0.512500X0.150000X-0.512500X-0.150000X0.512500X-0.150000X0*%
%ADD19R,0.560000X0.630000*%
%ADD20RoundRect,0.243750X-0.456250X0.243750X-0.456250X-0.243750X0.456250X-0.243750X0.456250X0.243750X0*%
%ADD21RoundRect,0.243750X0.456250X-0.243750X0.456250X0.243750X-0.456250X0.243750X-0.456250X-0.243750X0*%
%ADD22R,0.800000X1.400000*%
%ADD23RoundRect,0.225000X-0.250000X0.225000X-0.250000X-0.225000X0.250000X-0.225000X0.250000X0.225000X0*%
%ADD24RoundRect,0.135000X0.185000X-0.135000X0.185000X0.135000X-0.185000X0.135000X-0.185000X-0.135000X0*%
%ADD25RoundRect,0.225000X-0.225000X-0.250000X0.225000X-0.250000X0.225000X0.250000X-0.225000X0.250000X0*%
G04 APERTURE END LIST*
D10*
%TO.C,U3*%
X104112500Y-90800000D03*
X105887500Y-91450000D03*
X105887500Y-90150000D03*
%TD*%
D11*
%TO.C,J2*%
X111940000Y-84600000D03*
X109400000Y-84600000D03*
X106860000Y-84600000D03*
X104320000Y-84600000D03*
X101780000Y-84600000D03*
%TD*%
D12*
%TO.C,C20*%
X100800000Y-92680000D03*
X100800000Y-91720000D03*
%TD*%
D13*
%TO.C,U4*%
X111337500Y-92250000D03*
X111337500Y-91750000D03*
X111337500Y-91250000D03*
X111337500Y-90750000D03*
X111337500Y-90250000D03*
X111337500Y-89750000D03*
D14*
X110650000Y-89062500D03*
X110150000Y-89062500D03*
X109650000Y-89062500D03*
X109150000Y-89062500D03*
X108650000Y-89062500D03*
X108150000Y-89062500D03*
D13*
X107462500Y-89750000D03*
X107462500Y-90250000D03*
X107462500Y-90750000D03*
X107462500Y-91250000D03*
X107462500Y-91750000D03*
X107462500Y-92250000D03*
D14*
X108150000Y-92937500D03*
X108650000Y-92937500D03*
X109150000Y-92937500D03*
X109650000Y-92937500D03*
X110150000Y-92937500D03*
X110650000Y-92937500D03*
D15*
X110010000Y-90390000D03*
X108790000Y-90390000D03*
X110010000Y-91610000D03*
X108790000Y-91610000D03*
%TD*%
D16*
%TO.C,R16*%
X113000000Y-93825000D03*
X113000000Y-92175000D03*
%TD*%
D17*
%TO.C,R29*%
X111400000Y-87710000D03*
X111400000Y-86690000D03*
%TD*%
D18*
%TO.C,Z1*%
X103662500Y-94650000D03*
X103662500Y-95600000D03*
X103662500Y-96550000D03*
X105937500Y-96550000D03*
X105937500Y-95600000D03*
X105937500Y-94650000D03*
%TD*%
D19*
%TO.C,SW4*%
X101980000Y-90585000D03*
X101980000Y-87815000D03*
X100820000Y-90585000D03*
X100820000Y-87815000D03*
%TD*%
D20*
%TO.C,D7*%
X103800000Y-86862500D03*
X103800000Y-88737500D03*
%TD*%
D21*
%TO.C,D8*%
X105800000Y-88737500D03*
X105800000Y-86862500D03*
%TD*%
D17*
%TO.C,R9*%
X108600000Y-94090000D03*
X108600000Y-95110000D03*
%TD*%
D22*
%TO.C,Y1*%
X104100000Y-93000000D03*
X105500000Y-93000000D03*
%TD*%
D23*
%TO.C,C8*%
X110000000Y-94425000D03*
X110000000Y-95975000D03*
%TD*%
D16*
%TO.C,R15*%
X113000000Y-89175000D03*
X113000000Y-90825000D03*
%TD*%
D24*
%TO.C,R17*%
X101800000Y-92710000D03*
X101800000Y-91690000D03*
%TD*%
D25*
%TO.C,C7*%
X108625000Y-87400000D03*
X110175000Y-87400000D03*
%TD*%
D24*
%TO.C,R8*%
X107600000Y-95110000D03*
X107600000Y-94090000D03*
%TD*%
%TO.C,R7*%
X102800000Y-92710000D03*
X102800000Y-91690000D03*
%TD*%
M02*
