%TF.GenerationSoftware,KiCad,Pcbnew,10.0.2*%
%TF.CreationDate,2026-06-22T21:47:42-04:00*%
%TF.ProjectId,nrf54l15-stick,6e726635-346c-4313-952d-737469636b2e,rev?*%
%TF.SameCoordinates,Original*%
%TF.FileFunction,Legend,Top*%
%TF.FilePolarity,Positive*%
%FSLAX46Y46*%
G04 Gerber Fmt 4.6, Leading zero omitted, Abs format (unit mm)*
G04 Created by KiCad (PCBNEW 10.0.2) date 2026-06-22 21:47:42*
%MOMM*%
%LPD*%
G01*
G04 APERTURE LIST*
%ADD10C,0.125000*%
%ADD11C,0.100000*%
%ADD12C,0.120000*%
G04 APERTURE END LIST*
D10*
X106733333Y-97724809D02*
X106733333Y-98081952D01*
X106733333Y-98081952D02*
X106709524Y-98153380D01*
X106709524Y-98153380D02*
X106661905Y-98201000D01*
X106661905Y-98201000D02*
X106590476Y-98224809D01*
X106590476Y-98224809D02*
X106542857Y-98224809D01*
X107233333Y-98224809D02*
X106947619Y-98224809D01*
X107090476Y-98224809D02*
X107090476Y-97724809D01*
X107090476Y-97724809D02*
X107042857Y-97796238D01*
X107042857Y-97796238D02*
X106995238Y-97843857D01*
X106995238Y-97843857D02*
X106947619Y-97867666D01*
X98264286Y-85562904D02*
X98097619Y-85562904D01*
X98097619Y-85824809D02*
X98097619Y-85324809D01*
X98097619Y-85324809D02*
X98335714Y-85324809D01*
X98526190Y-85824809D02*
X98526190Y-85324809D01*
X98764285Y-85824809D02*
X98764285Y-85324809D01*
X98764285Y-85324809D02*
X98883333Y-85324809D01*
X98883333Y-85324809D02*
X98954761Y-85348619D01*
X98954761Y-85348619D02*
X99002380Y-85396238D01*
X99002380Y-85396238D02*
X99026190Y-85443857D01*
X99026190Y-85443857D02*
X99049999Y-85539095D01*
X99049999Y-85539095D02*
X99049999Y-85610523D01*
X99049999Y-85610523D02*
X99026190Y-85705761D01*
X99026190Y-85705761D02*
X99002380Y-85753380D01*
X99002380Y-85753380D02*
X98954761Y-85801000D01*
X98954761Y-85801000D02*
X98883333Y-85824809D01*
X98883333Y-85824809D02*
X98764285Y-85824809D01*
X99526190Y-85824809D02*
X99240476Y-85824809D01*
X99383333Y-85824809D02*
X99383333Y-85324809D01*
X99383333Y-85324809D02*
X99335714Y-85396238D01*
X99335714Y-85396238D02*
X99288095Y-85443857D01*
X99288095Y-85443857D02*
X99240476Y-85467666D01*
X112169047Y-84799809D02*
X112169047Y-85204571D01*
X112169047Y-85204571D02*
X112192857Y-85252190D01*
X112192857Y-85252190D02*
X112216666Y-85276000D01*
X112216666Y-85276000D02*
X112264285Y-85299809D01*
X112264285Y-85299809D02*
X112359523Y-85299809D01*
X112359523Y-85299809D02*
X112407142Y-85276000D01*
X112407142Y-85276000D02*
X112430952Y-85252190D01*
X112430952Y-85252190D02*
X112454761Y-85204571D01*
X112454761Y-85204571D02*
X112454761Y-84799809D01*
X112930952Y-84799809D02*
X112692857Y-84799809D01*
X112692857Y-84799809D02*
X112669048Y-85037904D01*
X112669048Y-85037904D02*
X112692857Y-85014095D01*
X112692857Y-85014095D02*
X112740476Y-84990285D01*
X112740476Y-84990285D02*
X112859524Y-84990285D01*
X112859524Y-84990285D02*
X112907143Y-85014095D01*
X112907143Y-85014095D02*
X112930952Y-85037904D01*
X112930952Y-85037904D02*
X112954762Y-85085523D01*
X112954762Y-85085523D02*
X112954762Y-85204571D01*
X112954762Y-85204571D02*
X112930952Y-85252190D01*
X112930952Y-85252190D02*
X112907143Y-85276000D01*
X112907143Y-85276000D02*
X112859524Y-85299809D01*
X112859524Y-85299809D02*
X112740476Y-85299809D01*
X112740476Y-85299809D02*
X112692857Y-85276000D01*
X112692857Y-85276000D02*
X112669048Y-85252190D01*
X114614286Y-95262904D02*
X114447619Y-95262904D01*
X114447619Y-95524809D02*
X114447619Y-95024809D01*
X114447619Y-95024809D02*
X114685714Y-95024809D01*
X114876190Y-95524809D02*
X114876190Y-95024809D01*
X115114285Y-95524809D02*
X115114285Y-95024809D01*
X115114285Y-95024809D02*
X115233333Y-95024809D01*
X115233333Y-95024809D02*
X115304761Y-95048619D01*
X115304761Y-95048619D02*
X115352380Y-95096238D01*
X115352380Y-95096238D02*
X115376190Y-95143857D01*
X115376190Y-95143857D02*
X115399999Y-95239095D01*
X115399999Y-95239095D02*
X115399999Y-95310523D01*
X115399999Y-95310523D02*
X115376190Y-95405761D01*
X115376190Y-95405761D02*
X115352380Y-95453380D01*
X115352380Y-95453380D02*
X115304761Y-95501000D01*
X115304761Y-95501000D02*
X115233333Y-95524809D01*
X115233333Y-95524809D02*
X115114285Y-95524809D01*
X115566666Y-95024809D02*
X115876190Y-95024809D01*
X115876190Y-95024809D02*
X115709523Y-95215285D01*
X115709523Y-95215285D02*
X115780952Y-95215285D01*
X115780952Y-95215285D02*
X115828571Y-95239095D01*
X115828571Y-95239095D02*
X115852380Y-95262904D01*
X115852380Y-95262904D02*
X115876190Y-95310523D01*
X115876190Y-95310523D02*
X115876190Y-95429571D01*
X115876190Y-95429571D02*
X115852380Y-95477190D01*
X115852380Y-95477190D02*
X115828571Y-95501000D01*
X115828571Y-95501000D02*
X115780952Y-95524809D01*
X115780952Y-95524809D02*
X115638095Y-95524809D01*
X115638095Y-95524809D02*
X115590476Y-95501000D01*
X115590476Y-95501000D02*
X115566666Y-95477190D01*
X100777190Y-95321428D02*
X100801000Y-95345237D01*
X100801000Y-95345237D02*
X100824809Y-95416666D01*
X100824809Y-95416666D02*
X100824809Y-95464285D01*
X100824809Y-95464285D02*
X100801000Y-95535713D01*
X100801000Y-95535713D02*
X100753380Y-95583332D01*
X100753380Y-95583332D02*
X100705761Y-95607142D01*
X100705761Y-95607142D02*
X100610523Y-95630951D01*
X100610523Y-95630951D02*
X100539095Y-95630951D01*
X100539095Y-95630951D02*
X100443857Y-95607142D01*
X100443857Y-95607142D02*
X100396238Y-95583332D01*
X100396238Y-95583332D02*
X100348619Y-95535713D01*
X100348619Y-95535713D02*
X100324809Y-95464285D01*
X100324809Y-95464285D02*
X100324809Y-95416666D01*
X100324809Y-95416666D02*
X100348619Y-95345237D01*
X100348619Y-95345237D02*
X100372428Y-95321428D01*
X100824809Y-94845237D02*
X100824809Y-95130951D01*
X100824809Y-94988094D02*
X100324809Y-94988094D01*
X100324809Y-94988094D02*
X100396238Y-95035713D01*
X100396238Y-95035713D02*
X100443857Y-95083332D01*
X100443857Y-95083332D02*
X100467666Y-95130951D01*
X100324809Y-94416666D02*
X100324809Y-94511904D01*
X100324809Y-94511904D02*
X100348619Y-94559523D01*
X100348619Y-94559523D02*
X100372428Y-94583333D01*
X100372428Y-94583333D02*
X100443857Y-94630952D01*
X100443857Y-94630952D02*
X100539095Y-94654761D01*
X100539095Y-94654761D02*
X100729571Y-94654761D01*
X100729571Y-94654761D02*
X100777190Y-94630952D01*
X100777190Y-94630952D02*
X100801000Y-94607142D01*
X100801000Y-94607142D02*
X100824809Y-94559523D01*
X100824809Y-94559523D02*
X100824809Y-94464285D01*
X100824809Y-94464285D02*
X100801000Y-94416666D01*
X100801000Y-94416666D02*
X100777190Y-94392857D01*
X100777190Y-94392857D02*
X100729571Y-94369047D01*
X100729571Y-94369047D02*
X100610523Y-94369047D01*
X100610523Y-94369047D02*
X100562904Y-94392857D01*
X100562904Y-94392857D02*
X100539095Y-94416666D01*
X100539095Y-94416666D02*
X100515285Y-94464285D01*
X100515285Y-94464285D02*
X100515285Y-94559523D01*
X100515285Y-94559523D02*
X100539095Y-94607142D01*
X100539095Y-94607142D02*
X100562904Y-94630952D01*
X100562904Y-94630952D02*
X100610523Y-94654761D01*
X114564286Y-85462904D02*
X114397619Y-85462904D01*
X114397619Y-85724809D02*
X114397619Y-85224809D01*
X114397619Y-85224809D02*
X114635714Y-85224809D01*
X114826190Y-85724809D02*
X114826190Y-85224809D01*
X115064285Y-85724809D02*
X115064285Y-85224809D01*
X115064285Y-85224809D02*
X115183333Y-85224809D01*
X115183333Y-85224809D02*
X115254761Y-85248619D01*
X115254761Y-85248619D02*
X115302380Y-85296238D01*
X115302380Y-85296238D02*
X115326190Y-85343857D01*
X115326190Y-85343857D02*
X115349999Y-85439095D01*
X115349999Y-85439095D02*
X115349999Y-85510523D01*
X115349999Y-85510523D02*
X115326190Y-85605761D01*
X115326190Y-85605761D02*
X115302380Y-85653380D01*
X115302380Y-85653380D02*
X115254761Y-85701000D01*
X115254761Y-85701000D02*
X115183333Y-85724809D01*
X115183333Y-85724809D02*
X115064285Y-85724809D01*
X115540476Y-85272428D02*
X115564285Y-85248619D01*
X115564285Y-85248619D02*
X115611904Y-85224809D01*
X115611904Y-85224809D02*
X115730952Y-85224809D01*
X115730952Y-85224809D02*
X115778571Y-85248619D01*
X115778571Y-85248619D02*
X115802380Y-85272428D01*
X115802380Y-85272428D02*
X115826190Y-85320047D01*
X115826190Y-85320047D02*
X115826190Y-85367666D01*
X115826190Y-85367666D02*
X115802380Y-85439095D01*
X115802380Y-85439095D02*
X115516666Y-85724809D01*
X115516666Y-85724809D02*
X115826190Y-85724809D01*
%TO.C,J1*%
D11*
X99900000Y-100750000D02*
X113700000Y-100750000D01*
%TO.C,U5*%
X101700000Y-94000000D02*
X101700000Y-83600000D01*
X111900000Y-83600000D02*
X101700000Y-83600000D01*
X111900000Y-94000000D02*
X101700000Y-94000000D01*
X111900000Y-94000000D02*
X111900000Y-83600000D01*
%TO.C,C16*%
D12*
X101240000Y-95107836D02*
X101240000Y-94892164D01*
X101960000Y-95107836D02*
X101960000Y-94892164D01*
%TD*%
M02*
