M48
; DRILL file KiCad 10.0.2 date 2026-06-22T21:39:58
; FORMAT={-:-/ absolute / metric / decimal}
; #@! TF.CreationDate,2026-06-22T21:39:58-04:00
; #@! TF.GenerationSoftware,Kicad,Pcbnew,10.0.2
; #@! TF.FileFunction,Plated,1,4,PTH
FMAT,2
METRIC
; #@! TA.AperFunction,Plated,PTH,ViaDrill
T1C0.200
; #@! TA.AperFunction,Plated,PTH,ViaDrill
T2C0.250
; #@! TA.AperFunction,Plated,PTH,ComponentDrill
T3C0.700
%
G90
G05
T1
X101.6Y-88.4
X102.0Y-90.0
X102.326Y-87.038
X102.343Y-85.798
X102.48Y-98.11
X102.6Y-96.8
X103.347Y-92.777
X104.389Y-91.43
X104.4Y-87.4
X104.662Y-91.936
X105.4Y-84.8
X105.959Y-91.966
X106.0Y-90.2
X106.922Y-95.01
X107.0Y-95.6
X107.0Y-96.55
X107.25Y-88.282
X107.6Y-86.2
X107.96Y-84.93
X108.24Y-85.44
X108.574Y-88.076
X109.2Y-94.6
X109.8Y-86.4
X110.493Y-84.6
X110.844Y-84.145
X111.2Y-85.8
X111.55Y-92.7
X111.56Y-89.08
X111.657Y-91.649
X111.713Y-90.127
X111.817Y-90.692
X111.975Y-93.49
X112.02Y-88.24
X112.8Y-91.6
X113.04Y-89.96
T2
X101.67Y-93.74
X109.158Y-95.894
X109.2Y-92.01
T3
G00X100.95Y-97.2
M15
G01X100.95Y-98.8
M16
G05
G00X112.65Y-97.2
M15
G01X112.65Y-98.8
M16
G05
M30
