M48
; DRILL file KiCad 10.0.2 date 2026-06-28T18:59:34
; FORMAT={-:-/ absolute / metric / decimal}
; #@! TF.CreationDate,2026-06-28T18:59:34-04:00
; #@! TF.GenerationSoftware,Kicad,Pcbnew,10.0.2
; #@! TF.FileFunction,Plated,1,4,PTH
FMAT,2
METRIC
; #@! TA.AperFunction,Plated,PTH,ViaDrill
T1C0.150
; #@! TA.AperFunction,Plated,PTH,ComponentDrill
T2C0.700
%
G90
G05
T1
X100.425Y-91.256
X101.4Y-90.126
X101.65Y-87.948
X102.1Y-93.5
X102.179Y-84.878
X102.55Y-85.697
X103.3Y-91.9
X104.1Y-91.0
X104.212Y-93.069
X104.399Y-90.614
X104.562Y-93.655
X104.884Y-89.882
X105.1Y-83.9
X105.45Y-91.04
X105.452Y-89.652
X106.0Y-93.2
X106.002Y-90.143
X106.426Y-89.232
X106.544Y-96.409
X106.55Y-87.779
X106.621Y-90.996
X106.64Y-85.673
X106.7Y-88.2
X107.04Y-91.64
X107.1Y-93.7
X107.125Y-94.8
X107.36Y-87.67
X107.52Y-91.069
X107.55Y-87.27
X107.68Y-85.97
X108.31Y-85.22
X108.8Y-90.6
X109.412Y-85.46
X110.08Y-85.12
X110.63Y-84.219
X110.862Y-85.284
X111.3Y-93.8
X111.5Y-86.3
X111.5Y-87.3
X111.5Y-92.9
X111.944Y-92.555
T2
G00X100.95Y-98.0
M15
G01X100.95Y-96.4
M16
G05
G00X112.65Y-98.0
M15
G01X112.65Y-96.4
M16
G05
M30
