%TF.GenerationSoftware,KiCad,Pcbnew,10.0.2*%
%TF.CreationDate,2026-06-28T19:00:10-04:00*%
%TF.ProjectId,nrfstick,6e726673-7469-4636-9b2e-6b696361645f,rev?*%
%TF.SameCoordinates,Original*%
%TF.FileFunction,Copper,L3,Inr*%
%TF.FilePolarity,Positive*%
%FSLAX46Y46*%
G04 Gerber Fmt 4.6, Leading zero omitted, Abs format (unit mm)*
G04 Created by KiCad (PCBNEW 10.0.2) date 2026-06-28 19:00:10*
%MOMM*%
%LPD*%
G01*
G04 APERTURE LIST*
G04 Aperture macros list*
%AMRoundRect*
0 Rectangle with rounded corners*
0 $1 Rounding radius*
0 $2 $3 $4 $5 $6 $7 $8 $9 X,Y pos of 4 corners*
0 Add a 4 corners polygon primitive as box body*
4,1,4,$2,$3,$4,$5,$6,$7,$8,$9,$2,$3,0*
0 Add four circle primitives for the rounded corners*
1,1,$1+$1,$2,$3*
1,1,$1+$1,$4,$5*
1,1,$1+$1,$6,$7*
1,1,$1+$1,$8,$9*
0 Add four rect primitives between the rounded corners*
20,1,$1+$1,$2,$3,$4,$5,0*
20,1,$1+$1,$4,$5,$6,$7,0*
20,1,$1+$1,$6,$7,$8,$9,0*
20,1,$1+$1,$8,$9,$2,$3,0*%
G04 Aperture macros list end*
%TA.AperFunction,ComponentPad*%
%ADD10RoundRect,0.300000X0.700000X1.450000X-0.700000X1.450000X-0.700000X-1.450000X0.700000X-1.450000X0*%
%TD*%
%TA.AperFunction,ViaPad*%
%ADD11C,0.250000*%
%TD*%
G04 APERTURE END LIST*
D10*
%TO.N,GND*%
%TO.C,J1*%
X112650000Y-97200000D03*
X100950000Y-97200000D03*
%TD*%
D11*
%TO.N,GND*%
X110630100Y-84219000D03*
X102549600Y-85697100D03*
X106620800Y-90996000D03*
X107100000Y-93700000D03*
X111300000Y-93800000D03*
X105452000Y-89651600D03*
X100425000Y-91256100D03*
X101400000Y-90126100D03*
X108310000Y-85220000D03*
X101650000Y-87948000D03*
X106550500Y-87779300D03*
X108800000Y-90600000D03*
%TO.N,+5V*%
X107360000Y-87670000D03*
X107125000Y-94800000D03*
%TO.N,Net-(U4-VBUS)*%
X107550000Y-87270000D03*
%TO.N,Net-(J1-D-)*%
X104562100Y-93654900D03*
%TO.N,Net-(J1-D+)*%
X106543600Y-96408600D03*
%TO.N,Net-(U4-D+)*%
X104883800Y-89882000D03*
%TO.N,Net-(U4-D-)*%
X106426200Y-89231700D03*
%TO.N,VDD*%
X102100000Y-93500000D03*
X111500000Y-86300000D03*
X105100000Y-83900000D03*
X106700000Y-88200000D03*
X103300000Y-91900000D03*
X110080000Y-85120000D03*
X104100000Y-91000000D03*
%TO.N,/LED_RED*%
X104398800Y-90613600D03*
%TO.N,/P1.01{slash}XTAL*%
X104211500Y-93068500D03*
%TO.N,/P1.00{slash}XTAL*%
X105450000Y-91040000D03*
%TO.N,/LED_BLUE*%
X111500000Y-92900000D03*
X106000000Y-93200000D03*
X111500000Y-87300000D03*
%TO.N,/UART_nRF_TX*%
X107040000Y-91640000D03*
%TO.N,/UART_nRF_RX*%
X107520000Y-91069000D03*
%TO.N,/~{RESET}*%
X102179300Y-84878200D03*
X106002300Y-90143500D03*
%TO.N,/BUTTON*%
X107680000Y-85970000D03*
%TO.N,Net-(J2-Pin_3)*%
X109412100Y-85460000D03*
%TO.N,Net-(J2-Pin_2)*%
X110861900Y-85283700D03*
%TO.N,Net-(D8-A)*%
X111944500Y-92555300D03*
X106640000Y-85673500D03*
%TD*%
%TA.AperFunction,Conductor*%
%TO.N,VDD*%
G36*
X113285148Y-82914852D02*
G01*
X113299500Y-82949500D01*
X113299500Y-95250500D01*
X113285148Y-95285148D01*
X113250500Y-95299500D01*
X111895724Y-95299500D01*
X111865301Y-95302353D01*
X111865300Y-95302353D01*
X111737123Y-95347204D01*
X111737114Y-95347208D01*
X111627849Y-95427849D01*
X111547208Y-95537114D01*
X111547204Y-95537123D01*
X111502353Y-95665300D01*
X111502353Y-95665301D01*
X111499500Y-95695724D01*
X111499500Y-98704275D01*
X111502353Y-98734698D01*
X111502353Y-98734699D01*
X111547204Y-98862876D01*
X111547208Y-98862885D01*
X111627849Y-98972150D01*
X111737114Y-99052791D01*
X111737117Y-99052792D01*
X111737118Y-99052793D01*
X111737120Y-99052793D01*
X111737123Y-99052795D01*
X111865301Y-99097646D01*
X111895734Y-99100500D01*
X113250500Y-99100500D01*
X113285148Y-99114852D01*
X113299500Y-99149500D01*
X113299500Y-99650500D01*
X113285148Y-99685148D01*
X113250500Y-99699500D01*
X100349500Y-99699500D01*
X100314852Y-99685148D01*
X100300500Y-99650500D01*
X100300500Y-99149500D01*
X100314852Y-99114852D01*
X100349500Y-99100500D01*
X101704256Y-99100500D01*
X101704266Y-99100500D01*
X101734699Y-99097646D01*
X101862882Y-99052793D01*
X101972150Y-98972150D01*
X102052793Y-98862882D01*
X102097646Y-98734699D01*
X102100500Y-98704266D01*
X102100500Y-97126078D01*
X103799500Y-97126078D01*
X103799500Y-97273921D01*
X103828340Y-97418906D01*
X103828342Y-97418915D01*
X103884914Y-97555491D01*
X103884916Y-97555495D01*
X103967049Y-97678416D01*
X104071584Y-97782951D01*
X104194505Y-97865084D01*
X104262796Y-97893371D01*
X104331084Y-97921657D01*
X104331085Y-97921657D01*
X104331087Y-97921658D01*
X104476082Y-97950500D01*
X104623918Y-97950500D01*
X104768913Y-97921658D01*
X104905495Y-97865084D01*
X105028416Y-97782951D01*
X105132951Y-97678416D01*
X105215084Y-97555495D01*
X105271658Y-97418913D01*
X105300500Y-97273918D01*
X105300500Y-97126082D01*
X105300499Y-97126078D01*
X108299500Y-97126078D01*
X108299500Y-97273921D01*
X108328340Y-97418906D01*
X108328342Y-97418915D01*
X108384914Y-97555491D01*
X108384916Y-97555495D01*
X108467049Y-97678416D01*
X108571584Y-97782951D01*
X108694505Y-97865084D01*
X108762796Y-97893371D01*
X108831084Y-97921657D01*
X108831085Y-97921657D01*
X108831087Y-97921658D01*
X108976082Y-97950500D01*
X109123918Y-97950500D01*
X109268913Y-97921658D01*
X109405495Y-97865084D01*
X109528416Y-97782951D01*
X109632951Y-97678416D01*
X109715084Y-97555495D01*
X109771658Y-97418913D01*
X109800500Y-97273918D01*
X109800500Y-97126082D01*
X109771658Y-96981087D01*
X109715084Y-96844505D01*
X109632951Y-96721584D01*
X109528416Y-96617049D01*
X109405495Y-96534916D01*
X109405492Y-96534914D01*
X109405491Y-96534914D01*
X109268915Y-96478342D01*
X109268906Y-96478340D01*
X109123921Y-96449500D01*
X109123918Y-96449500D01*
X108976082Y-96449500D01*
X108976078Y-96449500D01*
X108831093Y-96478340D01*
X108831084Y-96478342D01*
X108694508Y-96534914D01*
X108571584Y-96617048D01*
X108467048Y-96721584D01*
X108384914Y-96844508D01*
X108328342Y-96981084D01*
X108328340Y-96981093D01*
X108299500Y-97126078D01*
X105300499Y-97126078D01*
X105271658Y-96981087D01*
X105215084Y-96844505D01*
X105132951Y-96721584D01*
X105028416Y-96617049D01*
X104905495Y-96534916D01*
X104905492Y-96534914D01*
X104905491Y-96534914D01*
X104768915Y-96478342D01*
X104768906Y-96478340D01*
X104623921Y-96449500D01*
X104623918Y-96449500D01*
X104476082Y-96449500D01*
X104476078Y-96449500D01*
X104331093Y-96478340D01*
X104331084Y-96478342D01*
X104194508Y-96534914D01*
X104071584Y-96617048D01*
X103967048Y-96721584D01*
X103884914Y-96844508D01*
X103828342Y-96981084D01*
X103828340Y-96981093D01*
X103799500Y-97126078D01*
X102100500Y-97126078D01*
X102100500Y-96353798D01*
X106268100Y-96353798D01*
X106268100Y-96353800D01*
X106268100Y-96463400D01*
X106310043Y-96564658D01*
X106310044Y-96564659D01*
X106310045Y-96564661D01*
X106387539Y-96642155D01*
X106387540Y-96642155D01*
X106387542Y-96642157D01*
X106488800Y-96684100D01*
X106488802Y-96684100D01*
X106598398Y-96684100D01*
X106598400Y-96684100D01*
X106699658Y-96642157D01*
X106699660Y-96642155D01*
X106699661Y-96642155D01*
X106777155Y-96564661D01*
X106777155Y-96564660D01*
X106777157Y-96564658D01*
X106819100Y-96463400D01*
X106819100Y-96353800D01*
X106777157Y-96252542D01*
X106777155Y-96252540D01*
X106777155Y-96252539D01*
X106699661Y-96175045D01*
X106699659Y-96175044D01*
X106699658Y-96175043D01*
X106640344Y-96150474D01*
X106598401Y-96133100D01*
X106598400Y-96133100D01*
X106488800Y-96133100D01*
X106488798Y-96133100D01*
X106387540Y-96175044D01*
X106310044Y-96252540D01*
X106268100Y-96353798D01*
X102100500Y-96353798D01*
X102100500Y-95695734D01*
X102097646Y-95665301D01*
X102052793Y-95537118D01*
X102052792Y-95537117D01*
X102052791Y-95537114D01*
X101972150Y-95427849D01*
X101862885Y-95347208D01*
X101862876Y-95347204D01*
X101734698Y-95302353D01*
X101704275Y-95299500D01*
X101704266Y-95299500D01*
X100349500Y-95299500D01*
X100314852Y-95285148D01*
X100300500Y-95250500D01*
X100300500Y-94745198D01*
X106849500Y-94745198D01*
X106849500Y-94745200D01*
X106849500Y-94854800D01*
X106891443Y-94956058D01*
X106891444Y-94956059D01*
X106891445Y-94956061D01*
X106968939Y-95033555D01*
X106968940Y-95033555D01*
X106968942Y-95033557D01*
X107070200Y-95075500D01*
X107070202Y-95075500D01*
X107179798Y-95075500D01*
X107179800Y-95075500D01*
X107281058Y-95033557D01*
X107281060Y-95033555D01*
X107281061Y-95033555D01*
X107358555Y-94956061D01*
X107358555Y-94956060D01*
X107358557Y-94956058D01*
X107400500Y-94854800D01*
X107400500Y-94745200D01*
X107358557Y-94643942D01*
X107358555Y-94643940D01*
X107358555Y-94643939D01*
X107281061Y-94566445D01*
X107281059Y-94566444D01*
X107281058Y-94566443D01*
X107221744Y-94541874D01*
X107179801Y-94524500D01*
X107179800Y-94524500D01*
X107070200Y-94524500D01*
X107070198Y-94524500D01*
X106968940Y-94566444D01*
X106891444Y-94643940D01*
X106849500Y-94745198D01*
X100300500Y-94745198D01*
X100300500Y-93600098D01*
X104286600Y-93600098D01*
X104286600Y-93600100D01*
X104286600Y-93709700D01*
X104328543Y-93810958D01*
X104328544Y-93810959D01*
X104328545Y-93810961D01*
X104406039Y-93888455D01*
X104406040Y-93888455D01*
X104406042Y-93888457D01*
X104507300Y-93930400D01*
X104507302Y-93930400D01*
X104616898Y-93930400D01*
X104616900Y-93930400D01*
X104718158Y-93888457D01*
X104718160Y-93888455D01*
X104718161Y-93888455D01*
X104795655Y-93810961D01*
X104795655Y-93810960D01*
X104795657Y-93810958D01*
X104837600Y-93709700D01*
X104837600Y-93645198D01*
X106824500Y-93645198D01*
X106824500Y-93645200D01*
X106824500Y-93754800D01*
X106866443Y-93856058D01*
X106866444Y-93856059D01*
X106866445Y-93856061D01*
X106943939Y-93933555D01*
X106943940Y-93933555D01*
X106943942Y-93933557D01*
X107045200Y-93975500D01*
X107045202Y-93975500D01*
X107154798Y-93975500D01*
X107154800Y-93975500D01*
X107256058Y-93933557D01*
X107256060Y-93933555D01*
X107256061Y-93933555D01*
X107333555Y-93856061D01*
X107333555Y-93856060D01*
X107333557Y-93856058D01*
X107375500Y-93754800D01*
X107375500Y-93745198D01*
X111024500Y-93745198D01*
X111024500Y-93854801D01*
X111038441Y-93888457D01*
X111066443Y-93956058D01*
X111066444Y-93956059D01*
X111066445Y-93956061D01*
X111143939Y-94033555D01*
X111143940Y-94033555D01*
X111143942Y-94033557D01*
X111245200Y-94075500D01*
X111245202Y-94075500D01*
X111354798Y-94075500D01*
X111354800Y-94075500D01*
X111456058Y-94033557D01*
X111456060Y-94033555D01*
X111456061Y-94033555D01*
X111533555Y-93956061D01*
X111533555Y-93956060D01*
X111533557Y-93956058D01*
X111575500Y-93854800D01*
X111575500Y-93745200D01*
X111533557Y-93643942D01*
X111533555Y-93643940D01*
X111533555Y-93643939D01*
X111456061Y-93566445D01*
X111456059Y-93566444D01*
X111456058Y-93566443D01*
X111396744Y-93541874D01*
X111354801Y-93524500D01*
X111354800Y-93524500D01*
X111245200Y-93524500D01*
X111245198Y-93524500D01*
X111143940Y-93566444D01*
X111066444Y-93643940D01*
X111024500Y-93745198D01*
X107375500Y-93745198D01*
X107375500Y-93645200D01*
X107333557Y-93543942D01*
X107333555Y-93543940D01*
X107333555Y-93543939D01*
X107256061Y-93466445D01*
X107256059Y-93466444D01*
X107256058Y-93466443D01*
X107196744Y-93441874D01*
X107154801Y-93424500D01*
X107154800Y-93424500D01*
X107045200Y-93424500D01*
X107045198Y-93424500D01*
X106943940Y-93466444D01*
X106866444Y-93543940D01*
X106824500Y-93645198D01*
X104837600Y-93645198D01*
X104837600Y-93600100D01*
X104795657Y-93498842D01*
X104795655Y-93498840D01*
X104795655Y-93498839D01*
X104718161Y-93421345D01*
X104718159Y-93421344D01*
X104718158Y-93421343D01*
X104658844Y-93396774D01*
X104616901Y-93379400D01*
X104616900Y-93379400D01*
X104507300Y-93379400D01*
X104507298Y-93379400D01*
X104406040Y-93421344D01*
X104328544Y-93498840D01*
X104286600Y-93600098D01*
X100300500Y-93600098D01*
X100300500Y-93013698D01*
X103936000Y-93013698D01*
X103936000Y-93123301D01*
X103945071Y-93145200D01*
X103977943Y-93224558D01*
X103977944Y-93224559D01*
X103977945Y-93224561D01*
X104055439Y-93302055D01*
X104055440Y-93302055D01*
X104055442Y-93302057D01*
X104156700Y-93344000D01*
X104156702Y-93344000D01*
X104266298Y-93344000D01*
X104266300Y-93344000D01*
X104367558Y-93302057D01*
X104367560Y-93302055D01*
X104367561Y-93302055D01*
X104445055Y-93224561D01*
X104445055Y-93224560D01*
X104445057Y-93224558D01*
X104477929Y-93145198D01*
X105724500Y-93145198D01*
X105724500Y-93145200D01*
X105724500Y-93254800D01*
X105766443Y-93356058D01*
X105766444Y-93356059D01*
X105766445Y-93356061D01*
X105843939Y-93433555D01*
X105843940Y-93433555D01*
X105843942Y-93433557D01*
X105945200Y-93475500D01*
X105945202Y-93475500D01*
X106054798Y-93475500D01*
X106054800Y-93475500D01*
X106156058Y-93433557D01*
X106156060Y-93433555D01*
X106156061Y-93433555D01*
X106233555Y-93356061D01*
X106233555Y-93356060D01*
X106233557Y-93356058D01*
X106275500Y-93254800D01*
X106275500Y-93145200D01*
X106233557Y-93043942D01*
X106233555Y-93043940D01*
X106233555Y-93043939D01*
X106156061Y-92966445D01*
X106156059Y-92966444D01*
X106156058Y-92966443D01*
X106096744Y-92941874D01*
X106054801Y-92924500D01*
X106054800Y-92924500D01*
X105945200Y-92924500D01*
X105945198Y-92924500D01*
X105843940Y-92966444D01*
X105766444Y-93043940D01*
X105724500Y-93145198D01*
X104477929Y-93145198D01*
X104487000Y-93123300D01*
X104487000Y-93013700D01*
X104445057Y-92912442D01*
X104445055Y-92912440D01*
X104445055Y-92912439D01*
X104377814Y-92845198D01*
X111224500Y-92845198D01*
X111224500Y-92954801D01*
X111241874Y-92996744D01*
X111266443Y-93056058D01*
X111266444Y-93056059D01*
X111266445Y-93056061D01*
X111343939Y-93133555D01*
X111343940Y-93133555D01*
X111343942Y-93133557D01*
X111445200Y-93175500D01*
X111445202Y-93175500D01*
X111554798Y-93175500D01*
X111554800Y-93175500D01*
X111656058Y-93133557D01*
X111656060Y-93133555D01*
X111656061Y-93133555D01*
X111733555Y-93056061D01*
X111733555Y-93056060D01*
X111733557Y-93056058D01*
X111775500Y-92954800D01*
X111775500Y-92856830D01*
X111789852Y-92822182D01*
X111824500Y-92807830D01*
X111843250Y-92811559D01*
X111889700Y-92830800D01*
X111889702Y-92830800D01*
X111999298Y-92830800D01*
X111999300Y-92830800D01*
X112100558Y-92788857D01*
X112100560Y-92788855D01*
X112100561Y-92788855D01*
X112178055Y-92711361D01*
X112178055Y-92711360D01*
X112178057Y-92711358D01*
X112220000Y-92610100D01*
X112220000Y-92500500D01*
X112178057Y-92399242D01*
X112178055Y-92399240D01*
X112178055Y-92399239D01*
X112100561Y-92321745D01*
X112100559Y-92321744D01*
X112100558Y-92321743D01*
X112041244Y-92297174D01*
X111999301Y-92279800D01*
X111999300Y-92279800D01*
X111889700Y-92279800D01*
X111889698Y-92279800D01*
X111788440Y-92321744D01*
X111710944Y-92399240D01*
X111669000Y-92500498D01*
X111669000Y-92598469D01*
X111654648Y-92633117D01*
X111620000Y-92647469D01*
X111601249Y-92643739D01*
X111554804Y-92624501D01*
X111554801Y-92624500D01*
X111554800Y-92624500D01*
X111445200Y-92624500D01*
X111445198Y-92624500D01*
X111343940Y-92666444D01*
X111266444Y-92743940D01*
X111224500Y-92845198D01*
X104377814Y-92845198D01*
X104367561Y-92834945D01*
X104367559Y-92834944D01*
X104367558Y-92834943D01*
X104302102Y-92807830D01*
X104266301Y-92793000D01*
X104266300Y-92793000D01*
X104156700Y-92793000D01*
X104156698Y-92793000D01*
X104086249Y-92822182D01*
X104065447Y-92830799D01*
X104055440Y-92834944D01*
X103977944Y-92912440D01*
X103936000Y-93013698D01*
X100300500Y-93013698D01*
X100300500Y-91585198D01*
X106764500Y-91585198D01*
X106764500Y-91585200D01*
X106764500Y-91694800D01*
X106806443Y-91796058D01*
X106806444Y-91796059D01*
X106806445Y-91796061D01*
X106883939Y-91873555D01*
X106883940Y-91873555D01*
X106883942Y-91873557D01*
X106985200Y-91915500D01*
X106985202Y-91915500D01*
X107094798Y-91915500D01*
X107094800Y-91915500D01*
X107196058Y-91873557D01*
X107196060Y-91873555D01*
X107196061Y-91873555D01*
X107273555Y-91796061D01*
X107273555Y-91796060D01*
X107273557Y-91796058D01*
X107315500Y-91694800D01*
X107315500Y-91585200D01*
X107273557Y-91483942D01*
X107273555Y-91483940D01*
X107273555Y-91483939D01*
X107196061Y-91406445D01*
X107196059Y-91406444D01*
X107196058Y-91406443D01*
X107136744Y-91381874D01*
X107094801Y-91364500D01*
X107094800Y-91364500D01*
X106985200Y-91364500D01*
X106985198Y-91364500D01*
X106883940Y-91406444D01*
X106806444Y-91483940D01*
X106764500Y-91585198D01*
X100300500Y-91585198D01*
X100300500Y-91576063D01*
X100314852Y-91541415D01*
X100349500Y-91527063D01*
X100368251Y-91530792D01*
X100370200Y-91531600D01*
X100370202Y-91531600D01*
X100479798Y-91531600D01*
X100479800Y-91531600D01*
X100581058Y-91489657D01*
X100581060Y-91489655D01*
X100581061Y-91489655D01*
X100658555Y-91412161D01*
X100658555Y-91412160D01*
X100658557Y-91412158D01*
X100700500Y-91310900D01*
X100700500Y-91201300D01*
X100658557Y-91100042D01*
X100658555Y-91100040D01*
X100658555Y-91100039D01*
X100581061Y-91022545D01*
X100581059Y-91022544D01*
X100581058Y-91022543D01*
X100521744Y-90997974D01*
X100490901Y-90985198D01*
X105174500Y-90985198D01*
X105174500Y-91094801D01*
X105176671Y-91100042D01*
X105216443Y-91196058D01*
X105216444Y-91196059D01*
X105216445Y-91196061D01*
X105293939Y-91273555D01*
X105293940Y-91273555D01*
X105293942Y-91273557D01*
X105395200Y-91315500D01*
X105395202Y-91315500D01*
X105504798Y-91315500D01*
X105504800Y-91315500D01*
X105606058Y-91273557D01*
X105606060Y-91273555D01*
X105606061Y-91273555D01*
X105683555Y-91196061D01*
X105683555Y-91196060D01*
X105683557Y-91196058D01*
X105725500Y-91094800D01*
X105725500Y-90985200D01*
X105721151Y-90974702D01*
X105713043Y-90955125D01*
X105707274Y-90941198D01*
X106345300Y-90941198D01*
X106345300Y-90941200D01*
X106345300Y-91050800D01*
X106387243Y-91152058D01*
X106387244Y-91152059D01*
X106387245Y-91152061D01*
X106464739Y-91229555D01*
X106464740Y-91229555D01*
X106464742Y-91229557D01*
X106566000Y-91271500D01*
X106566002Y-91271500D01*
X106675598Y-91271500D01*
X106675600Y-91271500D01*
X106776858Y-91229557D01*
X106776860Y-91229555D01*
X106776861Y-91229555D01*
X106854355Y-91152061D01*
X106854355Y-91152060D01*
X106854357Y-91152058D01*
X106896300Y-91050800D01*
X106896300Y-91014198D01*
X107244500Y-91014198D01*
X107244500Y-91014200D01*
X107244500Y-91123800D01*
X107286443Y-91225058D01*
X107286444Y-91225059D01*
X107286445Y-91225061D01*
X107363939Y-91302555D01*
X107363940Y-91302555D01*
X107363942Y-91302557D01*
X107465200Y-91344500D01*
X107465202Y-91344500D01*
X107574798Y-91344500D01*
X107574800Y-91344500D01*
X107676058Y-91302557D01*
X107676060Y-91302555D01*
X107676061Y-91302555D01*
X107753555Y-91225061D01*
X107753555Y-91225060D01*
X107753557Y-91225058D01*
X107795500Y-91123800D01*
X107795500Y-91014200D01*
X107753557Y-90912942D01*
X107753555Y-90912940D01*
X107753555Y-90912939D01*
X107676061Y-90835445D01*
X107676059Y-90835444D01*
X107676058Y-90835443D01*
X107606047Y-90806443D01*
X107574801Y-90793500D01*
X107574800Y-90793500D01*
X107465200Y-90793500D01*
X107465198Y-90793500D01*
X107363940Y-90835444D01*
X107286444Y-90912940D01*
X107244500Y-91014198D01*
X106896300Y-91014198D01*
X106896300Y-90941200D01*
X106854357Y-90839942D01*
X106854355Y-90839940D01*
X106854355Y-90839939D01*
X106776861Y-90762445D01*
X106776859Y-90762444D01*
X106776858Y-90762443D01*
X106717544Y-90737874D01*
X106675601Y-90720500D01*
X106675600Y-90720500D01*
X106566000Y-90720500D01*
X106565998Y-90720500D01*
X106464740Y-90762444D01*
X106387244Y-90839940D01*
X106387243Y-90839941D01*
X106387243Y-90839942D01*
X106380048Y-90857312D01*
X106345300Y-90941198D01*
X105707274Y-90941198D01*
X105689788Y-90898985D01*
X105683557Y-90883942D01*
X105683556Y-90883941D01*
X105683556Y-90883940D01*
X105606061Y-90806445D01*
X105606059Y-90806444D01*
X105606058Y-90806443D01*
X105517255Y-90769659D01*
X105504801Y-90764500D01*
X105504800Y-90764500D01*
X105395200Y-90764500D01*
X105395198Y-90764500D01*
X105293940Y-90806444D01*
X105216444Y-90883940D01*
X105216443Y-90883941D01*
X105216443Y-90883942D01*
X105209248Y-90901312D01*
X105174500Y-90985198D01*
X100490901Y-90985198D01*
X100479801Y-90980600D01*
X100479800Y-90980600D01*
X100370200Y-90980600D01*
X100370199Y-90980600D01*
X100370192Y-90980601D01*
X100368246Y-90981408D01*
X100366140Y-90981407D01*
X100365466Y-90981542D01*
X100365439Y-90981407D01*
X100330743Y-90981404D01*
X100304228Y-90954882D01*
X100300500Y-90936136D01*
X100300500Y-90558798D01*
X104123300Y-90558798D01*
X104123300Y-90558800D01*
X104123300Y-90668400D01*
X104165243Y-90769658D01*
X104165244Y-90769659D01*
X104165245Y-90769661D01*
X104242739Y-90847155D01*
X104242740Y-90847155D01*
X104242742Y-90847157D01*
X104344000Y-90889100D01*
X104344002Y-90889100D01*
X104453598Y-90889100D01*
X104453600Y-90889100D01*
X104554858Y-90847157D01*
X104554860Y-90847155D01*
X104554861Y-90847155D01*
X104632355Y-90769661D01*
X104632355Y-90769660D01*
X104632357Y-90769658D01*
X104674300Y-90668400D01*
X104674300Y-90558800D01*
X104668666Y-90545198D01*
X108524500Y-90545198D01*
X108524500Y-90545200D01*
X108524500Y-90654800D01*
X108566443Y-90756058D01*
X108566444Y-90756059D01*
X108566445Y-90756061D01*
X108643939Y-90833555D01*
X108643940Y-90833555D01*
X108643942Y-90833557D01*
X108745200Y-90875500D01*
X108745202Y-90875500D01*
X108854798Y-90875500D01*
X108854800Y-90875500D01*
X108956058Y-90833557D01*
X108956060Y-90833555D01*
X108956061Y-90833555D01*
X109033555Y-90756061D01*
X109033555Y-90756060D01*
X109033557Y-90756058D01*
X109075500Y-90654800D01*
X109075500Y-90545200D01*
X109033557Y-90443942D01*
X109033555Y-90443940D01*
X109033555Y-90443939D01*
X108956061Y-90366445D01*
X108956059Y-90366444D01*
X108956058Y-90366443D01*
X108887633Y-90338100D01*
X108854801Y-90324500D01*
X108854800Y-90324500D01*
X108745200Y-90324500D01*
X108745198Y-90324500D01*
X108643940Y-90366444D01*
X108566444Y-90443940D01*
X108524500Y-90545198D01*
X104668666Y-90545198D01*
X104632357Y-90457542D01*
X104632355Y-90457540D01*
X104632355Y-90457539D01*
X104554861Y-90380045D01*
X104554859Y-90380044D01*
X104554858Y-90380043D01*
X104495544Y-90355474D01*
X104453601Y-90338100D01*
X104453600Y-90338100D01*
X104344000Y-90338100D01*
X104343998Y-90338100D01*
X104242740Y-90380044D01*
X104165244Y-90457540D01*
X104123300Y-90558798D01*
X100300500Y-90558798D01*
X100300500Y-90071298D01*
X101124500Y-90071298D01*
X101124500Y-90071300D01*
X101124500Y-90180900D01*
X101166443Y-90282158D01*
X101166444Y-90282159D01*
X101166445Y-90282161D01*
X101243939Y-90359655D01*
X101243940Y-90359655D01*
X101243942Y-90359657D01*
X101345200Y-90401600D01*
X101345202Y-90401600D01*
X101454798Y-90401600D01*
X101454800Y-90401600D01*
X101556058Y-90359657D01*
X101556060Y-90359655D01*
X101556061Y-90359655D01*
X101633555Y-90282161D01*
X101633555Y-90282160D01*
X101633557Y-90282158D01*
X101675500Y-90180900D01*
X101675500Y-90071300D01*
X101633557Y-89970042D01*
X101633555Y-89970040D01*
X101633555Y-89970039D01*
X101556061Y-89892545D01*
X101556059Y-89892544D01*
X101556058Y-89892543D01*
X101486366Y-89863675D01*
X101454801Y-89850600D01*
X101454800Y-89850600D01*
X101345200Y-89850600D01*
X101345198Y-89850600D01*
X101243940Y-89892544D01*
X101166444Y-89970040D01*
X101124500Y-90071298D01*
X100300500Y-90071298D01*
X100300500Y-89827198D01*
X104608300Y-89827198D01*
X104608300Y-89827200D01*
X104608300Y-89936800D01*
X104650243Y-90038058D01*
X104650244Y-90038059D01*
X104650245Y-90038061D01*
X104727739Y-90115555D01*
X104727740Y-90115555D01*
X104727742Y-90115557D01*
X104829000Y-90157500D01*
X104829002Y-90157500D01*
X104938598Y-90157500D01*
X104938600Y-90157500D01*
X105039858Y-90115557D01*
X105039860Y-90115555D01*
X105039861Y-90115555D01*
X105066718Y-90088698D01*
X105726800Y-90088698D01*
X105726800Y-90088700D01*
X105726800Y-90198300D01*
X105768743Y-90299558D01*
X105768744Y-90299559D01*
X105768745Y-90299561D01*
X105846239Y-90377055D01*
X105846240Y-90377055D01*
X105846242Y-90377057D01*
X105947500Y-90419000D01*
X105947502Y-90419000D01*
X106057098Y-90419000D01*
X106057100Y-90419000D01*
X106158358Y-90377057D01*
X106158360Y-90377055D01*
X106158361Y-90377055D01*
X106235855Y-90299561D01*
X106235855Y-90299560D01*
X106235857Y-90299558D01*
X106277800Y-90198300D01*
X106277800Y-90088700D01*
X106235857Y-89987442D01*
X106235855Y-89987440D01*
X106235855Y-89987439D01*
X106158361Y-89909945D01*
X106158359Y-89909944D01*
X106158358Y-89909943D01*
X106098515Y-89885155D01*
X106057101Y-89868000D01*
X106057100Y-89868000D01*
X105947500Y-89868000D01*
X105947498Y-89868000D01*
X105846240Y-89909944D01*
X105768744Y-89987440D01*
X105726800Y-90088698D01*
X105066718Y-90088698D01*
X105117355Y-90038061D01*
X105117355Y-90038060D01*
X105117357Y-90038058D01*
X105159300Y-89936800D01*
X105159300Y-89866812D01*
X105173652Y-89832164D01*
X105208300Y-89817812D01*
X105242948Y-89832164D01*
X105295939Y-89885155D01*
X105295940Y-89885155D01*
X105295942Y-89885157D01*
X105397200Y-89927100D01*
X105397202Y-89927100D01*
X105506798Y-89927100D01*
X105506800Y-89927100D01*
X105608058Y-89885157D01*
X105608060Y-89885155D01*
X105608061Y-89885155D01*
X105685555Y-89807661D01*
X105685555Y-89807660D01*
X105685557Y-89807658D01*
X105727500Y-89706400D01*
X105727500Y-89596800D01*
X105685557Y-89495542D01*
X105685555Y-89495540D01*
X105685555Y-89495539D01*
X105608061Y-89418045D01*
X105608059Y-89418044D01*
X105608058Y-89418043D01*
X105534945Y-89387758D01*
X105506801Y-89376100D01*
X105506800Y-89376100D01*
X105397200Y-89376100D01*
X105397198Y-89376100D01*
X105295940Y-89418044D01*
X105218444Y-89495540D01*
X105218443Y-89495541D01*
X105218443Y-89495542D01*
X105213614Y-89507200D01*
X105176500Y-89596798D01*
X105176500Y-89666788D01*
X105162148Y-89701436D01*
X105127500Y-89715788D01*
X105092852Y-89701436D01*
X105039861Y-89648445D01*
X105039859Y-89648444D01*
X105039858Y-89648443D01*
X104980544Y-89623874D01*
X104938601Y-89606500D01*
X104938600Y-89606500D01*
X104829000Y-89606500D01*
X104828998Y-89606500D01*
X104727740Y-89648444D01*
X104650244Y-89725940D01*
X104608300Y-89827198D01*
X100300500Y-89827198D01*
X100300500Y-89176898D01*
X106150700Y-89176898D01*
X106150700Y-89176900D01*
X106150700Y-89286500D01*
X106192643Y-89387758D01*
X106192644Y-89387759D01*
X106192645Y-89387761D01*
X106270139Y-89465255D01*
X106270140Y-89465255D01*
X106270142Y-89465257D01*
X106371400Y-89507200D01*
X106371402Y-89507200D01*
X106480998Y-89507200D01*
X106481000Y-89507200D01*
X106582258Y-89465257D01*
X106582260Y-89465255D01*
X106582261Y-89465255D01*
X106659755Y-89387761D01*
X106659755Y-89387760D01*
X106659757Y-89387758D01*
X106701700Y-89286500D01*
X106701700Y-89176900D01*
X106659757Y-89075642D01*
X106659755Y-89075640D01*
X106659755Y-89075639D01*
X106582261Y-88998145D01*
X106582259Y-88998144D01*
X106582258Y-88998143D01*
X106522944Y-88973574D01*
X106481001Y-88956200D01*
X106481000Y-88956200D01*
X106371400Y-88956200D01*
X106371398Y-88956200D01*
X106270140Y-88998144D01*
X106192644Y-89075640D01*
X106150700Y-89176898D01*
X100300500Y-89176898D01*
X100300500Y-87893198D01*
X101374500Y-87893198D01*
X101374500Y-88002801D01*
X101391874Y-88044744D01*
X101416443Y-88104058D01*
X101416444Y-88104059D01*
X101416445Y-88104061D01*
X101493939Y-88181555D01*
X101493940Y-88181555D01*
X101493942Y-88181557D01*
X101595200Y-88223500D01*
X101595202Y-88223500D01*
X101704798Y-88223500D01*
X101704800Y-88223500D01*
X101806058Y-88181557D01*
X101806060Y-88181555D01*
X101806061Y-88181555D01*
X101883555Y-88104061D01*
X101883555Y-88104060D01*
X101883557Y-88104058D01*
X101925500Y-88002800D01*
X101925500Y-87893200D01*
X101883557Y-87791942D01*
X101883555Y-87791940D01*
X101883555Y-87791939D01*
X101816114Y-87724498D01*
X106275000Y-87724498D01*
X106275000Y-87724500D01*
X106275000Y-87834100D01*
X106316943Y-87935358D01*
X106316944Y-87935359D01*
X106316945Y-87935361D01*
X106394439Y-88012855D01*
X106394440Y-88012855D01*
X106394442Y-88012857D01*
X106495700Y-88054800D01*
X106495702Y-88054800D01*
X106605298Y-88054800D01*
X106605300Y-88054800D01*
X106706558Y-88012857D01*
X106706560Y-88012855D01*
X106706561Y-88012855D01*
X106784055Y-87935361D01*
X106784055Y-87935360D01*
X106784057Y-87935358D01*
X106826000Y-87834100D01*
X106826000Y-87724500D01*
X106784057Y-87623242D01*
X106784056Y-87623241D01*
X106784056Y-87623240D01*
X106776014Y-87615198D01*
X107084500Y-87615198D01*
X107084500Y-87615200D01*
X107084500Y-87724800D01*
X107126443Y-87826058D01*
X107126444Y-87826059D01*
X107126445Y-87826061D01*
X107203939Y-87903555D01*
X107203940Y-87903555D01*
X107203942Y-87903557D01*
X107305200Y-87945500D01*
X107305202Y-87945500D01*
X107414798Y-87945500D01*
X107414800Y-87945500D01*
X107516058Y-87903557D01*
X107516060Y-87903555D01*
X107516061Y-87903555D01*
X107593555Y-87826061D01*
X107593555Y-87826060D01*
X107593557Y-87826058D01*
X107635500Y-87724800D01*
X107635500Y-87615200D01*
X107625111Y-87590121D01*
X107625111Y-87552621D01*
X107651626Y-87526103D01*
X107706058Y-87503557D01*
X107706059Y-87503555D01*
X107706061Y-87503555D01*
X107783555Y-87426061D01*
X107783555Y-87426060D01*
X107783557Y-87426058D01*
X107825500Y-87324800D01*
X107825500Y-87245198D01*
X111224500Y-87245198D01*
X111224500Y-87245200D01*
X111224500Y-87354800D01*
X111266443Y-87456058D01*
X111266444Y-87456059D01*
X111266445Y-87456061D01*
X111343939Y-87533555D01*
X111343940Y-87533555D01*
X111343942Y-87533557D01*
X111445200Y-87575500D01*
X111445202Y-87575500D01*
X111554798Y-87575500D01*
X111554800Y-87575500D01*
X111656058Y-87533557D01*
X111656060Y-87533555D01*
X111656061Y-87533555D01*
X111733555Y-87456061D01*
X111733555Y-87456060D01*
X111733557Y-87456058D01*
X111775500Y-87354800D01*
X111775500Y-87245200D01*
X111733557Y-87143942D01*
X111733555Y-87143940D01*
X111733555Y-87143939D01*
X111656061Y-87066445D01*
X111656059Y-87066444D01*
X111656058Y-87066443D01*
X111596744Y-87041874D01*
X111554801Y-87024500D01*
X111554800Y-87024500D01*
X111445200Y-87024500D01*
X111445198Y-87024500D01*
X111343940Y-87066444D01*
X111266444Y-87143940D01*
X111224500Y-87245198D01*
X107825500Y-87245198D01*
X107825500Y-87215200D01*
X107783557Y-87113942D01*
X107783555Y-87113940D01*
X107783555Y-87113939D01*
X107706061Y-87036445D01*
X107706059Y-87036444D01*
X107706058Y-87036443D01*
X107646744Y-87011874D01*
X107604801Y-86994500D01*
X107604800Y-86994500D01*
X107495200Y-86994500D01*
X107495198Y-86994500D01*
X107393940Y-87036444D01*
X107316444Y-87113940D01*
X107274500Y-87215198D01*
X107274500Y-87215200D01*
X107274500Y-87324800D01*
X107274500Y-87324801D01*
X107274501Y-87324804D01*
X107284886Y-87349876D01*
X107284886Y-87387379D01*
X107258369Y-87413897D01*
X107203939Y-87436444D01*
X107126445Y-87513939D01*
X107126444Y-87513940D01*
X107084500Y-87615198D01*
X106776014Y-87615198D01*
X106706561Y-87545745D01*
X106706559Y-87545744D01*
X106706558Y-87545743D01*
X106629780Y-87513940D01*
X106605301Y-87503800D01*
X106605300Y-87503800D01*
X106495700Y-87503800D01*
X106495698Y-87503800D01*
X106394440Y-87545744D01*
X106316944Y-87623240D01*
X106275000Y-87724498D01*
X101816114Y-87724498D01*
X101806061Y-87714445D01*
X101806059Y-87714444D01*
X101806058Y-87714443D01*
X101746744Y-87689874D01*
X101704801Y-87672500D01*
X101704800Y-87672500D01*
X101595200Y-87672500D01*
X101595198Y-87672500D01*
X101493940Y-87714444D01*
X101416444Y-87791940D01*
X101374500Y-87893198D01*
X100300500Y-87893198D01*
X100300500Y-85642298D01*
X102274100Y-85642298D01*
X102274100Y-85642300D01*
X102274100Y-85751900D01*
X102316043Y-85853158D01*
X102316044Y-85853159D01*
X102316045Y-85853161D01*
X102393539Y-85930655D01*
X102393540Y-85930655D01*
X102393542Y-85930657D01*
X102494800Y-85972600D01*
X102494802Y-85972600D01*
X102604398Y-85972600D01*
X102604400Y-85972600D01*
X102705658Y-85930657D01*
X102705660Y-85930655D01*
X102705661Y-85930655D01*
X102783155Y-85853161D01*
X102783155Y-85853160D01*
X102783157Y-85853158D01*
X102825100Y-85751900D01*
X102825100Y-85642300D01*
X102825098Y-85642295D01*
X102821093Y-85632625D01*
X102815324Y-85618698D01*
X106364500Y-85618698D01*
X106364500Y-85728301D01*
X106374276Y-85751901D01*
X106406443Y-85829558D01*
X106406444Y-85829559D01*
X106406445Y-85829561D01*
X106483939Y-85907055D01*
X106483940Y-85907055D01*
X106483942Y-85907057D01*
X106585200Y-85949000D01*
X106585202Y-85949000D01*
X106694798Y-85949000D01*
X106694800Y-85949000D01*
X106776404Y-85915198D01*
X107404500Y-85915198D01*
X107404500Y-85915200D01*
X107404500Y-86024800D01*
X107446443Y-86126058D01*
X107446444Y-86126059D01*
X107446445Y-86126061D01*
X107523939Y-86203555D01*
X107523940Y-86203555D01*
X107523942Y-86203557D01*
X107625200Y-86245500D01*
X107625202Y-86245500D01*
X107734798Y-86245500D01*
X107734800Y-86245500D01*
X107836058Y-86203557D01*
X107836060Y-86203555D01*
X107836061Y-86203555D01*
X107913555Y-86126061D01*
X107913555Y-86126060D01*
X107913557Y-86126058D01*
X107955500Y-86024800D01*
X107955500Y-85915200D01*
X107913557Y-85813942D01*
X107913555Y-85813940D01*
X107913555Y-85813939D01*
X107836061Y-85736445D01*
X107836059Y-85736444D01*
X107836058Y-85736443D01*
X107776744Y-85711874D01*
X107734801Y-85694500D01*
X107734800Y-85694500D01*
X107625200Y-85694500D01*
X107625198Y-85694500D01*
X107523940Y-85736444D01*
X107446444Y-85813940D01*
X107404500Y-85915198D01*
X106776404Y-85915198D01*
X106796058Y-85907057D01*
X106796060Y-85907055D01*
X106796061Y-85907055D01*
X106873555Y-85829561D01*
X106873555Y-85829560D01*
X106873557Y-85829558D01*
X106915500Y-85728300D01*
X106915500Y-85618700D01*
X106873557Y-85517442D01*
X106873555Y-85517440D01*
X106873555Y-85517439D01*
X106796061Y-85439945D01*
X106796059Y-85439944D01*
X106796058Y-85439943D01*
X106736744Y-85415374D01*
X106694801Y-85398000D01*
X106694800Y-85398000D01*
X106585200Y-85398000D01*
X106585198Y-85398000D01*
X106528225Y-85421600D01*
X106484382Y-85439761D01*
X106483940Y-85439944D01*
X106406444Y-85517440D01*
X106364500Y-85618698D01*
X102815324Y-85618698D01*
X102790678Y-85559200D01*
X102783157Y-85541042D01*
X102783155Y-85541040D01*
X102783155Y-85541039D01*
X102705661Y-85463545D01*
X102705659Y-85463544D01*
X102705658Y-85463543D01*
X102646344Y-85438974D01*
X102604401Y-85421600D01*
X102604400Y-85421600D01*
X102494800Y-85421600D01*
X102494798Y-85421600D01*
X102393540Y-85463544D01*
X102316044Y-85541040D01*
X102274100Y-85642298D01*
X100300500Y-85642298D01*
X100300500Y-85165198D01*
X108034500Y-85165198D01*
X108034500Y-85165200D01*
X108034500Y-85274800D01*
X108076443Y-85376058D01*
X108076444Y-85376059D01*
X108076445Y-85376061D01*
X108153939Y-85453555D01*
X108153940Y-85453555D01*
X108153942Y-85453557D01*
X108255200Y-85495500D01*
X108255202Y-85495500D01*
X108364798Y-85495500D01*
X108364800Y-85495500D01*
X108466058Y-85453557D01*
X108466060Y-85453555D01*
X108466061Y-85453555D01*
X108514417Y-85405198D01*
X109136600Y-85405198D01*
X109136600Y-85514801D01*
X109137694Y-85517442D01*
X109178543Y-85616058D01*
X109178544Y-85616059D01*
X109178545Y-85616061D01*
X109256039Y-85693555D01*
X109256040Y-85693555D01*
X109256042Y-85693557D01*
X109357300Y-85735500D01*
X109357302Y-85735500D01*
X109466898Y-85735500D01*
X109466900Y-85735500D01*
X109568158Y-85693557D01*
X109568160Y-85693555D01*
X109568161Y-85693555D01*
X109645655Y-85616061D01*
X109645655Y-85616060D01*
X109645657Y-85616058D01*
X109687600Y-85514800D01*
X109687600Y-85405200D01*
X109645657Y-85303942D01*
X109645655Y-85303940D01*
X109645655Y-85303939D01*
X109570614Y-85228898D01*
X110586400Y-85228898D01*
X110586400Y-85228900D01*
X110586400Y-85338500D01*
X110628343Y-85439758D01*
X110628344Y-85439759D01*
X110628345Y-85439761D01*
X110705839Y-85517255D01*
X110705840Y-85517255D01*
X110705842Y-85517257D01*
X110807100Y-85559200D01*
X110807102Y-85559200D01*
X110916698Y-85559200D01*
X110916700Y-85559200D01*
X111017958Y-85517257D01*
X111017960Y-85517255D01*
X111017961Y-85517255D01*
X111095455Y-85439761D01*
X111095455Y-85439760D01*
X111095457Y-85439758D01*
X111137400Y-85338500D01*
X111137400Y-85228900D01*
X111095457Y-85127642D01*
X111095455Y-85127640D01*
X111095455Y-85127639D01*
X111017961Y-85050145D01*
X111017959Y-85050144D01*
X111017958Y-85050143D01*
X110958644Y-85025574D01*
X110916701Y-85008200D01*
X110916700Y-85008200D01*
X110807100Y-85008200D01*
X110807098Y-85008200D01*
X110705840Y-85050144D01*
X110628344Y-85127640D01*
X110586400Y-85228898D01*
X109570614Y-85228898D01*
X109568161Y-85226445D01*
X109568159Y-85226444D01*
X109568158Y-85226443D01*
X109508844Y-85201874D01*
X109466901Y-85184500D01*
X109466900Y-85184500D01*
X109357300Y-85184500D01*
X109357298Y-85184500D01*
X109256040Y-85226444D01*
X109178544Y-85303940D01*
X109136600Y-85405198D01*
X108514417Y-85405198D01*
X108543554Y-85376061D01*
X108543556Y-85376059D01*
X108543557Y-85376058D01*
X108585500Y-85274800D01*
X108585500Y-85165200D01*
X108543557Y-85063942D01*
X108543555Y-85063940D01*
X108543555Y-85063939D01*
X108466061Y-84986445D01*
X108466059Y-84986444D01*
X108466058Y-84986443D01*
X108406744Y-84961874D01*
X108364801Y-84944500D01*
X108364800Y-84944500D01*
X108255200Y-84944500D01*
X108255198Y-84944500D01*
X108153940Y-84986444D01*
X108076444Y-85063940D01*
X108034500Y-85165198D01*
X100300500Y-85165198D01*
X100300500Y-84823398D01*
X101903800Y-84823398D01*
X101903800Y-84933001D01*
X101921174Y-84974944D01*
X101945743Y-85034258D01*
X101945744Y-85034259D01*
X101945745Y-85034261D01*
X102023239Y-85111755D01*
X102023240Y-85111755D01*
X102023242Y-85111757D01*
X102124500Y-85153700D01*
X102124502Y-85153700D01*
X102234098Y-85153700D01*
X102234100Y-85153700D01*
X102335358Y-85111757D01*
X102335359Y-85111756D01*
X102335361Y-85111755D01*
X102412855Y-85034261D01*
X102412855Y-85034260D01*
X102412857Y-85034258D01*
X102454800Y-84933000D01*
X102454800Y-84823400D01*
X102412857Y-84722142D01*
X102412855Y-84722140D01*
X102412855Y-84722139D01*
X102335361Y-84644645D01*
X102335359Y-84644644D01*
X102335358Y-84644643D01*
X102276044Y-84620074D01*
X102234101Y-84602700D01*
X102234100Y-84602700D01*
X102124500Y-84602700D01*
X102124498Y-84602700D01*
X102023240Y-84644644D01*
X101945744Y-84722140D01*
X101903800Y-84823398D01*
X100300500Y-84823398D01*
X100300500Y-84164198D01*
X110354600Y-84164198D01*
X110354600Y-84164200D01*
X110354600Y-84273800D01*
X110396543Y-84375058D01*
X110396544Y-84375059D01*
X110396545Y-84375061D01*
X110474039Y-84452555D01*
X110474040Y-84452555D01*
X110474042Y-84452557D01*
X110575300Y-84494500D01*
X110575302Y-84494500D01*
X110684898Y-84494500D01*
X110684900Y-84494500D01*
X110786158Y-84452557D01*
X110786160Y-84452555D01*
X110786161Y-84452555D01*
X110863655Y-84375061D01*
X110863655Y-84375060D01*
X110863657Y-84375058D01*
X110905600Y-84273800D01*
X110905600Y-84164200D01*
X110863657Y-84062942D01*
X110863655Y-84062940D01*
X110863655Y-84062939D01*
X110786161Y-83985445D01*
X110786159Y-83985444D01*
X110786158Y-83985443D01*
X110726844Y-83960874D01*
X110684901Y-83943500D01*
X110684900Y-83943500D01*
X110575300Y-83943500D01*
X110575298Y-83943500D01*
X110474040Y-83985444D01*
X110396544Y-84062940D01*
X110354600Y-84164198D01*
X100300500Y-84164198D01*
X100300500Y-82949500D01*
X100314852Y-82914852D01*
X100349500Y-82900500D01*
X113250500Y-82900500D01*
X113285148Y-82914852D01*
G37*
%TD.AperFunction*%
%TD*%
M02*
