%TF.GenerationSoftware,KiCad,Pcbnew,10.0.2*%
%TF.CreationDate,2026-06-28T19:00:10-04:00*%
%TF.ProjectId,nrfstick,6e726673-7469-4636-9b2e-6b696361645f,rev?*%
%TF.SameCoordinates,Original*%
%TF.FileFunction,Copper,L1,Top*%
%TF.FilePolarity,Positive*%
%FSLAX46Y46*%
G04 Gerber Fmt 4.6, Leading zero omitted, Abs format (unit mm)*
G04 Created by KiCad (PCBNEW 10.0.2) date 2026-06-28 19:00:10*
%MOMM*%
%LPD*%
G01*
G04 APERTURE LIST*
G04 Aperture macros list*
%AMRoundRect*
0 Rectangle with rounded corners*
0 $1 Rounding radius*
0 $2 $3 $4 $5 $6 $7 $8 $9 X,Y pos of 4 corners*
0 Add a 4 corners polygon primitive as box body*
4,1,4,$2,$3,$4,$5,$6,$7,$8,$9,$2,$3,0*
0 Add four circle primitives for the rounded corners*
1,1,$1+$1,$2,$3*
1,1,$1+$1,$4,$5*
1,1,$1+$1,$6,$7*
1,1,$1+$1,$8,$9*
0 Add four rect primitives between the rounded corners*
20,1,$1+$1,$2,$3,$4,$5,0*
20,1,$1+$1,$4,$5,$6,$7,0*
20,1,$1+$1,$6,$7,$8,$9,0*
20,1,$1+$1,$8,$9,$2,$3,0*%
%AMFreePoly0*
4,1,23,0.500354,0.200354,0.500500,0.200000,0.500500,-0.200000,0.500354,-0.200354,0.500000,-0.200500,0.000000,-0.200500,-0.000354,-0.200354,-0.000500,-0.200000,-0.000500,-0.196157,-0.039018,-0.196157,-0.111114,-0.166294,-0.166294,-0.111114,-0.196157,-0.039018,-0.196157,0.039018,-0.166294,0.111114,-0.111114,0.166294,-0.039018,0.196157,-0.000500,0.196157,-0.000500,0.200000,-0.000354,0.200354,
0.000000,0.200500,0.500000,0.200500,0.500354,0.200354,0.500354,0.200354,$1*%
G04 Aperture macros list end*
%TA.AperFunction,SMDPad,CuDef*%
%ADD10RoundRect,0.225000X-0.250000X0.225000X-0.250000X-0.225000X0.250000X-0.225000X0.250000X0.225000X0*%
%TD*%
%TA.AperFunction,SMDPad,CuDef*%
%ADD11C,0.500000*%
%TD*%
%TA.AperFunction,SMDPad,CuDef*%
%ADD12RoundRect,0.135000X0.185000X-0.135000X0.185000X0.135000X-0.185000X0.135000X-0.185000X-0.135000X0*%
%TD*%
%TA.AperFunction,SMDPad,CuDef*%
%ADD13RoundRect,0.150000X-0.512500X-0.150000X0.512500X-0.150000X0.512500X0.150000X-0.512500X0.150000X0*%
%TD*%
%TA.AperFunction,SMDPad,CuDef*%
%ADD14RoundRect,0.140000X0.170000X-0.140000X0.170000X0.140000X-0.170000X0.140000X-0.170000X-0.140000X0*%
%TD*%
%TA.AperFunction,SMDPad,CuDef*%
%ADD15C,0.400000*%
%TD*%
%TA.AperFunction,SMDPad,CuDef*%
%ADD16FreePoly0,270.000000*%
%TD*%
%TA.AperFunction,SMDPad,CuDef*%
%ADD17RoundRect,0.135000X-0.185000X0.135000X-0.185000X-0.135000X0.185000X-0.135000X0.185000X0.135000X0*%
%TD*%
%TA.AperFunction,ComponentPad*%
%ADD18RoundRect,0.300000X0.700000X1.450000X-0.700000X1.450000X-0.700000X-1.450000X0.700000X-1.450000X0*%
%TD*%
%TA.AperFunction,ViaPad*%
%ADD19C,0.250000*%
%TD*%
%TA.AperFunction,Conductor*%
%ADD20C,0.100000*%
%TD*%
G04 APERTURE END LIST*
D10*
%TO.P,C8,1*%
%TO.N,GND*%
X107850000Y-94135000D03*
%TO.P,C8,2*%
%TO.N,+5V*%
X107850000Y-95685000D03*
%TD*%
D11*
%TO.P,FID3,*%
%TO.N,*%
X112800000Y-94600000D03*
%TD*%
D12*
%TO.P,R8,1*%
%TO.N,+5V*%
X110400000Y-94710000D03*
%TO.P,R8,2*%
%TO.N,Net-(U4-VBUS)*%
X110400000Y-93690000D03*
%TD*%
D11*
%TO.P,FID2,*%
%TO.N,*%
X112800000Y-85800000D03*
%TD*%
D13*
%TO.P,Z1,1,I/O1_1*%
%TO.N,Net-(J1-D-)*%
X103662500Y-93850000D03*
%TO.P,Z1,2,eGND_2*%
%TO.N,GND*%
X103662500Y-94800000D03*
%TO.P,Z1,3,I/O2_3*%
%TO.N,Net-(J1-D+)*%
X103662500Y-95750000D03*
%TO.P,Z1,4,I/O2_4*%
%TO.N,Net-(U4-D+)*%
X105937500Y-95750000D03*
%TO.P,Z1,5,VBUS_5*%
%TO.N,+5V*%
X105937500Y-94800000D03*
%TO.P,Z1,6,I/O1_6*%
%TO.N,Net-(U4-D-)*%
X105937500Y-93850000D03*
%TD*%
D14*
%TO.P,C16,1*%
%TO.N,GND*%
X101600000Y-94680000D03*
%TO.P,C16,2*%
%TO.N,VDD*%
X101600000Y-93720000D03*
%TD*%
D15*
%TO.P,U5,A1,GND_A1*%
%TO.N,GND*%
X102750000Y-85175000D03*
%TO.P,U5,A3,P1.09_A3*%
%TO.N,unconnected-(U5-P1.09-PadA3)*%
X102750000Y-86975000D03*
D16*
%TO.P,U5,A9,GND_A9*%
%TO.N,GND*%
X102750000Y-92375000D03*
D15*
%TO.P,U5,B1,GND_B1*%
X103650000Y-85175000D03*
%TO.P,U5,B2,P1.10_B2*%
%TO.N,/LED_RED*%
X103650000Y-86075000D03*
%TO.P,U5,B3,P1.11/AIN4_B3*%
%TO.N,unconnected-(U5-P1.11{slash}AIN4-PadB3)*%
X103650000Y-86975000D03*
%TO.P,U5,B4,P1.12/AIN5_B4*%
%TO.N,unconnected-(U5-P1.12{slash}AIN5-PadB4)*%
X103650000Y-87875000D03*
%TO.P,U5,B5,P1.13/AIN6_B5*%
%TO.N,unconnected-(U5-P1.13{slash}AIN6-PadB5)*%
X103650000Y-88775000D03*
%TO.P,U5,B6,P1.14/AIN7_B6*%
%TO.N,unconnected-(U5-P1.14{slash}AIN7-PadB6)*%
X103650000Y-89675000D03*
%TO.P,U5,B7,GND_B7*%
%TO.N,GND*%
X103650000Y-90575000D03*
%TO.P,U5,B8,VDD_B8*%
%TO.N,VDD*%
X103650000Y-91475000D03*
D16*
%TO.P,U5,B9,GND_B9*%
%TO.N,GND*%
X103650000Y-92375000D03*
D15*
%TO.P,U5,C8,VDDM_C8*%
%TO.N,VDD*%
X104550000Y-91475000D03*
D16*
%TO.P,U5,C9,P1.01/XTAL_C9*%
%TO.N,/P1.01{slash}XTAL*%
X104550000Y-92375000D03*
D15*
%TO.P,U5,D1,GND_D1*%
%TO.N,GND*%
X105450000Y-85175000D03*
%TO.P,U5,D8,P1.00/XTAL_D8*%
%TO.N,/P1.00{slash}XTAL*%
X105450000Y-91475000D03*
D16*
%TO.P,U5,D9,P1.02/NFC_D9*%
%TO.N,/LED_BLUE*%
X105450000Y-92375000D03*
D15*
%TO.P,U5,E1,GND_E1*%
%TO.N,GND*%
X106350000Y-85175000D03*
%TO.P,U5,E8,P1.03_E8*%
%TO.N,unconnected-(U5-P1.03-PadE8)*%
X106350000Y-91475000D03*
D16*
%TO.P,U5,E9,P1.04/AIN0_E9*%
%TO.N,unconnected-(U5-P1.04{slash}AIN0-PadE9)*%
X106350000Y-92375000D03*
D15*
%TO.P,U5,F1,GND_F1*%
%TO.N,GND*%
X107250000Y-85175000D03*
%TO.P,U5,F8,P1.05/AIN1_F8*%
%TO.N,/UART_nRF_TX*%
X107250000Y-91475000D03*
D16*
%TO.P,U5,F9,P1.06/AIN2_F9*%
%TO.N,/UART_nRF_RX*%
X107250000Y-92375000D03*
D15*
%TO.P,U5,G2,~{RESET}_G2*%
%TO.N,/~{RESET}*%
X108150000Y-86075000D03*
%TO.P,U5,G8,P1.08_G8*%
%TO.N,unconnected-(U5-P1.08-PadG8)*%
X108150000Y-91475000D03*
D16*
%TO.P,U5,G9,P1.07/AIN3_G9*%
%TO.N,unconnected-(U5-P1.07{slash}AIN3-PadG9)*%
X108150000Y-92375000D03*
D15*
%TO.P,U5,H2,P0.04_H2*%
%TO.N,/BUTTON*%
X109050000Y-86075000D03*
%TO.P,U5,H8,GND_H8*%
%TO.N,GND*%
X109050000Y-91475000D03*
D16*
%TO.P,U5,H9,P2.00_H9*%
%TO.N,unconnected-(U5-P2.00-PadH9)*%
X109050000Y-92375000D03*
D15*
%TO.P,U5,J2,P0.03_J2*%
%TO.N,unconnected-(U5-P0.03-PadJ2)*%
X109950000Y-86075000D03*
%TO.P,U5,J3,SWDIO_J3*%
%TO.N,Net-(J2-Pin_3)*%
X109950000Y-86975000D03*
%TO.P,U5,J4,P0.00_J4*%
%TO.N,unconnected-(U5-P0.00-PadJ4)*%
X109950000Y-87875000D03*
%TO.P,U5,J5,P2.09_J5*%
%TO.N,unconnected-(U5-P2.09-PadJ5)*%
X109950000Y-88775000D03*
%TO.P,U5,J6,P2.07_J6*%
%TO.N,unconnected-(U5-P2.07-PadJ6)*%
X109950000Y-89675000D03*
%TO.P,U5,J7,P2.03_J7*%
%TO.N,unconnected-(U5-P2.03-PadJ7)*%
X109950000Y-90575000D03*
%TO.P,U5,J8,P2.02_J8*%
%TO.N,unconnected-(U5-P2.02-PadJ8)*%
X109950000Y-91475000D03*
D16*
%TO.P,U5,J9,P2.01_J9*%
%TO.N,unconnected-(U5-P2.01-PadJ9)*%
X109950000Y-92375000D03*
D15*
%TO.P,U5,K2,P0.02_K2*%
%TO.N,unconnected-(U5-P0.02-PadK2)*%
X110850000Y-86075000D03*
%TO.P,U5,K3,SWDCLK_K3*%
%TO.N,Net-(J2-Pin_2)*%
X110850000Y-86975000D03*
%TO.P,U5,K4,P0.01_K4*%
%TO.N,unconnected-(U5-P0.01-PadK4)*%
X110850000Y-87875000D03*
%TO.P,U5,K5,P2.10_K5*%
%TO.N,unconnected-(U5-P2.10-PadK5)*%
X110850000Y-88775000D03*
%TO.P,U5,K6,P2.08_K6*%
%TO.N,unconnected-(U5-P2.08-PadK6)*%
X110850000Y-89675000D03*
%TO.P,U5,K7,P2.06_K7*%
%TO.N,unconnected-(U5-P2.06-PadK7)*%
X110850000Y-90575000D03*
%TO.P,U5,K8,P2.05_K8*%
%TO.N,unconnected-(U5-P2.05-PadK8)*%
X110850000Y-91475000D03*
D16*
%TO.P,U5,K9,P2.04_K9*%
%TO.N,unconnected-(U5-P2.04-PadK9)*%
X110850000Y-92375000D03*
%TD*%
D11*
%TO.P,FID1,*%
%TO.N,*%
X101000000Y-85800000D03*
%TD*%
D17*
%TO.P,R9,1*%
%TO.N,Net-(U4-VBUS)*%
X109400000Y-93690000D03*
%TO.P,R9,2*%
%TO.N,GND*%
X109400000Y-94710000D03*
%TD*%
D18*
%TO.P,J1,SH,Shield_SH*%
%TO.N,GND*%
X112650000Y-97200000D03*
X100950000Y-97200000D03*
%TD*%
D19*
%TO.N,GND*%
X110630100Y-84219000D03*
X102549600Y-85697100D03*
X106620800Y-90996000D03*
X107100000Y-93700000D03*
X111300000Y-93800000D03*
X105452000Y-89651600D03*
X100425000Y-91256100D03*
X101400000Y-90126100D03*
X108310000Y-85220000D03*
X101650000Y-87948000D03*
X106550500Y-87779300D03*
X108800000Y-90600000D03*
%TO.N,+5V*%
X107360000Y-87670000D03*
X107125000Y-94800000D03*
%TO.N,Net-(U4-VBUS)*%
X107550000Y-87270000D03*
%TO.N,Net-(J1-D-)*%
X104562100Y-93654900D03*
%TO.N,Net-(J1-D+)*%
X106543600Y-96408600D03*
%TO.N,Net-(U4-D+)*%
X104883800Y-89882000D03*
%TO.N,Net-(U4-D-)*%
X106426200Y-89231700D03*
%TO.N,VDD*%
X102100000Y-93500000D03*
X111500000Y-86300000D03*
X105100000Y-83900000D03*
X106700000Y-88200000D03*
X103300000Y-91900000D03*
X110080000Y-85120000D03*
X104100000Y-91000000D03*
%TO.N,/LED_RED*%
X104398800Y-90613600D03*
%TO.N,/P1.01{slash}XTAL*%
X104211500Y-93068500D03*
%TO.N,/P1.00{slash}XTAL*%
X105450000Y-91040000D03*
%TO.N,/LED_BLUE*%
X111500000Y-92900000D03*
X106000000Y-93200000D03*
X111500000Y-87300000D03*
%TO.N,/UART_nRF_TX*%
X107040000Y-91640000D03*
%TO.N,/UART_nRF_RX*%
X107520000Y-91069000D03*
%TO.N,/~{RESET}*%
X102179300Y-84878200D03*
X106002300Y-90143500D03*
%TO.N,/BUTTON*%
X107680000Y-85970000D03*
%TO.N,Net-(J2-Pin_3)*%
X109412100Y-85460000D03*
%TO.N,Net-(J2-Pin_2)*%
X110861900Y-85283700D03*
%TO.N,Net-(D8-A)*%
X111944500Y-92555300D03*
X106640000Y-85673500D03*
%TD*%
%TO.N,GND*%
D20*
X108800000Y-90700000D02*
X109050000Y-90950000D01*
X109050000Y-90950000D02*
X109050000Y-91475000D01*
X108800000Y-90600000D02*
X108800000Y-90700000D01*
X107425000Y-94025000D02*
X107100000Y-93700000D01*
X108000000Y-94025000D02*
X107425000Y-94025000D01*
%TO.N,+5V*%
X107225000Y-94800000D02*
X107125000Y-94800000D01*
X108400000Y-91230025D02*
X108500000Y-91330025D01*
X108000000Y-95575000D02*
X107225000Y-94800000D01*
X108000000Y-95575000D02*
X108345200Y-95575000D01*
X108400000Y-92122952D02*
X108510500Y-92233452D01*
X108400000Y-88582700D02*
X108400000Y-91230025D01*
X107125000Y-94800000D02*
X105937500Y-94800000D01*
X108510500Y-92940944D02*
X108500000Y-92951444D01*
X108400000Y-91719975D02*
X108400000Y-92122952D01*
X108625000Y-93638436D02*
X108625000Y-93641100D01*
X107360000Y-87670000D02*
X107487300Y-87670000D01*
X109967500Y-95142500D02*
X110400000Y-94710000D01*
X108500000Y-91619975D02*
X108400000Y-91719975D01*
X108625000Y-93641100D02*
X108777700Y-93793800D01*
X108500000Y-92951444D02*
X108500000Y-93513436D01*
X108500000Y-93513436D02*
X108625000Y-93638436D01*
X107487300Y-87670000D02*
X108400000Y-88582700D01*
X108777700Y-95142500D02*
X109967500Y-95142500D01*
X108777700Y-93793800D02*
X108777700Y-95142500D01*
X108345200Y-95575000D02*
X108777700Y-95142500D01*
X108500000Y-91330025D02*
X108500000Y-91619975D01*
X108510500Y-92233452D02*
X108510500Y-92940944D01*
%TO.N,Net-(U4-VBUS)*%
X107921600Y-87644680D02*
X107921600Y-87670100D01*
X109600000Y-89348500D02*
X109600000Y-92222952D01*
X107921600Y-87670100D02*
X109600000Y-89348500D01*
X109589500Y-92233452D02*
X109589500Y-92940944D01*
X110400000Y-93690000D02*
X109400000Y-93690000D01*
X109600000Y-93490000D02*
X109400000Y-93690000D01*
X109600000Y-92222952D02*
X109589500Y-92233452D01*
X107731220Y-87454300D02*
X107921600Y-87644680D01*
X109600000Y-92951444D02*
X109600000Y-93490000D01*
X107550000Y-87270000D02*
X107731220Y-87451220D01*
X109589500Y-92940944D02*
X109600000Y-92951444D01*
X107731220Y-87451220D02*
X107731220Y-87454300D01*
%TO.N,Net-(J1-D-)*%
X104367000Y-93850000D02*
X104562100Y-93654900D01*
X103662500Y-93850000D02*
X104367000Y-93850000D01*
%TO.N,Net-(J1-D+)*%
X104312500Y-96400000D02*
X106535000Y-96400000D01*
X106535000Y-96400000D02*
X106543600Y-96408600D01*
X103662500Y-95750000D02*
X104312500Y-96400000D01*
%TO.N,Net-(U4-D+)*%
X104883800Y-89882000D02*
X105000000Y-89998200D01*
X105000000Y-89998200D02*
X105000000Y-94972100D01*
X105000000Y-94972100D02*
X105777900Y-95750000D01*
X105777900Y-95750000D02*
X105937500Y-95750000D01*
%TO.N,Net-(U4-D-)*%
X106299600Y-91828700D02*
X106118500Y-91828700D01*
X106749100Y-92278200D02*
X106710500Y-92239600D01*
X106710500Y-92239600D02*
X106710500Y-92233452D01*
X106490900Y-92020000D02*
X106299600Y-91828700D01*
X106118500Y-91828700D02*
X105937500Y-91647700D01*
X106426200Y-90273800D02*
X106426200Y-89231700D01*
X105937500Y-93850000D02*
X106749100Y-93038400D01*
X105937500Y-91647700D02*
X105937500Y-90762500D01*
X106710500Y-92233452D02*
X106497048Y-92020000D01*
X106749100Y-93038400D02*
X106749100Y-92278200D01*
X105937500Y-90762500D02*
X106426200Y-90273800D01*
X106497048Y-92020000D02*
X106490900Y-92020000D01*
%TO.N,VDD*%
X101600000Y-93720000D02*
X101880000Y-93720000D01*
X101880000Y-93720000D02*
X102100000Y-93500000D01*
X104550000Y-91450000D02*
X104100000Y-91000000D01*
X103650000Y-91475000D02*
X103650000Y-91450000D01*
X103650000Y-91450000D02*
X104100000Y-91000000D01*
X104550000Y-91475000D02*
X104550000Y-91450000D01*
%TO.N,/LED_RED*%
X103650000Y-86075000D02*
X104398800Y-86823800D01*
X104398800Y-86823800D02*
X104398800Y-90613600D01*
%TO.N,/P1.01{slash}XTAL*%
X104550000Y-92730000D02*
X104550000Y-92375000D01*
X104211500Y-93068500D02*
X104550000Y-92730000D01*
%TO.N,/P1.00{slash}XTAL*%
X105450000Y-91040000D02*
X105450000Y-91475000D01*
%TO.N,/LED_BLUE*%
X105450000Y-92650000D02*
X106000000Y-93200000D01*
X111500000Y-92900000D02*
X111500000Y-87300000D01*
X105450000Y-92375000D02*
X105450000Y-92650000D01*
%TO.N,/UART_nRF_TX*%
X107085000Y-91640000D02*
X107250000Y-91475000D01*
X107040000Y-91640000D02*
X107085000Y-91640000D01*
%TO.N,/UART_nRF_RX*%
X107520000Y-91069000D02*
X107593500Y-91069000D01*
X107646700Y-91978300D02*
X107250000Y-92375000D01*
X107646700Y-91122200D02*
X107646700Y-91978300D01*
X107593500Y-91069000D02*
X107646700Y-91122200D01*
%TO.N,/~{RESET}*%
X106002300Y-87006600D02*
X106002300Y-90143500D01*
X103765100Y-84769400D02*
X102288100Y-84769400D01*
X108150000Y-86075000D02*
X107218400Y-87006600D01*
X107218400Y-87006600D02*
X106002300Y-87006600D01*
X102288100Y-84769400D02*
X102179300Y-84878200D01*
X106002300Y-87006600D02*
X103765100Y-84769400D01*
%TO.N,/BUTTON*%
X107800000Y-85902400D02*
X108023000Y-85679400D01*
X108023000Y-85679400D02*
X108654400Y-85679400D01*
X107747600Y-85902400D02*
X107800000Y-85902400D01*
X108654400Y-85679400D02*
X109050000Y-86075000D01*
X107680000Y-85970000D02*
X107747600Y-85902400D01*
%TO.N,Net-(J2-Pin_3)*%
X109412100Y-86437100D02*
X109950000Y-86975000D01*
X109412100Y-85460000D02*
X109412100Y-86437100D01*
%TO.N,Net-(J2-Pin_2)*%
X110498300Y-86623300D02*
X110498300Y-85901700D01*
X110675000Y-85725000D02*
X110861900Y-85725000D01*
X110850000Y-86975000D02*
X110498300Y-86623300D01*
X110861900Y-85725000D02*
X110861900Y-85283700D01*
X110498300Y-85901700D02*
X110675000Y-85725000D01*
%TO.N,Net-(D8-A)*%
X106800000Y-85513500D02*
X106800000Y-85126600D01*
X111944500Y-85886900D02*
X111944500Y-92555300D01*
X110848900Y-84791300D02*
X111944500Y-85886900D01*
X106640000Y-85673500D02*
X106800000Y-85513500D01*
X107135300Y-84791300D02*
X110848900Y-84791300D01*
X106800000Y-85126600D02*
X107135300Y-84791300D01*
%TD*%
%TA.AperFunction,Conductor*%
%TO.N,GND*%
G36*
X113285148Y-82914852D02*
G01*
X113299500Y-82949500D01*
X113299500Y-85331968D01*
X113285148Y-85366616D01*
X113250500Y-85380968D01*
X113215852Y-85366616D01*
X113168718Y-85319482D01*
X113168716Y-85319480D01*
X113168713Y-85319478D01*
X113168709Y-85319475D01*
X113031786Y-85240423D01*
X113031782Y-85240422D01*
X112879060Y-85199500D01*
X112879057Y-85199500D01*
X112720943Y-85199500D01*
X112720940Y-85199500D01*
X112568217Y-85240422D01*
X112568213Y-85240423D01*
X112431290Y-85319475D01*
X112431281Y-85319482D01*
X112319482Y-85431281D01*
X112319475Y-85431290D01*
X112240423Y-85568213D01*
X112240422Y-85568217D01*
X112199500Y-85720939D01*
X112199500Y-85740053D01*
X112196557Y-85747158D01*
X112185149Y-85774701D01*
X112150501Y-85789053D01*
X112150500Y-85789052D01*
X112150500Y-85789053D01*
X112115852Y-85774702D01*
X112104727Y-85763577D01*
X112058074Y-85716924D01*
X112058072Y-85716923D01*
X111790958Y-85449809D01*
X110962476Y-84621325D01*
X110888783Y-84590800D01*
X110888782Y-84590800D01*
X107175182Y-84590800D01*
X107095418Y-84590800D01*
X107095416Y-84590800D01*
X107021724Y-84621325D01*
X107021723Y-84621325D01*
X106710050Y-84933000D01*
X106686426Y-84956624D01*
X106669420Y-84973630D01*
X106630024Y-85013025D01*
X106599500Y-85086716D01*
X106599500Y-85359336D01*
X106585148Y-85393984D01*
X106569252Y-85404605D01*
X106484382Y-85439761D01*
X106483940Y-85439944D01*
X106406444Y-85517440D01*
X106406443Y-85517441D01*
X106406443Y-85517442D01*
X106401354Y-85529727D01*
X106364500Y-85618698D01*
X106364500Y-85728301D01*
X106372820Y-85748386D01*
X106406443Y-85829558D01*
X106406444Y-85829559D01*
X106406445Y-85829561D01*
X106483939Y-85907055D01*
X106483940Y-85907055D01*
X106483942Y-85907057D01*
X106585200Y-85949000D01*
X106585202Y-85949000D01*
X106694798Y-85949000D01*
X106694800Y-85949000D01*
X106796058Y-85907057D01*
X106796060Y-85907055D01*
X106796061Y-85907055D01*
X106873555Y-85829561D01*
X106873555Y-85829560D01*
X106873557Y-85829558D01*
X106915500Y-85728300D01*
X106915500Y-85701846D01*
X106929852Y-85667198D01*
X106969976Y-85627074D01*
X107000500Y-85553382D01*
X107000500Y-85473618D01*
X107000500Y-85229946D01*
X107014852Y-85195298D01*
X107203998Y-85006152D01*
X107238646Y-84991800D01*
X109761570Y-84991800D01*
X109796218Y-85006152D01*
X109810570Y-85040800D01*
X109806839Y-85059554D01*
X109804500Y-85065198D01*
X109804500Y-85174801D01*
X109821874Y-85216744D01*
X109846443Y-85276058D01*
X109846444Y-85276059D01*
X109846445Y-85276061D01*
X109923939Y-85353555D01*
X109923940Y-85353555D01*
X109923942Y-85353557D01*
X110025200Y-85395500D01*
X110025202Y-85395500D01*
X110134798Y-85395500D01*
X110134800Y-85395500D01*
X110236058Y-85353557D01*
X110236060Y-85353555D01*
X110236061Y-85353555D01*
X110313555Y-85276061D01*
X110313555Y-85276060D01*
X110313557Y-85276058D01*
X110355500Y-85174800D01*
X110355500Y-85065200D01*
X110353160Y-85059553D01*
X110353159Y-85022051D01*
X110379676Y-84995531D01*
X110398430Y-84991800D01*
X110645888Y-84991800D01*
X110680536Y-85006152D01*
X110694888Y-85040800D01*
X110680536Y-85075448D01*
X110628344Y-85127640D01*
X110586400Y-85228898D01*
X110586400Y-85338501D01*
X110598046Y-85366616D01*
X110628343Y-85439758D01*
X110628344Y-85439759D01*
X110628345Y-85439761D01*
X110638393Y-85449809D01*
X110652745Y-85484457D01*
X110638393Y-85519105D01*
X110622497Y-85529727D01*
X110561424Y-85555024D01*
X110561423Y-85555025D01*
X110424872Y-85691578D01*
X110384726Y-85731724D01*
X110369292Y-85747158D01*
X110328324Y-85788125D01*
X110306737Y-85840242D01*
X110280218Y-85866760D01*
X110242715Y-85866760D01*
X110226819Y-85856138D01*
X110165215Y-85794534D01*
X110165212Y-85794531D01*
X110119693Y-85768250D01*
X110085289Y-85748386D01*
X110085286Y-85748385D01*
X109996147Y-85724500D01*
X109996144Y-85724500D01*
X109903856Y-85724500D01*
X109903853Y-85724500D01*
X109814713Y-85748385D01*
X109814710Y-85748386D01*
X109734794Y-85794527D01*
X109734784Y-85794534D01*
X109696248Y-85833071D01*
X109661600Y-85847423D01*
X109626952Y-85833071D01*
X109612600Y-85798423D01*
X109612600Y-85669411D01*
X109626952Y-85634763D01*
X109645655Y-85616060D01*
X109645657Y-85616058D01*
X109687600Y-85514800D01*
X109687600Y-85405200D01*
X109645657Y-85303942D01*
X109645655Y-85303940D01*
X109645655Y-85303939D01*
X109568161Y-85226445D01*
X109568159Y-85226444D01*
X109568158Y-85226443D01*
X109503113Y-85199500D01*
X109466901Y-85184500D01*
X109466900Y-85184500D01*
X109357300Y-85184500D01*
X109357298Y-85184500D01*
X109256040Y-85226444D01*
X109178544Y-85303940D01*
X109136600Y-85405198D01*
X109136600Y-85514801D01*
X109137694Y-85517442D01*
X109178543Y-85616058D01*
X109178544Y-85616059D01*
X109178544Y-85616060D01*
X109197247Y-85634762D01*
X109197248Y-85634763D01*
X109202475Y-85647383D01*
X109211600Y-85669410D01*
X109211600Y-85691578D01*
X109197248Y-85726226D01*
X109162600Y-85740578D01*
X109149918Y-85738908D01*
X109096147Y-85724500D01*
X109096144Y-85724500D01*
X109003856Y-85724500D01*
X109003346Y-85724500D01*
X108968698Y-85710148D01*
X108767976Y-85509425D01*
X108694283Y-85478900D01*
X108694282Y-85478900D01*
X108062883Y-85478900D01*
X107983118Y-85478900D01*
X107983116Y-85478900D01*
X107909424Y-85509425D01*
X107909423Y-85509425D01*
X107738702Y-85680148D01*
X107704054Y-85694500D01*
X107625198Y-85694500D01*
X107523940Y-85736444D01*
X107446444Y-85813940D01*
X107404500Y-85915198D01*
X107404500Y-86024801D01*
X107414007Y-86047751D01*
X107446443Y-86126058D01*
X107446444Y-86126059D01*
X107446445Y-86126061D01*
X107523939Y-86203555D01*
X107523940Y-86203555D01*
X107523942Y-86203557D01*
X107589645Y-86230772D01*
X107607477Y-86238159D01*
X107633995Y-86264678D01*
X107633995Y-86302181D01*
X107623373Y-86318077D01*
X107149702Y-86791748D01*
X107115054Y-86806100D01*
X106105646Y-86806100D01*
X106070998Y-86791748D01*
X103878676Y-84599425D01*
X103804983Y-84568900D01*
X103804982Y-84568900D01*
X102327982Y-84568900D01*
X102248217Y-84568900D01*
X102226633Y-84577839D01*
X102226633Y-84577840D01*
X102195346Y-84590800D01*
X102175622Y-84598970D01*
X102156870Y-84602700D01*
X102124498Y-84602700D01*
X102023240Y-84644644D01*
X101945744Y-84722140D01*
X101903800Y-84823398D01*
X101903800Y-84933001D01*
X101913586Y-84956625D01*
X101945743Y-85034258D01*
X101945744Y-85034259D01*
X101945745Y-85034261D01*
X102023239Y-85111755D01*
X102023240Y-85111755D01*
X102023242Y-85111757D01*
X102124500Y-85153700D01*
X102124502Y-85153700D01*
X102234098Y-85153700D01*
X102234100Y-85153700D01*
X102335358Y-85111757D01*
X102335360Y-85111755D01*
X102335361Y-85111755D01*
X102412855Y-85034261D01*
X102412856Y-85034259D01*
X102412857Y-85034258D01*
X102426986Y-85000148D01*
X102453505Y-84973630D01*
X102472256Y-84969900D01*
X103661754Y-84969900D01*
X103696402Y-84984252D01*
X105787448Y-87075298D01*
X105801800Y-87109946D01*
X105801800Y-89934088D01*
X105787448Y-89968736D01*
X105768744Y-89987440D01*
X105726800Y-90088698D01*
X105726800Y-90198301D01*
X105740250Y-90230770D01*
X105768743Y-90299558D01*
X105768744Y-90299559D01*
X105768745Y-90299561D01*
X105846239Y-90377055D01*
X105846240Y-90377055D01*
X105846242Y-90377057D01*
X105915069Y-90405566D01*
X105941587Y-90432085D01*
X105941587Y-90469588D01*
X105930965Y-90485484D01*
X105857652Y-90558798D01*
X105823926Y-90592524D01*
X105795725Y-90620725D01*
X105767524Y-90648925D01*
X105737000Y-90722616D01*
X105737000Y-90819088D01*
X105722648Y-90853736D01*
X105688000Y-90868088D01*
X105653352Y-90853736D01*
X105606061Y-90806445D01*
X105606059Y-90806444D01*
X105606058Y-90806443D01*
X105517255Y-90769659D01*
X105504801Y-90764500D01*
X105504800Y-90764500D01*
X105395200Y-90764500D01*
X105395198Y-90764500D01*
X105293940Y-90806444D01*
X105284148Y-90816236D01*
X105249500Y-90830588D01*
X105214852Y-90816236D01*
X105200500Y-90781588D01*
X105200500Y-89958320D01*
X105200499Y-89958316D01*
X105191587Y-89936800D01*
X105169976Y-89884626D01*
X105169973Y-89884623D01*
X105169973Y-89884622D01*
X105167555Y-89881001D01*
X105159300Y-89853783D01*
X105159300Y-89827202D01*
X105159299Y-89827198D01*
X105152295Y-89810289D01*
X105117357Y-89725942D01*
X105117355Y-89725940D01*
X105117355Y-89725939D01*
X105039861Y-89648445D01*
X105039859Y-89648444D01*
X105039858Y-89648443D01*
X104980544Y-89623874D01*
X104938601Y-89606500D01*
X104938600Y-89606500D01*
X104829000Y-89606500D01*
X104828998Y-89606500D01*
X104727740Y-89648444D01*
X104682948Y-89693236D01*
X104648300Y-89707588D01*
X104613652Y-89693236D01*
X104599300Y-89658588D01*
X104599300Y-86783920D01*
X104599299Y-86783916D01*
X104593686Y-86770365D01*
X104568776Y-86710226D01*
X104512374Y-86653824D01*
X104014852Y-86156302D01*
X104000500Y-86121654D01*
X104000500Y-86028853D01*
X103976614Y-85939713D01*
X103976613Y-85939710D01*
X103930472Y-85859794D01*
X103930469Y-85859788D01*
X103865212Y-85794531D01*
X103819693Y-85768250D01*
X103785289Y-85748386D01*
X103785286Y-85748385D01*
X103696147Y-85724500D01*
X103696144Y-85724500D01*
X103603856Y-85724500D01*
X103603853Y-85724500D01*
X103514713Y-85748385D01*
X103514710Y-85748386D01*
X103434794Y-85794527D01*
X103434784Y-85794534D01*
X103369534Y-85859784D01*
X103369527Y-85859794D01*
X103323386Y-85939710D01*
X103323385Y-85939713D01*
X103299500Y-86028853D01*
X103299500Y-86121146D01*
X103323385Y-86210286D01*
X103323386Y-86210289D01*
X103364608Y-86281685D01*
X103369531Y-86290212D01*
X103434788Y-86355469D01*
X103484861Y-86384379D01*
X103512782Y-86400500D01*
X103514712Y-86401614D01*
X103536998Y-86407585D01*
X103603853Y-86425500D01*
X103696654Y-86425500D01*
X103731302Y-86439852D01*
X103887774Y-86596324D01*
X103902126Y-86630972D01*
X103887774Y-86665620D01*
X103853126Y-86679972D01*
X103828626Y-86673407D01*
X103785290Y-86648386D01*
X103785286Y-86648385D01*
X103696147Y-86624500D01*
X103696144Y-86624500D01*
X103603856Y-86624500D01*
X103603853Y-86624500D01*
X103514713Y-86648385D01*
X103514710Y-86648386D01*
X103434794Y-86694527D01*
X103434784Y-86694534D01*
X103369534Y-86759784D01*
X103369527Y-86759794D01*
X103323386Y-86839710D01*
X103323385Y-86839713D01*
X103299500Y-86928853D01*
X103299500Y-87021146D01*
X103323385Y-87110286D01*
X103323386Y-87110289D01*
X103355274Y-87165519D01*
X103369531Y-87190212D01*
X103434788Y-87255469D01*
X103514712Y-87301614D01*
X103536998Y-87307585D01*
X103603853Y-87325500D01*
X103603856Y-87325500D01*
X103696146Y-87325500D01*
X103740716Y-87313557D01*
X103785288Y-87301614D01*
X103865212Y-87255469D01*
X103930469Y-87190212D01*
X103976614Y-87110288D01*
X103996400Y-87036445D01*
X104000500Y-87021146D01*
X104000500Y-86928853D01*
X103976614Y-86839713D01*
X103976613Y-86839710D01*
X103951592Y-86796373D01*
X103946697Y-86759191D01*
X103969527Y-86729438D01*
X104006709Y-86724543D01*
X104028675Y-86737225D01*
X104183948Y-86892498D01*
X104198300Y-86927146D01*
X104198300Y-90404188D01*
X104183948Y-90438836D01*
X104165244Y-90457540D01*
X104123300Y-90558798D01*
X104123300Y-90673226D01*
X104121363Y-90673226D01*
X104115490Y-90702729D01*
X104084305Y-90723560D01*
X104074752Y-90724500D01*
X104045198Y-90724500D01*
X103943940Y-90766444D01*
X103866444Y-90843940D01*
X103824500Y-90945198D01*
X103824500Y-90971654D01*
X103810148Y-91006302D01*
X103706302Y-91110148D01*
X103671654Y-91124500D01*
X103603853Y-91124500D01*
X103514713Y-91148385D01*
X103514710Y-91148386D01*
X103434794Y-91194527D01*
X103434784Y-91194534D01*
X103369534Y-91259784D01*
X103369527Y-91259794D01*
X103323386Y-91339710D01*
X103323385Y-91339713D01*
X103299500Y-91428853D01*
X103299500Y-91521146D01*
X103310666Y-91562818D01*
X103305771Y-91600000D01*
X103276018Y-91622830D01*
X103263336Y-91624500D01*
X103245198Y-91624500D01*
X103143940Y-91666444D01*
X103066444Y-91743940D01*
X103024500Y-91845198D01*
X103024500Y-91845200D01*
X103024500Y-91954800D01*
X103066443Y-92056058D01*
X103066444Y-92056059D01*
X103066445Y-92056061D01*
X103143939Y-92133555D01*
X103143940Y-92133555D01*
X103143942Y-92133557D01*
X103245200Y-92175500D01*
X103245202Y-92175500D01*
X103354798Y-92175500D01*
X103354800Y-92175500D01*
X103456058Y-92133557D01*
X103456060Y-92133555D01*
X103456061Y-92133555D01*
X103533555Y-92056061D01*
X103533555Y-92056060D01*
X103533557Y-92056058D01*
X103575500Y-91954800D01*
X103575500Y-91874500D01*
X103589852Y-91839852D01*
X103624500Y-91825500D01*
X103696146Y-91825500D01*
X103746646Y-91811968D01*
X103785288Y-91801614D01*
X103865212Y-91755469D01*
X103930469Y-91690212D01*
X103976614Y-91610288D01*
X103995812Y-91538641D01*
X104000500Y-91521146D01*
X104000500Y-91428854D01*
X103998142Y-91420055D01*
X103999006Y-91413489D01*
X103996472Y-91407372D01*
X104001366Y-91395555D01*
X104003036Y-91382873D01*
X104010820Y-91372729D01*
X104065353Y-91318195D01*
X104099999Y-91303845D01*
X104134647Y-91318197D01*
X104189175Y-91372725D01*
X104203527Y-91407373D01*
X104201858Y-91420053D01*
X104199500Y-91428855D01*
X104199500Y-91521146D01*
X104223385Y-91610286D01*
X104223386Y-91610289D01*
X104226935Y-91616435D01*
X104269531Y-91690212D01*
X104334788Y-91755469D01*
X104387486Y-91785895D01*
X104405090Y-91796059D01*
X104414712Y-91801614D01*
X104427513Y-91805044D01*
X104503853Y-91825500D01*
X104503856Y-91825500D01*
X104596146Y-91825500D01*
X104646646Y-91811968D01*
X104685288Y-91801614D01*
X104726001Y-91778107D01*
X104763181Y-91773212D01*
X104792935Y-91796042D01*
X104799500Y-91820543D01*
X104799500Y-92021362D01*
X104785148Y-92056010D01*
X104750500Y-92070362D01*
X104725067Y-92062647D01*
X104724922Y-92062919D01*
X104723557Y-92062189D01*
X104723278Y-92062105D01*
X104722798Y-92061784D01*
X104722796Y-92061783D01*
X104649290Y-92031336D01*
X104634412Y-92028377D01*
X104589782Y-92019500D01*
X104510218Y-92019500D01*
X104465587Y-92028377D01*
X104450710Y-92031336D01*
X104450709Y-92031336D01*
X104377202Y-92061783D01*
X104326753Y-92095493D01*
X104270493Y-92151753D01*
X104236783Y-92202202D01*
X104206336Y-92275709D01*
X104206336Y-92275710D01*
X104206336Y-92275711D01*
X104194500Y-92335218D01*
X104194500Y-92335221D01*
X104194500Y-92342525D01*
X104193558Y-92352085D01*
X104189000Y-92374996D01*
X104189000Y-92746880D01*
X104174648Y-92781528D01*
X104158752Y-92792150D01*
X104156700Y-92793000D01*
X104065447Y-92830799D01*
X104055440Y-92834944D01*
X103977944Y-92912440D01*
X103936000Y-93013698D01*
X103936000Y-93123301D01*
X103945071Y-93145200D01*
X103977943Y-93224558D01*
X103977944Y-93224559D01*
X103977945Y-93224561D01*
X104055439Y-93302055D01*
X104055440Y-93302055D01*
X104055442Y-93302057D01*
X104063103Y-93305230D01*
X104089621Y-93331749D01*
X104089621Y-93369252D01*
X104063102Y-93395770D01*
X104044351Y-93399500D01*
X103105141Y-93399500D01*
X103105131Y-93399501D01*
X103080007Y-93402415D01*
X102977233Y-93447794D01*
X102897794Y-93527233D01*
X102852415Y-93630006D01*
X102849500Y-93655134D01*
X102849500Y-94044858D01*
X102849501Y-94044868D01*
X102852415Y-94069992D01*
X102897794Y-94172766D01*
X102977233Y-94252205D01*
X103080006Y-94297584D01*
X103080009Y-94297585D01*
X103105135Y-94300500D01*
X104219864Y-94300499D01*
X104244991Y-94297585D01*
X104347765Y-94252206D01*
X104427206Y-94172765D01*
X104472585Y-94069991D01*
X104475500Y-94044865D01*
X104475499Y-94044847D01*
X104475581Y-94043458D01*
X104475662Y-94043462D01*
X104475663Y-94043459D01*
X104475726Y-94043466D01*
X104476264Y-94043497D01*
X104482702Y-94027955D01*
X104489813Y-94010736D01*
X104555798Y-93944752D01*
X104590446Y-93930400D01*
X104616898Y-93930400D01*
X104616900Y-93930400D01*
X104718158Y-93888457D01*
X104718162Y-93888452D01*
X104722174Y-93885774D01*
X104723414Y-93887631D01*
X104750500Y-93876412D01*
X104785148Y-93890764D01*
X104799500Y-93925412D01*
X104799500Y-95011983D01*
X104812143Y-95042507D01*
X104830024Y-95085674D01*
X104830025Y-95085675D01*
X104830025Y-95085676D01*
X105148688Y-95404338D01*
X105163040Y-95438986D01*
X105158865Y-95458777D01*
X105127415Y-95530006D01*
X105124500Y-95555134D01*
X105124500Y-95944858D01*
X105124501Y-95944868D01*
X105127415Y-95969992D01*
X105172794Y-96072766D01*
X105215880Y-96115852D01*
X105230232Y-96150500D01*
X105215880Y-96185148D01*
X105181232Y-96199500D01*
X104418767Y-96199500D01*
X104384119Y-96185148D01*
X104369767Y-96150500D01*
X104384119Y-96115852D01*
X104384119Y-96115851D01*
X104427206Y-96072765D01*
X104472585Y-95969991D01*
X104475500Y-95944865D01*
X104475499Y-95555136D01*
X104472585Y-95530009D01*
X104427206Y-95427235D01*
X104427205Y-95427234D01*
X104427205Y-95427233D01*
X104347766Y-95347794D01*
X104347767Y-95347794D01*
X104244993Y-95302415D01*
X104232428Y-95300957D01*
X104219865Y-95299500D01*
X104219863Y-95299500D01*
X103105141Y-95299500D01*
X103105131Y-95299501D01*
X103080007Y-95302415D01*
X102977233Y-95347794D01*
X102897794Y-95427233D01*
X102852415Y-95530006D01*
X102849500Y-95555134D01*
X102849500Y-95944858D01*
X102849501Y-95944868D01*
X102852415Y-95969992D01*
X102897794Y-96072766D01*
X102977233Y-96152205D01*
X103080006Y-96197584D01*
X103080009Y-96197585D01*
X103105135Y-96200500D01*
X103809153Y-96200499D01*
X103843801Y-96214851D01*
X104133918Y-96504968D01*
X104148270Y-96539616D01*
X104133918Y-96574264D01*
X104126494Y-96580358D01*
X104071584Y-96617048D01*
X103967048Y-96721584D01*
X103884914Y-96844508D01*
X103828342Y-96981084D01*
X103828340Y-96981093D01*
X103799500Y-97126078D01*
X103799500Y-97273921D01*
X103828340Y-97418906D01*
X103828342Y-97418915D01*
X103884914Y-97555491D01*
X103884916Y-97555495D01*
X103967049Y-97678416D01*
X104071584Y-97782951D01*
X104194505Y-97865084D01*
X104262796Y-97893371D01*
X104331084Y-97921657D01*
X104331085Y-97921657D01*
X104331087Y-97921658D01*
X104476082Y-97950500D01*
X104623918Y-97950500D01*
X104768913Y-97921658D01*
X104905495Y-97865084D01*
X105028416Y-97782951D01*
X105132951Y-97678416D01*
X105215084Y-97555495D01*
X105271658Y-97418913D01*
X105300500Y-97273918D01*
X105300500Y-97126082D01*
X105300499Y-97126078D01*
X108299500Y-97126078D01*
X108299500Y-97273921D01*
X108328340Y-97418906D01*
X108328342Y-97418915D01*
X108384914Y-97555491D01*
X108384916Y-97555495D01*
X108467049Y-97678416D01*
X108571584Y-97782951D01*
X108694505Y-97865084D01*
X108762796Y-97893371D01*
X108831084Y-97921657D01*
X108831085Y-97921657D01*
X108831087Y-97921658D01*
X108976082Y-97950500D01*
X109123918Y-97950500D01*
X109268913Y-97921658D01*
X109405495Y-97865084D01*
X109528416Y-97782951D01*
X109632951Y-97678416D01*
X109715084Y-97555495D01*
X109771658Y-97418913D01*
X109800500Y-97273918D01*
X109800500Y-97126082D01*
X109771658Y-96981087D01*
X109715084Y-96844505D01*
X109632951Y-96721584D01*
X109528416Y-96617049D01*
X109405495Y-96534916D01*
X109405492Y-96534914D01*
X109405491Y-96534914D01*
X109268915Y-96478342D01*
X109268906Y-96478340D01*
X109123921Y-96449500D01*
X109123918Y-96449500D01*
X108976082Y-96449500D01*
X108976078Y-96449500D01*
X108831093Y-96478340D01*
X108831084Y-96478342D01*
X108694508Y-96534914D01*
X108571584Y-96617048D01*
X108467048Y-96721584D01*
X108384914Y-96844508D01*
X108328342Y-96981084D01*
X108328340Y-96981093D01*
X108299500Y-97126078D01*
X105300499Y-97126078D01*
X105271658Y-96981087D01*
X105215084Y-96844505D01*
X105132951Y-96721584D01*
X105095515Y-96684148D01*
X105081163Y-96649500D01*
X105095515Y-96614852D01*
X105130163Y-96600500D01*
X106325589Y-96600500D01*
X106360237Y-96614852D01*
X106387542Y-96642157D01*
X106488800Y-96684100D01*
X106488802Y-96684100D01*
X106598398Y-96684100D01*
X106598400Y-96684100D01*
X106699658Y-96642157D01*
X106699660Y-96642155D01*
X106699661Y-96642155D01*
X106777155Y-96564661D01*
X106777155Y-96564660D01*
X106777157Y-96564658D01*
X106819100Y-96463400D01*
X106819100Y-96353800D01*
X106777157Y-96252542D01*
X106777155Y-96252540D01*
X106777155Y-96252539D01*
X106699661Y-96175045D01*
X106699659Y-96175044D01*
X106699658Y-96175043D01*
X106696887Y-96173895D01*
X106670370Y-96147377D01*
X106670370Y-96109874D01*
X106680989Y-96093981D01*
X106702206Y-96072765D01*
X106747585Y-95969991D01*
X106750500Y-95944865D01*
X106750499Y-95555136D01*
X106747585Y-95530009D01*
X106702206Y-95427235D01*
X106702205Y-95427234D01*
X106702205Y-95427233D01*
X106622767Y-95347795D01*
X106559420Y-95319824D01*
X106533522Y-95292699D01*
X106534388Y-95255206D01*
X106559420Y-95230175D01*
X106622765Y-95202206D01*
X106622766Y-95202206D01*
X106702205Y-95122766D01*
X106702206Y-95122765D01*
X106730162Y-95059450D01*
X106743295Y-95029708D01*
X106770419Y-95003809D01*
X106788120Y-95000500D01*
X106915589Y-95000500D01*
X106950237Y-95014852D01*
X106950238Y-95014853D01*
X106968939Y-95033555D01*
X106968940Y-95033555D01*
X106968942Y-95033557D01*
X107070200Y-95075500D01*
X107070202Y-95075500D01*
X107179799Y-95075500D01*
X107179800Y-95075500D01*
X107179800Y-95075499D01*
X107184535Y-95074558D01*
X107185053Y-95077165D01*
X107213242Y-95077114D01*
X107229220Y-95087770D01*
X107300557Y-95159107D01*
X107314909Y-95193755D01*
X107300560Y-95228401D01*
X107290175Y-95238786D01*
X107290173Y-95238789D01*
X107235135Y-95351371D01*
X107235134Y-95351373D01*
X107224500Y-95424362D01*
X107224500Y-95945637D01*
X107235134Y-96018626D01*
X107235135Y-96018628D01*
X107290172Y-96131208D01*
X107290173Y-96131210D01*
X107290174Y-96131211D01*
X107378789Y-96219826D01*
X107491375Y-96274866D01*
X107543094Y-96282401D01*
X107564362Y-96285500D01*
X107564364Y-96285500D01*
X108135638Y-96285500D01*
X108154201Y-96282795D01*
X108208625Y-96274866D01*
X108321211Y-96219826D01*
X108409826Y-96131211D01*
X108464866Y-96018625D01*
X108475500Y-95945636D01*
X108475500Y-95748545D01*
X108489852Y-95713897D01*
X108846397Y-95357352D01*
X108881045Y-95343000D01*
X110007380Y-95343000D01*
X110007382Y-95343000D01*
X110081074Y-95312476D01*
X110248697Y-95144850D01*
X110283345Y-95130499D01*
X110627618Y-95130499D01*
X110627622Y-95130499D01*
X110651498Y-95127730D01*
X110749141Y-95084616D01*
X110824616Y-95009141D01*
X110867730Y-94911498D01*
X110867730Y-94911496D01*
X110867731Y-94911494D01*
X110870498Y-94887640D01*
X110870497Y-94887640D01*
X110870500Y-94887623D01*
X110870499Y-94532378D01*
X110867730Y-94508502D01*
X110824616Y-94410859D01*
X110824615Y-94410858D01*
X110824615Y-94410857D01*
X110749142Y-94335384D01*
X110651500Y-94292270D01*
X110651494Y-94292268D01*
X110627640Y-94289501D01*
X110627625Y-94289500D01*
X110627623Y-94289500D01*
X110627620Y-94289500D01*
X110172382Y-94289500D01*
X110172373Y-94289501D01*
X110148500Y-94292270D01*
X110050857Y-94335384D01*
X109975384Y-94410857D01*
X109932270Y-94508499D01*
X109932268Y-94508505D01*
X109929501Y-94532359D01*
X109929500Y-94532379D01*
X109929500Y-94876651D01*
X109915150Y-94911297D01*
X109898803Y-94927646D01*
X109864156Y-94942000D01*
X109027200Y-94942000D01*
X108992552Y-94927648D01*
X108978200Y-94893000D01*
X108978200Y-94107733D01*
X108992552Y-94073085D01*
X109027200Y-94058733D01*
X109046993Y-94062908D01*
X109050857Y-94064614D01*
X109050859Y-94064616D01*
X109139629Y-94103812D01*
X109148502Y-94107730D01*
X109148505Y-94107731D01*
X109172359Y-94110498D01*
X109172360Y-94110498D01*
X109172377Y-94110500D01*
X109627622Y-94110499D01*
X109651498Y-94107730D01*
X109749141Y-94064616D01*
X109824616Y-93989141D01*
X109855175Y-93919930D01*
X109882299Y-93894032D01*
X109919792Y-93894898D01*
X109944824Y-93919930D01*
X109948238Y-93927662D01*
X109975384Y-93989142D01*
X110050857Y-94064615D01*
X110050858Y-94064615D01*
X110050859Y-94064616D01*
X110063037Y-94069993D01*
X110148499Y-94107729D01*
X110148505Y-94107731D01*
X110172359Y-94110498D01*
X110172360Y-94110498D01*
X110172377Y-94110500D01*
X110627622Y-94110499D01*
X110651498Y-94107730D01*
X110749141Y-94064616D01*
X110824616Y-93989141D01*
X110867730Y-93891498D01*
X110867730Y-93891496D01*
X110867731Y-93891494D01*
X110870498Y-93867640D01*
X110870497Y-93867640D01*
X110870500Y-93867623D01*
X110870499Y-93512378D01*
X110867730Y-93488502D01*
X110824616Y-93390859D01*
X110824615Y-93390858D01*
X110824615Y-93390857D01*
X110749142Y-93315384D01*
X110651500Y-93272270D01*
X110651494Y-93272268D01*
X110627640Y-93269501D01*
X110627625Y-93269500D01*
X110627623Y-93269500D01*
X110627620Y-93269500D01*
X110172382Y-93269500D01*
X110172373Y-93269501D01*
X110148500Y-93272270D01*
X110050857Y-93315384D01*
X109975384Y-93390857D01*
X109944825Y-93460068D01*
X109917701Y-93485967D01*
X109880208Y-93485101D01*
X109855175Y-93460068D01*
X109848406Y-93444738D01*
X109824616Y-93390859D01*
X109824615Y-93390858D01*
X109824615Y-93390857D01*
X109814852Y-93381094D01*
X109800500Y-93346446D01*
X109800500Y-93085000D01*
X109814852Y-93050352D01*
X109849500Y-93036000D01*
X110150000Y-93036000D01*
X110209511Y-93024162D01*
X110213400Y-93022551D01*
X110248548Y-93002258D01*
X110297551Y-92938400D01*
X110299162Y-92934511D01*
X110311000Y-92875000D01*
X110311000Y-92375000D01*
X110306442Y-92352085D01*
X110307421Y-92347162D01*
X110305500Y-92342525D01*
X110305500Y-92335221D01*
X110305500Y-92335218D01*
X110293664Y-92275711D01*
X110263216Y-92202202D01*
X110229507Y-92151754D01*
X110173246Y-92095493D01*
X110147366Y-92078200D01*
X110122797Y-92061783D01*
X110049290Y-92031336D01*
X110034412Y-92028377D01*
X109989782Y-92019500D01*
X109910218Y-92019500D01*
X109859057Y-92029675D01*
X109822276Y-92022359D01*
X109801441Y-91991176D01*
X109800500Y-91981617D01*
X109800500Y-91861664D01*
X109814852Y-91827016D01*
X109849500Y-91812664D01*
X109862182Y-91814334D01*
X109903853Y-91825500D01*
X109903856Y-91825500D01*
X109996146Y-91825500D01*
X110046646Y-91811968D01*
X110085288Y-91801614D01*
X110165212Y-91755469D01*
X110230469Y-91690212D01*
X110276614Y-91610288D01*
X110295812Y-91538641D01*
X110300500Y-91521146D01*
X110300500Y-91428853D01*
X110499500Y-91428853D01*
X110499500Y-91521146D01*
X110523385Y-91610286D01*
X110523386Y-91610289D01*
X110526935Y-91616435D01*
X110569531Y-91690212D01*
X110634788Y-91755469D01*
X110687486Y-91785895D01*
X110705090Y-91796059D01*
X110714712Y-91801614D01*
X110727513Y-91805044D01*
X110803853Y-91825500D01*
X110803856Y-91825500D01*
X110896146Y-91825500D01*
X110946646Y-91811968D01*
X110985288Y-91801614D01*
X111065212Y-91755469D01*
X111130469Y-91690212D01*
X111176614Y-91610288D01*
X111195812Y-91538641D01*
X111200500Y-91521146D01*
X111200500Y-91428853D01*
X111176614Y-91339713D01*
X111176613Y-91339710D01*
X111155906Y-91303845D01*
X111130469Y-91259788D01*
X111065212Y-91194531D01*
X111037370Y-91178456D01*
X110985289Y-91148386D01*
X110985286Y-91148385D01*
X110896147Y-91124500D01*
X110896144Y-91124500D01*
X110803856Y-91124500D01*
X110803853Y-91124500D01*
X110714713Y-91148385D01*
X110714710Y-91148386D01*
X110634794Y-91194527D01*
X110634784Y-91194534D01*
X110569534Y-91259784D01*
X110569527Y-91259794D01*
X110523386Y-91339710D01*
X110523385Y-91339713D01*
X110499500Y-91428853D01*
X110300500Y-91428853D01*
X110276614Y-91339713D01*
X110276613Y-91339710D01*
X110255906Y-91303845D01*
X110230469Y-91259788D01*
X110165212Y-91194531D01*
X110137370Y-91178456D01*
X110085289Y-91148386D01*
X110085286Y-91148385D01*
X109996147Y-91124500D01*
X109996144Y-91124500D01*
X109903856Y-91124500D01*
X109903855Y-91124500D01*
X109862181Y-91135666D01*
X109824999Y-91130770D01*
X109802169Y-91101016D01*
X109800500Y-91088335D01*
X109800500Y-90961664D01*
X109814852Y-90927016D01*
X109849500Y-90912664D01*
X109862182Y-90914334D01*
X109903853Y-90925500D01*
X109903856Y-90925500D01*
X109996146Y-90925500D01*
X110060447Y-90908270D01*
X110085288Y-90901614D01*
X110165212Y-90855469D01*
X110230469Y-90790212D01*
X110276614Y-90710288D01*
X110293056Y-90648925D01*
X110300500Y-90621146D01*
X110300500Y-90528853D01*
X110499500Y-90528853D01*
X110499500Y-90621146D01*
X110523385Y-90710286D01*
X110523386Y-90710289D01*
X110531591Y-90724500D01*
X110569531Y-90790212D01*
X110634788Y-90855469D01*
X110714712Y-90901614D01*
X110723326Y-90903922D01*
X110803853Y-90925500D01*
X110803856Y-90925500D01*
X110896146Y-90925500D01*
X110960447Y-90908270D01*
X110985288Y-90901614D01*
X111065212Y-90855469D01*
X111130469Y-90790212D01*
X111176614Y-90710288D01*
X111193056Y-90648925D01*
X111200500Y-90621146D01*
X111200500Y-90528853D01*
X111182585Y-90461998D01*
X111176614Y-90439712D01*
X111172210Y-90432085D01*
X111146397Y-90387376D01*
X111130469Y-90359788D01*
X111065212Y-90294531D01*
X111059842Y-90291430D01*
X110985289Y-90248386D01*
X110985286Y-90248385D01*
X110896147Y-90224500D01*
X110896144Y-90224500D01*
X110803856Y-90224500D01*
X110803853Y-90224500D01*
X110714713Y-90248385D01*
X110714710Y-90248386D01*
X110634794Y-90294527D01*
X110634784Y-90294534D01*
X110569534Y-90359784D01*
X110569527Y-90359794D01*
X110523386Y-90439710D01*
X110523385Y-90439713D01*
X110499500Y-90528853D01*
X110300500Y-90528853D01*
X110282585Y-90461998D01*
X110276614Y-90439712D01*
X110272210Y-90432085D01*
X110246397Y-90387376D01*
X110230469Y-90359788D01*
X110165212Y-90294531D01*
X110159842Y-90291430D01*
X110085289Y-90248386D01*
X110085286Y-90248385D01*
X109996147Y-90224500D01*
X109996144Y-90224500D01*
X109903856Y-90224500D01*
X109903855Y-90224500D01*
X109862181Y-90235666D01*
X109824999Y-90230770D01*
X109802169Y-90201016D01*
X109800500Y-90188335D01*
X109800500Y-90061664D01*
X109814852Y-90027016D01*
X109849500Y-90012664D01*
X109862182Y-90014334D01*
X109903853Y-90025500D01*
X109903856Y-90025500D01*
X109996146Y-90025500D01*
X110044049Y-90012664D01*
X110085288Y-90001614D01*
X110165212Y-89955469D01*
X110230469Y-89890212D01*
X110276614Y-89810288D01*
X110288557Y-89765716D01*
X110300500Y-89721146D01*
X110300500Y-89628853D01*
X110499500Y-89628853D01*
X110499500Y-89721146D01*
X110523385Y-89810286D01*
X110523386Y-89810289D01*
X110533149Y-89827198D01*
X110569531Y-89890212D01*
X110634788Y-89955469D01*
X110714712Y-90001614D01*
X110736998Y-90007585D01*
X110803853Y-90025500D01*
X110803856Y-90025500D01*
X110896146Y-90025500D01*
X110944049Y-90012664D01*
X110985288Y-90001614D01*
X111065212Y-89955469D01*
X111130469Y-89890212D01*
X111176614Y-89810288D01*
X111188557Y-89765716D01*
X111200500Y-89721146D01*
X111200500Y-89628853D01*
X111176614Y-89539713D01*
X111176613Y-89539710D01*
X111130472Y-89459794D01*
X111130469Y-89459788D01*
X111065212Y-89394531D01*
X111053481Y-89387758D01*
X110985289Y-89348386D01*
X110985286Y-89348385D01*
X110896147Y-89324500D01*
X110896144Y-89324500D01*
X110803856Y-89324500D01*
X110803853Y-89324500D01*
X110714713Y-89348385D01*
X110714710Y-89348386D01*
X110634794Y-89394527D01*
X110634784Y-89394534D01*
X110569534Y-89459784D01*
X110569527Y-89459794D01*
X110523386Y-89539710D01*
X110523385Y-89539713D01*
X110499500Y-89628853D01*
X110300500Y-89628853D01*
X110276614Y-89539713D01*
X110276613Y-89539710D01*
X110230472Y-89459794D01*
X110230469Y-89459788D01*
X110165212Y-89394531D01*
X110153481Y-89387758D01*
X110085289Y-89348386D01*
X110085286Y-89348385D01*
X109996147Y-89324500D01*
X109996144Y-89324500D01*
X109903856Y-89324500D01*
X109903853Y-89324500D01*
X109858254Y-89336718D01*
X109821072Y-89331823D01*
X109800302Y-89308140D01*
X109791337Y-89286497D01*
X109769976Y-89234926D01*
X109713574Y-89178524D01*
X109263903Y-88728853D01*
X109599500Y-88728853D01*
X109599500Y-88821146D01*
X109623385Y-88910286D01*
X109623386Y-88910289D01*
X109647875Y-88952703D01*
X109669531Y-88990212D01*
X109734788Y-89055469D01*
X109814712Y-89101614D01*
X109836998Y-89107585D01*
X109903853Y-89125500D01*
X109903856Y-89125500D01*
X109996146Y-89125500D01*
X110040716Y-89113557D01*
X110085288Y-89101614D01*
X110165212Y-89055469D01*
X110230469Y-88990212D01*
X110276614Y-88910288D01*
X110288557Y-88865716D01*
X110300500Y-88821146D01*
X110300500Y-88728853D01*
X110499500Y-88728853D01*
X110499500Y-88821146D01*
X110523385Y-88910286D01*
X110523386Y-88910289D01*
X110547875Y-88952703D01*
X110569531Y-88990212D01*
X110634788Y-89055469D01*
X110714712Y-89101614D01*
X110736998Y-89107585D01*
X110803853Y-89125500D01*
X110803856Y-89125500D01*
X110896146Y-89125500D01*
X110940716Y-89113557D01*
X110985288Y-89101614D01*
X111065212Y-89055469D01*
X111130469Y-88990212D01*
X111176614Y-88910288D01*
X111188557Y-88865716D01*
X111200500Y-88821146D01*
X111200500Y-88728853D01*
X111176614Y-88639713D01*
X111176613Y-88639710D01*
X111130472Y-88559794D01*
X111130469Y-88559788D01*
X111065212Y-88494531D01*
X111032250Y-88475500D01*
X110985289Y-88448386D01*
X110985286Y-88448385D01*
X110896147Y-88424500D01*
X110896144Y-88424500D01*
X110803856Y-88424500D01*
X110803853Y-88424500D01*
X110714713Y-88448385D01*
X110714710Y-88448386D01*
X110634794Y-88494527D01*
X110634784Y-88494534D01*
X110569534Y-88559784D01*
X110569527Y-88559794D01*
X110523386Y-88639710D01*
X110523385Y-88639713D01*
X110499500Y-88728853D01*
X110300500Y-88728853D01*
X110276614Y-88639713D01*
X110276613Y-88639710D01*
X110230472Y-88559794D01*
X110230469Y-88559788D01*
X110165212Y-88494531D01*
X110132250Y-88475500D01*
X110085289Y-88448386D01*
X110085286Y-88448385D01*
X109996147Y-88424500D01*
X109996144Y-88424500D01*
X109903856Y-88424500D01*
X109903853Y-88424500D01*
X109814713Y-88448385D01*
X109814710Y-88448386D01*
X109734794Y-88494527D01*
X109734784Y-88494534D01*
X109669534Y-88559784D01*
X109669527Y-88559794D01*
X109623386Y-88639710D01*
X109623385Y-88639713D01*
X109599500Y-88728853D01*
X109263903Y-88728853D01*
X108363903Y-87828853D01*
X109599500Y-87828853D01*
X109599500Y-87921146D01*
X109623385Y-88010286D01*
X109623386Y-88010289D01*
X109666430Y-88084842D01*
X109669531Y-88090212D01*
X109734788Y-88155469D01*
X109814712Y-88201614D01*
X109836998Y-88207585D01*
X109903853Y-88225500D01*
X109903856Y-88225500D01*
X109996146Y-88225500D01*
X110040716Y-88213557D01*
X110085288Y-88201614D01*
X110165212Y-88155469D01*
X110230469Y-88090212D01*
X110276614Y-88010288D01*
X110295675Y-87939151D01*
X110300500Y-87921146D01*
X110300500Y-87828853D01*
X110499500Y-87828853D01*
X110499500Y-87921146D01*
X110523385Y-88010286D01*
X110523386Y-88010289D01*
X110566430Y-88084842D01*
X110569531Y-88090212D01*
X110634788Y-88155469D01*
X110714712Y-88201614D01*
X110736998Y-88207585D01*
X110803853Y-88225500D01*
X110803856Y-88225500D01*
X110896146Y-88225500D01*
X110940716Y-88213557D01*
X110985288Y-88201614D01*
X111065212Y-88155469D01*
X111130469Y-88090212D01*
X111176614Y-88010288D01*
X111195675Y-87939151D01*
X111200500Y-87921146D01*
X111200500Y-87828853D01*
X111176614Y-87739713D01*
X111176613Y-87739710D01*
X111130472Y-87659794D01*
X111130469Y-87659788D01*
X111065212Y-87594531D01*
X111030518Y-87574500D01*
X110985289Y-87548386D01*
X110985286Y-87548385D01*
X110896147Y-87524500D01*
X110896144Y-87524500D01*
X110803856Y-87524500D01*
X110803853Y-87524500D01*
X110714713Y-87548385D01*
X110714710Y-87548386D01*
X110634794Y-87594527D01*
X110634784Y-87594534D01*
X110569534Y-87659784D01*
X110569527Y-87659794D01*
X110523386Y-87739710D01*
X110523385Y-87739713D01*
X110499500Y-87828853D01*
X110300500Y-87828853D01*
X110276614Y-87739713D01*
X110276613Y-87739710D01*
X110230472Y-87659794D01*
X110230469Y-87659788D01*
X110165212Y-87594531D01*
X110130518Y-87574500D01*
X110085289Y-87548386D01*
X110085286Y-87548385D01*
X109996147Y-87524500D01*
X109996144Y-87524500D01*
X109903856Y-87524500D01*
X109903853Y-87524500D01*
X109814713Y-87548385D01*
X109814710Y-87548386D01*
X109734794Y-87594527D01*
X109734784Y-87594534D01*
X109669534Y-87659784D01*
X109669527Y-87659794D01*
X109623386Y-87739710D01*
X109623385Y-87739713D01*
X109599500Y-87828853D01*
X108363903Y-87828853D01*
X108116442Y-87581392D01*
X108105820Y-87565495D01*
X108098733Y-87548385D01*
X108091576Y-87531106D01*
X108035174Y-87474704D01*
X107910267Y-87349797D01*
X107909480Y-87348992D01*
X107903149Y-87342364D01*
X107901196Y-87337646D01*
X107844794Y-87281244D01*
X107839852Y-87276302D01*
X107825500Y-87241654D01*
X107825500Y-87215202D01*
X107825499Y-87215198D01*
X107818091Y-87197313D01*
X107783557Y-87113942D01*
X107783555Y-87113940D01*
X107783555Y-87113939D01*
X107706061Y-87036445D01*
X107706059Y-87036444D01*
X107706058Y-87036443D01*
X107608379Y-86995982D01*
X107581862Y-86969464D01*
X107581862Y-86931961D01*
X107592482Y-86916067D01*
X108068697Y-86439851D01*
X108103345Y-86425500D01*
X108196146Y-86425500D01*
X108240716Y-86413557D01*
X108285288Y-86401614D01*
X108365212Y-86355469D01*
X108430469Y-86290212D01*
X108476614Y-86210288D01*
X108488557Y-86165716D01*
X108500500Y-86121146D01*
X108500500Y-86028854D01*
X108480870Y-85955597D01*
X108477115Y-85941582D01*
X108477979Y-85935018D01*
X108475445Y-85928900D01*
X108480340Y-85917081D01*
X108482010Y-85904400D01*
X108487263Y-85900368D01*
X108489797Y-85894252D01*
X108501613Y-85889357D01*
X108511762Y-85881570D01*
X108524445Y-85879900D01*
X108551054Y-85879900D01*
X108585702Y-85894252D01*
X108685148Y-85993698D01*
X108699500Y-86028346D01*
X108699500Y-86121146D01*
X108723385Y-86210286D01*
X108723386Y-86210289D01*
X108764608Y-86281685D01*
X108769531Y-86290212D01*
X108834788Y-86355469D01*
X108884861Y-86384379D01*
X108912782Y-86400500D01*
X108914712Y-86401614D01*
X108936998Y-86407585D01*
X109003853Y-86425500D01*
X109003856Y-86425500D01*
X109096146Y-86425500D01*
X109121381Y-86418737D01*
X109149918Y-86411091D01*
X109187099Y-86415985D01*
X109209930Y-86445738D01*
X109211600Y-86458421D01*
X109211600Y-86476982D01*
X109242124Y-86550674D01*
X109242125Y-86550675D01*
X109242125Y-86550676D01*
X109585148Y-86893698D01*
X109599500Y-86928346D01*
X109599500Y-87021146D01*
X109623385Y-87110286D01*
X109623386Y-87110289D01*
X109655274Y-87165519D01*
X109669531Y-87190212D01*
X109734788Y-87255469D01*
X109814712Y-87301614D01*
X109836998Y-87307585D01*
X109903853Y-87325500D01*
X109903856Y-87325500D01*
X109996146Y-87325500D01*
X110040716Y-87313557D01*
X110085288Y-87301614D01*
X110165212Y-87255469D01*
X110230469Y-87190212D01*
X110276614Y-87110288D01*
X110296400Y-87036445D01*
X110300500Y-87021146D01*
X110300500Y-86928853D01*
X110276614Y-86839713D01*
X110276614Y-86839712D01*
X110230469Y-86759788D01*
X110165212Y-86694531D01*
X110115138Y-86665620D01*
X110085289Y-86648386D01*
X110085286Y-86648385D01*
X109996147Y-86624500D01*
X109996144Y-86624500D01*
X109903856Y-86624500D01*
X109903346Y-86624500D01*
X109868698Y-86610148D01*
X109712225Y-86453675D01*
X109697873Y-86419027D01*
X109712225Y-86384379D01*
X109746873Y-86370027D01*
X109771373Y-86376592D01*
X109814710Y-86401613D01*
X109814712Y-86401614D01*
X109836998Y-86407585D01*
X109903853Y-86425500D01*
X109903856Y-86425500D01*
X109996146Y-86425500D01*
X110040716Y-86413557D01*
X110085288Y-86401614D01*
X110165212Y-86355469D01*
X110214152Y-86306529D01*
X110248800Y-86292177D01*
X110283448Y-86306529D01*
X110297800Y-86341177D01*
X110297800Y-86663179D01*
X110297801Y-86663186D01*
X110323050Y-86724143D01*
X110323052Y-86724147D01*
X110328324Y-86736874D01*
X110333236Y-86741786D01*
X110333238Y-86741789D01*
X110485148Y-86893698D01*
X110499500Y-86928346D01*
X110499500Y-87021146D01*
X110523385Y-87110286D01*
X110523386Y-87110289D01*
X110555274Y-87165519D01*
X110569531Y-87190212D01*
X110634788Y-87255469D01*
X110714712Y-87301614D01*
X110736998Y-87307585D01*
X110803853Y-87325500D01*
X110803856Y-87325500D01*
X110896146Y-87325500D01*
X110940716Y-87313557D01*
X110985288Y-87301614D01*
X111065212Y-87255469D01*
X111130469Y-87190212D01*
X111176614Y-87110288D01*
X111199601Y-87024500D01*
X111200500Y-87021145D01*
X111200500Y-86928853D01*
X111176614Y-86839713D01*
X111176613Y-86839710D01*
X111144402Y-86783920D01*
X111130469Y-86759788D01*
X111065212Y-86694531D01*
X111015138Y-86665620D01*
X110985289Y-86648386D01*
X110985286Y-86648385D01*
X110896147Y-86624500D01*
X110896144Y-86624500D01*
X110803856Y-86624500D01*
X110803346Y-86624500D01*
X110768698Y-86610148D01*
X110713152Y-86554602D01*
X110698800Y-86519954D01*
X110698800Y-86461208D01*
X110713152Y-86426560D01*
X110747800Y-86412208D01*
X110760481Y-86413877D01*
X110775022Y-86417773D01*
X110803854Y-86425500D01*
X110803856Y-86425500D01*
X110896146Y-86425500D01*
X110940716Y-86413557D01*
X110985288Y-86401614D01*
X111065212Y-86355469D01*
X111130469Y-86290212D01*
X111133065Y-86285716D01*
X111138318Y-86281685D01*
X111140852Y-86275568D01*
X111152670Y-86270672D01*
X111162818Y-86262886D01*
X111169382Y-86263750D01*
X111175500Y-86261216D01*
X111187318Y-86266111D01*
X111200000Y-86267781D01*
X111204030Y-86273034D01*
X111210148Y-86275568D01*
X111215043Y-86287386D01*
X111222830Y-86297534D01*
X111224500Y-86310216D01*
X111224500Y-86354801D01*
X111236752Y-86384379D01*
X111266443Y-86456058D01*
X111266444Y-86456059D01*
X111266445Y-86456061D01*
X111343939Y-86533555D01*
X111343940Y-86533555D01*
X111343942Y-86533557D01*
X111445200Y-86575500D01*
X111445202Y-86575500D01*
X111554798Y-86575500D01*
X111554800Y-86575500D01*
X111656058Y-86533557D01*
X111656060Y-86533555D01*
X111656061Y-86533555D01*
X111660352Y-86529264D01*
X111695000Y-86514912D01*
X111729648Y-86529264D01*
X111744000Y-86563912D01*
X111744000Y-87036088D01*
X111729648Y-87070736D01*
X111695000Y-87085088D01*
X111660352Y-87070736D01*
X111656061Y-87066445D01*
X111656059Y-87066444D01*
X111656058Y-87066443D01*
X111596744Y-87041874D01*
X111554801Y-87024500D01*
X111554800Y-87024500D01*
X111445200Y-87024500D01*
X111445198Y-87024500D01*
X111343940Y-87066444D01*
X111343939Y-87066445D01*
X111267735Y-87142648D01*
X111267733Y-87142651D01*
X111266443Y-87143942D01*
X111257510Y-87165507D01*
X111257505Y-87165519D01*
X111224500Y-87245198D01*
X111224500Y-87245200D01*
X111224500Y-87354800D01*
X111266443Y-87456058D01*
X111266444Y-87456059D01*
X111266444Y-87456060D01*
X111285147Y-87474762D01*
X111299500Y-87509410D01*
X111299500Y-92310282D01*
X111285148Y-92344930D01*
X111250500Y-92359282D01*
X111215852Y-92344930D01*
X111202441Y-92319841D01*
X111200163Y-92308386D01*
X111193664Y-92275711D01*
X111163216Y-92202202D01*
X111129507Y-92151754D01*
X111073246Y-92095493D01*
X111047366Y-92078200D01*
X111022797Y-92061783D01*
X110949290Y-92031336D01*
X110934412Y-92028377D01*
X110889782Y-92019500D01*
X110810218Y-92019500D01*
X110765587Y-92028377D01*
X110750710Y-92031336D01*
X110750709Y-92031336D01*
X110677202Y-92061783D01*
X110626753Y-92095493D01*
X110570493Y-92151753D01*
X110536783Y-92202202D01*
X110506336Y-92275709D01*
X110506336Y-92275710D01*
X110506336Y-92275711D01*
X110494500Y-92335218D01*
X110494500Y-92335221D01*
X110494500Y-92342525D01*
X110493558Y-92352085D01*
X110489000Y-92374996D01*
X110489000Y-92875003D01*
X110500835Y-92934501D01*
X110500839Y-92934515D01*
X110502448Y-92938399D01*
X110522742Y-92973549D01*
X110586597Y-93022549D01*
X110586600Y-93022551D01*
X110590489Y-93024162D01*
X110590496Y-93024163D01*
X110590498Y-93024164D01*
X110608159Y-93027677D01*
X110650000Y-93036000D01*
X111050000Y-93036000D01*
X111109511Y-93024162D01*
X111113400Y-93022551D01*
X111148548Y-93002258D01*
X111158975Y-92988669D01*
X111191451Y-92969919D01*
X111227677Y-92979625D01*
X111243118Y-92999748D01*
X111266443Y-93056059D01*
X111343939Y-93133555D01*
X111343940Y-93133555D01*
X111343942Y-93133557D01*
X111445200Y-93175500D01*
X111445202Y-93175500D01*
X111554798Y-93175500D01*
X111554800Y-93175500D01*
X111656058Y-93133557D01*
X111656060Y-93133555D01*
X111656061Y-93133555D01*
X111733555Y-93056061D01*
X111733555Y-93056060D01*
X111733557Y-93056058D01*
X111775500Y-92954800D01*
X111775500Y-92856830D01*
X111789852Y-92822182D01*
X111824500Y-92807830D01*
X111843250Y-92811559D01*
X111889700Y-92830800D01*
X111889702Y-92830800D01*
X111999298Y-92830800D01*
X111999300Y-92830800D01*
X112100558Y-92788857D01*
X112100560Y-92788855D01*
X112100561Y-92788855D01*
X112178055Y-92711361D01*
X112178055Y-92711360D01*
X112178057Y-92711358D01*
X112220000Y-92610100D01*
X112220000Y-92500500D01*
X112178057Y-92399242D01*
X112178055Y-92399240D01*
X112178055Y-92399239D01*
X112159352Y-92380536D01*
X112145000Y-92345888D01*
X112145000Y-86047751D01*
X112159352Y-86013103D01*
X112194000Y-85998751D01*
X112228648Y-86013103D01*
X112239272Y-86029003D01*
X112240422Y-86031780D01*
X112240423Y-86031784D01*
X112240424Y-86031786D01*
X112240426Y-86031790D01*
X112319475Y-86168709D01*
X112319478Y-86168713D01*
X112319480Y-86168716D01*
X112431284Y-86280520D01*
X112431287Y-86280521D01*
X112431290Y-86280524D01*
X112568213Y-86359576D01*
X112568215Y-86359576D01*
X112568216Y-86359577D01*
X112668403Y-86386422D01*
X112720939Y-86400499D01*
X112720940Y-86400500D01*
X112720943Y-86400500D01*
X112879060Y-86400500D01*
X112879060Y-86400499D01*
X113031784Y-86359577D01*
X113038900Y-86355469D01*
X113168709Y-86280524D01*
X113168708Y-86280524D01*
X113168716Y-86280520D01*
X113215852Y-86233384D01*
X113250500Y-86219032D01*
X113285148Y-86233384D01*
X113299500Y-86268032D01*
X113299500Y-94131968D01*
X113285148Y-94166616D01*
X113250500Y-94180968D01*
X113215852Y-94166616D01*
X113168718Y-94119482D01*
X113168716Y-94119480D01*
X113168713Y-94119478D01*
X113168709Y-94119475D01*
X113031786Y-94040423D01*
X113031782Y-94040422D01*
X112879060Y-93999500D01*
X112879057Y-93999500D01*
X112720943Y-93999500D01*
X112720940Y-93999500D01*
X112568217Y-94040422D01*
X112568213Y-94040423D01*
X112431290Y-94119475D01*
X112431281Y-94119482D01*
X112319482Y-94231281D01*
X112319475Y-94231290D01*
X112240423Y-94368213D01*
X112240422Y-94368217D01*
X112199500Y-94520939D01*
X112199500Y-94679060D01*
X112240422Y-94831782D01*
X112240423Y-94831786D01*
X112319475Y-94968709D01*
X112319478Y-94968713D01*
X112319480Y-94968716D01*
X112431284Y-95080520D01*
X112431287Y-95080521D01*
X112431290Y-95080524D01*
X112568213Y-95159576D01*
X112568215Y-95159576D01*
X112568216Y-95159577D01*
X112688665Y-95191851D01*
X112720939Y-95200499D01*
X112720940Y-95200500D01*
X112720943Y-95200500D01*
X112879060Y-95200500D01*
X112879060Y-95200499D01*
X113031784Y-95159577D01*
X113057291Y-95144851D01*
X113143404Y-95095134D01*
X113168716Y-95080520D01*
X113215852Y-95033384D01*
X113250500Y-95019032D01*
X113285148Y-95033384D01*
X113299500Y-95068032D01*
X113299500Y-99650500D01*
X113285148Y-99685148D01*
X113250500Y-99699500D01*
X100349500Y-99699500D01*
X100314852Y-99685148D01*
X100300500Y-99650500D01*
X100300500Y-93536629D01*
X101139500Y-93536629D01*
X101139500Y-93903367D01*
X101139501Y-93903374D01*
X101142318Y-93927663D01*
X101186187Y-94027017D01*
X101262982Y-94103812D01*
X101262983Y-94103812D01*
X101262984Y-94103813D01*
X101271862Y-94107733D01*
X101362335Y-94147681D01*
X101362341Y-94147683D01*
X101386609Y-94150498D01*
X101386610Y-94150498D01*
X101386627Y-94150500D01*
X101813372Y-94150499D01*
X101837662Y-94147682D01*
X101937016Y-94103813D01*
X102013813Y-94027016D01*
X102057682Y-93927662D01*
X102057682Y-93927660D01*
X102057683Y-93927658D01*
X102060498Y-93903390D01*
X102060497Y-93903390D01*
X102060500Y-93903373D01*
X102060499Y-93843345D01*
X102065423Y-93831457D01*
X102074850Y-93808699D01*
X102074852Y-93808698D01*
X102093700Y-93789851D01*
X102103215Y-93785910D01*
X102128347Y-93775500D01*
X102154798Y-93775500D01*
X102154800Y-93775500D01*
X102256058Y-93733557D01*
X102256060Y-93733555D01*
X102256061Y-93733555D01*
X102333555Y-93656061D01*
X102333555Y-93656060D01*
X102333557Y-93656058D01*
X102375500Y-93554800D01*
X102375500Y-93445200D01*
X102333557Y-93343942D01*
X102333555Y-93343940D01*
X102333555Y-93343939D01*
X102256061Y-93266445D01*
X102256059Y-93266444D01*
X102256058Y-93266443D01*
X102196744Y-93241874D01*
X102154801Y-93224500D01*
X102154800Y-93224500D01*
X102045200Y-93224500D01*
X102045198Y-93224500D01*
X101943940Y-93266443D01*
X101917172Y-93293211D01*
X101882523Y-93307562D01*
X101862734Y-93303387D01*
X101837661Y-93292317D01*
X101813390Y-93289501D01*
X101813375Y-93289500D01*
X101813373Y-93289500D01*
X101813370Y-93289500D01*
X101386632Y-93289500D01*
X101386625Y-93289501D01*
X101362336Y-93292318D01*
X101262982Y-93336187D01*
X101186187Y-93412982D01*
X101142318Y-93512335D01*
X101142316Y-93512341D01*
X101139501Y-93536609D01*
X101139500Y-93536629D01*
X100300500Y-93536629D01*
X100300500Y-89628853D01*
X103299500Y-89628853D01*
X103299500Y-89721146D01*
X103323385Y-89810286D01*
X103323386Y-89810289D01*
X103333149Y-89827198D01*
X103369531Y-89890212D01*
X103434788Y-89955469D01*
X103514712Y-90001614D01*
X103536998Y-90007585D01*
X103603853Y-90025500D01*
X103603856Y-90025500D01*
X103696146Y-90025500D01*
X103744049Y-90012664D01*
X103785288Y-90001614D01*
X103865212Y-89955469D01*
X103930469Y-89890212D01*
X103976614Y-89810288D01*
X103988557Y-89765716D01*
X104000500Y-89721146D01*
X104000500Y-89628853D01*
X103976614Y-89539713D01*
X103976613Y-89539710D01*
X103930472Y-89459794D01*
X103930469Y-89459788D01*
X103865212Y-89394531D01*
X103853481Y-89387758D01*
X103785289Y-89348386D01*
X103785286Y-89348385D01*
X103696147Y-89324500D01*
X103696144Y-89324500D01*
X103603856Y-89324500D01*
X103603853Y-89324500D01*
X103514713Y-89348385D01*
X103514710Y-89348386D01*
X103434794Y-89394527D01*
X103434784Y-89394534D01*
X103369534Y-89459784D01*
X103369527Y-89459794D01*
X103323386Y-89539710D01*
X103323385Y-89539713D01*
X103299500Y-89628853D01*
X100300500Y-89628853D01*
X100300500Y-88728853D01*
X103299500Y-88728853D01*
X103299500Y-88821146D01*
X103323385Y-88910286D01*
X103323386Y-88910289D01*
X103347875Y-88952703D01*
X103369531Y-88990212D01*
X103434788Y-89055469D01*
X103514712Y-89101614D01*
X103536998Y-89107585D01*
X103603853Y-89125500D01*
X103603856Y-89125500D01*
X103696146Y-89125500D01*
X103740716Y-89113557D01*
X103785288Y-89101614D01*
X103865212Y-89055469D01*
X103930469Y-88990212D01*
X103976614Y-88910288D01*
X103988557Y-88865716D01*
X104000500Y-88821146D01*
X104000500Y-88728853D01*
X103976614Y-88639713D01*
X103976613Y-88639710D01*
X103930472Y-88559794D01*
X103930469Y-88559788D01*
X103865212Y-88494531D01*
X103832250Y-88475500D01*
X103785289Y-88448386D01*
X103785286Y-88448385D01*
X103696147Y-88424500D01*
X103696144Y-88424500D01*
X103603856Y-88424500D01*
X103603853Y-88424500D01*
X103514713Y-88448385D01*
X103514710Y-88448386D01*
X103434794Y-88494527D01*
X103434784Y-88494534D01*
X103369534Y-88559784D01*
X103369527Y-88559794D01*
X103323386Y-88639710D01*
X103323385Y-88639713D01*
X103299500Y-88728853D01*
X100300500Y-88728853D01*
X100300500Y-87828853D01*
X103299500Y-87828853D01*
X103299500Y-87921146D01*
X103323385Y-88010286D01*
X103323386Y-88010289D01*
X103366430Y-88084842D01*
X103369531Y-88090212D01*
X103434788Y-88155469D01*
X103514712Y-88201614D01*
X103536998Y-88207585D01*
X103603853Y-88225500D01*
X103603856Y-88225500D01*
X103696146Y-88225500D01*
X103740716Y-88213557D01*
X103785288Y-88201614D01*
X103865212Y-88155469D01*
X103930469Y-88090212D01*
X103976614Y-88010288D01*
X103995675Y-87939151D01*
X104000500Y-87921146D01*
X104000500Y-87828853D01*
X103976614Y-87739713D01*
X103976613Y-87739710D01*
X103930472Y-87659794D01*
X103930469Y-87659788D01*
X103865212Y-87594531D01*
X103830518Y-87574500D01*
X103785289Y-87548386D01*
X103785286Y-87548385D01*
X103696147Y-87524500D01*
X103696144Y-87524500D01*
X103603856Y-87524500D01*
X103603853Y-87524500D01*
X103514713Y-87548385D01*
X103514710Y-87548386D01*
X103434794Y-87594527D01*
X103434784Y-87594534D01*
X103369534Y-87659784D01*
X103369527Y-87659794D01*
X103323386Y-87739710D01*
X103323385Y-87739713D01*
X103299500Y-87828853D01*
X100300500Y-87828853D01*
X100300500Y-86928853D01*
X102399500Y-86928853D01*
X102399500Y-87021146D01*
X102423385Y-87110286D01*
X102423386Y-87110289D01*
X102455274Y-87165519D01*
X102469531Y-87190212D01*
X102534788Y-87255469D01*
X102614712Y-87301614D01*
X102636998Y-87307585D01*
X102703853Y-87325500D01*
X102703856Y-87325500D01*
X102796146Y-87325500D01*
X102840716Y-87313557D01*
X102885288Y-87301614D01*
X102965212Y-87255469D01*
X103030469Y-87190212D01*
X103076614Y-87110288D01*
X103096400Y-87036445D01*
X103100500Y-87021146D01*
X103100500Y-86928853D01*
X103076614Y-86839713D01*
X103076613Y-86839710D01*
X103044402Y-86783920D01*
X103030469Y-86759788D01*
X102965212Y-86694531D01*
X102915138Y-86665620D01*
X102885289Y-86648386D01*
X102885286Y-86648385D01*
X102796147Y-86624500D01*
X102796144Y-86624500D01*
X102703856Y-86624500D01*
X102703853Y-86624500D01*
X102614713Y-86648385D01*
X102614710Y-86648386D01*
X102534794Y-86694527D01*
X102534784Y-86694534D01*
X102469534Y-86759784D01*
X102469527Y-86759794D01*
X102423386Y-86839710D01*
X102423385Y-86839713D01*
X102399500Y-86928853D01*
X100300500Y-86928853D01*
X100300500Y-85720939D01*
X100399500Y-85720939D01*
X100399500Y-85879060D01*
X100440422Y-86031782D01*
X100440423Y-86031786D01*
X100519475Y-86168709D01*
X100519478Y-86168713D01*
X100519480Y-86168716D01*
X100631284Y-86280520D01*
X100631287Y-86280521D01*
X100631290Y-86280524D01*
X100768213Y-86359576D01*
X100768215Y-86359576D01*
X100768216Y-86359577D01*
X100868403Y-86386422D01*
X100920939Y-86400499D01*
X100920940Y-86400500D01*
X100920943Y-86400500D01*
X101079060Y-86400500D01*
X101079060Y-86400499D01*
X101231784Y-86359577D01*
X101238900Y-86355469D01*
X101368709Y-86280524D01*
X101368708Y-86280524D01*
X101368716Y-86280520D01*
X101480520Y-86168716D01*
X101507985Y-86121144D01*
X101559576Y-86031786D01*
X101559576Y-86031785D01*
X101559577Y-86031784D01*
X101600499Y-85879060D01*
X101600500Y-85879060D01*
X101600500Y-85720940D01*
X101600499Y-85720939D01*
X101573104Y-85618700D01*
X101559577Y-85568216D01*
X101559576Y-85568215D01*
X101559576Y-85568213D01*
X101480524Y-85431290D01*
X101480521Y-85431287D01*
X101480520Y-85431284D01*
X101368716Y-85319480D01*
X101368713Y-85319478D01*
X101368709Y-85319475D01*
X101231786Y-85240423D01*
X101231782Y-85240422D01*
X101079060Y-85199500D01*
X101079057Y-85199500D01*
X100920943Y-85199500D01*
X100920940Y-85199500D01*
X100768217Y-85240422D01*
X100768213Y-85240423D01*
X100631290Y-85319475D01*
X100631281Y-85319482D01*
X100519482Y-85431281D01*
X100519475Y-85431290D01*
X100440423Y-85568213D01*
X100440422Y-85568217D01*
X100399500Y-85720939D01*
X100300500Y-85720939D01*
X100300500Y-83845198D01*
X104824500Y-83845198D01*
X104824500Y-83845200D01*
X104824500Y-83954800D01*
X104866443Y-84056058D01*
X104866444Y-84056059D01*
X104866445Y-84056061D01*
X104943939Y-84133555D01*
X104943940Y-84133555D01*
X104943942Y-84133557D01*
X105045200Y-84175500D01*
X105045202Y-84175500D01*
X105154798Y-84175500D01*
X105154800Y-84175500D01*
X105256058Y-84133557D01*
X105256060Y-84133555D01*
X105256061Y-84133555D01*
X105333555Y-84056061D01*
X105333555Y-84056060D01*
X105333557Y-84056058D01*
X105375500Y-83954800D01*
X105375500Y-83845200D01*
X105333557Y-83743942D01*
X105333555Y-83743940D01*
X105333555Y-83743939D01*
X105256061Y-83666445D01*
X105256059Y-83666444D01*
X105256058Y-83666443D01*
X105196744Y-83641874D01*
X105154801Y-83624500D01*
X105154800Y-83624500D01*
X105045200Y-83624500D01*
X105045198Y-83624500D01*
X104943940Y-83666444D01*
X104866444Y-83743940D01*
X104824500Y-83845198D01*
X100300500Y-83845198D01*
X100300500Y-82949500D01*
X100314852Y-82914852D01*
X100349500Y-82900500D01*
X113250500Y-82900500D01*
X113285148Y-82914852D01*
G37*
%TD.AperFunction*%
%TA.AperFunction,Conductor*%
G36*
X107824124Y-92153722D02*
G01*
X107838476Y-92188370D01*
X107834746Y-92207121D01*
X107806336Y-92275709D01*
X107806336Y-92275710D01*
X107806336Y-92275711D01*
X107794500Y-92335218D01*
X107794500Y-92335221D01*
X107794500Y-92342525D01*
X107793558Y-92352085D01*
X107789000Y-92374996D01*
X107789000Y-92875003D01*
X107800835Y-92934501D01*
X107800839Y-92934515D01*
X107802448Y-92938399D01*
X107822742Y-92973549D01*
X107886597Y-93022549D01*
X107886600Y-93022551D01*
X107890489Y-93024162D01*
X107890496Y-93024163D01*
X107890498Y-93024164D01*
X107908159Y-93027677D01*
X107950000Y-93036000D01*
X108250500Y-93036000D01*
X108285148Y-93050352D01*
X108299500Y-93085000D01*
X108299500Y-93553319D01*
X108300114Y-93554801D01*
X108330024Y-93627010D01*
X108330025Y-93627011D01*
X108330025Y-93627012D01*
X108446247Y-93743233D01*
X108451840Y-93750993D01*
X108452341Y-93750659D01*
X108455024Y-93754674D01*
X108511308Y-93810958D01*
X108562848Y-93862497D01*
X108577200Y-93897145D01*
X108577200Y-95039153D01*
X108562848Y-95073801D01*
X108438491Y-95198158D01*
X108403843Y-95212510D01*
X108369195Y-95198158D01*
X108321212Y-95150175D01*
X108321208Y-95150172D01*
X108208628Y-95095135D01*
X108208626Y-95095134D01*
X108135638Y-95084500D01*
X108135636Y-95084500D01*
X107813346Y-95084500D01*
X107778698Y-95070148D01*
X107369738Y-94661188D01*
X107359115Y-94645289D01*
X107358558Y-94643945D01*
X107358557Y-94643942D01*
X107358554Y-94643939D01*
X107281060Y-94566444D01*
X107179801Y-94524500D01*
X107179800Y-94524500D01*
X107070200Y-94524500D01*
X107070198Y-94524500D01*
X106968940Y-94566444D01*
X106968939Y-94566444D01*
X106950238Y-94585147D01*
X106915590Y-94599500D01*
X106788120Y-94599500D01*
X106753472Y-94585148D01*
X106743295Y-94570292D01*
X106702205Y-94477233D01*
X106622767Y-94397795D01*
X106559420Y-94369824D01*
X106533522Y-94342699D01*
X106534388Y-94305206D01*
X106559420Y-94280175D01*
X106622765Y-94252206D01*
X106622766Y-94252206D01*
X106702205Y-94172766D01*
X106702206Y-94172765D01*
X106747585Y-94069991D01*
X106750500Y-94044865D01*
X106750499Y-93655136D01*
X106747585Y-93630009D01*
X106702206Y-93527235D01*
X106702205Y-93527234D01*
X106702205Y-93527233D01*
X106657658Y-93482686D01*
X106643306Y-93448038D01*
X106657657Y-93413391D01*
X106919076Y-93151974D01*
X106949600Y-93078282D01*
X106949600Y-93075735D01*
X106963952Y-93041087D01*
X106998600Y-93026735D01*
X107008158Y-93027676D01*
X107050000Y-93036000D01*
X107450000Y-93036000D01*
X107509511Y-93024162D01*
X107513400Y-93022551D01*
X107548548Y-93002258D01*
X107597551Y-92938400D01*
X107599162Y-92934511D01*
X107611000Y-92875000D01*
X107611000Y-92375000D01*
X107606442Y-92352085D01*
X107605500Y-92342525D01*
X107605500Y-92335222D01*
X107605500Y-92335221D01*
X107605500Y-92335218D01*
X107605273Y-92334079D01*
X107605349Y-92333695D01*
X107605264Y-92332824D01*
X107605528Y-92332797D01*
X107612583Y-92297298D01*
X107618677Y-92289872D01*
X107754828Y-92153722D01*
X107789476Y-92139370D01*
X107824124Y-92153722D01*
G37*
%TD.AperFunction*%
%TA.AperFunction,Conductor*%
G36*
X108684148Y-88716198D02*
G01*
X109385148Y-89417198D01*
X109399500Y-89451846D01*
X109399500Y-92103451D01*
X109385148Y-92138099D01*
X109350500Y-92152451D01*
X109315852Y-92138099D01*
X109273246Y-92095493D01*
X109222797Y-92061783D01*
X109149290Y-92031336D01*
X109134412Y-92028377D01*
X109089782Y-92019500D01*
X109010218Y-92019500D01*
X108965587Y-92028377D01*
X108950710Y-92031336D01*
X108950709Y-92031336D01*
X108877202Y-92061783D01*
X108826753Y-92095493D01*
X108826752Y-92095494D01*
X108768791Y-92153456D01*
X108767918Y-92152583D01*
X108738204Y-92168444D01*
X108702322Y-92157537D01*
X108688160Y-92138430D01*
X108680476Y-92119878D01*
X108624074Y-92063476D01*
X108614852Y-92054254D01*
X108600500Y-92019606D01*
X108600500Y-91823321D01*
X108614852Y-91788673D01*
X108669976Y-91733549D01*
X108700500Y-91659857D01*
X108700500Y-91290143D01*
X108669976Y-91216451D01*
X108669974Y-91216449D01*
X108669974Y-91216448D01*
X108614852Y-91161326D01*
X108600500Y-91126678D01*
X108600500Y-88750846D01*
X108614852Y-88716198D01*
X108649500Y-88701846D01*
X108684148Y-88716198D01*
G37*
%TD.AperFunction*%
%TA.AperFunction,Conductor*%
G36*
X107260148Y-87221452D02*
G01*
X107274500Y-87256100D01*
X107274500Y-87324797D01*
X107274501Y-87324804D01*
X107284886Y-87349876D01*
X107284886Y-87387379D01*
X107258369Y-87413897D01*
X107203939Y-87436444D01*
X107126445Y-87513939D01*
X107126444Y-87513940D01*
X107084500Y-87615198D01*
X107084500Y-87615200D01*
X107084500Y-87724800D01*
X107126443Y-87826058D01*
X107126444Y-87826059D01*
X107126445Y-87826061D01*
X107203939Y-87903555D01*
X107203940Y-87903555D01*
X107203942Y-87903557D01*
X107305200Y-87945500D01*
X107305202Y-87945500D01*
X107414799Y-87945500D01*
X107414800Y-87945500D01*
X107414800Y-87945499D01*
X107414804Y-87945499D01*
X107430123Y-87939153D01*
X107467625Y-87939151D01*
X107483524Y-87949774D01*
X108185148Y-88651398D01*
X108199500Y-88686046D01*
X108199500Y-91075500D01*
X108185148Y-91110148D01*
X108150500Y-91124500D01*
X108103853Y-91124500D01*
X108014713Y-91148385D01*
X108014710Y-91148386D01*
X107934794Y-91194527D01*
X107934784Y-91194534D01*
X107930848Y-91198471D01*
X107896200Y-91212823D01*
X107861552Y-91198471D01*
X107847200Y-91163823D01*
X107847200Y-91082320D01*
X107847199Y-91082316D01*
X107844376Y-91075500D01*
X107816676Y-91008626D01*
X107783473Y-90975423D01*
X107772854Y-90959530D01*
X107753557Y-90912942D01*
X107753555Y-90912940D01*
X107753555Y-90912939D01*
X107676061Y-90835445D01*
X107676059Y-90835444D01*
X107676058Y-90835443D01*
X107606047Y-90806443D01*
X107574801Y-90793500D01*
X107574800Y-90793500D01*
X107465200Y-90793500D01*
X107465198Y-90793500D01*
X107363940Y-90835444D01*
X107286444Y-90912940D01*
X107286443Y-90912941D01*
X107286443Y-90912942D01*
X107281369Y-90925192D01*
X107244500Y-91014198D01*
X107244500Y-91076176D01*
X107230148Y-91110824D01*
X107206627Y-91122433D01*
X107206958Y-91123668D01*
X107114713Y-91148385D01*
X107114710Y-91148386D01*
X107034794Y-91194527D01*
X107034784Y-91194534D01*
X106969534Y-91259784D01*
X106969527Y-91259794D01*
X106923386Y-91339709D01*
X106923385Y-91339712D01*
X106914450Y-91373057D01*
X106891619Y-91402809D01*
X106885879Y-91405640D01*
X106883945Y-91406441D01*
X106883939Y-91406445D01*
X106806444Y-91483939D01*
X106806443Y-91483940D01*
X106794770Y-91512123D01*
X106768251Y-91538641D01*
X106730748Y-91538641D01*
X106704230Y-91512122D01*
X106700500Y-91493371D01*
X106700500Y-91428853D01*
X106676614Y-91339713D01*
X106676613Y-91339710D01*
X106655906Y-91303845D01*
X106630469Y-91259788D01*
X106565212Y-91194531D01*
X106537370Y-91178456D01*
X106485289Y-91148386D01*
X106485286Y-91148385D01*
X106396147Y-91124500D01*
X106396144Y-91124500D01*
X106303856Y-91124500D01*
X106303853Y-91124500D01*
X106214713Y-91148385D01*
X106214709Y-91148386D01*
X106211500Y-91150240D01*
X106174318Y-91155135D01*
X106144565Y-91132305D01*
X106138000Y-91107805D01*
X106138000Y-90865846D01*
X106152352Y-90831198D01*
X106596174Y-90387376D01*
X106596176Y-90387374D01*
X106626700Y-90313682D01*
X106626700Y-90233918D01*
X106626700Y-89441111D01*
X106641052Y-89406463D01*
X106659755Y-89387760D01*
X106659757Y-89387758D01*
X106701700Y-89286500D01*
X106701700Y-89176900D01*
X106659757Y-89075642D01*
X106659755Y-89075640D01*
X106659755Y-89075639D01*
X106582261Y-88998145D01*
X106582259Y-88998144D01*
X106582258Y-88998143D01*
X106517828Y-88971455D01*
X106481001Y-88956200D01*
X106481000Y-88956200D01*
X106371400Y-88956200D01*
X106371398Y-88956200D01*
X106270552Y-88997973D01*
X106233049Y-88997973D01*
X106206530Y-88971455D01*
X106202800Y-88952703D01*
X106202800Y-88145198D01*
X106424500Y-88145198D01*
X106424500Y-88145200D01*
X106424500Y-88254800D01*
X106466443Y-88356058D01*
X106466444Y-88356059D01*
X106466445Y-88356061D01*
X106543939Y-88433555D01*
X106543940Y-88433555D01*
X106543942Y-88433557D01*
X106645200Y-88475500D01*
X106645202Y-88475500D01*
X106754798Y-88475500D01*
X106754800Y-88475500D01*
X106856058Y-88433557D01*
X106856060Y-88433555D01*
X106856061Y-88433555D01*
X106933555Y-88356061D01*
X106933555Y-88356060D01*
X106933557Y-88356058D01*
X106975500Y-88254800D01*
X106975500Y-88145200D01*
X106933557Y-88043942D01*
X106933555Y-88043940D01*
X106933555Y-88043939D01*
X106856061Y-87966445D01*
X106856059Y-87966444D01*
X106856058Y-87966443D01*
X106790170Y-87939151D01*
X106754801Y-87924500D01*
X106754800Y-87924500D01*
X106645200Y-87924500D01*
X106645198Y-87924500D01*
X106543940Y-87966444D01*
X106466444Y-88043940D01*
X106424500Y-88145198D01*
X106202800Y-88145198D01*
X106202800Y-87256100D01*
X106217152Y-87221452D01*
X106251800Y-87207100D01*
X107225500Y-87207100D01*
X107260148Y-87221452D01*
G37*
%TD.AperFunction*%
%TD*%
M02*
