%TF.GenerationSoftware,KiCad,Pcbnew,10.0.2*%
%TF.CreationDate,2026-06-28T19:00:10-04:00*%
%TF.ProjectId,nrfstick,6e726673-7469-4636-9b2e-6b696361645f,rev?*%
%TF.SameCoordinates,Original*%
%TF.FileFunction,Soldermask,Top*%
%TF.FilePolarity,Negative*%
%FSLAX46Y46*%
G04 Gerber Fmt 4.6, Leading zero omitted, Abs format (unit mm)*
G04 Created by KiCad (PCBNEW 10.0.2) date 2026-06-28 19:00:10*
%MOMM*%
%LPD*%
G01*
G04 APERTURE LIST*
G04 Aperture macros list*
%AMRoundRect*
0 Rectangle with rounded corners*
0 $1 Rounding radius*
0 $2 $3 $4 $5 $6 $7 $8 $9 X,Y pos of 4 corners*
0 Add a 4 corners polygon primitive as box body*
4,1,4,$2,$3,$4,$5,$6,$7,$8,$9,$2,$3,0*
0 Add four circle primitives for the rounded corners*
1,1,$1+$1,$2,$3*
1,1,$1+$1,$4,$5*
1,1,$1+$1,$6,$7*
1,1,$1+$1,$8,$9*
0 Add four rect primitives between the rounded corners*
20,1,$1+$1,$2,$3,$4,$5,0*
20,1,$1+$1,$4,$5,$6,$7,0*
20,1,$1+$1,$6,$7,$8,$9,0*
20,1,$1+$1,$8,$9,$2,$3,0*%
%AMFreePoly0*
4,1,35,0.538128,0.292946,0.538482,0.292800,0.585538,0.252734,0.592800,0.238482,0.592946,0.238128,0.600500,0.200000,0.600500,-0.200000,0.592946,-0.238128,0.592800,-0.238482,0.552734,-0.285538,0.538482,-0.292800,0.538128,-0.292946,0.500000,-0.300500,0.000000,-0.300500,-0.021921,-0.296157,-0.039018,-0.296157,-0.077286,-0.288545,-0.149382,-0.258682,-0.181825,-0.237005,-0.237005,-0.181825,
-0.258682,-0.149382,-0.288545,-0.077286,-0.296157,-0.039018,-0.296157,0.039018,-0.288545,0.077286,-0.258682,0.149382,-0.237005,0.181825,-0.181825,0.237005,-0.149382,0.258682,-0.077286,0.288545,-0.039018,0.296157,-0.021921,0.296157,0.000000,0.300500,0.500000,0.300500,0.538128,0.292946,0.538128,0.292946,$1*%
G04 Aperture macros list end*
%ADD10RoundRect,0.225000X-0.250000X0.225000X-0.250000X-0.225000X0.250000X-0.225000X0.250000X0.225000X0*%
%ADD11C,1.000000*%
%ADD12RoundRect,0.135000X0.185000X-0.135000X0.185000X0.135000X-0.185000X0.135000X-0.185000X-0.135000X0*%
%ADD13RoundRect,0.150000X-0.512500X-0.150000X0.512500X-0.150000X0.512500X0.150000X-0.512500X0.150000X0*%
%ADD14RoundRect,0.140000X0.170000X-0.140000X0.170000X0.140000X-0.170000X0.140000X-0.170000X-0.140000X0*%
%ADD15C,0.600000*%
%ADD16FreePoly0,270.000000*%
%ADD17RoundRect,0.135000X-0.185000X0.135000X-0.185000X-0.135000X0.185000X-0.135000X0.185000X0.135000X0*%
%ADD18RoundRect,0.300000X0.700000X1.450000X-0.700000X1.450000X-0.700000X-1.450000X0.700000X-1.450000X0*%
G04 APERTURE END LIST*
D10*
%TO.C,C8*%
X107850000Y-94135000D03*
X107850000Y-95685000D03*
%TD*%
D11*
%TO.C,FID3*%
X112800000Y-94600000D03*
%TD*%
D12*
%TO.C,R8*%
X110400000Y-94710000D03*
X110400000Y-93690000D03*
%TD*%
D11*
%TO.C,FID2*%
X112800000Y-85800000D03*
%TD*%
D13*
%TO.C,Z1*%
X103662500Y-93850000D03*
X103662500Y-94800000D03*
X103662500Y-95750000D03*
X105937500Y-95750000D03*
X105937500Y-94800000D03*
X105937500Y-93850000D03*
%TD*%
D14*
%TO.C,C16*%
X101600000Y-94680000D03*
X101600000Y-93720000D03*
%TD*%
D15*
%TO.C,U5*%
X102750000Y-85175000D03*
X102750000Y-86975000D03*
D16*
X102750000Y-92375000D03*
D15*
X103650000Y-85175000D03*
X103650000Y-86075000D03*
X103650000Y-86975000D03*
X103650000Y-87875000D03*
X103650000Y-88775000D03*
X103650000Y-89675000D03*
X103650000Y-90575000D03*
X103650000Y-91475000D03*
D16*
X103650000Y-92375000D03*
D15*
X104550000Y-91475000D03*
D16*
X104550000Y-92375000D03*
D15*
X105450000Y-85175000D03*
X105450000Y-91475000D03*
D16*
X105450000Y-92375000D03*
D15*
X106350000Y-85175000D03*
X106350000Y-91475000D03*
D16*
X106350000Y-92375000D03*
D15*
X107250000Y-85175000D03*
X107250000Y-91475000D03*
D16*
X107250000Y-92375000D03*
D15*
X108150000Y-86075000D03*
X108150000Y-91475000D03*
D16*
X108150000Y-92375000D03*
D15*
X109050000Y-86075000D03*
X109050000Y-91475000D03*
D16*
X109050000Y-92375000D03*
D15*
X109950000Y-86075000D03*
X109950000Y-86975000D03*
X109950000Y-87875000D03*
X109950000Y-88775000D03*
X109950000Y-89675000D03*
X109950000Y-90575000D03*
X109950000Y-91475000D03*
D16*
X109950000Y-92375000D03*
D15*
X110850000Y-86075000D03*
X110850000Y-86975000D03*
X110850000Y-87875000D03*
X110850000Y-88775000D03*
X110850000Y-89675000D03*
X110850000Y-90575000D03*
X110850000Y-91475000D03*
D16*
X110850000Y-92375000D03*
%TD*%
D11*
%TO.C,FID1*%
X101000000Y-85800000D03*
%TD*%
D17*
%TO.C,R9*%
X109400000Y-93690000D03*
X109400000Y-94710000D03*
%TD*%
D18*
%TO.C,J1*%
X112650000Y-97200000D03*
X100950000Y-97200000D03*
%TD*%
M02*
