%TF.GenerationSoftware,KiCad,Pcbnew,10.0.2*%
%TF.CreationDate,2026-06-28T19:00:10-04:00*%
%TF.ProjectId,nrfstick,6e726673-7469-4636-9b2e-6b696361645f,rev?*%
%TF.SameCoordinates,Original*%
%TF.FileFunction,Copper,L2,Inr*%
%TF.FilePolarity,Positive*%
%FSLAX46Y46*%
G04 Gerber Fmt 4.6, Leading zero omitted, Abs format (unit mm)*
G04 Created by KiCad (PCBNEW 10.0.2) date 2026-06-28 19:00:10*
%MOMM*%
%LPD*%
G01*
G04 APERTURE LIST*
G04 Aperture macros list*
%AMRoundRect*
0 Rectangle with rounded corners*
0 $1 Rounding radius*
0 $2 $3 $4 $5 $6 $7 $8 $9 X,Y pos of 4 corners*
0 Add a 4 corners polygon primitive as box body*
4,1,4,$2,$3,$4,$5,$6,$7,$8,$9,$2,$3,0*
0 Add four circle primitives for the rounded corners*
1,1,$1+$1,$2,$3*
1,1,$1+$1,$4,$5*
1,1,$1+$1,$6,$7*
1,1,$1+$1,$8,$9*
0 Add four rect primitives between the rounded corners*
20,1,$1+$1,$2,$3,$4,$5,0*
20,1,$1+$1,$4,$5,$6,$7,0*
20,1,$1+$1,$6,$7,$8,$9,0*
20,1,$1+$1,$8,$9,$2,$3,0*%
G04 Aperture macros list end*
%TA.AperFunction,ComponentPad*%
%ADD10RoundRect,0.300000X0.700000X1.450000X-0.700000X1.450000X-0.700000X-1.450000X0.700000X-1.450000X0*%
%TD*%
%TA.AperFunction,ViaPad*%
%ADD11C,0.250000*%
%TD*%
G04 APERTURE END LIST*
D10*
%TO.N,GND*%
%TO.C,J1*%
X112650000Y-97200000D03*
X100950000Y-97200000D03*
%TD*%
D11*
%TO.N,GND*%
X110630100Y-84219000D03*
X102549600Y-85697100D03*
X106620800Y-90996000D03*
X107100000Y-93700000D03*
X111300000Y-93800000D03*
X105452000Y-89651600D03*
X100425000Y-91256100D03*
X101400000Y-90126100D03*
X108310000Y-85220000D03*
X101650000Y-87948000D03*
X106550500Y-87779300D03*
X108800000Y-90600000D03*
%TO.N,+5V*%
X107360000Y-87670000D03*
X107125000Y-94800000D03*
%TO.N,Net-(U4-VBUS)*%
X107550000Y-87270000D03*
%TO.N,Net-(J1-D-)*%
X104562100Y-93654900D03*
%TO.N,Net-(J1-D+)*%
X106543600Y-96408600D03*
%TO.N,Net-(U4-D+)*%
X104883800Y-89882000D03*
%TO.N,Net-(U4-D-)*%
X106426200Y-89231700D03*
%TO.N,VDD*%
X102100000Y-93500000D03*
X111500000Y-86300000D03*
X105100000Y-83900000D03*
X106700000Y-88200000D03*
X103300000Y-91900000D03*
X110080000Y-85120000D03*
X104100000Y-91000000D03*
%TO.N,/LED_RED*%
X104398800Y-90613600D03*
%TO.N,/P1.01{slash}XTAL*%
X104211500Y-93068500D03*
%TO.N,/P1.00{slash}XTAL*%
X105450000Y-91040000D03*
%TO.N,/LED_BLUE*%
X111500000Y-92900000D03*
X106000000Y-93200000D03*
X111500000Y-87300000D03*
%TO.N,/UART_nRF_TX*%
X107040000Y-91640000D03*
%TO.N,/UART_nRF_RX*%
X107520000Y-91069000D03*
%TO.N,/~{RESET}*%
X102179300Y-84878200D03*
X106002300Y-90143500D03*
%TO.N,/BUTTON*%
X107680000Y-85970000D03*
%TO.N,Net-(J2-Pin_3)*%
X109412100Y-85460000D03*
%TO.N,Net-(J2-Pin_2)*%
X110861900Y-85283700D03*
%TO.N,Net-(D8-A)*%
X111944500Y-92555300D03*
X106640000Y-85673500D03*
%TD*%
%TA.AperFunction,Conductor*%
%TO.N,GND*%
G36*
X113285148Y-82914852D02*
G01*
X113299500Y-82949500D01*
X113299500Y-99650500D01*
X113285148Y-99685148D01*
X113250500Y-99699500D01*
X100349500Y-99699500D01*
X100314852Y-99685148D01*
X100300500Y-99650500D01*
X100300500Y-97126078D01*
X103799500Y-97126078D01*
X103799500Y-97273921D01*
X103828340Y-97418906D01*
X103828342Y-97418915D01*
X103884914Y-97555491D01*
X103884916Y-97555495D01*
X103967049Y-97678416D01*
X104071584Y-97782951D01*
X104194505Y-97865084D01*
X104262796Y-97893371D01*
X104331084Y-97921657D01*
X104331085Y-97921657D01*
X104331087Y-97921658D01*
X104476082Y-97950500D01*
X104623918Y-97950500D01*
X104768913Y-97921658D01*
X104905495Y-97865084D01*
X105028416Y-97782951D01*
X105132951Y-97678416D01*
X105215084Y-97555495D01*
X105271658Y-97418913D01*
X105300500Y-97273918D01*
X105300500Y-97126082D01*
X105300499Y-97126078D01*
X108299500Y-97126078D01*
X108299500Y-97273921D01*
X108328340Y-97418906D01*
X108328342Y-97418915D01*
X108384914Y-97555491D01*
X108384916Y-97555495D01*
X108467049Y-97678416D01*
X108571584Y-97782951D01*
X108694505Y-97865084D01*
X108762796Y-97893371D01*
X108831084Y-97921657D01*
X108831085Y-97921657D01*
X108831087Y-97921658D01*
X108976082Y-97950500D01*
X109123918Y-97950500D01*
X109268913Y-97921658D01*
X109405495Y-97865084D01*
X109528416Y-97782951D01*
X109632951Y-97678416D01*
X109715084Y-97555495D01*
X109771658Y-97418913D01*
X109800500Y-97273918D01*
X109800500Y-97126082D01*
X109771658Y-96981087D01*
X109715084Y-96844505D01*
X109632951Y-96721584D01*
X109528416Y-96617049D01*
X109405495Y-96534916D01*
X109405492Y-96534914D01*
X109405491Y-96534914D01*
X109268915Y-96478342D01*
X109268906Y-96478340D01*
X109123921Y-96449500D01*
X109123918Y-96449500D01*
X108976082Y-96449500D01*
X108976078Y-96449500D01*
X108831093Y-96478340D01*
X108831084Y-96478342D01*
X108694508Y-96534914D01*
X108571584Y-96617048D01*
X108467048Y-96721584D01*
X108384914Y-96844508D01*
X108328342Y-96981084D01*
X108328340Y-96981093D01*
X108299500Y-97126078D01*
X105300499Y-97126078D01*
X105271658Y-96981087D01*
X105215084Y-96844505D01*
X105132951Y-96721584D01*
X105028416Y-96617049D01*
X104905495Y-96534916D01*
X104905492Y-96534914D01*
X104905491Y-96534914D01*
X104768915Y-96478342D01*
X104768906Y-96478340D01*
X104623921Y-96449500D01*
X104623918Y-96449500D01*
X104476082Y-96449500D01*
X104476078Y-96449500D01*
X104331093Y-96478340D01*
X104331084Y-96478342D01*
X104194508Y-96534914D01*
X104071584Y-96617048D01*
X103967048Y-96721584D01*
X103884914Y-96844508D01*
X103828342Y-96981084D01*
X103828340Y-96981093D01*
X103799500Y-97126078D01*
X100300500Y-97126078D01*
X100300500Y-96353798D01*
X106268100Y-96353798D01*
X106268100Y-96353800D01*
X106268100Y-96463400D01*
X106310043Y-96564658D01*
X106310044Y-96564659D01*
X106310045Y-96564661D01*
X106387539Y-96642155D01*
X106387540Y-96642155D01*
X106387542Y-96642157D01*
X106488800Y-96684100D01*
X106488802Y-96684100D01*
X106598398Y-96684100D01*
X106598400Y-96684100D01*
X106699658Y-96642157D01*
X106699660Y-96642155D01*
X106699661Y-96642155D01*
X106777155Y-96564661D01*
X106777155Y-96564660D01*
X106777157Y-96564658D01*
X106819100Y-96463400D01*
X106819100Y-96353800D01*
X106777157Y-96252542D01*
X106777155Y-96252540D01*
X106777155Y-96252539D01*
X106699661Y-96175045D01*
X106699659Y-96175044D01*
X106699658Y-96175043D01*
X106640344Y-96150474D01*
X106598401Y-96133100D01*
X106598400Y-96133100D01*
X106488800Y-96133100D01*
X106488798Y-96133100D01*
X106387540Y-96175044D01*
X106310044Y-96252540D01*
X106268100Y-96353798D01*
X100300500Y-96353798D01*
X100300500Y-94745198D01*
X106849500Y-94745198D01*
X106849500Y-94745200D01*
X106849500Y-94854800D01*
X106891443Y-94956058D01*
X106891444Y-94956059D01*
X106891445Y-94956061D01*
X106968939Y-95033555D01*
X106968940Y-95033555D01*
X106968942Y-95033557D01*
X107070200Y-95075500D01*
X107070202Y-95075500D01*
X107179798Y-95075500D01*
X107179800Y-95075500D01*
X107281058Y-95033557D01*
X107281060Y-95033555D01*
X107281061Y-95033555D01*
X107358555Y-94956061D01*
X107358555Y-94956060D01*
X107358557Y-94956058D01*
X107400500Y-94854800D01*
X107400500Y-94745200D01*
X107358557Y-94643942D01*
X107358555Y-94643940D01*
X107358555Y-94643939D01*
X107281061Y-94566445D01*
X107281059Y-94566444D01*
X107281058Y-94566443D01*
X107221744Y-94541874D01*
X107179801Y-94524500D01*
X107179800Y-94524500D01*
X107070200Y-94524500D01*
X107070198Y-94524500D01*
X106968940Y-94566444D01*
X106891444Y-94643940D01*
X106849500Y-94745198D01*
X100300500Y-94745198D01*
X100300500Y-93445198D01*
X101824500Y-93445198D01*
X101824500Y-93554801D01*
X101841874Y-93596744D01*
X101866443Y-93656058D01*
X101866444Y-93656059D01*
X101866445Y-93656061D01*
X101943939Y-93733555D01*
X101943940Y-93733555D01*
X101943942Y-93733557D01*
X102045200Y-93775500D01*
X102045202Y-93775500D01*
X102154798Y-93775500D01*
X102154800Y-93775500D01*
X102256058Y-93733557D01*
X102256060Y-93733555D01*
X102256061Y-93733555D01*
X102333555Y-93656061D01*
X102333555Y-93656060D01*
X102333557Y-93656058D01*
X102356737Y-93600098D01*
X104286600Y-93600098D01*
X104286600Y-93600100D01*
X104286600Y-93709700D01*
X104328543Y-93810958D01*
X104328544Y-93810959D01*
X104328545Y-93810961D01*
X104406039Y-93888455D01*
X104406040Y-93888455D01*
X104406042Y-93888457D01*
X104507300Y-93930400D01*
X104507302Y-93930400D01*
X104616898Y-93930400D01*
X104616900Y-93930400D01*
X104718158Y-93888457D01*
X104718160Y-93888455D01*
X104718161Y-93888455D01*
X104795655Y-93810961D01*
X104795655Y-93810960D01*
X104795657Y-93810958D01*
X104837600Y-93709700D01*
X104837600Y-93600100D01*
X104795657Y-93498842D01*
X104795655Y-93498840D01*
X104795655Y-93498839D01*
X104718161Y-93421345D01*
X104718159Y-93421344D01*
X104718158Y-93421343D01*
X104658844Y-93396774D01*
X104616901Y-93379400D01*
X104616900Y-93379400D01*
X104507300Y-93379400D01*
X104507298Y-93379400D01*
X104406040Y-93421344D01*
X104328544Y-93498840D01*
X104286600Y-93600098D01*
X102356737Y-93600098D01*
X102375500Y-93554800D01*
X102375500Y-93445200D01*
X102333557Y-93343942D01*
X102333555Y-93343940D01*
X102333555Y-93343939D01*
X102256061Y-93266445D01*
X102256059Y-93266444D01*
X102256058Y-93266443D01*
X102196744Y-93241874D01*
X102154801Y-93224500D01*
X102154800Y-93224500D01*
X102045200Y-93224500D01*
X102045198Y-93224500D01*
X101943940Y-93266444D01*
X101866444Y-93343940D01*
X101866443Y-93343941D01*
X101866443Y-93343942D01*
X101866419Y-93344000D01*
X101824500Y-93445198D01*
X100300500Y-93445198D01*
X100300500Y-93013698D01*
X103936000Y-93013698D01*
X103936000Y-93123301D01*
X103945071Y-93145200D01*
X103977943Y-93224558D01*
X103977944Y-93224559D01*
X103977945Y-93224561D01*
X104055439Y-93302055D01*
X104055440Y-93302055D01*
X104055442Y-93302057D01*
X104156700Y-93344000D01*
X104156702Y-93344000D01*
X104266298Y-93344000D01*
X104266300Y-93344000D01*
X104367558Y-93302057D01*
X104367560Y-93302055D01*
X104367561Y-93302055D01*
X104445055Y-93224561D01*
X104445055Y-93224560D01*
X104445057Y-93224558D01*
X104477929Y-93145198D01*
X105724500Y-93145198D01*
X105724500Y-93254801D01*
X105741874Y-93296744D01*
X105766443Y-93356058D01*
X105766444Y-93356059D01*
X105766445Y-93356061D01*
X105843939Y-93433555D01*
X105843940Y-93433555D01*
X105843942Y-93433557D01*
X105945200Y-93475500D01*
X105945202Y-93475500D01*
X106054798Y-93475500D01*
X106054800Y-93475500D01*
X106156058Y-93433557D01*
X106156060Y-93433555D01*
X106156061Y-93433555D01*
X106233555Y-93356061D01*
X106233555Y-93356060D01*
X106233557Y-93356058D01*
X106275500Y-93254800D01*
X106275500Y-93145200D01*
X106233557Y-93043942D01*
X106233555Y-93043940D01*
X106233555Y-93043939D01*
X106156061Y-92966445D01*
X106156059Y-92966444D01*
X106156058Y-92966443D01*
X106096744Y-92941874D01*
X106054801Y-92924500D01*
X106054800Y-92924500D01*
X105945200Y-92924500D01*
X105945198Y-92924500D01*
X105843940Y-92966444D01*
X105766444Y-93043940D01*
X105724500Y-93145198D01*
X104477929Y-93145198D01*
X104487000Y-93123300D01*
X104487000Y-93013700D01*
X104445057Y-92912442D01*
X104445055Y-92912440D01*
X104445055Y-92912439D01*
X104377814Y-92845198D01*
X111224500Y-92845198D01*
X111224500Y-92954801D01*
X111241874Y-92996744D01*
X111266443Y-93056058D01*
X111266444Y-93056059D01*
X111266445Y-93056061D01*
X111343939Y-93133555D01*
X111343940Y-93133555D01*
X111343942Y-93133557D01*
X111445200Y-93175500D01*
X111445202Y-93175500D01*
X111554798Y-93175500D01*
X111554800Y-93175500D01*
X111656058Y-93133557D01*
X111656060Y-93133555D01*
X111656061Y-93133555D01*
X111733555Y-93056061D01*
X111733555Y-93056060D01*
X111733557Y-93056058D01*
X111775500Y-92954800D01*
X111775500Y-92856830D01*
X111789852Y-92822182D01*
X111824500Y-92807830D01*
X111843250Y-92811559D01*
X111889700Y-92830800D01*
X111889702Y-92830800D01*
X111999298Y-92830800D01*
X111999300Y-92830800D01*
X112100558Y-92788857D01*
X112100560Y-92788855D01*
X112100561Y-92788855D01*
X112178055Y-92711361D01*
X112178055Y-92711360D01*
X112178057Y-92711358D01*
X112220000Y-92610100D01*
X112220000Y-92500500D01*
X112178057Y-92399242D01*
X112178055Y-92399240D01*
X112178055Y-92399239D01*
X112100561Y-92321745D01*
X112100559Y-92321744D01*
X112100558Y-92321743D01*
X112041244Y-92297174D01*
X111999301Y-92279800D01*
X111999300Y-92279800D01*
X111889700Y-92279800D01*
X111889698Y-92279800D01*
X111788440Y-92321744D01*
X111710944Y-92399240D01*
X111669000Y-92500498D01*
X111669000Y-92598469D01*
X111654648Y-92633117D01*
X111620000Y-92647469D01*
X111601249Y-92643739D01*
X111554804Y-92624501D01*
X111554801Y-92624500D01*
X111554800Y-92624500D01*
X111445200Y-92624500D01*
X111445198Y-92624500D01*
X111343940Y-92666444D01*
X111266444Y-92743940D01*
X111224500Y-92845198D01*
X104377814Y-92845198D01*
X104367561Y-92834945D01*
X104367559Y-92834944D01*
X104367558Y-92834943D01*
X104302102Y-92807830D01*
X104266301Y-92793000D01*
X104266300Y-92793000D01*
X104156700Y-92793000D01*
X104156698Y-92793000D01*
X104086249Y-92822182D01*
X104065447Y-92830799D01*
X104055440Y-92834944D01*
X103977944Y-92912440D01*
X103936000Y-93013698D01*
X100300500Y-93013698D01*
X100300500Y-91845198D01*
X103024500Y-91845198D01*
X103024500Y-91845200D01*
X103024500Y-91954800D01*
X103066443Y-92056058D01*
X103066444Y-92056059D01*
X103066445Y-92056061D01*
X103143939Y-92133555D01*
X103143940Y-92133555D01*
X103143942Y-92133557D01*
X103245200Y-92175500D01*
X103245202Y-92175500D01*
X103354798Y-92175500D01*
X103354800Y-92175500D01*
X103456058Y-92133557D01*
X103456060Y-92133555D01*
X103456061Y-92133555D01*
X103533555Y-92056061D01*
X103533555Y-92056060D01*
X103533557Y-92056058D01*
X103575500Y-91954800D01*
X103575500Y-91845200D01*
X103533557Y-91743942D01*
X103533555Y-91743940D01*
X103533555Y-91743939D01*
X103456061Y-91666445D01*
X103456059Y-91666444D01*
X103456058Y-91666443D01*
X103357562Y-91625644D01*
X103357561Y-91625643D01*
X103354803Y-91624501D01*
X103354801Y-91624500D01*
X103354800Y-91624500D01*
X103245200Y-91624500D01*
X103245198Y-91624500D01*
X103143940Y-91666444D01*
X103066444Y-91743940D01*
X103024500Y-91845198D01*
X100300500Y-91845198D01*
X100300500Y-91585198D01*
X106764500Y-91585198D01*
X106764500Y-91585200D01*
X106764500Y-91694800D01*
X106806443Y-91796058D01*
X106806444Y-91796059D01*
X106806445Y-91796061D01*
X106883939Y-91873555D01*
X106883940Y-91873555D01*
X106883942Y-91873557D01*
X106985200Y-91915500D01*
X106985202Y-91915500D01*
X107094798Y-91915500D01*
X107094800Y-91915500D01*
X107196058Y-91873557D01*
X107196060Y-91873555D01*
X107196061Y-91873555D01*
X107273555Y-91796061D01*
X107273555Y-91796060D01*
X107273557Y-91796058D01*
X107315500Y-91694800D01*
X107315500Y-91585200D01*
X107273557Y-91483942D01*
X107273555Y-91483940D01*
X107273555Y-91483939D01*
X107196061Y-91406445D01*
X107196059Y-91406444D01*
X107196058Y-91406443D01*
X107136744Y-91381874D01*
X107094801Y-91364500D01*
X107094800Y-91364500D01*
X106985200Y-91364500D01*
X106985198Y-91364500D01*
X106883940Y-91406444D01*
X106806444Y-91483940D01*
X106764500Y-91585198D01*
X100300500Y-91585198D01*
X100300500Y-90945198D01*
X103824500Y-90945198D01*
X103824500Y-90945200D01*
X103824500Y-91054800D01*
X103866443Y-91156058D01*
X103866444Y-91156059D01*
X103866445Y-91156061D01*
X103943939Y-91233555D01*
X103943940Y-91233555D01*
X103943942Y-91233557D01*
X104045200Y-91275500D01*
X104045202Y-91275500D01*
X104154798Y-91275500D01*
X104154800Y-91275500D01*
X104256058Y-91233557D01*
X104256060Y-91233555D01*
X104256061Y-91233555D01*
X104333555Y-91156061D01*
X104333555Y-91156060D01*
X104333557Y-91156058D01*
X104375500Y-91054800D01*
X104375500Y-90985198D01*
X105174500Y-90985198D01*
X105174500Y-90985200D01*
X105174500Y-91094800D01*
X105216443Y-91196058D01*
X105216444Y-91196059D01*
X105216445Y-91196061D01*
X105293939Y-91273555D01*
X105293940Y-91273555D01*
X105293942Y-91273557D01*
X105395200Y-91315500D01*
X105395202Y-91315500D01*
X105504798Y-91315500D01*
X105504800Y-91315500D01*
X105606058Y-91273557D01*
X105606060Y-91273555D01*
X105606061Y-91273555D01*
X105683555Y-91196061D01*
X105683555Y-91196060D01*
X105683557Y-91196058D01*
X105725500Y-91094800D01*
X105725500Y-91014198D01*
X107244500Y-91014198D01*
X107244500Y-91014200D01*
X107244500Y-91123800D01*
X107286443Y-91225058D01*
X107286444Y-91225059D01*
X107286445Y-91225061D01*
X107363939Y-91302555D01*
X107363940Y-91302555D01*
X107363942Y-91302557D01*
X107465200Y-91344500D01*
X107465202Y-91344500D01*
X107574798Y-91344500D01*
X107574800Y-91344500D01*
X107676058Y-91302557D01*
X107676060Y-91302555D01*
X107676061Y-91302555D01*
X107753555Y-91225061D01*
X107753555Y-91225060D01*
X107753557Y-91225058D01*
X107795500Y-91123800D01*
X107795500Y-91014200D01*
X107753557Y-90912942D01*
X107753555Y-90912940D01*
X107753555Y-90912939D01*
X107676061Y-90835445D01*
X107676059Y-90835444D01*
X107676058Y-90835443D01*
X107606047Y-90806443D01*
X107574801Y-90793500D01*
X107574800Y-90793500D01*
X107465200Y-90793500D01*
X107465198Y-90793500D01*
X107363940Y-90835444D01*
X107286444Y-90912940D01*
X107244500Y-91014198D01*
X105725500Y-91014198D01*
X105725500Y-90985200D01*
X105683557Y-90883942D01*
X105683555Y-90883940D01*
X105683555Y-90883939D01*
X105606061Y-90806445D01*
X105606059Y-90806444D01*
X105606058Y-90806443D01*
X105517255Y-90769659D01*
X105504801Y-90764500D01*
X105504800Y-90764500D01*
X105395200Y-90764500D01*
X105395198Y-90764500D01*
X105293940Y-90806444D01*
X105216444Y-90883940D01*
X105216443Y-90883941D01*
X105216443Y-90883942D01*
X105214305Y-90889103D01*
X105174500Y-90985198D01*
X104375500Y-90985198D01*
X104375500Y-90945200D01*
X104375111Y-90944261D01*
X104375051Y-90938624D01*
X104380471Y-90925131D01*
X104383310Y-90910871D01*
X104387260Y-90908232D01*
X104389031Y-90903824D01*
X104402403Y-90898116D01*
X104414495Y-90890040D01*
X104423376Y-90889166D01*
X104423524Y-90889103D01*
X104423621Y-90889142D01*
X104424048Y-90889100D01*
X104453598Y-90889100D01*
X104453600Y-90889100D01*
X104554858Y-90847157D01*
X104554860Y-90847155D01*
X104554861Y-90847155D01*
X104632355Y-90769661D01*
X104632355Y-90769660D01*
X104632357Y-90769658D01*
X104674300Y-90668400D01*
X104674300Y-90558800D01*
X104632357Y-90457542D01*
X104632355Y-90457540D01*
X104632355Y-90457539D01*
X104554861Y-90380045D01*
X104554859Y-90380044D01*
X104554858Y-90380043D01*
X104495544Y-90355474D01*
X104453601Y-90338100D01*
X104453600Y-90338100D01*
X104344000Y-90338100D01*
X104343998Y-90338100D01*
X104242740Y-90380044D01*
X104165244Y-90457540D01*
X104123300Y-90558798D01*
X104123300Y-90673226D01*
X104121363Y-90673226D01*
X104115490Y-90702729D01*
X104084305Y-90723560D01*
X104074752Y-90724500D01*
X104045198Y-90724500D01*
X103943940Y-90766444D01*
X103866444Y-90843940D01*
X103824500Y-90945198D01*
X100300500Y-90945198D01*
X100300500Y-89827198D01*
X104608300Y-89827198D01*
X104608300Y-89827200D01*
X104608300Y-89936800D01*
X104650243Y-90038058D01*
X104650244Y-90038059D01*
X104650245Y-90038061D01*
X104727739Y-90115555D01*
X104727740Y-90115555D01*
X104727742Y-90115557D01*
X104829000Y-90157500D01*
X104829002Y-90157500D01*
X104938598Y-90157500D01*
X104938600Y-90157500D01*
X105039858Y-90115557D01*
X105039860Y-90115555D01*
X105039861Y-90115555D01*
X105066718Y-90088698D01*
X105726800Y-90088698D01*
X105726800Y-90088700D01*
X105726800Y-90198300D01*
X105768743Y-90299558D01*
X105768744Y-90299559D01*
X105768745Y-90299561D01*
X105846239Y-90377055D01*
X105846240Y-90377055D01*
X105846242Y-90377057D01*
X105947500Y-90419000D01*
X105947502Y-90419000D01*
X106057098Y-90419000D01*
X106057100Y-90419000D01*
X106158358Y-90377057D01*
X106158360Y-90377055D01*
X106158361Y-90377055D01*
X106235855Y-90299561D01*
X106235855Y-90299560D01*
X106235857Y-90299558D01*
X106277800Y-90198300D01*
X106277800Y-90088700D01*
X106235857Y-89987442D01*
X106235855Y-89987440D01*
X106235855Y-89987439D01*
X106158361Y-89909945D01*
X106158359Y-89909944D01*
X106158358Y-89909943D01*
X106099044Y-89885374D01*
X106057101Y-89868000D01*
X106057100Y-89868000D01*
X105947500Y-89868000D01*
X105947498Y-89868000D01*
X105846240Y-89909944D01*
X105768744Y-89987440D01*
X105726800Y-90088698D01*
X105066718Y-90088698D01*
X105117355Y-90038061D01*
X105117355Y-90038060D01*
X105117357Y-90038058D01*
X105159300Y-89936800D01*
X105159300Y-89827200D01*
X105117357Y-89725942D01*
X105117355Y-89725940D01*
X105117355Y-89725939D01*
X105039861Y-89648445D01*
X105039859Y-89648444D01*
X105039858Y-89648443D01*
X104980544Y-89623874D01*
X104938601Y-89606500D01*
X104938600Y-89606500D01*
X104829000Y-89606500D01*
X104828998Y-89606500D01*
X104727740Y-89648444D01*
X104650244Y-89725940D01*
X104608300Y-89827198D01*
X100300500Y-89827198D01*
X100300500Y-89176898D01*
X106150700Y-89176898D01*
X106150700Y-89176900D01*
X106150700Y-89286500D01*
X106192643Y-89387758D01*
X106192644Y-89387759D01*
X106192645Y-89387761D01*
X106270139Y-89465255D01*
X106270140Y-89465255D01*
X106270142Y-89465257D01*
X106371400Y-89507200D01*
X106371402Y-89507200D01*
X106480998Y-89507200D01*
X106481000Y-89507200D01*
X106582258Y-89465257D01*
X106582260Y-89465255D01*
X106582261Y-89465255D01*
X106659755Y-89387761D01*
X106659755Y-89387760D01*
X106659757Y-89387758D01*
X106701700Y-89286500D01*
X106701700Y-89176900D01*
X106659757Y-89075642D01*
X106659755Y-89075640D01*
X106659755Y-89075639D01*
X106582261Y-88998145D01*
X106582259Y-88998144D01*
X106582258Y-88998143D01*
X106522944Y-88973574D01*
X106481001Y-88956200D01*
X106481000Y-88956200D01*
X106371400Y-88956200D01*
X106371398Y-88956200D01*
X106270140Y-88998144D01*
X106192644Y-89075640D01*
X106150700Y-89176898D01*
X100300500Y-89176898D01*
X100300500Y-88145198D01*
X106424500Y-88145198D01*
X106424500Y-88145200D01*
X106424500Y-88254800D01*
X106466443Y-88356058D01*
X106466444Y-88356059D01*
X106466445Y-88356061D01*
X106543939Y-88433555D01*
X106543940Y-88433555D01*
X106543942Y-88433557D01*
X106645200Y-88475500D01*
X106645202Y-88475500D01*
X106754798Y-88475500D01*
X106754800Y-88475500D01*
X106856058Y-88433557D01*
X106856060Y-88433555D01*
X106856061Y-88433555D01*
X106933555Y-88356061D01*
X106933555Y-88356060D01*
X106933557Y-88356058D01*
X106975500Y-88254800D01*
X106975500Y-88145200D01*
X106933557Y-88043942D01*
X106933555Y-88043940D01*
X106933555Y-88043939D01*
X106856061Y-87966445D01*
X106856059Y-87966444D01*
X106856058Y-87966443D01*
X106796744Y-87941874D01*
X106754801Y-87924500D01*
X106754800Y-87924500D01*
X106645200Y-87924500D01*
X106645198Y-87924500D01*
X106543940Y-87966444D01*
X106466444Y-88043940D01*
X106424500Y-88145198D01*
X100300500Y-88145198D01*
X100300500Y-87615198D01*
X107084500Y-87615198D01*
X107084500Y-87615200D01*
X107084500Y-87724800D01*
X107126443Y-87826058D01*
X107126444Y-87826059D01*
X107126445Y-87826061D01*
X107203939Y-87903555D01*
X107203940Y-87903555D01*
X107203942Y-87903557D01*
X107305200Y-87945500D01*
X107305202Y-87945500D01*
X107414798Y-87945500D01*
X107414800Y-87945500D01*
X107516058Y-87903557D01*
X107516060Y-87903555D01*
X107516061Y-87903555D01*
X107593555Y-87826061D01*
X107593555Y-87826060D01*
X107593557Y-87826058D01*
X107635500Y-87724800D01*
X107635500Y-87615200D01*
X107625111Y-87590121D01*
X107625111Y-87552621D01*
X107651626Y-87526103D01*
X107706058Y-87503557D01*
X107706059Y-87503555D01*
X107706061Y-87503555D01*
X107783555Y-87426061D01*
X107783555Y-87426060D01*
X107783557Y-87426058D01*
X107825500Y-87324800D01*
X107825500Y-87245198D01*
X111224500Y-87245198D01*
X111224500Y-87245200D01*
X111224500Y-87354800D01*
X111266443Y-87456058D01*
X111266444Y-87456059D01*
X111266445Y-87456061D01*
X111343939Y-87533555D01*
X111343940Y-87533555D01*
X111343942Y-87533557D01*
X111445200Y-87575500D01*
X111445202Y-87575500D01*
X111554798Y-87575500D01*
X111554800Y-87575500D01*
X111656058Y-87533557D01*
X111656060Y-87533555D01*
X111656061Y-87533555D01*
X111733555Y-87456061D01*
X111733555Y-87456060D01*
X111733557Y-87456058D01*
X111775500Y-87354800D01*
X111775500Y-87245200D01*
X111733557Y-87143942D01*
X111733555Y-87143940D01*
X111733555Y-87143939D01*
X111656061Y-87066445D01*
X111656059Y-87066444D01*
X111656058Y-87066443D01*
X111596744Y-87041874D01*
X111554801Y-87024500D01*
X111554800Y-87024500D01*
X111445200Y-87024500D01*
X111445198Y-87024500D01*
X111343940Y-87066444D01*
X111266444Y-87143940D01*
X111224500Y-87245198D01*
X107825500Y-87245198D01*
X107825500Y-87215200D01*
X107783557Y-87113942D01*
X107783555Y-87113940D01*
X107783555Y-87113939D01*
X107706061Y-87036445D01*
X107706059Y-87036444D01*
X107706058Y-87036443D01*
X107646744Y-87011874D01*
X107604801Y-86994500D01*
X107604800Y-86994500D01*
X107495200Y-86994500D01*
X107495198Y-86994500D01*
X107393940Y-87036444D01*
X107316444Y-87113940D01*
X107274500Y-87215198D01*
X107274500Y-87215200D01*
X107274500Y-87324800D01*
X107274500Y-87324801D01*
X107274501Y-87324804D01*
X107284886Y-87349876D01*
X107284886Y-87387379D01*
X107258369Y-87413897D01*
X107203939Y-87436444D01*
X107126445Y-87513939D01*
X107126444Y-87513940D01*
X107084500Y-87615198D01*
X100300500Y-87615198D01*
X100300500Y-85618698D01*
X106364500Y-85618698D01*
X106364500Y-85728301D01*
X106381874Y-85770244D01*
X106406443Y-85829558D01*
X106406444Y-85829559D01*
X106406445Y-85829561D01*
X106483939Y-85907055D01*
X106483940Y-85907055D01*
X106483942Y-85907057D01*
X106585200Y-85949000D01*
X106585202Y-85949000D01*
X106694798Y-85949000D01*
X106694800Y-85949000D01*
X106776404Y-85915198D01*
X107404500Y-85915198D01*
X107404500Y-85915200D01*
X107404500Y-86024800D01*
X107446443Y-86126058D01*
X107446444Y-86126059D01*
X107446445Y-86126061D01*
X107523939Y-86203555D01*
X107523940Y-86203555D01*
X107523942Y-86203557D01*
X107625200Y-86245500D01*
X107625202Y-86245500D01*
X107734798Y-86245500D01*
X107734800Y-86245500D01*
X107735529Y-86245198D01*
X111224500Y-86245198D01*
X111224500Y-86245200D01*
X111224500Y-86354800D01*
X111266443Y-86456058D01*
X111266444Y-86456059D01*
X111266445Y-86456061D01*
X111343939Y-86533555D01*
X111343940Y-86533555D01*
X111343942Y-86533557D01*
X111445200Y-86575500D01*
X111445202Y-86575500D01*
X111554798Y-86575500D01*
X111554800Y-86575500D01*
X111656058Y-86533557D01*
X111656060Y-86533555D01*
X111656061Y-86533555D01*
X111733555Y-86456061D01*
X111733555Y-86456060D01*
X111733557Y-86456058D01*
X111775500Y-86354800D01*
X111775500Y-86245200D01*
X111733557Y-86143942D01*
X111733555Y-86143940D01*
X111733555Y-86143939D01*
X111656061Y-86066445D01*
X111656059Y-86066444D01*
X111656058Y-86066443D01*
X111596744Y-86041874D01*
X111554801Y-86024500D01*
X111554800Y-86024500D01*
X111445200Y-86024500D01*
X111445198Y-86024500D01*
X111343940Y-86066444D01*
X111266444Y-86143940D01*
X111224500Y-86245198D01*
X107735529Y-86245198D01*
X107836058Y-86203557D01*
X107836060Y-86203555D01*
X107836061Y-86203555D01*
X107913555Y-86126061D01*
X107913555Y-86126060D01*
X107913557Y-86126058D01*
X107955500Y-86024800D01*
X107955500Y-85915200D01*
X107913557Y-85813942D01*
X107913555Y-85813940D01*
X107913555Y-85813939D01*
X107836061Y-85736445D01*
X107836059Y-85736444D01*
X107836058Y-85736443D01*
X107776744Y-85711874D01*
X107734801Y-85694500D01*
X107734800Y-85694500D01*
X107625200Y-85694500D01*
X107625198Y-85694500D01*
X107523940Y-85736444D01*
X107446444Y-85813940D01*
X107404500Y-85915198D01*
X106776404Y-85915198D01*
X106796058Y-85907057D01*
X106796060Y-85907055D01*
X106796061Y-85907055D01*
X106873555Y-85829561D01*
X106873555Y-85829560D01*
X106873557Y-85829558D01*
X106915500Y-85728300D01*
X106915500Y-85618700D01*
X106873557Y-85517442D01*
X106873555Y-85517440D01*
X106873555Y-85517439D01*
X106796060Y-85439944D01*
X106795618Y-85439761D01*
X106766403Y-85427659D01*
X106712178Y-85405198D01*
X109136600Y-85405198D01*
X109136600Y-85514801D01*
X109137694Y-85517442D01*
X109178543Y-85616058D01*
X109178544Y-85616059D01*
X109178545Y-85616061D01*
X109256039Y-85693555D01*
X109256040Y-85693555D01*
X109256042Y-85693557D01*
X109357300Y-85735500D01*
X109357302Y-85735500D01*
X109466898Y-85735500D01*
X109466900Y-85735500D01*
X109568158Y-85693557D01*
X109568160Y-85693555D01*
X109568161Y-85693555D01*
X109645655Y-85616061D01*
X109645655Y-85616060D01*
X109645657Y-85616058D01*
X109687600Y-85514800D01*
X109687600Y-85405200D01*
X109645657Y-85303942D01*
X109645655Y-85303940D01*
X109645655Y-85303939D01*
X109568161Y-85226445D01*
X109568159Y-85226444D01*
X109568158Y-85226443D01*
X109508844Y-85201874D01*
X109466901Y-85184500D01*
X109466900Y-85184500D01*
X109357300Y-85184500D01*
X109357298Y-85184500D01*
X109256040Y-85226444D01*
X109178544Y-85303940D01*
X109136600Y-85405198D01*
X106712178Y-85405198D01*
X106694801Y-85398000D01*
X106694800Y-85398000D01*
X106585200Y-85398000D01*
X106585198Y-85398000D01*
X106501312Y-85432748D01*
X106484382Y-85439761D01*
X106483940Y-85439944D01*
X106406444Y-85517440D01*
X106364500Y-85618698D01*
X100300500Y-85618698D01*
X100300500Y-84823398D01*
X101903800Y-84823398D01*
X101903800Y-84933001D01*
X101916616Y-84963940D01*
X101945743Y-85034258D01*
X101945744Y-85034259D01*
X101945745Y-85034261D01*
X102023239Y-85111755D01*
X102023240Y-85111755D01*
X102023242Y-85111757D01*
X102124500Y-85153700D01*
X102124502Y-85153700D01*
X102234098Y-85153700D01*
X102234100Y-85153700D01*
X102335358Y-85111757D01*
X102335360Y-85111755D01*
X102335361Y-85111755D01*
X102381917Y-85065198D01*
X109804500Y-85065198D01*
X109804500Y-85065200D01*
X109804500Y-85174800D01*
X109846443Y-85276058D01*
X109846444Y-85276059D01*
X109846445Y-85276061D01*
X109923939Y-85353555D01*
X109923940Y-85353555D01*
X109923942Y-85353557D01*
X110025200Y-85395500D01*
X110025202Y-85395500D01*
X110134798Y-85395500D01*
X110134800Y-85395500D01*
X110236058Y-85353557D01*
X110236060Y-85353555D01*
X110236061Y-85353555D01*
X110313555Y-85276061D01*
X110313555Y-85276060D01*
X110313557Y-85276058D01*
X110333092Y-85228898D01*
X110586400Y-85228898D01*
X110586400Y-85228900D01*
X110586400Y-85338500D01*
X110628343Y-85439758D01*
X110628344Y-85439759D01*
X110628345Y-85439761D01*
X110705839Y-85517255D01*
X110705840Y-85517255D01*
X110705842Y-85517257D01*
X110807100Y-85559200D01*
X110807102Y-85559200D01*
X110916698Y-85559200D01*
X110916700Y-85559200D01*
X111017958Y-85517257D01*
X111017960Y-85517255D01*
X111017961Y-85517255D01*
X111095455Y-85439761D01*
X111095455Y-85439760D01*
X111095457Y-85439758D01*
X111137400Y-85338500D01*
X111137400Y-85228900D01*
X111095457Y-85127642D01*
X111095455Y-85127640D01*
X111095455Y-85127639D01*
X111017961Y-85050145D01*
X111017959Y-85050144D01*
X111017958Y-85050143D01*
X110958644Y-85025574D01*
X110916701Y-85008200D01*
X110916700Y-85008200D01*
X110807100Y-85008200D01*
X110807098Y-85008200D01*
X110705840Y-85050144D01*
X110628344Y-85127640D01*
X110586400Y-85228898D01*
X110333092Y-85228898D01*
X110355500Y-85174800D01*
X110355500Y-85065200D01*
X110313557Y-84963942D01*
X110313555Y-84963940D01*
X110313555Y-84963939D01*
X110236061Y-84886445D01*
X110236059Y-84886444D01*
X110236058Y-84886443D01*
X110176744Y-84861874D01*
X110134801Y-84844500D01*
X110134800Y-84844500D01*
X110025200Y-84844500D01*
X110025198Y-84844500D01*
X109923940Y-84886444D01*
X109846444Y-84963940D01*
X109804500Y-85065198D01*
X102381917Y-85065198D01*
X102412855Y-85034260D01*
X102412857Y-85034258D01*
X102454800Y-84933000D01*
X102454800Y-84823400D01*
X102412857Y-84722142D01*
X102412855Y-84722140D01*
X102412855Y-84722139D01*
X102335361Y-84644645D01*
X102335359Y-84644644D01*
X102335358Y-84644643D01*
X102276044Y-84620074D01*
X102234101Y-84602700D01*
X102234100Y-84602700D01*
X102124500Y-84602700D01*
X102124498Y-84602700D01*
X102023240Y-84644644D01*
X101945744Y-84722140D01*
X101903800Y-84823398D01*
X100300500Y-84823398D01*
X100300500Y-83845198D01*
X104824500Y-83845198D01*
X104824500Y-83845200D01*
X104824500Y-83954800D01*
X104866443Y-84056058D01*
X104866444Y-84056059D01*
X104866445Y-84056061D01*
X104943939Y-84133555D01*
X104943940Y-84133555D01*
X104943942Y-84133557D01*
X105045200Y-84175500D01*
X105045202Y-84175500D01*
X105154798Y-84175500D01*
X105154800Y-84175500D01*
X105256058Y-84133557D01*
X105256060Y-84133555D01*
X105256061Y-84133555D01*
X105333555Y-84056061D01*
X105333555Y-84056060D01*
X105333557Y-84056058D01*
X105375500Y-83954800D01*
X105375500Y-83845200D01*
X105333557Y-83743942D01*
X105333555Y-83743940D01*
X105333555Y-83743939D01*
X105256061Y-83666445D01*
X105256059Y-83666444D01*
X105256058Y-83666443D01*
X105196744Y-83641874D01*
X105154801Y-83624500D01*
X105154800Y-83624500D01*
X105045200Y-83624500D01*
X105045198Y-83624500D01*
X104943940Y-83666444D01*
X104866444Y-83743940D01*
X104824500Y-83845198D01*
X100300500Y-83845198D01*
X100300500Y-82949500D01*
X100314852Y-82914852D01*
X100349500Y-82900500D01*
X113250500Y-82900500D01*
X113285148Y-82914852D01*
G37*
%TD.AperFunction*%
%TD*%
M02*
